<svg width="120" height="120" viewBox="0 0 120 120" fill="none" xmlns="http://www.w3.org/2000/svg">
<g clip-path="url(#clip0_164_17163)">
<path d="M51.0194 119.924C50.2016 119.694 50.0083 119.471 46.0434 114.122C44.1593 111.578 42.5444 109.497 42.4615 109.497C42.3787 109.497 42.3028 111.794 42.3028 114.602V119.704H39.1626V98.0174H40.1978C41.0881 98.0174 41.2986 98.0996 41.7679 98.638L42.3063 99.2586V103.205C42.3063 105.379 42.3822 107.155 42.4719 107.155C42.5616 107.155 44.2525 105.262 46.2401 102.903C49.8669 98.6208 50.7261 97.8494 51.6026 98.1271C52.4791 98.4048 53.3901 98.9397 53.3901 99.1557C53.3901 99.2791 51.6647 101.354 49.5942 103.767L45.7984 108.153L49.8703 113.639C52.1133 116.659 53.9457 119.214 53.9457 119.313C53.9457 119.773 51.9649 120.181 51.0229 119.917L51.0194 119.924ZM0 109.068V98.4391L0.507261 98.2128C0.955597 98.0372 1.44654 97.9989 1.91696 98.1028C2.38738 98.2067 2.81579 98.448 3.14709 98.7957C3.4335 99.1386 5.42804 102.324 7.58131 105.89C9.73458 109.456 11.7222 112.71 11.9845 113.118L12.471 113.865L12.5607 105.996L12.6539 98.1305L13.2751 98.0619C13.6722 98.0332 14.0706 98.0978 14.438 98.2505C15.5491 98.7785 15.518 98.4528 15.518 109.565V119.725H12.6022L7.93674 112.181L3.23336 104.659L3.18505 112.181L3.13674 119.704H0V109.068ZM18.3684 119.32C18.4339 119.118 20.0937 114.331 22.0365 108.691L25.5839 98.4288L26.3189 98.1991C26.7192 98.065 27.1452 98.0241 27.564 98.0794C27.9828 98.1347 28.3832 98.2847 28.7344 98.518C29.0485 98.7545 30.0595 101.436 32.689 109C34.6318 114.592 36.2226 119.286 36.2226 119.43C36.2226 119.574 35.7705 119.697 34.58 119.697H32.9237L31.9574 116.92L30.9912 114.177L27.2161 114.235L23.441 114.294L22.5127 117.002L21.5845 119.714H19.9178C18.4063 119.714 18.2614 119.68 18.3684 119.341V119.32ZM29.9249 111.002C29.9249 110.803 27.3576 103.058 27.2506 102.938C27.1989 102.876 26.0083 106.281 24.8351 109.86L24.4003 111.187H27.1609C28.6792 111.187 29.9215 111.105 29.9215 111.002H29.9249ZM57.2825 108.859V98.0174H58.2901C59.0873 98.0174 59.4047 98.1236 59.8154 98.5282L60.333 99.0425L60.4227 102.941L60.5159 106.84L64.9053 106.898L69.2912 106.953V98.0174H70.3264C71.2167 98.0174 71.4272 98.0996 71.8965 98.638L72.4348 99.2586V119.704H69.2946V110.128L64.9087 110.186L60.5193 110.241L60.471 114.972L60.4193 119.704H57.2825V108.859ZM76.2099 119.437C76.1616 119.293 76.1444 114.482 76.172 108.753L76.2203 98.3362L82.2694 98.2779L88.3186 98.2231V98.9603C88.3186 99.9477 88.0046 100.675 87.4594 100.97C87.1764 101.117 85.6063 101.206 83.2288 101.206H79.4329V106.946H86.086V110.135H79.4329V116.728H83.4151C88.3911 116.728 88.6706 116.841 88.6706 118.871V119.704H82.473C77.6868 119.704 76.2617 119.642 76.1892 119.437H76.2099ZM92.1973 108.962V98.2231L98.2464 98.2779L104.299 98.3362L104.278 99.2757C104.278 100.02 104.158 100.304 103.761 100.712C103.271 101.196 103.178 101.206 99.3921 101.206H95.5065V106.946H102.173L102.118 108.489L102.063 110.028L98.7848 110.087L95.5065 110.145V116.728H103.664L104.202 117.349C104.395 117.544 104.543 117.777 104.636 118.034C104.73 118.291 104.766 118.565 104.744 118.837V119.704H92.18V108.962H92.1973ZM108.212 119.564C108.143 119.485 108.085 114.65 108.085 108.818V98.2197L108.571 98.0071C109.223 97.7191 110.231 97.9659 110.828 98.5557L111.318 99.0425L111.411 107.83L111.504 116.622L115.331 116.728C118.958 116.827 119.182 116.858 119.562 117.297C119.866 117.688 120.016 118.176 119.983 118.669L120 119.588L114.168 119.642C110.962 119.673 108.281 119.642 108.212 119.553V119.564ZM54.2183 88.5266C45.5155 87.0214 38.3448 81.1 34.7249 72.3944C33.1209 68.5105 32.3119 64.348 32.345 60.1499C32.3782 55.9518 33.253 51.8024 34.9182 47.9441C37.2393 42.5717 41.296 38.1211 46.4472 35.2954C48.2519 34.3011 52.1616 32.7513 53.6661 32.4324C54.2907 32.3022 54.163 32.4324 52.8345 33.1971C49.7288 35.0074 46.5369 39.3688 44.9944 43.8639C43.4105 48.4824 43.0171 53.8895 43.9592 57.8291C44.4842 60.2119 45.6261 62.4173 47.2719 64.2271C48.5832 65.7426 49.1457 66.2227 50.6019 67.049C52.5032 68.129 54.308 68.6674 56.0506 68.6708C57.1859 68.6708 58.549 68.3485 58.5421 68.081C58.2271 67.741 57.8617 67.4508 57.4585 67.2204C55.219 65.7461 53.0278 62.9962 51.7475 60.0475C49.86 55.717 50.3051 51.1328 53.0174 46.936C53.7628 45.7771 54.17 45.4274 53.78 46.2777C53.29 47.3475 52.9553 50.0699 53.0588 52.1785C53.1951 55.6701 54.48 59.0209 56.7166 61.7173C61.0818 67.2033 67.3725 68.7085 72.6556 65.5506C74.3569 64.522 76.2237 62.4271 76.9553 60.699C77.4522 59.5229 77.4936 59.2349 77.4936 57.0851C77.4936 54.9353 77.4556 54.6541 76.9415 53.4678C75.2575 49.5967 71.0269 46.9189 66.5892 46.9223C63.028 46.9223 59.5462 48.6024 57.9968 51.0608C57.3585 52.0894 57.2687 51.8871 57.1272 49.2024C56.8822 44.5873 58.2867 40.6306 61.3579 37.3115C63.0209 35.503 65.1477 34.1779 67.5106 33.4782C69.1911 33.0119 72.2623 33.005 73.9773 33.4782C76.9415 34.2771 80.2853 36.7767 81.8761 39.3825C83.0666 41.33 83.108 41.5083 82.052 40.1711C79.6365 37.1092 75.4128 35.3229 72.0449 35.9263C69.2843 36.4201 67.2138 37.6167 65.309 39.8522C64.1978 41.1483 62.6312 43.8741 62.8486 44.1279C63.3357 44.1357 63.822 44.0873 64.2979 43.9839C66.8273 43.569 70.9061 44.0867 73.6805 45.1736C75.9968 46.0223 78.0516 47.4543 79.6434 49.3293C81.4861 51.4277 82.2349 52.9637 82.7042 55.6073C83.8775 62.1802 79.3639 68.2593 71.9586 70.0834C68.8789 70.7946 65.6647 70.6846 62.6416 69.7646L61.3337 69.3702L59.9534 70.1691C58.2633 71.14 56.3675 71.7031 54.4185 71.8133C52.4694 71.9235 50.5216 71.5776 48.7316 70.8035C44.8564 69.1748 41.8646 65.4238 40.429 60.3904C39.9183 58.6006 39.8424 58.0108 39.7631 55.2473C39.6423 50.9785 40.015 48.6607 41.6472 43.4936C41.7196 43.2604 41.2434 43.7164 40.5843 44.505C37.8789 47.752 36.3951 52.9329 36.3951 59.1286C36.3376 61.6857 36.6799 64.2362 37.4096 66.689C39.7665 74.7637 46.5403 81.3537 54.2252 83.0475C61.1267 84.5664 69.3774 82.6669 75.3507 78.1958C78.132 76.1146 81.3895 72.5521 82.8733 69.9669C83.4876 68.8971 83.5911 68.8765 83.2184 69.9017C82.1832 72.7476 79.6572 76.8655 77.2797 79.5776C75.0367 82.1389 73.087 83.7675 70.4782 85.259C66.2338 87.69 63.4007 88.458 58.2867 88.5609C56.3543 88.5986 54.5254 88.5883 54.2217 88.5335L54.2183 88.5266ZM58.0969 79.9102C56.972 79.4267 55.6814 78.0964 55.0361 76.7112C54.8946 76.4232 55.0706 76.4609 55.9264 76.9169C57.4482 77.7261 60.1639 77.8495 61.8686 77.1878C63.1808 76.6943 64.3282 75.8464 65.1813 74.7397L65.7645 73.975V74.6848C65.7645 75.6448 64.9605 77.4278 64.1737 78.2335C63.6622 78.7996 63.0396 79.2556 62.344 79.5734C61.6485 79.8913 60.8948 80.0642 60.1294 80.0816C59.447 80.1328 58.7608 80.0749 58.0969 79.9102ZM32.3922 71.9247C30.7407 68.4823 29.6305 64.8085 29.1002 61.0316C28.7551 58.436 28.7551 53.7489 29.1002 51.3831C30.3528 43.1164 34.8457 35.3709 41.2814 30.3821C43.5175 28.6677 45.3015 27.6391 50.526 25.2012C57.6276 21.8651 60.2329 20.2296 62.1136 17.8843C63.8148 15.7722 64.3704 13.7698 63.8907 11.5137C63.787 11.0818 63.7075 10.6446 63.6526 10.2039C63.7838 10.2039 65.2779 13.0738 65.7231 14.1367C66.1682 15.1996 66.2338 15.7036 66.2372 17.2226C66.2407 18.7415 66.1717 19.1804 65.7472 20.113C64.4843 22.88 61.6236 24.7452 53.2244 28.2734C45.2877 31.6061 41.0709 34.3662 37.3234 38.6796C33.5758 42.993 31.602 47.2755 30.5806 53.3649C30.0768 56.3685 30.1147 62.0739 30.6565 64.9952C31.1029 67.4368 31.7965 69.8274 32.727 72.1304C33.462 73.807 33.248 73.6733 32.3991 71.9247H32.3922ZM72.2312 43.0615C72.2312 42.5644 73.1284 40.418 73.5839 39.8145C73.8865 39.372 74.3008 39.0162 74.7853 38.7827C75.2697 38.5493 75.8074 38.4463 76.3445 38.4842C77.573 38.4842 77.749 38.6556 76.9794 39.0979C76.5481 39.3448 76.203 39.8454 75.7372 40.9117C74.9987 42.5918 74.3086 43.161 73.0145 43.161C72.748 43.1926 72.4778 43.1584 72.2278 43.0615H72.2312ZM64.9225 30.4849C65.6127 27.3991 67.2242 25.9007 69.5293 26.271L70.4748 26.4253L69.8812 26.6619C69.0945 26.9739 68.9116 27.2105 68.2594 28.7637C67.6313 30.2518 67.0896 30.7112 65.692 30.9478L64.7879 31.0987L64.9225 30.4849ZM42.7652 26.8265C42.8653 26.7099 44.6114 25.2561 46.6439 23.5932C51.292 19.7907 53.4246 17.8294 55.4467 15.515C59.0528 11.4006 60.2364 7.66666 58.9216 4.63908L58.5214 3.72018L59.4738 4.78309C60.1346 5.5636 60.6753 6.43714 61.0784 7.37522C61.7133 8.853 61.734 8.97301 61.6546 10.7765C61.5891 12.2817 61.4683 12.8886 61.0508 13.8624C59.8706 16.6054 57.3792 18.8889 53.114 21.1519C51.7924 21.8376 48.8834 23.4594 46.6473 24.7281C44.4112 25.9967 42.6651 26.943 42.7652 26.8265ZM49.6909 16.8317C52.7966 12.6486 54.0181 10.0942 54.4805 6.7889C54.7121 4.93663 54.4626 3.05628 53.7559 1.32692L53.221 0L53.7766 0.342874C54.8613 1.07161 55.7271 2.07877 56.2818 3.2573C57.9589 7.06663 55.8401 11.8943 50.4328 16.5882L48.8627 17.9597L49.6909 16.8317Z" fill="#044F92"/>
</g>
<defs>
<clipPath id="clip0_164_17163">
<rect width="120" height="120" fill="white"/>
</clipPath>
</defs>
</svg>
