<svg width="22" height="24" viewBox="0 0 22 24" fill="none" xmlns="http://www.w3.org/2000/svg">
<path d="M2.03647 19.9921L1.18078 20.8528H0.345775C0.248724 20.8528 0.162111 20.8911 0.0998535 20.9539L1.54813 19.5007C1.68327 19.3613 1.90154 19.3613 2.03668 19.5007C2.17143 19.6366 2.17141 19.8562 2.03647 19.9921Z" fill="#61C7E8"/>
<path d="M17.1453 21.1142C17.1627 21.17 17.1627 21.2326 17.1453 21.2884C17.1453 21.3057 17.1383 21.3197 17.1314 21.3372C17.114 21.379 17.0898 21.4174 17.0587 21.4489C16.993 21.5115 16.9096 21.55 16.8128 21.55L1.1808 21.5498L0.834351 21.2013L1.1808 20.8528H15.9778L15.1187 19.9921C14.9835 19.8562 14.9835 19.6366 15.1187 19.5007C15.2538 19.3613 15.4755 19.3613 15.6107 19.5007L17.059 20.9539C17.0901 20.9852 17.1144 21.0237 17.1317 21.0654C17.1386 21.0829 17.1456 21.0969 17.1456 21.1142L17.1453 21.1142Z" fill="#61C7E8"/>
<path d="M1.04907 16.9907V11.8523H7.13279C7.32341 11.8523 7.47924 11.6955 7.47924 11.5037V8.6591C7.47924 8.46398 7.32341 8.3105 7.13279 8.3105C6.93868 8.3105 6.78633 8.46398 6.78633 8.6591V11.1551H1.04907V4.82803H3.34259V7.48437C3.34259 7.67968 3.49494 7.83297 3.68904 7.83297C3.87967 7.83297 4.0355 7.67968 4.0355 7.48437V4.47943C4.0355 4.28781 3.87967 4.13083 3.68904 4.13083H1.04907V2.332C1.04907 2.14038 1.2049 1.9834 1.39553 1.9834H6.66854V4.66075C6.66854 4.85237 6.82436 5.00935 7.01499 5.00935H9.85234V7.71449C9.85234 7.90961 10.0082 8.06309 10.1988 8.06309C10.3929 8.06309 10.5452 7.90961 10.5452 7.71449V4.66075C10.5452 4.46563 10.3929 4.31215 10.1988 4.31215H7.36145L7.36164 1.9834H15.9675C16.1582 1.9834 16.314 2.14038 16.314 2.332V7.58192H14.0205V5.14172C14.0205 4.94641 13.8646 4.79312 13.674 4.79312C13.4834 4.79312 13.3276 4.94641 13.3276 5.14172V7.93052C13.3276 8.12584 13.4834 8.27912 13.674 8.27912H16.314V16.9907C16.314 17.186 16.1582 17.3393 15.9675 17.3393H14.0205V15.1883C14.0205 14.9965 13.8646 14.8397 13.674 14.8397C13.4834 14.8397 13.3276 14.9965 13.3276 15.1883V17.3393H3.92482V15.1883C3.92482 14.9965 3.769 14.8397 3.57837 14.8397C3.38426 14.8397 3.23192 14.9965 3.23192 15.1883V17.3393H1.39562C1.20518 17.3393 1.04917 17.186 1.04917 16.9907L1.04907 16.9907Z" fill="#61C7E8"/>
<path d="M21.8986 15.2164C22.0338 15.3524 22.0338 15.572 21.8986 15.708L20.4503 17.1651C20.3846 17.2347 20.2945 17.2662 20.2079 17.2662C20.1768 17.2662 20.1489 17.2627 20.1213 17.2522C20.1039 17.2522 20.0867 17.2452 20.0728 17.2382C20.0312 17.2207 19.9931 17.1964 19.962 17.1651L18.5137 15.708C18.3786 15.572 18.3786 15.3524 18.5137 15.2164C18.6489 15.0804 18.8671 15.0804 19.0023 15.2164L19.8614 16.0774V1.18868L19.0023 2.05316C18.8671 2.18914 18.6489 2.18914 18.5137 2.05316C18.3786 1.91718 18.3786 1.69406 18.5137 1.55808L19.962 0.101029C19.9931 0.0697089 20.0312 0.0451978 20.0728 0.0278823C20.0867 0.0208794 20.1039 0.0138761 20.1213 0.0138761C20.2355 -0.0209452 20.3602 0.0103745 20.4503 0.101026L21.8986 1.55808C22.0338 1.69406 22.0338 1.91718 21.8986 2.05316C21.8329 2.1193 21.7428 2.15431 21.6527 2.15431C21.5661 2.15431 21.476 2.11949 21.4103 2.05316L20.5546 1.18868V16.0774L21.4103 15.2164C21.5452 15.0806 21.7635 15.0806 21.8986 15.2164Z" fill="#61C7E8"/>
<path d="M0.834305 21.2017L1.18076 21.5502H0.345954C0.248903 21.5502 0.16229 21.5119 0.100032 21.4491C0.0689055 21.4178 0.0445449 21.3793 0.0273361 21.3374C0.0203763 21.3199 0.0134161 21.3061 0.0134161 21.2886C-0.00398375 21.2328 -0.00398375 21.1702 0.0134161 21.1144C0.0134161 21.0969 0.0203758 21.0831 0.0273361 21.0656C0.0447359 21.0238 0.0689031 20.9855 0.100032 20.9541C0.162478 20.8913 0.249091 20.853 0.345954 20.853H1.18096L0.834305 21.2017Z" fill="#61C7E8"/>
<path d="M2.0365 22.9059C1.97076 22.972 1.88067 23.007 1.79057 23.007C1.70396 23.007 1.61387 22.9722 1.54814 22.9059L0.0996661 21.4493C0.0685393 21.418 0.0441787 21.3795 0.0269699 21.3377C0.0200101 21.3202 0.0130499 21.3064 0.0130499 21.2889C-0.00434996 21.2331 -0.00434996 21.1704 0.0130499 21.1146C0.0130499 21.0971 0.0200096 21.0833 0.0269699 21.0658C0.0443697 21.024 0.0685369 20.9857 0.0996661 20.9544C0.162112 20.8916 0.248725 20.8533 0.345588 20.8533H1.18059L0.834136 21.2018L2.03628 22.4109C2.17142 22.5469 2.17144 22.7699 2.0365 22.9059Z" fill="#61C7E8"/>
<path d="M16.8127 21.5505C16.9098 21.5505 16.9929 21.5122 17.0586 21.4493L15.6104 22.9059C15.5411 22.972 15.4545 23.007 15.3644 23.007C15.2743 23.007 15.1877 22.9722 15.1185 22.9059C14.9834 22.77 14.9834 22.5469 15.1185 22.411L15.9777 21.5503L16.8127 21.5505Z" fill="#61C7E8"/>
</svg>
