<svg width="22" height="15" viewBox="0 0 22 15" fill="none" xmlns="http://www.w3.org/2000/svg">
<path d="M21.8096 3.72989C21.6197 4.06526 21.3129 4.30332 20.9429 4.40398L12.6361 6.76167C12.5094 6.79517 12.3827 6.81202 12.2561 6.81202H1.49251C0.695831 6.81202 0.0391509 6.21501 0.00253109 5.45032C-0.020907 5.05132 0.119162 4.67236 0.39242 4.38375C0.662516 4.09873 1.0392 3.93441 1.42911 3.93441H12.066L20.1895 1.62707C20.9561 1.41915 21.7429 1.87523 21.9496 2.63993C22.0497 3.00899 21.9996 3.39787 21.8095 3.72988L21.8096 3.72989Z" fill="#61C7E8"/>
<path d="M16.3995 12.7123L17.1962 14.443C17.2761 14.6107 17.2029 14.8119 17.0362 14.889C16.9895 14.9092 16.9428 14.9192 16.8961 14.9192C16.7694 14.9192 16.6495 14.8488 16.5927 14.7279L15.7728 12.9501C15.7529 12.9571 15.7361 12.9638 15.7162 12.9705C15.0629 13.1886 14.3695 13.2992 13.6527 13.2992H5.52923L4.94922 14.5738C4.89249 14.6979 4.76916 14.7717 4.64583 14.7717C4.59914 14.7717 4.55245 14.7616 4.50576 14.7382C4.33909 14.6611 4.2658 14.463 4.34244 14.2953L4.79576 13.2992H4.58239C1.55557 13.0578 1.10575 9.1201 1.05237 7.43967C1.19579 7.4698 1.34236 7.48328 1.49248 7.48328H12.256C12.4395 7.48328 12.6227 7.45988 12.816 7.40953L21.1161 5.05158C21.2028 5.02818 21.2861 5.00123 21.3661 4.96436C21.1827 9.78079 18.4527 11.8402 16.3994 12.7122L16.3995 12.7123Z" fill="#61C7E8"/>
<path d="M6.63595 2.2872C6.5727 2.351 6.48602 2.38449 6.40268 2.38449C6.316 2.38449 6.22932 2.351 6.16607 2.2872L5.78604 1.90494L4.99936 1.91167V4.26884H2.35925V1.09365C2.35925 0.741701 2.64255 0.456543 2.99265 0.456543H4.36601C4.71609 0.456543 4.9994 0.741505 4.9994 1.09365V1.24464H5.80613C5.97615 1.24464 6.13613 1.31162 6.25945 1.43231L6.63614 1.8112C6.76598 1.94517 6.76597 2.15641 6.63595 2.2872Z" fill="#61C7E8"/>
</svg>
