<svg width="22" height="19" viewBox="0 0 22 19" fill="none" xmlns="http://www.w3.org/2000/svg">
<path d="M22 13.0283V11.4742C22 10.0413 20.8666 8.87598 19.4701 8.87598H2.53007C1.1335 8.87598 0.00012207 10.0413 0.00012207 11.4742V13.0283H22Z" fill="#61C7E8"/>
<path d="M0 13.7156V16.3165C0 16.5084 0.149924 16.6593 0.333333 16.6593H2.51005V18.0204C2.51005 18.3152 2.7433 18.5552 3.03014 18.5552H4.54019C4.82683 18.5552 5.06029 18.3152 5.06029 18.0204V16.6593H16.9403V18.0204C16.9403 18.3152 17.1735 18.5552 17.4604 18.5552H18.9704C19.2571 18.5552 19.4905 18.3152 19.4905 18.0204V16.6593H21.6667C21.8501 16.6593 22 16.5084 22 16.3165V13.7156H0Z" fill="#61C7E8"/>
<path d="M18.53 0.444092H3.46997C2.5933 0.444092 1.8833 1.1778 1.8833 2.07608V8.25774C2.08996 8.21316 2.30666 8.18905 2.52987 8.18905H4.10316C4.08642 8.10334 4.07991 8.01418 4.07991 7.92503C4.07991 7.02675 4.78991 6.29304 5.66657 6.29304H7.86319C8.73986 6.29304 9.44986 7.02675 9.44986 7.92503C9.44986 8.01418 9.44316 8.10334 9.42661 8.18905H12.5732C12.5564 8.10334 12.5499 8.01418 12.5499 7.92503C12.5499 7.02675 13.2599 6.29304 14.1366 6.29304L16.3332 6.29323C17.2099 6.29323 17.9199 7.02694 17.9199 7.92522C17.9199 8.01438 17.9132 8.10353 17.8966 8.18925H19.4699C19.6933 8.18925 19.9098 8.21335 20.1165 8.25793V2.07627C20.1165 1.17799 19.4065 0.444283 18.5298 0.444283L18.53 0.444092Z" fill="#61C7E8"/>
</svg>
