<svg width="31" height="31" viewBox="0 0 31 31" fill="none" xmlns="http://www.w3.org/2000/svg">
<path d="M15.4994 23.593L9.92492 26.8034C9.67866 26.9532 9.4212 27.0174 9.15255 26.996C8.8839 26.9746 8.64883 26.889 8.44735 26.7392C8.24586 26.5893 8.08914 26.4019 7.97721 26.1767C7.86527 25.9515 7.84288 25.7003 7.91004 25.4229L9.38762 19.3552L4.45117 15.278C4.22729 15.0854 4.08759 14.8658 4.03207 14.6193C3.97655 14.3727 3.99312 14.1321 4.08177 13.8976C4.17132 13.6621 4.30565 13.4695 4.48475 13.3197C4.66385 13.1699 4.91011 13.0736 5.22354 13.0308L11.7383 12.485L14.2569 6.7705C14.3689 6.51366 14.5426 6.32104 14.7781 6.19262C15.0136 6.06421 15.2541 6 15.4994 6C15.7457 6 15.9861 6.06421 16.2208 6.19262C16.4554 6.32104 16.6291 6.51366 16.7419 6.7705L19.2605 12.485L25.7753 13.0308C26.0887 13.0736 26.335 13.1699 26.5141 13.3197C26.6932 13.4695 26.8275 13.6621 26.9171 13.8976C27.0066 14.133 27.0236 14.374 26.9681 14.6206C26.9126 14.8671 26.7725 15.0863 26.5477 15.278L21.6112 19.3552L23.0888 25.4229C23.156 25.7011 23.1336 25.9528 23.0216 26.178C22.9097 26.4031 22.753 26.5902 22.5515 26.7392C22.35 26.889 22.115 26.9746 21.8463 26.996C21.5777 27.0174 21.3202 26.9532 21.0739 26.8034L15.4994 23.593Z" fill="#61c7e8"/>
</svg>
