<svg width="38" height="38" viewBox="0 0 38 38" fill="none" xmlns="http://www.w3.org/2000/svg">
<path d="M18.5 2C9.38817 2 2 9.38817 2 18.5C2 27.6118 9.38817 35 18.5 35C27.6118 35 35 27.6118 35 18.5C35 9.38817 27.6118 2 18.5 2ZM26.4296 14.4376C26.4406 14.6107 26.4406 14.7912 26.4406 14.968C26.4406 20.3747 22.323 26.6027 14.7985 26.6027C12.4782 26.6027 10.3273 25.9287 8.51529 24.7685C8.84676 24.8054 9.16351 24.8201 9.50234 24.8201C11.4175 24.8201 13.178 24.1719 14.5813 23.0743C12.7839 23.0375 11.2739 21.8589 10.7583 20.2384C11.3881 20.3305 11.9552 20.3305 12.6035 20.1647C11.678 19.9767 10.8462 19.4741 10.2493 18.7423C9.65246 18.0105 9.32735 17.0946 9.32924 16.1502V16.0987C9.87065 16.4044 10.5078 16.5922 11.1744 16.618C10.614 16.2445 10.1545 15.7385 9.83644 15.1449C9.51842 14.5512 9.35179 13.8883 9.35134 13.2148C9.35134 12.4525 9.55022 11.7564 9.90748 11.1523C10.9347 12.4169 12.2165 13.4511 13.6696 14.1878C15.1227 14.9245 16.7145 15.3472 18.3416 15.4283C17.7634 12.6477 19.8406 10.3973 22.3377 10.3973C23.5163 10.3973 24.577 10.8908 25.3247 11.6864C26.2491 11.5133 27.133 11.1671 27.9212 10.703C27.6155 11.6496 26.9747 12.4488 26.1239 12.9533C26.9489 12.865 27.7444 12.6366 28.481 12.3162C27.9249 13.1338 27.2288 13.8594 26.4296 14.4376Z" fill="#61C7E8"/>
</svg>
