<svg width="39" height="27" viewBox="0 0 39 27" fill="none" xmlns="http://www.w3.org/2000/svg">
<path d="M38.2066 4.24501C37.9847 3.4307 37.5509 2.68807 36.9485 2.09104C36.3461 1.49401 35.5961 1.0634 34.7732 0.842077C31.7216 0.0135027 19.5135 1.46378e-05 19.5135 1.46378e-05C19.5135 1.46378e-05 7.30733 -0.0134742 4.25384 0.778489C3.43138 1.01 2.68291 1.4467 2.08028 2.04666C1.47766 2.64662 1.04112 3.3897 0.812578 4.20455C0.0077977 7.2221 2.85501e-06 13.4807 2.85501e-06 13.4807C2.85501e-06 13.4807 -0.0077916 19.7702 0.791143 22.7569C1.23933 24.4083 2.55465 25.7128 4.22656 26.1579C7.30928 26.9865 19.4843 27 19.4843 27C19.4843 27 31.6924 27.0135 34.7439 26.2234C35.5672 26.0025 36.3179 25.5729 36.9218 24.9771C37.5257 24.3813 37.9618 23.6399 38.1871 22.8263C38.9939 19.8107 38.9997 13.554 38.9997 13.554C38.9997 13.554 39.0387 7.26257 38.2066 4.24501ZM15.6085 19.2788L15.6182 7.71732L25.7647 13.5077L15.6085 19.2788Z" fill="#61C7E8"/>
</svg>
