<svg width="31" height="31" viewBox="0 0 31 31" fill="none" xmlns="http://www.w3.org/2000/svg">
<path d="M15.749 23.1597L15.4994 23.016L15.2499 23.1597L9.67539 26.3701L9.67532 26.37L9.66505 26.3762C9.50205 26.4754 9.34857 26.51 9.19226 26.4976C9.01008 26.4831 8.86624 26.4276 8.74569 26.3379C8.60746 26.2351 8.50188 26.1089 8.42493 25.9541C8.37244 25.8485 8.35258 25.72 8.39597 25.5407C8.39598 25.5406 8.39599 25.5406 8.396 25.5406L9.87343 19.4735L9.94754 19.1692L9.70603 18.9697L4.77378 14.896C4.6195 14.7623 4.54777 14.6334 4.51986 14.5094C4.48569 14.3577 4.49568 14.217 4.54927 14.0749C4.61085 13.9132 4.69733 13.7937 4.80556 13.7032C4.88976 13.6328 5.03418 13.5629 5.27902 13.5279L11.7801 12.9833L12.0761 12.9585L12.1959 12.6867L14.7145 6.97215L14.7153 6.97027C14.7849 6.81043 14.8841 6.70435 15.0175 6.63161C15.1866 6.53941 15.3453 6.5 15.4994 6.5C15.6547 6.5 15.8132 6.53953 15.9807 6.63123C16.1136 6.70396 16.2134 6.8105 16.2842 6.97161L16.2844 6.97215L18.803 12.6867L18.9228 12.9585L19.2188 12.9833L25.7198 13.5279C25.9647 13.5629 26.1091 13.6328 26.1933 13.7032C26.3016 13.7938 26.3882 13.9134 26.4498 14.0753C26.5043 14.2187 26.5144 14.3596 26.4803 14.5107C26.4526 14.634 26.381 14.7622 26.226 14.8953L21.2928 18.9697L21.0513 19.1692L21.1254 19.4735L22.6028 25.5402C22.6028 25.5404 22.6029 25.5406 22.6029 25.5408C22.6464 25.7212 22.6263 25.8501 22.5739 25.9554C22.4971 26.1099 22.3919 26.2354 22.2543 26.3371L22.2532 26.3379C22.1326 26.4276 21.9888 26.4831 21.8066 26.4976C21.6503 26.51 21.4968 26.4754 21.3338 26.3762L21.3339 26.3761L21.3235 26.3701L15.749 23.1597Z" fill="#CEEBF4" stroke="#1EADE5"/>
</svg>
