<svg width="50" height="34" viewBox="0 0 50 34" fill="none" xmlns="http://www.w3.org/2000/svg">
<path d="M48.6845 11.6373H47.474L39.4739 2.64854V2.01787C39.4739 1.07189 38.6846 0.283234 37.737 0.283234C36.9477 0.283234 36.3159 0.861466 36.1056 1.59736C33.0004 3.59491 28.9476 4.75144 24.6844 4.75144C20.6845 4.75144 16.9476 3.80545 13.9475 2.01797C13.9475 1.07199 13.1582 0.335704 12.2107 0.335704C11.2635 0.335704 10.4738 1.12403 10.4738 2.07034V2.70101L2.4737 11.6373H1.3158C0.578969 11.6373 0 12.2156 0 12.9514C0 13.6873 0.578969 14.2656 1.3158 14.2656H10.5264V20.468C10.5264 21.414 11.3157 22.2027 12.2632 22.2027C13.2104 22.2027 14.0001 21.4143 14.0001 20.468V14.2127H36.0528V20.4152C36.0528 21.3612 36.8422 22.1498 37.7897 22.1498C38.7369 22.1498 39.5265 21.3615 39.5265 20.4152L39.5262 14.2127H48.6842C49.421 14.2127 50 13.6345 50 12.8986C50 12.2155 49.421 11.6372 48.6842 11.6372L48.6845 11.6373ZM31.2107 5.59217V11.6369H28.0002L28.0005 6.22314C29.1056 6.06547 30.1582 5.85507 31.2107 5.59217ZM26.6318 6.38086V11.6373H23.4213V6.38086C23.8424 6.38086 24.2635 6.43329 24.7371 6.43329C25.3689 6.43329 26.0003 6.43329 26.6318 6.38086ZM22.0001 11.6373H18.7896L18.7899 5.7498C19.8425 6.0127 20.895 6.17037 22.0005 6.32803L22.0001 11.6373ZM4.7895 11.6373L10.5263 5.22443V11.6373H4.7895ZM13.9473 3.91031C15.0527 4.48854 16.1578 4.96152 17.4211 5.32966V11.585L13.9473 11.5846V3.91031ZM32.5789 11.6373V5.17159C33.7894 4.75102 34.9473 4.22561 36.0527 3.64739V11.6898H32.5789V11.6373ZM39.4736 5.22443L45.1579 11.6373H39.4736V5.22443Z" fill="#61C7E8"/>
<path d="M30.3686 17.2092H25.5265L25.7368 20.4156H24.3157L24.526 17.2092H19.6839C19.3682 17.2092 19.0524 17.4193 18.9996 17.735L15.7365 32.4531C15.6311 32.8737 15.9469 33.2943 16.4208 33.2943H23.5263L23.8421 28.5636H26.3158L26.6315 33.2943H33.737C34.1581 33.2943 34.5263 32.8737 34.4213 32.4531L31.1582 17.735C30.9475 17.4193 30.6843 17.2092 30.3686 17.2092ZM23.8946 26.408L24.2103 21.8875H25.7894L26.1051 26.408H23.8946Z" fill="#61C7E8"/>
</svg>
