<svg width="40" height="40" viewBox="0 0 40 40" fill="none" xmlns="http://www.w3.org/2000/svg">
<path d="M16.25 37.5V32.8125C16.25 31.95 16.95 31.25 17.8125 31.25H22.1875C23.05 31.25 23.7625 31.95 23.7625 32.825V37.5H37.5V11.625C37.5 11.2474 37.4256 10.8736 37.2812 10.5248C37.1367 10.176 36.9249 9.85904 36.6579 9.59207C36.391 9.3251 36.074 9.11333 35.7252 8.96885C35.3764 8.82436 35.0026 8.75 34.625 8.75H32.5V5.575C32.5 3.875 31.125 2.5 29.425 2.5H10.575C8.875 2.5 7.5 3.875 7.5 5.575V8.75H5.375C4.99745 8.75 4.6236 8.82436 4.27479 8.96885C3.92597 9.11333 3.60904 9.3251 3.34207 9.59207C3.0751 9.85904 2.86333 10.176 2.71885 10.5248C2.57436 10.8736 2.5 11.2474 2.5 11.625V37.5H16.25ZM7.5 30H6.25C5.5625 30 5 29.4375 5 28.75V27.5C5 26.8125 5.5625 26.25 6.25 26.25H7.5V30ZM7.5 23.75H6.25C5.5625 23.75 5 23.1875 5 22.5V21.25C5 20.5625 5.5625 20 6.25 20H7.5V23.75ZM7.5 17.5H6.25C5.5625 17.5 5 16.9375 5 16.25V15C5 14.3125 5.5625 13.75 6.25 13.75H7.5V17.5ZM32.5 13.75H33.75C34.4375 13.75 35 14.3125 35 15V16.25C35 16.95 34.4375 17.5 33.75 17.5H32.5V13.75ZM32.5 20H33.75C34.4375 20 35 20.5625 35 21.25V22.5C35 23.2 34.4375 23.75 33.75 23.75H32.5V20ZM32.5 26.25H33.75C34.4375 26.25 35 26.8125 35 27.5V28.75C35 29.45 34.4375 30 33.75 30H32.5V26.25ZM14.375 22.5C14.0375 22.5 13.75 22.225 13.75 21.875V19.3625C13.75 19.025 14.025 18.7375 14.375 18.7375H18.1375C18.475 18.7375 18.7625 19.0125 18.7625 19.3625V21.875C18.7592 22.0419 18.6906 22.2009 18.5714 22.3177C18.4522 22.4346 18.2919 22.5 18.125 22.5H14.375ZM26.25 19.375V21.8875C26.25 22.225 25.975 22.5 25.6375 22.5125H21.875C21.525 22.5125 21.25 22.225 21.25 21.8875V19.375C21.25 19.025 21.5375 18.75 21.875 18.75H25.625C25.975 18.75 26.25 19.0375 26.25 19.375ZM18.75 25.625V28.1375C18.75 28.475 18.475 28.75 18.1375 28.7625H14.375C14.025 28.7625 13.75 28.475 13.75 28.1375V25.625C13.75 25.275 14.0375 25 14.375 25H18.125C18.475 25 18.75 25.2875 18.75 25.625ZM26.25 25.625V28.1375C26.25 28.475 25.975 28.75 25.6375 28.7625H21.875C21.525 28.7625 21.25 28.475 21.25 28.1375V25.625C21.25 25.275 21.5375 25 21.875 25H25.625C25.975 25 26.25 25.2875 26.25 25.625ZM18.75 6.875V9.3875C18.75 9.725 18.475 10 18.1375 10.0125H14.375C14.025 10.0125 13.75 9.725 13.75 9.3875V6.875C13.75 6.525 14.0375 6.25 14.375 6.25H18.125C18.475 6.25 18.75 6.5375 18.75 6.875ZM26.25 6.875V9.3875C26.25 9.725 25.975 10 25.6375 10.0125H21.875C21.525 10.0125 21.25 9.725 21.25 9.3875V6.875C21.25 6.525 21.5375 6.25 21.875 6.25H25.625C25.975 6.25 26.25 6.5375 26.25 6.875ZM18.75 13.125V15.6375C18.75 15.975 18.475 16.25 18.1375 16.2625H14.375C14.025 16.2625 13.75 15.975 13.75 15.6375V13.125C13.75 12.775 14.0375 12.5 14.375 12.5H18.125C18.475 12.5 18.75 12.7875 18.75 13.125ZM26.25 13.125V15.6375C26.25 15.975 25.975 16.25 25.6375 16.2625H21.875C21.525 16.2625 21.25 15.975 21.25 15.6375V13.125C21.25 12.775 21.5375 12.5 21.875 12.5H25.625C25.975 12.5 26.25 12.7875 26.25 13.125Z" fill="#00ADE5"/>
</svg>
