<svg width="36" height="27" viewBox="0 0 36 27" fill="none" xmlns="http://www.w3.org/2000/svg">
<path d="M33 14.25V25.5C33 25.8978 32.842 26.2794 32.5607 26.5607C32.2794 26.842 31.8978 27 31.5 27H30C29.6022 27 29.2206 26.842 28.9393 26.5607C28.658 26.2794 28.5 25.8978 28.5 25.5V24H7.5V25.5C7.5 25.8978 7.34196 26.2794 7.06066 26.5607C6.77936 26.842 6.39782 27 6 27H4.5C4.10218 27 3.72064 26.842 3.43934 26.5607C3.15804 26.2794 3 25.8978 3 25.5V14.25L1.1355 13.785C0.81113 13.7037 0.523213 13.5164 0.317483 13.2528C0.111753 12.9892 8.79065e-06 12.6644 0 12.33L0 11.25C0 11.0511 0.0790176 10.8603 0.21967 10.7197C0.360322 10.579 0.551088 10.5 0.75 10.5H3.5625L6.7695 1.947C6.9839 1.37504 7.36778 0.882153 7.86983 0.53423C8.37188 0.186306 8.96818 -7.60476e-05 9.579 2.32767e-08H26.421C27.0318 -7.60476e-05 27.6281 0.186306 28.1302 0.53423C28.6322 0.882153 29.0161 1.37504 29.2305 1.947L32.4375 10.5H35.25C35.4489 10.5 35.6397 10.579 35.7803 10.7197C35.921 10.8603 36 11.0511 36 11.25V12.33C35.9999 12.6646 35.8879 12.9896 35.6819 13.2532C35.4759 13.5168 35.1876 13.704 34.863 13.785L33 14.25ZM6 16.5V19.5C6 19.8978 6.15804 20.2794 6.43934 20.5607C6.72064 20.842 7.10218 21 7.5 21H12.3675C12.497 20.9998 12.6243 20.9661 12.7369 20.9021C12.8495 20.8381 12.9436 20.746 13.01 20.6348C13.0765 20.5237 13.113 20.3972 13.1161 20.2677C13.1192 20.1382 13.0886 20.0102 13.0275 19.896C11.82 17.631 9.477 16.5 6 16.5ZM30 16.5C26.5245 16.5 24.1815 17.6325 22.971 19.896C22.9098 20.0103 22.8793 20.1385 22.8824 20.2681C22.8855 20.3977 22.9222 20.5243 22.9888 20.6355C23.0555 20.7467 23.1498 20.8387 23.2626 20.9026C23.3754 20.9665 23.5029 21.0001 23.6325 21H28.5C28.8978 21 29.2794 20.842 29.5607 20.5607C29.842 20.2794 30 19.8978 30 19.5V16.5ZM9 3L6.6585 10.026C6.58343 10.2514 6.56297 10.4914 6.59879 10.7262C6.63461 10.961 6.7257 11.184 6.86455 11.3768C7.0034 11.5695 7.18604 11.7265 7.39744 11.8349C7.60884 11.9432 7.84295 11.9998 8.0805 12H27.9195C28.1571 11.9998 28.3912 11.9432 28.6026 11.8349C28.814 11.7265 28.9966 11.5695 29.1355 11.3768C29.2743 11.184 29.3654 10.961 29.4012 10.7262C29.437 10.4914 29.4166 10.2514 29.3415 10.026L27 3H9Z" fill="#00ADE5"/>
</svg>
