<svg width="20" height="20" viewBox="0 0 20 20" fill="none" xmlns="http://www.w3.org/2000/svg">
<path d="M10 0C12.6522 0 15.1957 1.05357 17.0711 2.92893C18.9464 4.8043 20 7.34784 20 10C20 12.6522 18.9464 15.1957 17.0711 17.0711C15.1957 18.9464 12.6522 20 10 20C7.34784 20 4.8043 18.9464 2.92893 17.0711C1.05357 15.1957 0 12.6522 0 10C0 7.34784 1.05357 4.8043 2.92893 2.92893C4.8043 1.05357 7.34784 0 10 0ZM10 1.05263C7.62701 1.05263 5.35121 1.9953 3.67326 3.67326C1.9953 5.35121 1.05263 7.62701 1.05263 10C1.05263 12.373 1.9953 14.6488 3.67326 16.3267C5.35121 18.0047 7.62701 18.9474 10 18.9474C11.175 18.9474 12.3385 18.7159 13.424 18.2663C14.5096 17.8166 15.4959 17.1576 16.3267 16.3267C17.1576 15.4959 17.8166 14.5096 18.2663 13.424C18.7159 12.3385 18.9474 11.175 18.9474 10C18.9474 7.62701 18.0047 5.35121 16.3267 3.67326C14.6488 1.9953 12.373 1.05263 10 1.05263ZM9.47368 4.21053H10.5263V9.91579L15.4737 12.7684L14.9474 13.6842L9.47368 10.5263V4.21053Z" fill="#9D9D9D"/>
</svg>
