<svg width="25" height="31" viewBox="0 0 25 31" fill="none" xmlns="http://www.w3.org/2000/svg">
<path d="M24.9317 9.14677C24.658 4.94224 20.3812 1.70088 14.8726 1.37994V0.866604C14.8726 0.385281 14.4621 0 13.9488 0C13.4356 0 13.0249 0.385063 13.0249 0.866604V1.38016C7.51658 1.70098 3.27372 4.94241 3 9.21118V9.3717C3 9.59647 3.17112 9.82101 3.4105 9.91727C3.65012 9.98152 3.92363 9.91727 4.06064 9.72474C4.53964 9.08291 5.29237 8.72987 6.07925 8.72987C6.96877 8.72987 7.78998 9.17918 8.23483 9.88527C8.33746 10.0458 8.54271 10.1421 8.74796 10.1421C8.9532 10.1421 9.12433 10.0458 9.26108 9.88527C9.70594 9.14716 10.527 8.72987 11.3823 8.72987C12.0325 8.72987 12.6141 8.95464 13.0931 9.3717V19L14.9405 18.679L14.941 9.37161C15.3859 8.95432 16.0016 8.69752 16.6517 8.69752C17.5071 8.69752 18.3283 9.11481 18.773 9.85291C18.8756 10.0134 19.0809 10.1097 19.2861 10.1097C19.4914 10.1417 19.6625 10.0134 19.7992 9.85291C20.2441 9.14684 21.0651 8.69752 21.9205 8.69752C22.7074 8.69752 23.4601 9.05056 23.9735 9.69238C24.1102 9.88491 24.384 9.94917 24.6236 9.88491C24.8632 9.82066 25 9.59612 25 9.37135C24.9317 9.33956 24.9317 9.27531 24.9317 9.14703L24.9317 9.14677Z" fill="#00ADE5"/>
<path d="M22.8602 25.4392H8.15382L2.05688 17.4517C1.65496 16.9462 0.951396 16.8452 0.448961 17.2495C-0.0534386 17.6539 -0.153914 18.3617 0.247998 18.8672L6.71343 27.3265C6.94804 27.6298 7.2829 27.7647 7.61798 27.7647H9.12541L8.45547 29.3824C8.22086 29.9889 8.48889 30.6631 9.09203 30.8989C9.22593 30.9664 9.39347 31 9.5276 31C9.99658 31 10.4321 30.7304 10.5997 30.2585L11.6048 27.7645H18.9077L19.9127 30.2585C20.0803 30.6968 20.5156 31 20.9848 31C21.1187 31 21.2863 30.9664 21.4204 30.8989C22.0233 30.6629 22.2913 29.9889 22.057 29.3824L21.387 27.7647H22.8611C23.4976 27.7647 24 27.2593 24 26.6189C23.9995 25.9785 23.4971 25.4394 22.8606 25.4394L22.8602 25.4392Z" fill="#00ADE5"/>
<path d="M5.40808 20.126L8.50449 24.1811L8.57261 24.285C8.9469 24.7703 9.62735 25.0475 10.2399 24.8742L15.4119 23.4531L20.2096 24.9433C20.8901 25.1513 21.6387 24.77 21.9109 24.0769C22.1832 23.3489 21.8089 22.5518 21.0942 22.2746L15.9223 20.3683C15.684 20.2989 15.412 20.2643 15.1737 20.2989H15.1056L10.6482 21.2693L8.47059 17.8729C8.43665 17.8383 8.40247 17.8035 8.36853 17.7343C7.72197 16.9025 6.56516 16.7639 5.71451 17.3876C4.89758 18.0812 4.76152 19.2944 5.40808 20.126Z" fill="#00ADE5"/>
<path d="M6 15.0001C6 16.1046 5.10441 17 4 17C2.89538 17 2 16.1046 2 15.0001C2 13.8954 2.89538 13 4 13C5.10441 13 6 13.8954 6 15.0001Z" fill="#00ADE5"/>
</svg>
