<svg width="9" height="12" viewBox="0 0 9 12" fill="none" xmlns="http://www.w3.org/2000/svg">
<path d="M3 0C2.60218 0 2.22064 0.158035 1.93934 0.43934C1.65804 0.720644 1.5 1.10218 1.5 1.5V9C1.5 9.39782 1.65804 9.77936 1.93934 10.0607C2.22064 10.342 2.60218 10.5 3 10.5H7.5C7.89782 10.5 8.27936 10.342 8.56066 10.0607C8.84196 9.77936 9 9.39782 9 9V1.5C9 1.10218 8.84196 0.720644 8.56066 0.43934C8.27936 0.158035 7.89782 0 7.5 0H3ZM2.25 1.5C2.25 1.30109 2.32902 1.11032 2.46967 0.96967C2.61032 0.829018 2.80109 0.75 3 0.75H7.5C7.69891 0.75 7.88968 0.829018 8.03033 0.96967C8.17098 1.11032 8.25 1.30109 8.25 1.5V9C8.25 9.19891 8.17098 9.38968 8.03033 9.53033C7.88968 9.67098 7.69891 9.75 7.5 9.75H3C2.80109 9.75 2.61032 9.67098 2.46967 9.53033C2.32902 9.38968 2.25 9.19891 2.25 9V1.5ZM0 3C6.68883e-06 2.7367 0.0693193 2.47804 0.200971 2.25002C0.332624 2.022 0.521977 1.83265 0.75 1.701V9.375C0.75 9.87228 0.947544 10.3492 1.29917 10.7008C1.65081 11.0525 2.12772 11.25 2.625 11.25H7.299C7.16735 11.478 6.978 11.6674 6.74998 11.799C6.52196 11.9307 6.2633 12 6 12H2.625C1.92881 12 1.26113 11.7234 0.768845 11.2312C0.276562 10.7389 0 10.0712 0 9.375V3Z" fill="#00ADE5"/>
</svg>
