<svg width="70" height="80" viewBox="0 0 70 80" fill="none" xmlns="http://www.w3.org/2000/svg">
<path d="M68.3518 11.8338C66.9206 9.95453 64.753 8.86297 62.4628 8.86773H61.3432C61.4843 8.17535 61.6254 7.49332 61.7573 6.89064C62.1012 5.20727 61.7022 3.45088 60.6719 2.11234C59.641 0.773796 58.0897 -0.00263661 56.4511 1.15263e-05H13.5521C11.92 -0.00343652 10.374 0.766877 9.3423 2.09575C8.31137 3.42532 7.90516 5.17147 8.23656 6.85074C8.36847 7.47346 8.50955 8.15549 8.65064 8.82784L7.54029 8.82853C5.24415 8.8237 3.07132 9.92088 1.64084 11.8084C0.209619 13.6953 -0.323847 16.1655 0.193205 18.517C1.32651 23.7705 3.76106 28.6157 7.2503 32.5625C10.7395 36.5091 15.1591 39.4159 20.0619 40.9889C22.8843 45.448 26.1018 48.9767 29.9302 50.6774V59.15H22.1788C20.3433 59.1548 18.584 59.9231 17.2846 61.2865C15.9859 62.6492 15.2529 64.4975 15.245 66.4262V80H54.7572V66.4262C54.7572 64.487 54.0229 62.627 52.7176 61.2568C51.4117 59.8866 49.6406 59.1177 47.7952 59.1203H40.0713V50.6477C43.9004 48.9471 47.1645 45.4176 49.9396 40.9592H49.9403C54.839 39.3876 59.2561 36.4849 62.7446 32.5445C66.2339 28.6034 68.6703 23.7651 69.809 18.517C70.3234 16.1723 69.786 13.709 68.3508 11.834L68.3518 11.8338ZM5.28343 17.2611C5.12856 16.5404 5.29458 15.7853 5.7336 15.2081C6.17327 14.6309 6.83803 14.295 7.54088 14.295H9.90271C11.4304 20.7265 13.4726 27.0101 16.0083 33.0791C10.5589 29.531 6.69453 23.832 5.28354 17.2606L5.28343 17.2611ZM64.7214 17.2611H64.7208C63.3099 23.8325 59.4454 29.5315 53.996 33.0796C56.5317 27.0103 58.5739 20.7264 60.1016 14.2955H62.4635C63.1663 14.2955 63.831 14.6314 64.2707 15.2086C64.7097 15.7858 64.8758 16.5409 64.7209 17.2616L64.7214 17.2611Z" fill="#DFF6FD"/>
</svg>
