<svg width="18" height="18" viewBox="0 0 18 18" fill="none" xmlns="http://www.w3.org/2000/svg">
<mask id="path-1-outside-1_23_149" maskUnits="userSpaceOnUse" x="0" y="0" width="18" height="18" fill="black">
<rect fill="white" width="18" height="18"/>
<path d="M8.99974 1C4.58887 1 1 4.58887 1 9.00003C1 11.1369 1.83215 13.1458 3.34321 14.6569C3.47569 14.7894 3.69021 14.7894 3.82255 14.6569C3.95503 14.5245 3.95503 14.31 3.82255 14.1774C2.43975 12.7945 1.67823 10.956 1.67823 9C1.67823 4.96284 4.96281 1.67797 8.99969 1.67797C13.0374 1.67797 16.3223 4.96284 16.3223 9C16.3223 13.0372 13.0374 16.3217 8.99969 16.3217C8.81285 16.3217 8.66086 16.4735 8.66086 16.6613C8.66086 16.8483 8.81287 16.9998 8.99969 16.9998C13.4111 16.9999 17 13.4112 17 9.00003C17 4.58887 13.4111 1 8.99969 1H8.99974Z"/>
</mask>
<path d="M8.99974 1C4.58887 1 1 4.58887 1 9.00003C1 11.1369 1.83215 13.1458 3.34321 14.6569C3.47569 14.7894 3.69021 14.7894 3.82255 14.6569C3.95503 14.5245 3.95503 14.31 3.82255 14.1774C2.43975 12.7945 1.67823 10.956 1.67823 9C1.67823 4.96284 4.96281 1.67797 8.99969 1.67797C13.0374 1.67797 16.3223 4.96284 16.3223 9C16.3223 13.0372 13.0374 16.3217 8.99969 16.3217C8.81285 16.3217 8.66086 16.4735 8.66086 16.6613C8.66086 16.8483 8.81287 16.9998 8.99969 16.9998C13.4111 16.9999 17 13.4112 17 9.00003C17 4.58887 13.4111 1 8.99969 1H8.99974Z" fill="#00ADE5"/>
<path d="M3.34321 14.6569L3.20178 14.7983L3.20179 14.7983L3.34321 14.6569ZM3.82255 14.6569L3.68119 14.5154L3.68106 14.5156L3.82255 14.6569ZM3.82255 14.1774L3.96402 14.0361L3.96398 14.036L3.82255 14.1774ZM8.99969 16.9998L8.99969 16.7998H8.99969V16.9998ZM8.99974 0.8C4.47841 0.8 0.8 4.47842 0.8 9.00003H1.2C1.2 4.69932 4.69933 1.2 8.99974 1.2V0.8ZM0.8 9.00003C0.8 11.1899 1.65322 13.2497 3.20178 14.7983L3.48463 14.5155C2.01107 13.0418 1.2 11.0838 1.2 9.00003H0.8ZM3.20179 14.7983C3.41233 15.0089 3.75354 15.009 3.96405 14.7983L3.68106 14.5156C3.62688 14.5698 3.53904 14.5699 3.48463 14.5155L3.20179 14.7983ZM3.96391 14.7984C4.17464 14.5878 4.17448 14.2467 3.96402 14.0361L3.68108 14.3188C3.73558 14.3734 3.73542 14.4612 3.68119 14.5154L3.96391 14.7984ZM3.96398 14.036C2.61868 12.6906 1.87823 10.903 1.87823 9H1.47823C1.47823 11.009 2.26081 12.8984 3.68113 14.3189L3.96398 14.036ZM1.87823 9C1.87823 5.07328 5.07329 1.87797 8.99969 1.87797V1.47797C4.85234 1.47797 1.47823 4.8524 1.47823 9H1.87823ZM8.99969 1.87797C12.927 1.87797 16.1223 5.07331 16.1223 9H16.5223C16.5223 4.85238 13.1479 1.47797 8.99969 1.47797V1.87797ZM16.1223 9C16.1223 12.9267 12.927 16.1217 8.99969 16.1217V16.5217C13.1479 16.5217 16.5223 13.1476 16.5223 9H16.1223ZM8.99969 16.1217C8.70221 16.1217 8.46086 16.3633 8.46086 16.6613H8.86086C8.86086 16.5838 8.92349 16.5217 8.99969 16.5217V16.1217ZM8.46086 16.6613C8.46086 16.9591 8.70274 17.1998 8.99969 17.1998V16.7998C8.92299 16.7998 8.86086 16.7375 8.86086 16.6613H8.46086ZM8.99968 17.1998C13.5216 17.1999 17.2 13.5217 17.2 9.00003H16.8C16.8 13.3007 13.3007 16.7999 8.99969 16.7998L8.99968 17.1998ZM17.2 9.00003C17.2 4.47841 13.5216 0.8 8.99969 0.8V1.2C13.3007 1.2 16.8 4.69933 16.8 9.00003H17.2ZM8.99969 1.2H8.99974V0.8H8.99969V1.2Z" fill="#00ADE5" mask="url(#path-1-outside-1_23_149)"/>
<path d="M9.04599 8.16118L9.04598 8.16118C8.66602 8.12085 8.40469 8.01629 8.2383 7.85477C8.07426 7.69553 7.98865 7.46728 7.98865 7.14745C7.98865 6.58983 8.44232 6.13627 8.99948 6.13627C9.55722 6.13627 10.011 6.59006 10.011 7.14745C10.011 7.38973 10.2072 7.5865 10.4498 7.5865C10.6924 7.5865 10.8889 7.38992 10.8889 7.14745C10.8889 6.25668 10.2693 5.50914 9.43874 5.3106V4.43818C9.43874 4.19547 9.2421 3.99912 8.99934 3.99912C8.7573 3.99912 8.56051 4.19555 8.56051 4.43818V5.31049C7.73023 5.50903 7.11062 6.25659 7.11062 7.14756C7.11062 7.66938 7.26607 8.10551 7.58027 8.4356C7.90238 8.77451 8.36842 8.97217 8.95327 9.0346L8.95336 9.03461C9.42993 9.08501 9.79391 9.24277 10.0379 9.48143C10.2805 9.71874 10.4133 10.0446 10.4133 10.4506C10.4133 11.2297 9.77907 11.864 8.9996 11.864C8.22046 11.864 7.58631 11.2297 7.58631 10.4506C7.58631 10.2081 7.38981 10.0117 7.14725 10.0117C6.90498 10.0117 6.70807 10.2081 6.70807 10.4506C6.70807 11.564 7.5071 12.4915 8.56078 12.6972L8.56088 13.562C8.56088 13.8046 8.75768 14.001 8.99971 14.001C9.24233 14.001 9.43911 13.8047 9.43911 13.562V12.6969C10.4929 12.4912 11.2915 11.5638 11.2915 10.4504C11.2915 9.8217 11.0763 9.28366 10.6836 8.88477C10.2916 8.48664 9.72947 8.23379 9.04599 8.16118Z" fill="#00ADE5" stroke="#00ADE5" stroke-width="0.2"/>
</svg>
