<svg width="34" height="34" viewBox="0 0 34 34" fill="none" xmlns="http://www.w3.org/2000/svg">
<path d="M33.6666 5.33337C33.6666 6.65946 33.1398 7.93123 32.2022 8.86891C31.2645 9.80659 29.9927 10.3334 28.6666 10.3334C27.3405 10.3334 26.0688 9.80659 25.1311 8.86891C24.1934 7.93123 23.6666 6.65946 23.6666 5.33337C23.6666 4.00729 24.1934 2.73552 25.1311 1.79784C26.0688 0.860158 27.3405 0.333374 28.6666 0.333374C29.9927 0.333374 31.2645 0.860158 32.2022 1.79784C33.1398 2.73552 33.6666 4.00729 33.6666 5.33337Z" fill="#00ADE5"/>
<path fill-rule="evenodd" clip-rule="evenodd" d="M17 0.333374C19.3316 0.333374 21.3166 0.333374 23.02 0.396708C21.7663 1.82859 21.1038 3.68355 21.1668 5.58568C21.2299 7.48781 22.0137 9.29484 23.3594 10.6406C24.7052 11.9863 26.5122 12.7701 28.4143 12.8332C30.3165 12.8962 32.1714 12.2337 33.6033 10.98C33.6666 12.6834 33.6666 14.6684 33.6666 17C33.6666 24.8567 33.6666 28.785 31.225 31.225C28.7866 33.6667 24.8566 33.6667 17 33.6667C9.14331 33.6667 5.21498 33.6667 2.77331 31.225C0.333313 28.7867 0.333313 24.8567 0.333313 17C0.333313 9.14337 0.333313 5.21504 2.77331 2.77337C5.21665 0.333374 9.14331 0.333374 17 0.333374ZM21.1666 14.9167C20.8351 14.9167 20.5172 14.785 20.2828 14.5506C20.0483 14.3162 19.9166 13.9982 19.9166 13.6667C19.9166 13.3352 20.0483 13.0172 20.2828 12.7828C20.5172 12.5484 20.8351 12.4167 21.1666 12.4167H25.3333C25.6648 12.4167 25.9828 12.5484 26.2172 12.7828C26.4516 13.0172 26.5833 13.3352 26.5833 13.6667V17.8334C26.5833 18.1649 26.4516 18.4828 26.2172 18.7173C25.9828 18.9517 25.6648 19.0834 25.3333 19.0834C25.0018 19.0834 24.6838 18.9517 24.4494 18.7173C24.215 18.4828 24.0833 18.1649 24.0833 17.8334V16.6834L20.7283 20.0384C20.1814 20.5849 19.4398 20.8919 18.6666 20.8919C17.8935 20.8919 17.1519 20.5849 16.605 20.0384L13.9616 17.395C13.9229 17.3562 13.877 17.3255 13.8263 17.3044C13.7757 17.2834 13.7215 17.2726 13.6666 17.2726C13.6118 17.2726 13.5576 17.2834 13.507 17.3044C13.4563 17.3255 13.4104 17.3562 13.3716 17.395L9.54998 21.2167C9.31302 21.4375 8.99961 21.5577 8.67578 21.552C8.35194 21.5463 8.04296 21.4151 7.81394 21.1861C7.58492 20.9571 7.45373 20.6481 7.44802 20.3242C7.44231 20.0004 7.56251 19.687 7.78331 19.45L11.605 15.6284C12.1519 15.0818 12.8935 14.7748 13.6666 14.7748C14.4398 14.7748 15.1814 15.0818 15.7283 15.6284L18.3716 18.2717C18.4104 18.3105 18.4563 18.3413 18.507 18.3623C18.5576 18.3833 18.6118 18.3941 18.6666 18.3941C18.7215 18.3941 18.7757 18.3833 18.8263 18.3623C18.877 18.3413 18.9229 18.3105 18.9616 18.2717L22.315 14.9167H21.1666Z" fill="#00ADE5"/>
</svg>
