<svg width="14" height="14" viewBox="0 0 14 14" fill="none" xmlns="http://www.w3.org/2000/svg">
<path d="M7.90726 9.83179C7.85548 9.8848 7.79248 9.92712 7.72228 9.95608C7.65207 9.98504 7.57618 10 7.49946 10C7.42274 10 7.34685 9.98504 7.27664 9.95608C7.20643 9.92712 7.14344 9.8848 7.09166 9.83179L4.14463 6.81453C4.04575 6.7132 3.99393 6.57925 4.00057 6.44215C4.0072 6.30506 4.07174 6.17604 4.17999 6.08349C4.28824 5.99094 4.43134 5.94243 4.5778 5.94864C4.72426 5.95485 4.86208 6.01526 4.96096 6.11659L6.94726 8.15109V0.517245C6.94726 0.380063 7.00548 0.2485 7.1091 0.151497C7.21273 0.0544952 7.35328 0 7.49983 0C7.64638 0 7.78693 0.0544952 7.89055 0.151497C7.99418 0.2485 8.0524 0.380063 8.0524 0.517245V8.1504L10.0394 6.1159C10.1384 6.01466 10.2763 5.95437 10.4227 5.94829C10.5692 5.94222 10.7122 5.99085 10.8204 6.08349C10.9286 6.17613 10.993 6.3052 10.9995 6.4423C11.006 6.57939 10.954 6.71329 10.855 6.81453L7.90726 9.83179Z" fill="white"/>
<path d="M1.07692 9.5C1.07692 9.36739 1.02019 9.24022 0.919211 9.14645C0.81823 9.05268 0.68127 9 0.538462 9C0.395653 9 0.258693 9.05268 0.157712 9.14645C0.0567305 9.24022 0 9.36739 0 9.5V9.53667C0 10.448 7.48879e-08 11.1833 0.0840001 11.7613C0.170154 12.3613 0.356821 12.8667 0.788308 13.268C1.22051 13.6693 1.76472 13.8413 2.41087 13.9227C3.03333 14 3.82523 14 4.80667 14H9.19333C10.1748 14 10.9667 14 11.5891 13.9227C12.2353 13.8413 12.7795 13.6693 13.2117 13.268C13.6439 12.8667 13.8291 12.3613 13.9167 11.7613C14 11.1833 14 10.448 14 9.53667V9.5C14 9.36739 13.9433 9.24022 13.8423 9.14645C13.7413 9.05268 13.6043 9 13.4615 9C13.3187 9 13.1818 9.05268 13.0808 9.14645C12.9798 9.24022 12.9231 9.36739 12.9231 9.5C12.9231 10.4567 12.9216 11.124 12.8491 11.628C12.7781 12.1173 12.6481 12.376 12.4499 12.5607C12.2511 12.7453 11.9725 12.8653 11.4448 12.9313C10.9028 12.9987 10.1841 13 9.15385 13H4.84615C3.8159 13 3.09651 12.9987 2.55446 12.9313C2.02749 12.8653 1.74892 12.7447 1.55005 12.5607C1.35118 12.376 1.22195 12.1173 1.15087 11.6273C1.07836 11.124 1.07692 10.4567 1.07692 9.5Z" fill="white"/>
</svg>
