<svg width="30" height="30" viewBox="0 0 30 30" fill="none" xmlns="http://www.w3.org/2000/svg">
<circle cx="15" cy="15" r="15" fill="white"/>
<path d="M15.9073 18.8318C15.8555 18.8848 15.7925 18.9271 15.7223 18.9561C15.6521 18.985 15.5762 19 15.4995 19C15.4227 19 15.3469 18.985 15.2766 18.9561C15.2064 18.9271 15.1434 18.8848 15.0917 18.8318L12.1446 15.8145C12.0458 15.7132 11.9939 15.5793 12.0006 15.4422C12.0072 15.3051 12.0717 15.176 12.18 15.0835C12.2882 14.9909 12.4313 14.9424 12.5778 14.9486C12.7243 14.9548 12.8621 15.0153 12.961 15.1166L14.9473 17.1511V9.51724C14.9473 9.38006 15.0055 9.2485 15.1091 9.1515C15.2127 9.0545 15.3533 9 15.4998 9C15.6464 9 15.7869 9.0545 15.8906 9.1515C15.9942 9.2485 16.0524 9.38006 16.0524 9.51724V17.1504L18.0394 15.1159C18.1384 15.0147 18.2763 14.9544 18.4227 14.9483C18.5692 14.9422 18.7122 14.9908 18.8204 15.0835C18.9286 15.1761 18.993 15.3052 18.9995 15.4423C19.006 15.5794 18.954 15.7133 18.855 15.8145L15.9073 18.8318Z" fill="#00ADE5"/>
<path d="M9.07692 18.5C9.07692 18.3674 9.02019 18.2402 8.91921 18.1464C8.81823 18.0527 8.68127 18 8.53846 18C8.39565 18 8.25869 18.0527 8.15771 18.1464C8.05673 18.2402 8 18.3674 8 18.5V18.5367C8 19.448 8 20.1833 8.084 20.7613C8.17015 21.3613 8.35682 21.8667 8.78831 22.268C9.22051 22.6693 9.76472 22.8413 10.4109 22.9227C11.0333 23 11.8252 23 12.8067 23H17.1933C18.1748 23 18.9667 23 19.5891 22.9227C20.2353 22.8413 20.7795 22.6693 21.2117 22.268C21.6439 21.8667 21.8291 21.3613 21.9167 20.7613C22 20.1833 22 19.448 22 18.5367V18.5C22 18.3674 21.9433 18.2402 21.8423 18.1464C21.7413 18.0527 21.6043 18 21.4615 18C21.3187 18 21.1818 18.0527 21.0808 18.1464C20.9798 18.2402 20.9231 18.3674 20.9231 18.5C20.9231 19.4567 20.9216 20.124 20.8491 20.628C20.7781 21.1173 20.6481 21.376 20.4499 21.5607C20.2511 21.7453 19.9725 21.8653 19.4448 21.9313C18.9028 21.9987 18.1841 22 17.1538 22H12.8462C11.8159 22 11.0965 21.9987 10.5545 21.9313C10.0275 21.8653 9.74892 21.7447 9.55005 21.5607C9.35118 21.376 9.22195 21.1173 9.15087 20.6273C9.07836 20.124 9.07692 19.4567 9.07692 18.5Z" fill="#00ADE5"/>
</svg>
