<svg width="23" height="15" viewBox="0 0 23 15" fill="none" xmlns="http://www.w3.org/2000/svg">
<path d="M22.9495 7.26635C22.9163 7.19135 22.1055 5.41731 20.2947 3.63077C18.6145 1.975 15.7278 0 11.5 0C7.27224 0 4.38551 1.975 2.70531 3.63077C0.89453 5.41731 0.0836724 7.18846 0.0505363 7.26635C0.0172175 7.34019 0 7.42013 0 7.50096C0 7.5818 0.0172175 7.66173 0.0505363 7.73558C0.0836724 7.80962 0.89453 9.58365 2.70531 11.3702C4.38551 13.026 7.27224 15 11.5 15C15.7278 15 18.6145 13.026 20.2947 11.3702C22.1055 9.58365 22.9163 7.8125 22.9495 7.73558C22.9828 7.66173 23 7.5818 23 7.50096C23 7.42013 22.9828 7.34019 22.9495 7.26635ZM11.5 13.8462C8.44174 13.8462 5.77137 12.7481 3.56198 10.5837C2.6358 9.67552 1.85206 8.63621 1.23661 7.5C1.85189 6.36397 2.63565 5.32495 3.56198 4.41731C5.77137 2.25192 8.44174 1.15385 11.5 1.15385C14.5583 1.15385 17.2286 2.25192 19.438 4.41731C20.3644 5.32495 21.1481 6.36397 21.7634 7.5C21.1426 8.67404 18.0297 13.8462 11.5 13.8462ZM11.5 3.07692C10.6133 3.07692 9.74656 3.33633 9.00932 3.82235C8.27208 4.30836 7.69747 4.99915 7.35815 5.80736C7.01884 6.61557 6.93005 7.50491 7.10304 8.3629C7.27602 9.22089 7.70299 10.009 8.32997 10.6276C8.95694 11.2462 9.75575 11.6674 10.6254 11.8381C11.495 12.0088 12.3964 11.9212 13.2156 11.5864C14.0348 11.2516 14.735 10.6847 15.2276 9.95733C15.7202 9.22996 15.9831 8.3748 15.9831 7.5C15.9816 6.3274 15.5087 5.20326 14.6683 4.3741C13.8279 3.54494 12.6885 3.07845 11.5 3.07692ZM11.5 10.7692C10.8446 10.7692 10.204 10.5775 9.65906 10.2183C9.11414 9.85904 8.68943 9.34845 8.43863 8.75108C8.18783 8.15371 8.12221 7.49637 8.25007 6.8622C8.37793 6.22804 8.69352 5.64551 9.15693 5.1883C9.62035 4.73109 10.2108 4.41973 10.8535 4.29359C11.4963 4.16744 12.1626 4.23218 12.7681 4.47962C13.3735 4.72707 13.8911 5.14609 14.2552 5.68371C14.6193 6.22133 14.8136 6.85341 14.8136 7.5C14.8136 8.36705 14.4645 9.1986 13.8431 9.8117C13.2216 10.4248 12.3788 10.7692 11.5 10.7692Z" fill="#9D9D9D"/>
</svg>
