<svg width="37" height="37" viewBox="0 0 37 37" fill="none" xmlns="http://www.w3.org/2000/svg">
<path d="M29.948 12.0527C31.5445 12.0527 32.3446 12.0527 33.941 12.0527C35.4454 12.0527 36.9358 12.5413 36.9358 14.0485C36.9358 20.8143 36.9358 28.2384 36.9358 35.0042C36.9358 36.4782 35.4343 37 33.941 37H1.99653C0.495917 37.0037 0 35.5504 0 34.0063C0 29.6038 0 25.4362 0 21.0337C0 17.6631 0 14.4255 0 11.0548C0 9.55129 0.536474 8.45913 1.99653 8.06113L31.9445 0.0780015C33.3382 -0.290509 34.5522 0.691871 34.9393 2.07378C35.4309 3.8672 36.4442 5.26246 36.9358 7.06324C37.0274 7.36659 36.9743 7.74663 36.9358 8.06113C36.8974 8.37564 37.0978 8.78663 36.9358 9.05903C36.7739 9.33142 36.1956 9.87278 35.9376 10.0569C35.6796 10.2411 35.2496 9.99223 34.9393 10.0569L29.948 12.0527C30.0328 12.0232 29.8632 12.0748 29.948 12.0527ZM34.9393 21.0337H1.99653V35.0042H34.9393V21.0337ZM24.9567 4.06957C24.9833 4.13054 25.9202 5.01065 25.9549 5.06746C27.1016 6.58941 27.7883 7.54813 28.9497 9.05903C28.875 9.03604 29.0069 9.11235 28.9497 9.05903C28.8725 9.07101 29.0244 9.08201 28.9497 9.05903C29.4843 8.9411 30.419 9.20274 30.9463 9.05903L33.941 8.06113C33.9382 8.02078 33.9553 8.09898 33.941 8.06113C32.7723 6.50602 31.1315 4.61573 29.948 3.07168C29.899 3.02662 30.012 3.09022 29.948 3.07168C29.884 3.05314 30.0135 3.05983 29.948 3.07168C28.5764 3.44756 26.3725 3.68263 24.9567 4.06957ZM25.9549 10.0569C24.7198 8.41705 23.1638 6.64468 21.9619 5.06746C21.9022 5.02666 22.0332 5.07893 21.9619 5.06746C21.8905 5.05599 22.0313 5.0474 21.9619 5.06746C20.8889 5.36595 19.0749 5.7558 17.9688 6.06535V7.06324L20.9636 11.0548C21.4908 11.755 21.1065 11.287 21.9619 11.0548L25.9549 10.0569ZM16.9705 14.0485C15.4957 14.0485 14.3564 14.0485 12.9775 14.0485C12.8592 14.0319 13.0753 13.9801 12.9775 14.0485C12.8796 14.1169 13.0024 13.9318 12.9775 14.0485C12.4392 15.4341 11.5229 17.656 10.9809 19.0379L9.98266 20.0358C10.031 20.0576 10.9289 20.0257 10.9809 20.0358C12.3783 20.0358 13.5766 20.0358 14.974 20.0358C14.9139 20.0856 15.0498 20.0175 14.974 20.0358C15.0341 19.986 14.9419 19.1091 14.974 19.0379C15.3206 18.2235 15.6441 17.8603 15.9723 17.0422L16.9705 14.0485ZM24.9567 14.0485C23.4376 14.0485 22.42 14.0485 20.9636 14.0485C20.8956 14.0738 21.0145 13.9969 20.9636 14.0485C20.9126 14.1 20.988 13.9803 20.9636 14.0485C20.2704 15.751 19.6492 17.3317 18.9671 19.0379C18.9329 19.1407 17.9911 19.9299 17.9688 20.0358C19.4436 20.0358 21.5259 20.0358 22.9601 20.0358C22.9091 20.0786 23.0246 20.0193 22.9601 20.0358C23.0112 19.9931 22.9325 19.0985 22.9601 19.0379C23.1482 18.6252 23.8072 18.4638 23.9584 18.0401L24.9567 14.0485ZM25.9549 20.0358C27.4703 20.0358 29.5083 20.0358 30.9463 20.0358C30.8895 20.0894 31.0205 20.0117 30.9463 20.0358C31.003 19.9823 30.9179 19.1106 30.9463 19.0379C31.6247 17.376 32.2791 15.7289 32.9428 14.0485C32.8949 14.1996 32.9907 13.9269 32.9428 14.0485C32.8027 14.0485 33.0497 14.0485 32.9428 14.0485C31.6523 14.0485 30.2365 14.0485 28.9497 14.0485C28.839 14.035 29.0405 13.9837 28.9497 14.0485C28.8589 14.1133 28.9729 13.9394 28.9497 14.0485C28.5147 15.1724 27.3993 16.9198 26.9532 18.0401L25.9549 20.0358ZM17.9688 12.0527C16.6894 10.3612 15.1777 9.62362 13.9757 8.06113C13.9237 8.02207 14.0395 7.076 13.9757 7.06324C13.9119 7.05049 14.0388 7.04719 13.9757 7.06324C12.6926 7.39859 11.2584 8.71263 9.98266 9.05903C9.8868 9.08482 10.1117 9.01112 9.98266 9.05903C11.0224 10.4336 11.9562 11.7092 12.9775 13.0506C12.8413 13.0519 13.0784 13.1419 12.9775 13.0506C13.7819 13.0912 15.1678 13.0912 15.9723 13.0506C16.7281 12.9621 17.1282 12.2038 17.9688 12.0527ZM7.98613 15.0464C7.992 14.588 8.30627 13.3789 7.98613 13.0506C7.66599 12.7223 6.44821 13.0565 5.9896 13.0506C5.53098 13.0447 5.31977 12.7306 4.99133 13.0506C4.66289 13.3706 4.9972 14.588 4.99133 15.0464C4.90711 14.8356 4.98843 15.2733 4.99133 15.0464C5.07555 15.2572 4.83281 15.8817 4.99133 16.0443C5.14985 16.2068 5.78091 15.9547 5.9896 16.0443C5.76251 16.0414 6.19828 16.1338 5.9896 16.0443C6.21668 16.0472 6.77695 16.1284 6.98786 16.0443C7.19877 15.9601 7.8235 16.2027 7.98613 16.0443C8.14876 15.8858 7.89654 15.255 7.98613 15.0464C8.07571 14.8378 7.98322 15.2733 7.98613 15.0464Z" fill="#61C7E8"/>
<path d="M20.3225 27.0493L16.0645 24.1971C15.1494 23.6952 15 24.2024 15 25.1478V30.8522C15 31.7976 15.1494 32.3048 16.0645 31.8029L20.3225 28.9507C21.2258 28.4488 21.2258 27.5512 20.3225 27.0493Z" fill="#61C7E8"/>
</svg>
