<svg width="35" height="35" viewBox="0 0 35 35" fill="none" xmlns="http://www.w3.org/2000/svg">
<circle cx="17.5" cy="17.5" r="17.5" fill="#61C7E8"/>
<path d="M18.5907 24.6777H25.622C25.8307 24.6777 25.9999 24.5087 25.9999 24.3C25.9999 24.0913 25.8307 23.9222 25.622 23.9222H18.5907C18.4186 23.1664 17.7419 22.6001 16.933 22.6001C16.1255 22.6001 15.4473 23.1651 15.2752 23.9222H10.5109C10.3022 23.9222 10.133 24.0913 10.133 24.3C10.133 24.5087 10.3022 24.6777 10.5109 24.6777H15.2752C15.4473 25.4337 16.1243 26 16.933 26C17.7404 26 18.4186 25.4348 18.5907 24.6777ZM24.2573 17.8777H25.6218C25.8305 17.8777 25.9997 17.7086 25.9997 17.4999C25.9997 17.2912 25.8305 17.122 25.6218 17.122H24.2573C24.0852 16.3662 23.4085 15.7999 22.5995 15.7999C21.7921 15.7999 21.1139 16.3649 20.9418 17.122H10.5112C10.3025 17.122 10.1333 17.2912 10.1333 17.4999C10.1333 17.7086 10.3025 17.8777 10.5112 17.8777H20.9418C21.1139 18.6335 21.7908 19.1998 22.5995 19.1998C23.407 19.1998 24.0852 18.6348 24.2573 17.8777ZM15.1907 11.0778L25.6213 11.0778C25.83 11.0778 25.9992 10.9087 25.9992 10.7C25.9992 10.4913 25.83 10.3223 25.6213 10.3223L15.1907 10.3223C15.0187 9.56632 14.3417 9 13.533 9C12.7256 9 12.0473 9.56524 11.8752 10.3223H10.5107C10.302 10.3223 10.1329 10.4913 10.1329 10.7C10.1329 10.9087 10.302 11.0778 10.5107 11.0778H11.8752C12.0473 11.8336 12.724 12.3999 13.533 12.3999C14.3404 12.3999 15.0187 11.8349 15.1907 11.0778Z" fill="white"/>
</svg>
