<svg width="290" height="34" viewBox="0 0 290 34" fill="none" xmlns="http://www.w3.org/2000/svg">
<g clip-path="url(#clip0_1258_3082)">
<path d="M221.856 8.08592C222.704 8.08592 223.313 8.31632 223.672 8.77711C224.042 9.23791 224.227 9.9291 224.227 10.8397V11.8271C224.227 12.7377 224.042 13.4289 223.672 13.8897C223.302 14.3505 222.693 14.5919 221.856 14.5919H217.288V17.1592C217.288 17.3567 217.212 17.4554 217.049 17.4554H215.853C215.679 17.4554 215.603 17.3567 215.603 17.1592V8.48089C215.603 8.21758 215.711 8.07495 215.929 8.07495H221.856V8.08592ZM217.288 12.8255H221.519C221.899 12.8255 222.16 12.7268 222.313 12.5293C222.465 12.3318 222.541 12.0356 222.541 11.6296V11.125C222.541 10.719 222.465 10.4228 222.313 10.2253C222.16 10.0278 221.888 9.9291 221.519 9.9291H217.44C217.343 9.9291 217.299 9.98395 217.299 10.0937V12.8255H217.288Z" fill="#1EADE5"/>
<path d="M229.12 8.08594C229.403 8.08594 229.631 8.15177 229.827 8.29439C230.023 8.43702 230.208 8.70033 230.393 9.10627L234.047 17.1592C234.079 17.247 234.09 17.3238 234.079 17.3786C234.057 17.4335 234.003 17.4664 233.916 17.4664H232.513C232.383 17.4664 232.307 17.4115 232.263 17.2908L231.48 15.5574H226.293L225.531 17.2908C225.477 17.4115 225.401 17.4664 225.281 17.4664H223.846C223.748 17.4664 223.693 17.4335 223.672 17.3786C223.65 17.3238 223.672 17.247 223.704 17.1592L227.326 9.10627C227.511 8.70033 227.685 8.43702 227.869 8.29439C228.043 8.15177 228.25 8.08594 228.489 8.08594H229.142H229.12ZM226.978 14.0104H230.773L229.022 10.0827C228.99 10.0169 228.957 9.98397 228.903 9.98397H228.837C228.837 9.98397 228.75 10.0169 228.718 10.0827L226.989 14.0104H226.978Z" fill="#1EADE5"/>
<path d="M235.961 8.08592C236.124 8.08592 236.2 8.18466 236.2 8.38215V13.7252C236.2 14.0872 236.222 14.3834 236.277 14.6138C236.32 14.8552 236.407 15.0417 236.516 15.1734C236.625 15.316 236.777 15.4147 236.962 15.4696C237.147 15.5245 237.386 15.5574 237.669 15.5574H242.138C242.301 15.5574 242.378 15.6561 242.378 15.8536V17.1701C242.378 17.3676 242.301 17.4664 242.138 17.4664H237.603C237.049 17.4664 236.57 17.4005 236.179 17.2799C235.787 17.1592 235.472 16.9507 235.222 16.6655C234.972 16.3802 234.798 16.0182 234.678 15.5683C234.569 15.1185 234.504 14.5699 234.504 13.9226V8.37118C234.504 8.17369 234.591 8.07495 234.754 8.07495H235.95L235.961 8.08592Z" fill="#1EADE5"/>
<path d="M245.564 8.08594C245.727 8.08594 245.868 8.09691 245.988 8.12982C246.107 8.15177 246.205 8.20662 246.292 8.28342C246.379 8.36022 246.455 8.45896 246.532 8.59062C246.597 8.72227 246.673 8.89781 246.749 9.10627L249.044 15.5354C249.076 15.6122 249.12 15.6561 249.196 15.6561H249.327C249.403 15.6561 249.457 15.6122 249.479 15.5354L251.773 9.10627C251.85 8.88684 251.915 8.72227 251.991 8.59062C252.056 8.45896 252.143 8.36022 252.23 8.28342C252.317 8.20662 252.415 8.15177 252.535 8.12982C252.654 8.10788 252.785 8.08594 252.948 8.08594H254.133C254.514 8.08594 254.775 8.19565 254.906 8.4041C255.036 8.61256 255.101 8.97461 255.101 9.47929V17.1702C255.101 17.3676 255.014 17.4664 254.851 17.4664H253.72C253.557 17.4664 253.481 17.3676 253.481 17.1702V10.1705C253.481 10.0827 253.448 10.0388 253.394 10.0388H253.296C253.22 10.0388 253.176 10.0717 253.155 10.1485L250.925 16.1498C250.838 16.3912 250.751 16.5997 250.653 16.7642C250.566 16.9288 250.458 17.0714 250.36 17.1702C250.251 17.2799 250.131 17.3567 250.001 17.4006C249.87 17.4444 249.707 17.4664 249.522 17.4664H248.989C248.805 17.4664 248.641 17.4444 248.511 17.4006C248.38 17.3567 248.25 17.2799 248.152 17.1702C248.043 17.0604 247.945 16.9288 247.858 16.7642C247.771 16.5997 247.674 16.3912 247.587 16.1498L245.357 10.1485C245.335 10.0827 245.292 10.0388 245.216 10.0388H245.118C245.063 10.0388 245.031 10.0827 245.031 10.1705V17.1702C245.031 17.3676 244.944 17.4664 244.792 17.4664H243.661C243.487 17.4664 243.41 17.3676 243.41 17.1702V9.47929C243.41 8.97461 243.476 8.61256 243.606 8.4041C243.737 8.19565 243.998 8.08594 244.389 8.08594H245.596H245.564Z" fill="#1EADE5"/>
<path d="M222.53 21.2842C222.693 21.2842 222.769 21.3829 222.769 21.5804V27.1319C222.769 27.7792 222.715 28.3168 222.606 28.7776C222.497 29.2384 222.312 29.6004 222.073 29.8747C221.834 30.149 221.508 30.3574 221.116 30.4891C220.725 30.6207 220.246 30.6756 219.691 30.6756H215.385C215.211 30.6756 215.135 30.5769 215.135 30.3794V29.0628C215.135 28.8653 215.222 28.7666 215.385 28.7666H219.637C219.92 28.7666 220.159 28.7337 220.355 28.6788C220.54 28.624 220.692 28.5252 220.801 28.3826C220.91 28.24 220.986 28.0535 221.029 27.8231C221.073 27.5927 221.094 27.2855 221.094 26.9344V21.5914C221.094 21.3939 221.181 21.2952 221.345 21.2952H222.541L222.53 21.2842Z" fill="#1EADE5"/>
<path d="M225.64 21.2842C225.803 21.2842 225.879 21.3829 225.879 21.5804V26.9234C225.879 27.2855 225.901 27.5817 225.955 27.8121C225.999 28.0535 226.086 28.24 226.195 28.3716C226.303 28.5143 226.456 28.613 226.64 28.6679C226.825 28.7227 227.065 28.7556 227.347 28.7556H230.403C230.686 28.7556 230.925 28.7227 231.11 28.6679C231.295 28.613 231.447 28.5143 231.556 28.3716C231.665 28.229 231.741 28.0425 231.784 27.8121C231.828 27.5817 231.85 27.2745 231.85 26.9234V21.5804C231.85 21.3829 231.926 21.2842 232.089 21.2842H233.296C233.459 21.2842 233.535 21.3829 233.535 21.5804V27.1319C233.535 27.7792 233.481 28.3168 233.372 28.7776C233.263 29.2384 233.079 29.6004 232.839 29.8747C232.6 30.149 232.274 30.3574 231.882 30.4891C231.491 30.6098 231.012 30.6756 230.458 30.6756H227.282C226.727 30.6756 226.249 30.6098 225.857 30.4891C225.466 30.3684 225.151 30.1599 224.9 29.8747C224.65 29.5894 224.476 29.2274 224.357 28.7776C224.248 28.3277 224.183 27.7792 224.183 27.1319V21.5804C224.183 21.3829 224.27 21.2842 224.433 21.2842H225.629H225.64Z" fill="#1EADE5"/>
<path d="M237.179 21.2842C237.342 21.2842 237.483 21.2952 237.603 21.3281C237.722 21.35 237.82 21.4049 237.907 21.4817C237.994 21.5585 238.07 21.6572 238.147 21.7889C238.212 21.9205 238.288 22.0961 238.364 22.3045L240.659 28.7337C240.691 28.8105 240.735 28.8544 240.811 28.8544H240.942C241.018 28.8544 241.072 28.8105 241.094 28.7337L243.388 22.3045C243.465 22.0851 243.53 21.9205 243.606 21.7889C243.671 21.6572 243.758 21.5585 243.845 21.4817C243.932 21.4049 244.03 21.35 244.15 21.3281C244.269 21.3061 244.4 21.2842 244.563 21.2842H245.748C246.129 21.2842 246.39 21.3939 246.521 21.6023C246.651 21.8108 246.716 22.1729 246.716 22.6775V30.3684C246.716 30.5659 246.629 30.6646 246.466 30.6646H245.335C245.172 30.6646 245.096 30.5659 245.096 30.3684V23.3687C245.096 23.281 245.063 23.2371 245.009 23.2371H244.911C244.835 23.2371 244.791 23.27 244.77 23.3468L242.54 29.3481C242.453 29.5894 242.366 29.7979 242.268 29.9625C242.181 30.127 242.073 30.2697 241.975 30.3684C241.866 30.4781 241.746 30.5549 241.616 30.5988C241.485 30.6427 241.322 30.6646 241.137 30.6646H240.604C240.42 30.6646 240.256 30.6427 240.126 30.5988C239.995 30.5549 239.865 30.4781 239.767 30.3684C239.658 30.2587 239.56 30.127 239.473 29.9625C239.386 29.7979 239.288 29.5894 239.201 29.3481L236.972 23.3468C236.95 23.281 236.907 23.2371 236.831 23.2371H236.733C236.678 23.2371 236.646 23.281 236.646 23.3687V30.3684C236.646 30.5659 236.559 30.6646 236.407 30.6646H235.276C235.102 30.6646 235.025 30.5659 235.025 30.3684V22.6775C235.025 22.1729 235.091 21.8108 235.221 21.6023C235.352 21.3939 235.613 21.2842 236.004 21.2842H237.211H237.179Z" fill="#1EADE5"/>
<path d="M256.037 21.2844C256.211 21.2844 256.287 21.3832 256.287 21.5806V22.8533C256.287 23.0508 256.2 23.1495 256.037 23.1495H251.219C250.936 23.1495 250.697 23.1824 250.512 23.2373C250.327 23.2922 250.175 23.3909 250.055 23.5335C249.936 23.6761 249.86 23.8627 249.816 24.0931C249.773 24.3344 249.751 24.6197 249.751 24.9708V25.1024H255.982C256.146 25.1024 256.222 25.2012 256.222 25.3986V26.4519C256.222 26.6494 256.146 26.7481 255.982 26.7481H249.751V26.9785C249.751 27.3296 249.773 27.6148 249.816 27.8562C249.86 28.0976 249.936 28.2841 250.055 28.4157C250.164 28.5584 250.316 28.6571 250.512 28.712C250.697 28.7668 250.936 28.7997 251.219 28.7997H256.037C256.211 28.7997 256.287 28.8985 256.287 29.096V30.3686C256.287 30.5661 256.2 30.6649 256.037 30.6649H251.186C250.632 30.6649 250.153 30.599 249.762 30.4783C249.37 30.3577 249.055 30.1492 248.805 29.864C248.555 29.5787 248.381 29.2166 248.261 28.7668C248.141 28.317 248.087 27.7684 248.087 27.1211V24.8172C248.087 24.1699 248.141 23.6323 248.261 23.1824C248.37 22.7326 248.555 22.3706 248.805 22.0853C249.055 21.8001 249.37 21.6026 249.762 21.4709C250.153 21.3393 250.621 21.2734 251.186 21.2734H256.037V21.2844Z" fill="#1EADE5"/>
<path d="M259.005 21.2842C259.168 21.2842 259.244 21.3829 259.244 21.5804V30.3684C259.244 30.5659 259.168 30.6646 259.005 30.6646H257.809C257.635 30.6646 257.559 30.5659 257.559 30.3684V21.5804C257.559 21.3829 257.646 21.2842 257.809 21.2842H259.005Z" fill="#1EADE5"/>
<path d="M266.966 21.2842C267.814 21.2842 268.423 21.5146 268.782 21.9754C269.152 22.4362 269.337 23.1273 269.337 24.038V24.8059C269.337 25.5739 269.206 26.1774 268.945 26.6272C268.684 27.077 268.271 27.3623 267.684 27.4829L269.576 30.3245C269.576 30.3245 269.62 30.4342 269.609 30.522C269.598 30.6098 269.533 30.6536 269.435 30.6536H268.01C267.912 30.6536 267.847 30.6427 267.814 30.6098C267.782 30.5878 267.738 30.5439 267.706 30.4781L265.966 27.6914H262.399V30.3574C262.399 30.5549 262.322 30.6536 262.159 30.6536H260.963C260.789 30.6536 260.713 30.5549 260.713 30.3574V21.6791C260.713 21.4158 260.822 21.2732 261.039 21.2732H266.966V21.2842ZM262.399 26.0676H266.629C267.01 26.0676 267.271 25.9689 267.423 25.7714C267.575 25.5739 267.651 25.2777 267.651 24.8718V24.3122C267.651 23.9063 267.575 23.6101 267.423 23.4126C267.271 23.2151 266.999 23.1164 266.629 23.1164H262.551C262.453 23.1164 262.409 23.1712 262.409 23.2809V26.0676H262.399Z" fill="#1EADE5"/>
<path d="M275.601 21.2842C275.884 21.2842 276.112 21.35 276.308 21.4926C276.503 21.6353 276.688 21.8986 276.873 22.3045L280.527 30.3574C280.56 30.4452 280.571 30.522 280.56 30.5769C280.538 30.6317 280.484 30.6646 280.397 30.6646H278.994C278.863 30.6646 278.787 30.6098 278.744 30.4891L277.961 28.7556H272.773L272.012 30.4891C271.958 30.6098 271.881 30.6646 271.762 30.6646H270.326C270.228 30.6646 270.174 30.6317 270.152 30.5769C270.131 30.522 270.152 30.4452 270.185 30.3574L273.806 22.3045C273.991 21.8986 274.165 21.6353 274.35 21.4926C274.524 21.35 274.731 21.2842 274.97 21.2842H275.623H275.601ZM273.458 27.2087H277.254L275.503 23.281C275.47 23.2151 275.438 23.1822 275.383 23.1822H275.318C275.318 23.1822 275.231 23.2151 275.198 23.281L273.469 27.2087H273.458Z" fill="#1EADE5"/>
<path d="M282.909 21.2842C283.072 21.2842 283.149 21.3829 283.149 21.5804V25.0583H288.314V21.5804C288.314 21.3829 288.401 21.2842 288.554 21.2842H289.75C289.924 21.2842 290 21.3829 290 21.5804V30.3684C290 30.5659 289.913 30.6646 289.75 30.6646H288.554C288.39 30.6646 288.314 30.5659 288.314 30.3684V26.8027H283.149V30.3684C283.149 30.5659 283.072 30.6646 282.909 30.6646H281.713C281.539 30.6646 281.463 30.5659 281.463 30.3684V21.5804C281.463 21.3829 281.55 21.2842 281.713 21.2842H282.909Z" fill="#1EADE5"/>
<path d="M17.1503 17.8723H0V34.0001H17.1503V17.8723Z" fill="#1EADE5"/>
<path d="M35.1709 0H17.4551V17.8722H35.1709V0Z" fill="#1EADE5"/>
<path d="M31.7778 3.11572H3.32812V31.3887H31.7778V3.11572Z" fill="#1EADE5"/>
<path d="M8.60229 10.7518V27.8451H14.1269V5.33203L8.60229 10.7518Z" fill="white"/>
<path d="M26.8292 10.7518V27.8451H21.2937V5.33203L26.8292 10.7518Z" fill="white"/>
<path d="M20.4778 15.1952V27.8451H14.9531V9.77539L20.4778 15.1952Z" fill="white"/>
<path d="M41.1086 8.48071V20.2529H43.4142V12.957L48.0688 20.2529L52.6256 13.0228V20.2529H55.1377V8.48071H52.6256L48.1232 15.6779L43.4142 8.48071H41.1086Z" fill="white"/>
<path d="M67.8287 10.8615V8.48071H56.2139V20.2529H67.8287V17.8721H58.5194V15.4036H65.3708V13.0996H58.5194V10.8615H67.8287Z" fill="white"/>
<path d="M80.6832 8.48071H68.9053V10.8615H73.6143V20.2529H75.9198V10.8615H80.6832V8.48071Z" fill="white"/>
<path d="M134.799 17.9818V8.48071H132.287V20.2529H133.538H134.799H141.705V17.9818H134.799Z" fill="white"/>
<path d="M145.185 8.48071H142.781V20.2529H145.185V8.48071Z" fill="white"/>
<path d="M157.833 8.48071H146.261V10.8615H150.916V20.2529H153.222V10.8615H157.833V8.48071Z" fill="white"/>
<path d="M180.356 8.48071V16.4459L173.548 8.48071H170.992V20.2529H173.548V12.3316L180.356 20.2529H181.139H182.716V8.48071H180.356Z" fill="white"/>
<path d="M103.043 8.48071H96.6486C95.2348 8.48071 94.082 9.64367 94.082 11.0699V17.6637C94.082 19.0899 95.2348 20.2529 96.6486 20.2529H103.043C104.457 20.2529 105.61 19.0899 105.61 17.6637V11.0699C105.61 9.64367 104.457 8.48071 103.043 8.48071ZM103.326 17.3016C103.326 17.7953 102.934 18.1903 102.445 18.1903H97.0292C96.5398 18.1903 96.1483 17.7953 96.1483 17.3016V11.4978C96.1483 11.0041 96.5398 10.6091 97.0292 10.6091H102.445C102.934 10.6091 103.326 11.0041 103.326 11.4978V17.3016Z" fill="white"/>
<path d="M128.546 8.48071H122.152C120.738 8.48071 119.585 9.64367 119.585 11.0699V17.6637C119.585 19.0899 120.738 20.2529 122.152 20.2529H128.546C129.96 20.2529 131.113 19.0899 131.113 17.6637V11.0699C131.113 9.64367 129.96 8.48071 128.546 8.48071ZM128.829 17.3016C128.829 17.7953 128.437 18.1903 127.948 18.1903H122.532C122.043 18.1903 121.651 17.7953 121.651 17.3016V11.4978C121.651 11.0041 122.043 10.6091 122.532 10.6091H127.948C128.437 10.6091 128.829 11.0041 128.829 11.4978V17.3016Z" fill="white"/>
<path d="M93.3755 14.2516V10.8615C93.3755 9.44619 91.9617 8.48071 90.4283 8.48071H81.7607V20.2529H84.2729V16.5665H86.4154L90.1238 20.2529H93.3864L89.7541 16.5665H90.7763C92.3424 16.5665 93.3864 15.261 93.3864 14.2406L93.3755 14.2516ZM84.2621 14.3723V10.8615H90.1456C90.9938 10.8615 91.2766 11.2455 91.2766 12.5291C91.2766 13.8128 91.07 14.3723 90.0803 14.3723H84.2621Z" fill="white"/>
<path d="M115.843 8.48071H106.687V20.2529H109.09V16.5665H115.843C117.257 16.5665 118.41 15.4036 118.41 13.9773V11.0699C118.41 9.64367 117.257 8.48071 115.843 8.48071ZM116.007 13.6482C116.007 14.0651 115.67 14.4052 115.256 14.4052H109.101V10.8615H115.256C115.67 10.8615 116.007 11.2016 116.007 11.6185V13.6482Z" fill="white"/>
<path d="M167.349 8.48071H160.911C159.497 8.48071 158.344 9.64367 158.344 11.0699V20.2529H160.65V17.8612H167.457V20.2529H169.915V11.0699C169.915 9.64367 168.763 8.48071 167.349 8.48071ZM160.65 15.5023V11.5307C160.65 11.1577 160.954 10.8505 161.324 10.8505H166.783C167.153 10.8505 167.457 11.1577 167.457 11.5307V15.5023H160.65Z" fill="white"/>
<path d="M61.2059 25.969C62.1738 25.969 62.5762 26.4188 62.5762 27.2855V27.7573C62.5762 28.624 62.1847 29.0738 61.2059 29.0738H58.5741V30.3026C58.5741 30.4014 58.5306 30.4452 58.4327 30.4452H57.7476C57.6497 30.4452 57.6062 30.4014 57.6062 30.3026V26.1445C57.6062 26.0128 57.6715 25.947 57.802 25.947H61.2168L61.2059 25.969ZM58.5741 28.24H61.0102C61.4452 28.24 61.5974 28.0535 61.5974 27.6695V27.4281C61.5974 27.0442 61.4343 26.8576 61.0102 26.8576H58.6611C58.6067 26.8576 58.5741 26.8796 58.5741 26.9344V28.24Z" fill="#1EADE5"/>
<path d="M66.6767 25.969C67.6446 25.969 68.047 26.4188 68.047 27.2855V27.6476C68.047 28.3826 67.7643 28.8105 67.1009 28.9312L68.1884 30.2917C68.1884 30.2917 68.221 30.4562 68.1014 30.4562H67.2857C67.177 30.4562 67.1444 30.4343 67.1117 30.3684L66.1112 29.03H64.0558V30.3026C64.0558 30.4014 64.0123 30.4452 63.9144 30.4452H63.2293C63.1314 30.4452 63.0879 30.4014 63.0879 30.3026V26.1445C63.0879 26.0128 63.1531 25.947 63.2836 25.947H66.6985L66.6767 25.969ZM64.0449 28.262H66.481C66.916 28.262 67.0682 28.0755 67.0682 27.6915V27.4172C67.0682 27.0332 66.9051 26.8467 66.481 26.8467H64.1319C64.0775 26.8467 64.0449 26.8686 64.0449 26.9235V28.262Z" fill="#1EADE5"/>
<path d="M73.1039 25.969C73.2018 25.969 73.2453 26.0129 73.2453 26.1116V26.726C73.2453 26.8248 73.1909 26.8686 73.1039 26.8686H70.3307C69.6673 26.8686 69.4824 27.0661 69.4824 27.7354V27.8012H73.0713C73.1691 27.8012 73.2126 27.8451 73.2126 27.9438V28.4485C73.2126 28.5472 73.1691 28.5911 73.0713 28.5911H69.4824V28.7008C69.4824 29.3701 69.6673 29.5676 70.3307 29.5676H73.1039C73.2018 29.5676 73.2453 29.6115 73.2453 29.7102V30.3246C73.2453 30.4233 73.1909 30.4672 73.1039 30.4672H70.3089C69.0257 30.4672 68.5254 30.0064 68.5254 28.7776V27.6695C68.5254 26.4408 69.0257 25.98 70.3089 25.98H73.1039V25.969Z" fill="#1EADE5"/>
<path d="M75.115 25.969C75.4957 25.969 75.6262 26.0568 75.8002 26.4517L77.127 29.5237C77.127 29.5237 77.1705 29.5785 77.214 29.5785H77.2901C77.2901 29.5785 77.3554 29.5676 77.3771 29.5237L78.7039 26.4517C78.8779 26.0458 78.9975 25.969 79.3781 25.969H80.0633C80.5092 25.969 80.6179 26.1445 80.6179 26.6382V30.3136C80.6179 30.4124 80.5636 30.4562 80.4766 30.4562H79.824C79.7262 30.4562 79.6827 30.4124 79.6827 30.3136V26.9674C79.6827 26.9674 79.6718 26.9016 79.6283 26.9016H79.5739C79.5739 26.9016 79.5086 26.9125 79.4869 26.9564L78.2036 29.8309C77.997 30.2917 77.8121 30.4562 77.388 30.4562H77.0835C76.6593 30.4562 76.4744 30.2917 76.2678 29.8309L74.9845 26.9564C74.9845 26.9564 74.9519 26.9016 74.8975 26.9016H74.8432C74.8432 26.9016 74.7888 26.9235 74.7888 26.9674V30.3136C74.7888 30.4124 74.7453 30.4562 74.6474 30.4562H73.9949C73.897 30.4562 73.8535 30.4124 73.8535 30.3136V26.6382C73.8535 26.1555 73.9731 25.969 74.419 25.969H75.115Z" fill="#1EADE5"/>
<path d="M82.141 25.969C82.2389 25.969 82.2824 26.0129 82.2824 26.1116V30.3136C82.2824 30.4124 82.2389 30.4562 82.141 30.4562H81.4558C81.358 30.4562 81.3145 30.4124 81.3145 30.3136V26.1116C81.3145 26.0129 81.3688 25.969 81.4558 25.969H82.141Z" fill="#1EADE5"/>
<path d="M83.8265 25.969C83.9244 25.969 83.9679 26.0129 83.9679 26.1116V28.6679C83.9679 29.3481 84.1637 29.5456 84.8162 29.5456H86.578C87.2305 29.5456 87.4154 29.3481 87.4154 28.6679V26.1116C87.4154 26.0129 87.4589 25.969 87.5567 25.969H88.2528C88.3506 25.969 88.3941 26.0129 88.3941 26.1116V28.7667C88.3941 29.9955 87.9047 30.4562 86.6106 30.4562H84.7835C83.5003 30.4562 83 29.9955 83 28.7667V26.1116C83 26.0129 83.0544 25.969 83.1414 25.969H83.8265Z" fill="#1EADE5"/>
<path d="M90.3406 25.969C90.7213 25.969 90.8518 26.0568 91.0258 26.4517L92.3526 29.5237C92.3526 29.5237 92.3961 29.5785 92.4396 29.5785H92.5157C92.5157 29.5785 92.5809 29.5676 92.6027 29.5237L93.9295 26.4517C94.1035 26.0458 94.2231 25.969 94.6037 25.969H95.2889C95.7348 25.969 95.8435 26.1445 95.8435 26.6382V30.3136C95.8435 30.4124 95.7891 30.4562 95.7021 30.4562H95.0496C94.9517 30.4562 94.9082 30.4124 94.9082 30.3136V26.9674C94.9082 26.9674 94.8974 26.9016 94.8539 26.9016H94.7995C94.7995 26.9016 94.7342 26.9125 94.7125 26.9564L93.4292 29.8309C93.2226 30.2917 93.0377 30.4562 92.6136 30.4562H92.3091C91.8849 30.4562 91.7 30.2917 91.4934 29.8309L90.2101 26.9564C90.2101 26.9564 90.1775 26.9016 90.1231 26.9016H90.0687C90.0687 26.9016 90.0144 26.9235 90.0144 26.9674V30.3136C90.0144 30.4124 89.9709 30.4562 89.873 30.4562H89.2205C89.1226 30.4562 89.0791 30.4124 89.0791 30.3136V26.6382C89.0791 26.1555 89.1987 25.969 89.6446 25.969H90.3406Z" fill="#1EADE5"/>
<path d="M102.151 25.969C103.119 25.969 103.522 26.4188 103.522 27.2855V27.7573C103.522 28.624 103.13 29.0738 102.151 29.0738H99.5197V30.3026C99.5197 30.4014 99.4762 30.4452 99.3783 30.4452H98.6931C98.5953 30.4452 98.5518 30.4014 98.5518 30.3026V26.1445C98.5518 26.0128 98.617 25.947 98.7475 25.947H102.162L102.151 25.969ZM99.5197 28.24H101.956C102.391 28.24 102.543 28.0535 102.543 27.6695V27.4281C102.543 27.0442 102.38 26.8576 101.956 26.8576H99.6067C99.5523 26.8576 99.5197 26.8796 99.5197 26.9344V28.24Z" fill="#1EADE5"/>
<path d="M107.622 25.969C108.59 25.969 108.992 26.4188 108.992 27.2855V27.6476C108.992 28.3826 108.71 28.8105 108.046 28.9312L109.134 30.2917C109.134 30.2917 109.166 30.4562 109.047 30.4562H108.231C108.122 30.4562 108.09 30.4343 108.057 30.3684L107.057 29.03H105.001V30.3026C105.001 30.4014 104.958 30.4452 104.86 30.4452H104.175C104.077 30.4452 104.033 30.4014 104.033 30.3026V26.1445C104.033 26.0128 104.098 25.947 104.229 25.947H107.644L107.622 25.969ZM104.99 28.262H107.426C107.861 28.262 108.014 28.0755 108.014 27.6915V27.4172C108.014 27.0332 107.85 26.8467 107.426 26.8467H105.077C105.023 26.8467 104.99 26.8686 104.99 26.9235V28.262Z" fill="#1EADE5"/>
<path d="M113.212 25.969C114.506 25.969 114.995 26.4298 114.995 27.6586V28.7667C114.995 29.9955 114.506 30.4562 113.212 30.4562H111.244C109.96 30.4562 109.46 29.9955 109.46 28.7667V27.6586C109.46 26.4298 109.96 25.969 111.244 25.969H113.212ZM110.439 28.6899C110.439 29.3591 110.634 29.5566 111.287 29.5566H113.179C113.832 29.5566 114.028 29.3591 114.028 28.6899V27.7244C114.028 27.0552 113.832 26.8577 113.179 26.8577H111.287C110.634 26.8577 110.439 27.0552 110.439 27.7244V28.6899Z" fill="#1EADE5"/>
<path d="M119.258 25.969C120.226 25.969 120.628 26.4188 120.628 27.2855V27.7573C120.628 28.624 120.237 29.0738 119.258 29.0738H116.626V30.3026C116.626 30.4014 116.583 30.4452 116.485 30.4452H115.8C115.702 30.4452 115.658 30.4014 115.658 30.3026V26.1445C115.658 26.0128 115.723 25.947 115.854 25.947H119.269L119.258 25.969ZM116.626 28.24H119.062C119.497 28.24 119.649 28.0535 119.649 27.6695V27.4281C119.649 27.0442 119.486 26.8576 119.062 26.8576H116.713C116.659 26.8576 116.626 26.8796 116.626 26.9344V28.24Z" fill="#1EADE5"/>
<path d="M125.653 25.969C125.751 25.969 125.794 26.0129 125.794 26.1116V26.726C125.794 26.8248 125.74 26.8686 125.653 26.8686H122.88C122.216 26.8686 122.031 27.0661 122.031 27.7354V27.8012H125.62C125.718 27.8012 125.762 27.8451 125.762 27.9438V28.4485C125.762 28.5472 125.718 28.5911 125.62 28.5911H122.031V28.7008C122.031 29.3701 122.216 29.5676 122.88 29.5676H125.653C125.751 29.5676 125.794 29.6115 125.794 29.7102V30.3246C125.794 30.4233 125.74 30.4672 125.653 30.4672H122.858C121.575 30.4672 121.074 30.0064 121.074 28.7776V27.6695C121.074 26.4408 121.575 25.98 122.858 25.98H125.653V25.969Z" fill="#1EADE5"/>
<path d="M130.003 25.969C130.971 25.969 131.373 26.4188 131.373 27.2855V27.6476C131.373 28.3826 131.09 28.8105 130.427 28.9312L131.515 30.2917C131.515 30.2917 131.547 30.4562 131.428 30.4562H130.612C130.503 30.4562 130.471 30.4343 130.438 30.3684L129.437 29.03H127.382V30.3026C127.382 30.4014 127.338 30.4452 127.241 30.4452H126.555C126.458 30.4452 126.414 30.4014 126.414 30.3026V26.1445C126.414 26.0128 126.479 25.947 126.61 25.947H130.025L130.003 25.969ZM127.371 28.262H129.807C130.242 28.262 130.394 28.0755 130.394 27.6915V27.4172C130.394 27.0332 130.231 26.8467 129.807 26.8467H127.458C127.404 26.8467 127.371 26.8686 127.371 26.9235V28.262Z" fill="#1EADE5"/>
<path d="M136.778 25.969C136.876 25.969 136.92 26.0129 136.92 26.1116V26.737C136.92 26.8357 136.865 26.8796 136.778 26.8796H134.788V30.3136C134.788 30.4124 134.745 30.4562 134.647 30.4562H133.951C133.853 30.4562 133.809 30.4124 133.809 30.3136V26.8796H131.819C131.721 26.8796 131.678 26.8248 131.678 26.737V26.1116C131.678 26.0129 131.732 25.969 131.819 25.969H136.778Z" fill="#1EADE5"/>
<path d="M138.202 25.969C138.3 25.969 138.344 26.0129 138.344 26.1116V30.3136C138.344 30.4124 138.3 30.4562 138.202 30.4562H137.517C137.419 30.4562 137.376 30.4124 137.376 30.3136V26.1116C137.376 26.0129 137.43 25.969 137.517 25.969H138.202Z" fill="#1EADE5"/>
<path d="M143.586 25.969C143.684 25.969 143.728 26.0129 143.728 26.1116V26.726C143.728 26.8248 143.673 26.8686 143.586 26.8686H140.813C140.15 26.8686 139.965 27.0661 139.965 27.7354V27.8012H143.554C143.652 27.8012 143.695 27.8451 143.695 27.9438V28.4485C143.695 28.5472 143.652 28.5911 143.554 28.5911H139.965V28.7008C139.965 29.3701 140.15 29.5676 140.813 29.5676H143.586C143.684 29.5676 143.728 29.6115 143.728 29.7102V30.3246C143.728 30.4233 143.673 30.4672 143.586 30.4672H140.791C139.508 30.4672 139.008 30.0064 139.008 28.7776V27.6695C139.008 26.4408 139.508 25.98 140.791 25.98H143.586V25.969Z" fill="#1EADE5"/>
<path d="M148.752 25.969C148.85 25.969 148.894 26.0129 148.894 26.1116V26.726C148.894 26.8248 148.85 26.8686 148.752 26.8686H145.566C145.327 26.8686 145.229 27.0003 145.229 27.2307V27.4501C145.229 27.6915 145.337 27.8122 145.555 27.8122H147.937C148.665 27.8122 149.046 28.2071 149.046 28.9203V29.4359C149.046 30.0613 148.687 30.4782 147.926 30.4782H144.402C144.304 30.4782 144.261 30.4343 144.261 30.3356V29.7212C144.261 29.6224 144.315 29.5785 144.402 29.5785H147.741C147.98 29.5785 148.078 29.4469 148.078 29.2165V28.9532C148.078 28.7118 147.969 28.5911 147.752 28.5911H145.37C144.641 28.5911 144.261 28.1962 144.261 27.483V27.0113C144.261 26.3859 144.62 25.969 145.381 25.969H148.752Z" fill="#1EADE5"/>
<path d="M152.471 25.969C152.569 25.969 152.612 26.0129 152.612 26.1116V28.6679C152.612 29.3481 152.808 29.5456 153.461 29.5456H156.038C156.136 29.5456 156.18 29.5895 156.18 29.6883V30.3136C156.18 30.4124 156.136 30.4562 156.038 30.4562H153.428C152.145 30.4562 151.645 29.9955 151.645 28.7667V26.1116C151.645 26.0129 151.699 25.969 151.786 25.969H152.471Z" fill="#1EADE5"/>
<path d="M157.343 25.969C157.441 25.969 157.485 26.0129 157.485 26.1116V28.6679C157.485 29.3481 157.68 29.5456 158.333 29.5456H160.91C161.008 29.5456 161.052 29.5895 161.052 29.6883V30.3136C161.052 30.4124 161.008 30.4562 160.91 30.4562H158.3C157.017 30.4562 156.517 29.9955 156.517 28.7667V26.1116C156.517 26.0129 156.571 25.969 156.658 25.969H157.343Z" fill="#1EADE5"/>
<path d="M166.076 25.969C166.174 25.969 166.218 26.0129 166.218 26.1116V26.737C166.218 26.8357 166.174 26.8796 166.076 26.8796H163.249C162.596 26.8796 162.4 27.0771 162.4 27.7463V28.6569C162.4 29.3372 162.596 29.5346 163.249 29.5346H166.076C166.174 29.5346 166.218 29.5785 166.218 29.6773V30.3026C166.218 30.4014 166.174 30.4453 166.076 30.4453H163.205C161.922 30.4453 161.422 29.9845 161.422 28.7557V27.6476C161.422 26.4188 161.922 25.958 163.205 25.958H166.076V25.969Z" fill="#1EADE5"/>
<path d="M199.333 0H198.245V34H199.333V0Z" fill="white"/>
</g>
<defs>
<clipPath id="clip0_1258_3082">
<rect width="290" height="34" fill="white"/>
</clipPath>
</defs>
</svg>
