<svg width="21" height="31" viewBox="0 0 21 31" fill="none" xmlns="http://www.w3.org/2000/svg">
<path fill-rule="evenodd" clip-rule="evenodd" d="M2.75179 0C2.66428 0 2.57139 0.0201122 2.49041 0.0563141C2.40943 0.0925161 2.34338 0.147324 2.2813 0.213942C2.21946 0.280567 2.16858 0.363274 2.13498 0.450513C2.10137 0.537752 2.0827 0.626496 2.0827 0.720769V27.9202C2.0827 28.0144 2.10137 28.1034 2.13498 28.1904C2.16858 28.2777 2.21946 28.3604 2.2813 28.427C2.34338 28.4936 2.40943 28.5487 2.49041 28.5846C2.57139 28.6208 2.66428 28.6409 2.75179 28.6409H7.58222C7.66974 28.6409 7.75236 28.6208 7.8331 28.5846C7.91409 28.5484 7.99063 28.4936 8.05271 28.427C8.11479 28.3604 8.16566 28.2777 8.19904 28.1904C8.23264 28.1032 8.25131 28.0144 8.25131 27.9202V25.465C8.25131 24.1285 9.25854 23.0435 10.4992 23.0435C11.7398 23.0435 12.7576 24.1285 12.7576 25.465V27.9202C12.7576 28.0144 12.766 28.1034 12.7993 28.1904C12.833 28.2777 12.8838 28.3604 12.9457 28.427C13.0078 28.4936 13.0843 28.5487 13.1653 28.5846C13.2463 28.6208 13.3391 28.6409 13.4267 28.6409H18.2569C18.3444 28.6409 18.427 28.6208 18.5077 28.5846C18.5887 28.5484 18.6653 28.4936 18.7273 28.427C18.7892 28.3604 18.8403 28.2777 18.8737 28.1904C18.9073 28.1032 18.9259 28.0144 18.9259 27.9202V0.720769C18.9259 0.626496 18.9073 0.537745 18.8737 0.450513C18.8401 0.363281 18.7892 0.280818 18.7273 0.213942C18.6653 0.147318 18.5887 0.0922651 18.5077 0.0563141C18.4268 0.0201122 18.3444 0 18.2569 0H2.75179ZM6.10798 3.18725H7.71802C7.80554 3.18725 7.88816 3.20736 7.9689 3.24356C8.04988 3.27977 8.12643 3.33458 8.18851 3.40119C8.25036 3.46782 8.30146 3.53921 8.33483 3.62645C8.36844 3.71369 8.38711 3.81375 8.38711 3.90802V5.6311C8.38711 5.72538 8.36844 5.82544 8.33483 5.91267C8.30123 5.99991 8.25035 6.07131 8.18851 6.13793C8.12643 6.20456 8.04988 6.25961 7.9689 6.29556C7.88792 6.33176 7.80554 6.35187 7.71802 6.35187H6.10798C6.02046 6.35187 5.93784 6.33176 5.8571 6.29556C5.77612 6.25936 5.69957 6.20455 5.63749 6.13793C5.57564 6.07131 5.52454 5.99991 5.49117 5.91267C5.45756 5.82544 5.43889 5.72538 5.43889 5.6311V3.90802C5.43889 3.81375 5.45756 3.71369 5.49117 3.62645C5.52477 3.53921 5.57565 3.46782 5.63749 3.40119C5.69957 3.33457 5.77612 3.27952 5.8571 3.24356C5.93808 3.20736 6.02046 3.18725 6.10798 3.18725ZM13.2803 3.18725H14.8903C14.9778 3.18725 15.0602 3.20736 15.1412 3.24356C15.2222 3.27977 15.2987 3.33458 15.3608 3.40119C15.4226 3.46782 15.4737 3.53921 15.5071 3.62645C15.5407 3.71369 15.5594 3.81375 15.5594 3.90802V5.6311C15.5594 5.72538 15.5407 5.82544 15.5071 5.91267C15.4735 5.99991 15.4226 6.07131 15.3608 6.13793C15.2987 6.20456 15.2222 6.25961 15.1412 6.29556C15.0602 6.33176 14.9778 6.35187 14.8903 6.35187H13.2803C13.1928 6.35187 13.1104 6.33176 13.0294 6.29556C12.9484 6.25936 12.8719 6.20455 12.8098 6.13793C12.7479 6.07131 12.6968 5.99991 12.6635 5.91267C12.6298 5.82544 12.6112 5.72538 12.6112 5.6311V3.90802C12.6112 3.81375 12.6298 3.71369 12.6635 3.62645C12.6971 3.53921 12.7479 3.46782 12.8098 3.40119C12.8719 3.33457 12.9484 3.27952 13.0294 3.24356C13.1104 3.20736 13.1928 3.18725 13.2803 3.18725ZM6.10798 10.407H7.71802C7.80554 10.407 7.88816 10.4272 7.9689 10.4634C8.04988 10.4996 8.12643 10.5544 8.18851 10.621C8.25036 10.6876 8.30146 10.7703 8.33483 10.8576C8.36844 10.9448 8.38711 11.0335 8.38711 11.1278V12.8622C8.38711 12.9565 8.36844 13.0452 8.33483 13.1325C8.30123 13.2197 8.25035 13.3022 8.18851 13.3691C8.12643 13.4357 8.04988 13.4907 7.9689 13.5267C7.88792 13.5629 7.80554 13.583 7.71802 13.583H6.10798C6.02046 13.583 5.93784 13.5629 5.8571 13.5267C5.77612 13.4905 5.69957 13.4357 5.63749 13.3691C5.57564 13.3024 5.52454 13.2197 5.49117 13.1325C5.45756 13.0452 5.43889 12.9565 5.43889 12.8622V11.1278C5.43889 11.0335 5.45756 10.9448 5.49117 10.8576C5.52477 10.7703 5.57565 10.6879 5.63749 10.621C5.69957 10.5544 5.77612 10.4993 5.8571 10.4634C5.93808 10.4272 6.02046 10.407 6.10798 10.407ZM13.2803 10.407H14.8903C14.9778 10.407 15.0602 10.4272 15.1412 10.4634C15.2222 10.4996 15.2987 10.5544 15.3608 10.621C15.4226 10.6876 15.4737 10.7703 15.5071 10.8576C15.5407 10.9448 15.5594 11.0335 15.5594 11.1278V12.8622C15.5594 12.9565 15.5407 13.0452 15.5071 13.1325C15.4735 13.2197 15.4226 13.3022 15.3608 13.3691C15.2987 13.4357 15.2222 13.4907 15.1412 13.5267C15.0602 13.5629 14.9778 13.583 14.8903 13.583H13.2803C13.1928 13.583 13.1104 13.5629 13.0294 13.5267C12.9484 13.4905 12.8719 13.4357 12.8098 13.3691C12.7479 13.3024 12.6968 13.2197 12.6635 13.1325C12.6298 13.0452 12.6112 12.9565 12.6112 12.8622V11.1278C12.6112 11.0335 12.6298 10.9448 12.6635 10.8576C12.6971 10.7703 12.7479 10.6879 12.8098 10.621C12.8719 10.5544 12.9484 10.4993 13.0294 10.4634C13.1104 10.4272 13.1928 10.407 13.2803 10.407ZM6.10798 17.6268H7.71802C7.80554 17.6268 7.88816 17.6469 7.9689 17.6832C8.04988 17.7194 8.12643 17.7742 8.18851 17.8408C8.25036 17.9074 8.30146 17.9788 8.33483 18.066C8.36844 18.1533 8.38711 18.2533 8.38711 18.3476V20.0707C8.38711 20.165 8.36844 20.265 8.33483 20.3523C8.30123 20.4395 8.25035 20.5109 8.18851 20.5775C8.12643 20.6444 8.04988 20.6992 7.9689 20.7351C7.88792 20.7713 7.80554 20.7915 7.71802 20.7915H6.10798C6.02046 20.7915 5.93784 20.7713 5.8571 20.7351C5.77612 20.6989 5.69957 20.6441 5.63749 20.5775C5.57564 20.5109 5.52454 20.4395 5.49117 20.3523C5.45756 20.265 5.43889 20.165 5.43889 20.0707V18.3476C5.43889 18.2533 5.45756 18.1533 5.49117 18.066C5.52477 17.9788 5.57565 17.9074 5.63749 17.8408C5.69957 17.7742 5.77612 17.7191 5.8571 17.6832C5.93808 17.6469 6.02046 17.6268 6.10798 17.6268ZM13.2803 17.6268H14.8903C14.9778 17.6268 15.0602 17.6469 15.1412 17.6832C15.2222 17.7194 15.2987 17.7742 15.3608 17.8408C15.4226 17.9074 15.4737 17.9788 15.5071 18.066C15.5407 18.1533 15.5594 18.2533 15.5594 18.3476V20.0707C15.5594 20.165 15.5407 20.265 15.5071 20.3523C15.4735 20.4395 15.4226 20.5109 15.3608 20.5775C15.2987 20.6444 15.2222 20.6992 15.1412 20.7351C15.0602 20.7713 14.9778 20.7915 14.8903 20.7915H13.2803C13.1928 20.7915 13.1104 20.7713 13.0294 20.7351C12.9484 20.6989 12.8719 20.6441 12.8098 20.5775C12.7479 20.5109 12.6968 20.4395 12.6635 20.3523C12.6298 20.265 12.6112 20.165 12.6112 20.0707V18.3476C12.6112 18.2533 12.6298 18.1533 12.6635 18.066C12.6971 17.9788 12.7479 17.9074 12.8098 17.8408C12.8719 17.7742 12.9484 17.7191 13.0294 17.6832C13.1104 17.6469 13.1928 17.6268 13.2803 17.6268Z" fill="#61C7E8"/>
<path fill-rule="evenodd" clip-rule="evenodd" d="M0.678657 29.5582C0.590206 29.5582 0.50176 29.5745 0.419612 29.61C0.337697 29.6457 0.262318 29.6987 0.199306 29.7656C0.136293 29.8325 0.0858875 29.9129 0.0518094 30.0007C0.0177367 30.0884 0 30.1837 0 30.279C0 30.3742 0.0177367 30.4693 0.0518094 30.5573C0.0858821 30.6453 0.136293 30.7255 0.199306 30.7923C0.262318 30.8592 0.337697 30.9125 0.419612 30.9479C0.501527 30.9836 0.590212 31.0012 0.678657 31H20.3213C20.4098 31 20.4982 30.9834 20.5804 30.9479C20.6623 30.9122 20.7377 30.8592 20.8007 30.7923C20.8637 30.7254 20.9141 30.645 20.9482 30.5573C20.9823 30.4695 21 30.3742 21 30.279C21 30.1837 20.9823 30.0887 20.9482 30.0007C20.9141 29.9129 20.8637 29.8325 20.8007 29.7656C20.7377 29.6987 20.6623 29.6454 20.5804 29.61C20.4985 29.5743 20.4098 29.5567 20.3213 29.5582H0.678657Z" fill="#61C7E8"/>
</svg>
