<svg width="39" height="27" viewBox="0 0 39 27" fill="none" xmlns="http://www.w3.org/2000/svg">
<path d="M2.38477 16.0574L4.69341 22.4003C4.90621 22.985 5.49819 23.3046 6.01787 23.1155L6.95757 22.7734L3.87939 14.3162L2.93969 14.6582C2.41999 14.8474 2.17198 15.4728 2.38477 16.0574Z" fill="#00ADE5"/>
<path d="M7.75877 9.63216L4.93969 10.6582C4.41999 10.8474 4.16379 11.4503 4.36645 12.0071L8.76385 24.0888C8.96652 24.6456 9.55031 24.9428 10.07 24.7536L12.8891 23.7276C13.4096 23.5381 13.665 22.9355 13.4623 22.3787L9.06491 10.297C8.86225 9.74014 8.27846 9.44301 7.75877 9.63216Z" fill="#00ADE5"/>
<path d="M33.9397 3.6581L33 4.00012L36.0782 12.4574L37.0179 12.1153C37.5376 11.9262 37.7856 11.3008 37.5728 10.7162L35.2642 4.37324C35.0514 3.78858 34.4584 3.46932 33.9397 3.6581Z" fill="#00ADE5"/>
<path d="M29.7588 1.63216L26.9397 2.65822C26.4192 2.84768 26.1638 3.45025 26.3665 4.00706L30.7639 16.0888C30.9665 16.6456 31.5495 16.9431 32.07 16.7536L34.8891 15.7276C35.4088 15.5384 35.665 14.9355 35.4623 14.3787L31.0649 2.29696C30.8622 1.74014 30.2774 1.44338 29.7588 1.63216Z" fill="#00ADE5"/>
<path d="M12 14L26.0954 8.8697L27.4635 12.6285L13.3681 17.7588L12 14Z" fill="#00ADE5"/>
</svg>
