<svg width="22" height="33" viewBox="0 0 22 33" fill="none" xmlns="http://www.w3.org/2000/svg">
<path fill-rule="evenodd" clip-rule="evenodd" d="M3.75179 2C3.66428 2 3.57139 2.02011 3.49041 2.05631C3.40943 2.09252 3.34338 2.14732 3.2813 2.21394C3.21946 2.28057 3.16858 2.36327 3.13498 2.45051C3.10137 2.53775 3.0827 2.6265 3.0827 2.72077V29.9202C3.0827 30.0144 3.10137 30.1034 3.13498 30.1904C3.16858 30.2777 3.21946 30.3604 3.2813 30.427C3.34338 30.4936 3.40943 30.5487 3.49041 30.5846C3.57139 30.6208 3.66428 30.6409 3.75179 30.6409H8.58222C8.66974 30.6409 8.75236 30.6208 8.8331 30.5846C8.91409 30.5484 8.99063 30.4936 9.05271 30.427C9.11479 30.3604 9.16566 30.2777 9.19904 30.1904C9.23264 30.1032 9.25131 30.0144 9.25131 29.9202V27.465C9.25131 26.1285 10.2585 25.0435 11.4992 25.0435C12.7398 25.0435 13.7576 26.1285 13.7576 27.465V29.9202C13.7576 30.0144 13.766 30.1034 13.7993 30.1904C13.833 30.2777 13.8838 30.3604 13.9457 30.427C14.0078 30.4936 14.0843 30.5487 14.1653 30.5846C14.2463 30.6208 14.3391 30.6409 14.4267 30.6409H19.2569C19.3444 30.6409 19.427 30.6208 19.5077 30.5846C19.5887 30.5484 19.6653 30.4936 19.7273 30.427C19.7892 30.3604 19.8403 30.2777 19.8737 30.1904C19.9073 30.1032 19.9259 30.0144 19.9259 29.9202V2.72077C19.9259 2.6265 19.9073 2.53775 19.8737 2.45051C19.8401 2.36328 19.7892 2.28082 19.7273 2.21394C19.6653 2.14732 19.5887 2.09227 19.5077 2.05631C19.4268 2.02011 19.3444 2 19.2569 2H3.75179ZM7.10798 5.18725H8.71802C8.80554 5.18725 8.88816 5.20736 8.9689 5.24356C9.04988 5.27977 9.12643 5.33458 9.18851 5.40119C9.25036 5.46782 9.30146 5.53921 9.33483 5.62645C9.36844 5.71369 9.38711 5.81375 9.38711 5.90802V7.6311C9.38711 7.72538 9.36844 7.82544 9.33483 7.91267C9.30123 7.99991 9.25035 8.07131 9.18851 8.13793C9.12643 8.20456 9.04988 8.25961 8.9689 8.29556C8.88792 8.33176 8.80554 8.35187 8.71802 8.35187H7.10798C7.02046 8.35187 6.93784 8.33176 6.8571 8.29556C6.77612 8.25936 6.69957 8.20455 6.63749 8.13793C6.57564 8.07131 6.52454 7.99991 6.49117 7.91267C6.45756 7.82544 6.43889 7.72538 6.43889 7.6311V5.90802C6.43889 5.81375 6.45756 5.71369 6.49117 5.62645C6.52477 5.53921 6.57565 5.46782 6.63749 5.40119C6.69957 5.33457 6.77612 5.27952 6.8571 5.24356C6.93808 5.20736 7.02046 5.18725 7.10798 5.18725ZM14.2803 5.18725H15.8903C15.9778 5.18725 16.0602 5.20736 16.1412 5.24356C16.2222 5.27977 16.2987 5.33458 16.3608 5.40119C16.4226 5.46782 16.4737 5.53921 16.5071 5.62645C16.5407 5.71369 16.5594 5.81375 16.5594 5.90802V7.6311C16.5594 7.72538 16.5407 7.82544 16.5071 7.91267C16.4735 7.99991 16.4226 8.07131 16.3608 8.13793C16.2987 8.20456 16.2222 8.25961 16.1412 8.29556C16.0602 8.33176 15.9778 8.35187 15.8903 8.35187H14.2803C14.1928 8.35187 14.1104 8.33176 14.0294 8.29556C13.9484 8.25936 13.8719 8.20455 13.8098 8.13793C13.7479 8.07131 13.6968 7.99991 13.6635 7.91267C13.6298 7.82544 13.6112 7.72538 13.6112 7.6311V5.90802C13.6112 5.81375 13.6298 5.71369 13.6635 5.62645C13.6971 5.53921 13.7479 5.46782 13.8098 5.40119C13.8719 5.33457 13.9484 5.27952 14.0294 5.24356C14.1104 5.20736 14.1928 5.18725 14.2803 5.18725ZM7.10798 12.407H8.71802C8.80554 12.407 8.88816 12.4272 8.9689 12.4634C9.04988 12.4996 9.12643 12.5544 9.18851 12.621C9.25036 12.6876 9.30146 12.7703 9.33483 12.8576C9.36844 12.9448 9.38711 13.0335 9.38711 13.1278V14.8622C9.38711 14.9565 9.36844 15.0452 9.33483 15.1325C9.30123 15.2197 9.25035 15.3022 9.18851 15.3691C9.12643 15.4357 9.04988 15.4907 8.9689 15.5267C8.88792 15.5629 8.80554 15.583 8.71802 15.583H7.10798C7.02046 15.583 6.93784 15.5629 6.8571 15.5267C6.77612 15.4905 6.69957 15.4357 6.63749 15.3691C6.57564 15.3024 6.52454 15.2197 6.49117 15.1325C6.45756 15.0452 6.43889 14.9565 6.43889 14.8622V13.1278C6.43889 13.0335 6.45756 12.9448 6.49117 12.8576C6.52477 12.7703 6.57565 12.6879 6.63749 12.621C6.69957 12.5544 6.77612 12.4993 6.8571 12.4634C6.93808 12.4272 7.02046 12.407 7.10798 12.407ZM14.2803 12.407H15.8903C15.9778 12.407 16.0602 12.4272 16.1412 12.4634C16.2222 12.4996 16.2987 12.5544 16.3608 12.621C16.4226 12.6876 16.4737 12.7703 16.5071 12.8576C16.5407 12.9448 16.5594 13.0335 16.5594 13.1278V14.8622C16.5594 14.9565 16.5407 15.0452 16.5071 15.1325C16.4735 15.2197 16.4226 15.3022 16.3608 15.3691C16.2987 15.4357 16.2222 15.4907 16.1412 15.5267C16.0602 15.5629 15.9778 15.583 15.8903 15.583H14.2803C14.1928 15.583 14.1104 15.5629 14.0294 15.5267C13.9484 15.4905 13.8719 15.4357 13.8098 15.3691C13.7479 15.3024 13.6968 15.2197 13.6635 15.1325C13.6298 15.0452 13.6112 14.9565 13.6112 14.8622V13.1278C13.6112 13.0335 13.6298 12.9448 13.6635 12.8576C13.6971 12.7703 13.7479 12.6879 13.8098 12.621C13.8719 12.5544 13.9484 12.4993 14.0294 12.4634C14.1104 12.4272 14.1928 12.407 14.2803 12.407ZM7.10798 19.6268H8.71802C8.80554 19.6268 8.88816 19.6469 8.9689 19.6832C9.04988 19.7194 9.12643 19.7742 9.18851 19.8408C9.25036 19.9074 9.30146 19.9788 9.33483 20.066C9.36844 20.1533 9.38711 20.2533 9.38711 20.3476V22.0707C9.38711 22.165 9.36844 22.265 9.33483 22.3523C9.30123 22.4395 9.25035 22.5109 9.18851 22.5775C9.12643 22.6444 9.04988 22.6992 8.9689 22.7351C8.88792 22.7713 8.80554 22.7915 8.71802 22.7915H7.10798C7.02046 22.7915 6.93784 22.7713 6.8571 22.7351C6.77612 22.6989 6.69957 22.6441 6.63749 22.5775C6.57564 22.5109 6.52454 22.4395 6.49117 22.3523C6.45756 22.265 6.43889 22.165 6.43889 22.0707V20.3476C6.43889 20.2533 6.45756 20.1533 6.49117 20.066C6.52477 19.9788 6.57565 19.9074 6.63749 19.8408C6.69957 19.7742 6.77612 19.7191 6.8571 19.6832C6.93808 19.6469 7.02046 19.6268 7.10798 19.6268ZM14.2803 19.6268H15.8903C15.9778 19.6268 16.0602 19.6469 16.1412 19.6832C16.2222 19.7194 16.2987 19.7742 16.3608 19.8408C16.4226 19.9074 16.4737 19.9788 16.5071 20.066C16.5407 20.1533 16.5594 20.2533 16.5594 20.3476V22.0707C16.5594 22.165 16.5407 22.265 16.5071 22.3523C16.4735 22.4395 16.4226 22.5109 16.3608 22.5775C16.2987 22.6444 16.2222 22.6992 16.1412 22.7351C16.0602 22.7713 15.9778 22.7915 15.8903 22.7915H14.2803C14.1928 22.7915 14.1104 22.7713 14.0294 22.7351C13.9484 22.6989 13.8719 22.6441 13.8098 22.5775C13.7479 22.5109 13.6968 22.4395 13.6635 22.3523C13.6298 22.265 13.6112 22.165 13.6112 22.0707V20.3476C13.6112 20.2533 13.6298 20.1533 13.6635 20.066C13.6971 19.9788 13.7479 19.9074 13.8098 19.8408C13.8719 19.7742 13.9484 19.7191 14.0294 19.6832C14.1104 19.6469 14.1928 19.6268 14.2803 19.6268Z" fill="#61C7E8"/>
<path fill-rule="evenodd" clip-rule="evenodd" d="M1.67866 31.5582C1.59021 31.5582 1.50176 31.5745 1.41961 31.61C1.3377 31.6457 1.26232 31.6987 1.19931 31.7656C1.13629 31.8325 1.08589 31.9129 1.05181 32.0007C1.01774 32.0884 1 32.1837 1 32.279C1 32.3742 1.01774 32.4693 1.05181 32.5573C1.08588 32.6453 1.13629 32.7255 1.19931 32.7923C1.26232 32.8592 1.3377 32.9125 1.41961 32.9479C1.50153 32.9836 1.59021 33.0012 1.67866 33H21.3213C21.4098 33 21.4982 32.9834 21.5804 32.9479C21.6623 32.9122 21.7377 32.8592 21.8007 32.7923C21.8637 32.7254 21.9141 32.645 21.9482 32.5573C21.9823 32.4695 22 32.3742 22 32.279C22 32.1837 21.9823 32.0887 21.9482 32.0007C21.9141 31.9129 21.8637 31.8325 21.8007 31.7656C21.7377 31.6987 21.6623 31.6454 21.5804 31.61C21.4985 31.5743 21.4098 31.5567 21.3213 31.5582H1.67866Z" fill="#61C7E8"/>
<line x1="0.573699" y1="32.7387" x2="19.5737" y2="1.73872" stroke="#61C7E8"/>
<path d="M0 0V33L20 0H0Z" fill="#DFF6FD" fill-opacity="0.8"/>
</svg>
