<svg width="12" height="12" viewBox="0 0 12 12" fill="none" xmlns="http://www.w3.org/2000/svg">
<path d="M11.9142 5.28156L6.6999 0.279C6.31231 -0.093 5.68767 -0.093 5.30011 0.279L0.0857913 5.28156C-0.0964142 5.45619 0.0310297 5.75621 0.285737 5.75621H1.57737V11.28C1.57737 11.6773 1.90884 12 2.31696 12H4.42079V8.06143C4.42079 7.66414 4.75226 7.34147 5.16175 7.34147H6.83817C7.24775 7.34147 7.57913 7.66414 7.57913 8.06143L7.57922 12H9.68304C10.0912 12 10.4226 11.6773 10.4226 11.28V5.75621H11.7143C11.969 5.75621 12.0964 5.45619 11.9142 5.28156Z" fill="#00ADE5"/>
</svg>
