<svg width="33" height="32" viewBox="0 0 33 32" fill="none" xmlns="http://www.w3.org/2000/svg">
<path d="M32.2289 9.46586C32.2113 8.13914 31.9636 6.82561 31.497 5.58402C31.0924 4.53676 30.4743 3.58565 29.6824 2.79147C28.8905 1.99729 27.9421 1.37751 26.8978 0.97172C25.6757 0.511641 24.3845 0.262867 23.0794 0.235994C21.399 0.160669 20.8663 0.139648 16.6007 0.139648C12.3351 0.139648 11.7884 0.139649 10.1202 0.235994C8.8157 0.263065 7.52518 0.511835 6.3036 0.97172C5.25914 1.37723 4.31059 1.99691 3.51863 2.79112C2.72668 3.58534 2.10876 4.53659 1.7044 5.58402C1.24471 6.80871 0.997183 8.1032 0.972513 9.41155C0.897403 11.0985 0.874695 11.6327 0.874695 15.9105C0.874695 20.1882 0.874695 20.7347 0.972513 22.4094C0.998714 23.7197 1.24501 25.0125 1.7044 26.2404C2.10943 27.2875 2.72782 28.2384 3.52004 29.0323C4.31226 29.8262 5.2609 30.4456 6.30534 30.851C7.52359 31.3295 8.81433 31.5961 10.122 31.6392C11.8041 31.7146 12.3369 31.7373 16.6024 31.7373C20.868 31.7373 21.4147 31.7373 23.0829 31.6392C24.388 31.6135 25.6792 31.3653 26.9013 30.9053C27.9453 30.499 28.8935 29.8791 29.6853 29.0849C30.4772 28.2908 31.0954 27.34 31.5005 26.293C31.9599 25.0668 32.2062 23.774 32.2324 22.4619C32.3075 20.7768 32.3302 20.2425 32.3302 15.963C32.3267 11.6853 32.3267 11.1423 32.2289 9.46586ZM16.5902 24C12.129 24 8.51498 20.3756 8.51498 15.9017C8.51498 11.4278 12.129 7.80346 16.5902 7.80346C18.7319 7.80346 20.7859 8.65667 22.3003 10.1754C23.8147 11.6941 24.6654 13.7539 24.6654 15.9017C24.6654 18.0495 23.8147 20.1093 22.3003 21.628C20.7859 23.1467 18.7319 24 16.5902 24ZM24.9868 9.39228C23.944 9.39228 23.1038 8.54795 23.1038 7.50392C23.1038 7.25605 23.1525 7.01061 23.2471 6.78161C23.3417 6.55261 23.4803 6.34453 23.6551 6.16926C23.8299 5.99399 24.0374 5.85496 24.2657 5.76011C24.4941 5.66525 24.7388 5.61643 24.986 5.61643C25.2331 5.61643 25.4779 5.66525 25.7062 5.76011C25.9346 5.85496 26.1421 5.99399 26.3168 6.16926C26.4916 6.34453 26.6302 6.55261 26.7248 6.78161C26.8194 7.01061 26.8681 7.25605 26.8681 7.50392C26.8681 8.54795 26.0262 9.39228 24.9868 9.39228Z" fill="white"/>
<path d="M16.6026 20.9059C19.3326 20.9059 21.5456 18.6825 21.5456 15.9398C21.5456 13.1971 19.3326 10.9738 16.6026 10.9738C13.8727 10.9738 11.6596 13.1971 11.6596 15.9398C11.6596 18.6825 13.8727 20.9059 16.6026 20.9059Z" fill="white"/>
</svg>
