<svg width="35" height="28" viewBox="0 0 35 28" fill="none" xmlns="http://www.w3.org/2000/svg">
<path d="M27.253 0.195481C24.0687 -0.630467 20.8316 1.23483 19.7913 4.39648L11.7223 2.29614C11.7117 2.29064 11.7011 2.29064 11.6905 2.28515C11.6799 2.27966 11.6693 2.27966 11.6587 2.27966L9.35625 1.68353C9.34564 1.67803 9.34033 1.67254 9.32973 1.67254C9.31912 1.67254 9.31381 1.66704 9.3032 1.66704L6.99023 1.06542C6.98492 1.06542 6.97431 1.05993 6.96901 1.05993C6.96371 1.05993 6.9531 1.05443 6.94779 1.05993L5.65416 0.720814C5.37421 0.6442 5.08924 0.824898 5.01527 1.11457C4.94661 1.41004 5.11546 1.70521 5.40072 1.78182L6.19812 1.98969L5.78085 3.72372C5.70688 4.01369 5.88104 4.30886 6.161 4.38547C6.20314 4.39646 6.25087 4.40196 6.29302 4.40196C6.52523 4.40196 6.74182 4.23804 6.80518 3.98622L7.22245 2.25767L8.55856 2.60229L8.33666 3.52107C8.268 3.81104 8.43686 4.1117 8.72212 4.18283C8.76426 4.19382 8.80669 4.19931 8.84883 4.19931C9.08635 4.19931 9.30294 4.03509 9.361 3.78358L9.5829 2.87003L10.9243 3.21465L10.5017 4.94867C10.4277 5.24414 10.6019 5.53931 10.8819 5.61043C10.924 5.62142 10.9717 5.62691 11.0139 5.62691C11.2461 5.62691 11.4627 5.463 11.526 5.21667L11.9433 3.48265L19.5318 5.45727C19.2889 6.9725 19.5686 8.50937 20.3398 9.83862C21.2006 11.3318 22.5682 12.3822 24.1949 12.8031C24.7071 12.9399 25.2192 13 25.7264 13C28.5306 13 31.097 11.0309 31.8099 8.0826C31.9366 7.5521 32 7.0213 32 6.50182C32.0006 3.59264 30.0942 0.939759 27.2532 0.195624L27.253 0.195481ZM29.8209 7.46835C29.7131 7.91918 29.4417 8.2986 29.0539 8.53974C28.791 8.70487 28.4937 8.78973 28.1919 8.78973C28.0584 8.78973 27.9205 8.77202 27.7826 8.73631C27.3473 8.62032 26.981 8.3392 26.7482 7.93717C26.5198 7.54005 26.4509 7.07121 26.5587 6.62034C26.6707 6.1695 26.9421 5.79009 27.3303 5.55356C27.7136 5.31243 28.1663 5.241 28.6016 5.35729C29.0368 5.46901 29.4031 5.75013 29.6359 6.15183C29.864 6.54894 29.9329 7.01748 29.8209 7.46835Z" fill="#00ADE5"/>
<path d="M3 14.0058V24.9939C3 25.5489 2.66367 25.9997 2.25011 25.9997L0.749889 26C0.336323 26 0 25.5489 0 24.9942V14.0061C0 13.4511 0.336329 13 0.749889 13H2.24989C2.66367 13.0003 3 13.4514 3 14.0061V14.0058Z" fill="#00ADE5"/>
<path d="M34.9873 20.2114C34.9341 20.4882 34.7528 20.7238 34.4912 20.8519L21.9031 26.9648C20.4843 27.6566 18.9323 28 17.3801 28C16.1531 28 14.9319 27.7847 13.7636 27.3543L5 24.0954V15H10.7339C13.0702 15 15.305 15.8147 17.0492 17.3007H20.9752C21.4285 17.3007 21.8872 17.3725 22.2979 17.557C24.202 18.4331 23.034 20.4725 22.2979 20.4725H13.3423C13.0488 20.4725 12.8089 20.7029 12.8089 20.9849C12.8089 21.2668 13.0488 21.4973 13.3423 21.4973H22.2979C23.482 21.4973 24.4687 20.7183 24.7675 19.6729L29.4508 18.1408C31.2805 17.5412 33.3286 18.023 34.6621 19.3655L34.7421 19.4424C34.9449 19.6474 35.0353 19.9294 34.9874 20.2113L34.9873 20.2114Z" fill="#00ADE5"/>
</svg>
