<svg width="35" height="26" viewBox="0 0 35 26" fill="none" xmlns="http://www.w3.org/2000/svg">
<path d="M11.0844 15.6617L12.7899 13.5513C13.1234 13.1441 13.0495 12.5517 12.6417 12.2554C12.2339 11.9223 11.6407 11.9962 11.344 12.4034L9.6386 14.5138C9.19381 15.069 8.48944 15.4023 7.748 15.4023H5.8202C5.19001 15.4023 4.59682 15.6244 4.15203 16.0317L2.44659 17.5868C2.26118 16.5502 2.14998 14.9212 2.55779 13.5515C3.0398 12.0708 3.0398 10.627 2.92861 9.62731C3.96662 9.33111 4.7452 8.22043 4.7452 6.85071C4.7452 5.25892 3.67025 4 2.3726 4C1.07495 4 0 5.29588 0 6.85071C0 8.25759 0.852587 9.40525 1.96481 9.66427C2.076 10.5157 2.076 11.8485 1.63122 13.2923C1.03801 15.1064 1.37159 17.2906 1.59424 18.3272L1.44607 18.4752C1.07524 18.8083 1.03826 19.4007 1.37185 19.771C1.59398 19.9931 1.85361 20.1042 2.07602 20.1042C2.29843 20.1042 2.5208 20.0301 2.70621 19.8821L4.26322 18.4752L3.37343 21.1777C3.22526 21.6219 3.55885 22.0663 4.00362 22.0663H4.55959L4.22601 24.954C4.15179 25.4722 4.52261 25.9164 5.04159 25.9905C5.56058 26.0647 6.00539 25.6943 6.0796 25.1761L6.41319 22.2143C6.41319 22.1402 6.4874 22.1033 6.52438 22.1033L7.26602 22.1035C7.34024 22.1035 7.37721 22.1404 7.37721 22.2146L7.7108 25.1763C7.74778 25.6577 8.15559 25.9908 8.6376 25.9908H8.74879C9.26779 25.9167 9.63859 25.4725 9.56437 24.9542L9.23079 22.0665H9.78676C10.2315 22.0665 10.5654 21.6224 10.4169 21.178L9.08263 17.0316C9.861 16.7724 10.5654 16.3282 11.0844 15.6617Z" fill="#00ADE5"/>
<path d="M9 12.5C9 13.8805 8.10439 15 7 15C5.89537 15 5 13.8805 5 12.5C5 11.1192 5.89537 10 7 10C8.10439 10 9 11.1192 9 12.5Z" fill="#00ADE5"/>
<path d="M34.6337 3.28002L30.6399 0.166756C30.3467 -0.0555853 29.9436 -0.0555853 29.6139 0.166756L25.6567 3.28002C25.4369 3.42816 25.327 3.68774 25.327 3.94703V10.322H24.7041C23.3484 10.322 22.0659 11.0632 21.4065 12.2493L15.4337 22.6642C15.2504 22.9977 14.8841 23.183 14.5176 23.183H12.3924C11.6228 23.183 11 23.8131 11 24.5915C11 25.37 11.6229 26 12.3924 26H14.5176C15.8733 26 17.1558 25.2588 17.8152 24.0726L23.7878 13.6578C23.9711 13.3243 24.3373 13.1389 24.7038 13.1389H25.3267V25.1104C25.3267 25.5923 25.6932 25.9628 26.1694 25.9628C26.6458 25.9628 27.0121 25.5921 27.0121 25.1104V24.0726H33.3146V25.1104C33.3146 25.5923 33.6811 25.9628 34.1573 25.9628C34.6337 25.9628 35 25.5921 35 25.1104V3.98423C34.9635 3.68769 34.8535 3.42813 34.6337 3.27996L34.6337 3.28002ZM27.9284 5.68902C27.9284 5.17014 28.3314 4.76243 28.8444 4.76243H31.4826C31.9955 4.76243 32.3986 5.17014 32.3986 5.68902V8.46878C32.3986 8.98766 31.9955 9.39537 31.4826 9.39537H28.8444C28.3314 9.39537 27.9284 8.98766 27.9284 8.46878V5.68902ZM33.3146 22.3676H27.0123V20.4032H33.3146V22.3676ZM33.3146 18.7354H27.0123V16.7711H33.3146V18.7354ZM33.3146 15.0661H27.0123V13.1017H33.3146V15.0661Z" fill="#00ADE5"/>
</svg>
