<svg width="38" height="38" viewBox="0 0 38 38" fill="none" xmlns="http://www.w3.org/2000/svg">
<g clip-path="url(#clip0_25_2606)">
<path d="M18.6915 1.52319C8.91232 1.52319 0.984985 9.45053 0.984985 19.2297C0.984985 29.0088 8.91232 36.9361 18.6915 36.9361C28.4706 36.9361 36.3979 29.0088 36.3979 19.2297C36.3979 9.45053 28.4706 1.52319 18.6915 1.52319ZM14.3571 26.5686H10.7715V15.0299H14.3571V26.5686ZM12.5422 13.6134C11.4097 13.6134 10.6774 12.8111 10.6774 11.8188C10.6774 10.8062 11.4318 10.0278 12.5883 10.0278C13.7447 10.0278 14.453 10.8062 14.4751 11.8188C14.4751 12.8111 13.7447 13.6134 12.5422 13.6134ZM27.4525 26.5686H23.8669V20.174C23.8669 18.6856 23.3468 17.6748 22.0502 17.6748C21.0597 17.6748 20.4713 18.3591 20.2113 19.0176C20.1154 19.2518 20.0914 19.5838 20.0914 19.914V26.5668H16.504V18.7095C16.504 17.269 16.4579 16.0646 16.4099 15.0281H19.5251L19.6893 16.6309H19.7612C20.2334 15.8784 21.3899 14.768 23.3247 14.768C25.6837 14.768 27.4525 16.3487 27.4525 19.7461V26.5686Z" fill="white"/>
</g>
<defs>
<clipPath id="clip0_25_2606">
<rect width="36.8885" height="36.8885" fill="white" transform="translate(0.246887 0.785034)"/>
</clipPath>
</defs>
</svg>
