<svg width="130" height="29" viewBox="0 0 130 29" fill="none" xmlns="http://www.w3.org/2000/svg">
<path d="M46.1304 6.89681C46.8707 6.89681 47.4022 7.09332 47.7155 7.48635C48.0382 7.87938 48.1995 8.46893 48.1995 9.24563V10.0878C48.1995 10.8645 48.0382 11.4541 47.7155 11.8471C47.3928 12.2401 46.8612 12.446 46.1304 12.446H42.144V14.6358C42.144 14.8042 42.0776 14.8884 41.9352 14.8884H40.8911C40.7393 14.8884 40.6729 14.8042 40.6729 14.6358V7.23369C40.6729 7.0091 40.7678 6.88745 40.9576 6.88745H46.1304V6.89681ZM42.144 10.9394H45.8362C46.1684 10.9394 46.3962 10.8552 46.529 10.6867C46.6619 10.5183 46.7284 10.2656 46.7284 9.9194V9.48894C46.7284 9.14269 46.6619 8.89003 46.529 8.72159C46.3962 8.55315 46.1589 8.46893 45.8362 8.46893H42.2769C42.1915 8.46893 42.1535 8.51572 42.1535 8.6093V10.9394H42.144Z" fill="#1EADE5"/>
<path d="M52.4713 6.89648C52.7181 6.89648 52.9174 6.95263 53.0883 7.07428C53.2591 7.19594 53.4205 7.42052 53.5818 7.76677L56.7709 14.6354C56.7994 14.7103 56.8089 14.7758 56.7994 14.8226C56.7804 14.8694 56.733 14.8975 56.657 14.8975H55.4326C55.3187 14.8975 55.2523 14.8507 55.2143 14.7477L54.531 13.2692H50.0036L49.3392 14.7477C49.2917 14.8507 49.2253 14.8975 49.1209 14.8975H47.868C47.7826 14.8975 47.7351 14.8694 47.7161 14.8226C47.6972 14.7758 47.7161 14.7103 47.7446 14.6354L50.9052 7.76677C51.0666 7.42052 51.2185 7.19594 51.3798 7.07428C51.5317 6.95263 51.712 6.89648 51.9208 6.89648H52.4903H52.4713ZM50.6015 11.9497H53.914L52.3859 8.59961C52.3574 8.54347 52.3289 8.51539 52.2815 8.51539H52.2245C52.2245 8.51539 52.1486 8.54347 52.1201 8.59961L50.611 11.9497H50.6015Z" fill="#1EADE5"/>
<path d="M58.4408 6.89681C58.5832 6.89681 58.6496 6.98103 58.6496 7.14947V11.7067C58.6496 12.0156 58.6686 12.2682 58.716 12.4647C58.754 12.6706 58.8299 12.8297 58.9248 12.942C59.0198 13.0636 59.1526 13.1479 59.314 13.1946C59.4753 13.2414 59.6842 13.2695 59.9309 13.2695H63.8319C63.9743 13.2695 64.0407 13.3537 64.0407 13.5222V14.6451C64.0407 14.8136 63.9743 14.8978 63.8319 14.8978H59.874C59.3899 14.8978 58.9723 14.8416 58.6306 14.7387C58.2889 14.6358 58.0137 14.458 57.7954 14.2147C57.5771 13.9713 57.4252 13.6625 57.3208 13.2789C57.2259 12.8952 57.1689 12.4273 57.1689 11.8752V7.14011C57.1689 6.97167 57.2449 6.88745 57.3872 6.88745H58.4313L58.4408 6.89681Z" fill="#1EADE5"/>
<path d="M66.8217 6.89648C66.964 6.89648 67.0874 6.90584 67.1918 6.93392C67.2962 6.95263 67.3817 6.99942 67.4576 7.06493C67.5335 7.13043 67.6 7.21465 67.6664 7.32695C67.7234 7.43924 67.7898 7.58897 67.8562 7.76677L69.8589 13.2505C69.8874 13.316 69.9254 13.3534 69.9918 13.3534H70.1057C70.1721 13.3534 70.2196 13.316 70.2386 13.2505L72.2412 7.76677C72.3077 7.57961 72.3646 7.43924 72.4311 7.32695C72.488 7.21465 72.564 7.13043 72.6399 7.06493C72.7158 6.99942 72.8013 6.95263 72.9057 6.93392C73.0101 6.9152 73.1239 6.89648 73.2663 6.89648H74.3009C74.6331 6.89648 74.8609 6.99006 74.9748 7.16786C75.0887 7.34566 75.1456 7.65447 75.1456 8.08493V14.6448C75.1456 14.8132 75.0697 14.8975 74.9273 14.8975H73.9402C73.7978 14.8975 73.7314 14.8132 73.7314 14.6448V8.67448C73.7314 8.59961 73.7029 8.56218 73.6555 8.56218H73.5701C73.5036 8.56218 73.4656 8.59026 73.4467 8.65576L71.5009 13.7745C71.425 13.9804 71.3491 14.1582 71.2636 14.2985C71.1877 14.4389 71.0928 14.5606 71.0074 14.6448C70.9125 14.7384 70.8081 14.8039 70.6942 14.8413C70.5803 14.8787 70.4379 14.8975 70.2765 14.8975H69.8115C69.6501 14.8975 69.5077 14.8787 69.3938 14.8413C69.2799 14.8039 69.166 14.7384 69.0806 14.6448C68.9857 14.5512 68.9003 14.4389 68.8244 14.2985C68.7484 14.1582 68.663 13.9804 68.5871 13.7745L66.6413 8.65576C66.6224 8.59961 66.5844 8.56218 66.5179 8.56218H66.4325C66.3851 8.56218 66.3566 8.59961 66.3566 8.67448V14.6448C66.3566 14.8132 66.2807 14.8975 66.1478 14.8975H65.1607C65.0088 14.8975 64.9424 14.8132 64.9424 14.6448V8.08493C64.9424 7.65447 64.9993 7.34566 65.1132 7.16786C65.2271 6.99006 65.4549 6.89648 65.7966 6.89648H66.8501H66.8217Z" fill="#1EADE5"/>
<path d="M46.7195 18.1544C46.8619 18.1544 46.9283 18.2386 46.9283 18.4071V23.1422C46.9283 23.6943 46.8809 24.1528 46.786 24.5458C46.691 24.9389 46.5297 25.2477 46.3209 25.4816C46.1121 25.7156 45.8273 25.8934 45.4856 26.0057C45.144 26.118 44.7263 26.1647 44.2423 26.1647H40.4837C40.3318 26.1647 40.2654 26.0805 40.2654 25.9121V24.7891C40.2654 24.6207 40.3413 24.5365 40.4837 24.5365H44.1948C44.4416 24.5365 44.6504 24.5084 44.8212 24.4616C44.9826 24.4148 45.1155 24.3306 45.2104 24.209C45.3053 24.0873 45.3717 23.9282 45.4097 23.7317C45.4477 23.5352 45.4667 23.2732 45.4667 22.9737V18.4164C45.4667 18.248 45.5426 18.1638 45.685 18.1638H46.729L46.7195 18.1544Z" fill="#1EADE5"/>
<path d="M49.433 18.1544C49.5753 18.1544 49.6418 18.2386 49.6418 18.4071V22.9644C49.6418 23.2732 49.6608 23.5258 49.7082 23.7223C49.7462 23.9282 49.8221 24.0873 49.917 24.1996C50.012 24.3212 50.1448 24.4055 50.3062 24.4523C50.4675 24.499 50.6764 24.5271 50.9231 24.5271H53.5902C53.837 24.5271 54.0458 24.499 54.2071 24.4523C54.3685 24.4055 54.5014 24.3212 54.5963 24.1996C54.6912 24.0779 54.7577 23.9189 54.7956 23.7223C54.8336 23.5258 54.8526 23.2638 54.8526 22.9644V18.4071C54.8526 18.2386 54.919 18.1544 55.0614 18.1544H56.1149C56.2573 18.1544 56.3237 18.2386 56.3237 18.4071V23.1422C56.3237 23.6943 56.2763 24.1528 56.1814 24.5458C56.0864 24.9389 55.9251 25.2477 55.7163 25.4816C55.5075 25.7156 55.2227 25.8934 54.881 26.0057C54.5393 26.1086 54.1217 26.1647 53.6377 26.1647H50.8662C50.3821 26.1647 49.9645 26.1086 49.6228 26.0057C49.2811 25.9027 49.0059 25.7249 48.7876 25.4816C48.5693 25.2383 48.4174 24.9295 48.313 24.5458C48.2181 24.1622 48.1611 23.6943 48.1611 23.1422V18.4071C48.1611 18.2386 48.2371 18.1544 48.3794 18.1544H49.4235H49.433Z" fill="#1EADE5"/>
<path d="M59.5036 18.1544C59.6459 18.1544 59.7693 18.1638 59.8737 18.1919C59.9781 18.2106 60.0635 18.2574 60.1395 18.3229C60.2154 18.3884 60.2819 18.4726 60.3483 18.5849C60.4052 18.6972 60.4717 18.8469 60.5381 19.0247L62.5408 24.5084C62.5693 24.5739 62.6072 24.6113 62.6737 24.6113H62.7876C62.854 24.6113 62.9015 24.5739 62.9205 24.5084L64.9231 19.0247C64.9896 18.8375 65.0465 18.6972 65.113 18.5849C65.1699 18.4726 65.2459 18.3884 65.3218 18.3229C65.3977 18.2574 65.4831 18.2106 65.5875 18.1919C65.6919 18.1731 65.8058 18.1544 65.9482 18.1544H66.9828C67.315 18.1544 67.5428 18.248 67.6567 18.4258C67.7706 18.6036 67.8275 18.9124 67.8275 19.3429V25.9027C67.8275 26.0712 67.7516 26.1554 67.6092 26.1554H66.6221C66.4797 26.1554 66.4133 26.0712 66.4133 25.9027V19.9324C66.4133 19.8575 66.3848 19.8201 66.3374 19.8201H66.2519C66.1855 19.8201 66.1475 19.8482 66.1286 19.9137L64.1828 25.0324C64.1069 25.2383 64.031 25.4161 63.9455 25.5565C63.8696 25.6969 63.7747 25.8185 63.6893 25.9027C63.5944 25.9963 63.4899 26.0618 63.376 26.0992C63.2621 26.1367 63.1198 26.1554 62.9584 26.1554H62.4934C62.332 26.1554 62.1896 26.1367 62.0757 26.0992C61.9618 26.0618 61.8479 25.9963 61.7625 25.9027C61.6676 25.8091 61.5822 25.6969 61.5062 25.5565C61.4303 25.4161 61.3449 25.2383 61.269 25.0324L59.3232 19.9137C59.3042 19.8575 59.2663 19.8201 59.1998 19.8201H59.1144C59.067 19.8201 59.0385 19.8575 59.0385 19.9324V25.9027C59.0385 26.0712 58.9626 26.1554 58.8297 26.1554H57.8426C57.6907 26.1554 57.6243 26.0712 57.6243 25.9027V19.3429C57.6243 18.9124 57.6812 18.6036 57.7951 18.4258C57.909 18.248 58.1368 18.1544 58.4785 18.1544H59.532H59.5036Z" fill="#1EADE5"/>
<path d="M75.9624 18.1541C76.1142 18.1541 76.1807 18.2384 76.1807 18.4068V19.4923C76.1807 19.6607 76.1047 19.745 75.9624 19.745H71.7577C71.5109 19.745 71.3021 19.773 71.1408 19.8198C70.9794 19.8666 70.8465 19.9508 70.7421 20.0725C70.6377 20.1941 70.5713 20.3532 70.5333 20.5497C70.4953 20.7556 70.4764 20.9989 70.4764 21.2984V21.4107H75.9149C76.0573 21.4107 76.1237 21.4949 76.1237 21.6633V22.5617C76.1237 22.7301 76.0573 22.8143 75.9149 22.8143H70.4764V23.0109C70.4764 23.3103 70.4953 23.5536 70.5333 23.7595C70.5713 23.9654 70.6377 24.1244 70.7421 24.2367C70.837 24.3584 70.9699 24.4426 71.1408 24.4894C71.3021 24.5362 71.5109 24.5643 71.7577 24.5643H75.9624C76.1142 24.5643 76.1807 24.6485 76.1807 24.8169V25.9024C76.1807 26.0709 76.1047 26.1551 75.9624 26.1551H71.7292C71.2452 26.1551 70.8275 26.099 70.4859 25.996C70.1442 25.8931 69.8689 25.7153 69.6506 25.472C69.4323 25.2287 69.2804 24.9199 69.176 24.5362C69.0716 24.1525 69.0242 23.6846 69.0242 23.1325V21.1674C69.0242 20.6153 69.0716 20.1567 69.176 19.773C69.2709 19.3894 69.4323 19.0806 69.6506 18.8373C69.8689 18.594 70.1442 18.4255 70.4859 18.3132C70.8275 18.2009 71.2357 18.1448 71.7292 18.1448H75.9624V18.1541Z" fill="#1EADE5"/>
<path d="M78.5531 18.1544C78.6955 18.1544 78.7619 18.2386 78.7619 18.4071V25.9027C78.7619 26.0712 78.6955 26.1554 78.5531 26.1554H77.5091C77.3572 26.1554 77.2908 26.0712 77.2908 25.9027V18.4071C77.2908 18.2386 77.3667 18.1544 77.5091 18.1544H78.5531Z" fill="#1EADE5"/>
<path d="M85.5008 18.1541C86.2411 18.1541 86.7726 18.3506 87.0858 18.7437C87.4085 19.1367 87.5699 19.7263 87.5699 20.503V21.158C87.5699 21.8131 87.456 22.3277 87.2282 22.7114C87.0004 23.0951 86.6397 23.3384 86.1272 23.4413L87.7787 25.865C87.7787 25.865 87.8167 25.9586 87.8072 26.0334C87.7977 26.1083 87.7407 26.1457 87.6553 26.1457H86.4119C86.3265 26.1457 86.2696 26.1364 86.2411 26.1083C86.2126 26.0896 86.1747 26.0522 86.1462 25.996L84.6276 23.6191H81.5144V25.8931C81.5144 26.0615 81.4479 26.1457 81.3056 26.1457H80.2615C80.1097 26.1457 80.0432 26.0615 80.0432 25.8931V18.491C80.0432 18.2664 80.1381 18.1448 80.328 18.1448H85.5008V18.1541ZM81.5144 22.2342H85.2065C85.5387 22.2342 85.7665 22.1499 85.8994 21.9815C86.0323 21.8131 86.0987 21.5604 86.0987 21.2142V20.7369C86.0987 20.3907 86.0323 20.138 85.8994 19.9696C85.7665 19.8011 85.5292 19.7169 85.2065 19.7169H81.6473C81.5618 19.7169 81.5239 19.7637 81.5239 19.8573V22.2342H81.5144Z" fill="#1EADE5"/>
<path d="M93.037 18.1544C93.2838 18.1544 93.4831 18.2106 93.6539 18.3322C93.8248 18.4539 93.9861 18.6785 94.1475 19.0247L97.3366 25.8934C97.3651 25.9682 97.3746 26.0337 97.3651 26.0805C97.3461 26.1273 97.2986 26.1554 97.2227 26.1554H95.9983C95.8844 26.1554 95.818 26.1086 95.78 26.0057L95.0966 24.5271H90.5692L89.9048 26.0057C89.8574 26.1086 89.7909 26.1554 89.6865 26.1554H88.4337C88.3483 26.1554 88.3008 26.1273 88.2818 26.0805C88.2628 26.0337 88.2818 25.9682 88.3103 25.8934L91.4709 19.0247C91.6323 18.6785 91.7841 18.4539 91.9455 18.3322C92.0973 18.2106 92.2777 18.1544 92.4865 18.1544H93.056H93.037ZM91.1672 23.2077H94.4797L92.9516 19.8575C92.9231 19.8014 92.8946 19.7733 92.8472 19.7733H92.7902C92.7902 19.7733 92.7143 19.8014 92.6858 19.8575L91.1767 23.2077H91.1672Z" fill="#1EADE5"/>
<path d="M99.4152 18.1544C99.5576 18.1544 99.624 18.2386 99.624 18.4071V21.3735H104.132V18.4071C104.132 18.2386 104.208 18.1544 104.341 18.1544H105.385C105.537 18.1544 105.604 18.2386 105.604 18.4071V25.9027C105.604 26.0712 105.528 26.1554 105.385 26.1554H104.341C104.199 26.1554 104.132 26.0712 104.132 25.9027V22.8614H99.624V25.9027C99.624 26.0712 99.5576 26.1554 99.4152 26.1554H98.3711C98.2193 26.1554 98.1528 26.0712 98.1528 25.9027V18.4071C98.1528 18.2386 98.2288 18.1544 98.3711 18.1544H99.4152Z" fill="#1EADE5"/>
<path d="M14.9679 15.2439H0V28.9999H14.9679V15.2439Z" fill="#1EADE5"/>
<path d="M30.6946 0H15.2332V15.2439H30.6946V0Z" fill="#1EADE5"/>
<path d="M27.7338 2.65759H2.9043V26.7728H27.7338V2.65759Z" fill="#1EADE5"/>
<path d="M7.5083 9.17051V23.7501H12.3299V4.54773L7.5083 9.17051Z" fill="white"/>
<path d="M23.4156 9.17051V23.7501H18.5845V4.54773L23.4156 9.17051Z" fill="white"/>
<path d="M17.8719 12.9608V23.7504H13.0503V8.33801L17.8719 12.9608Z" fill="white"/>
</svg>
