<svg width="160" height="29" viewBox="0 0 160 29" fill="none" xmlns="http://www.w3.org/2000/svg">
<mask id="mask0_7_870" style="mask-type:luminance" maskUnits="userSpaceOnUse" x="0" y="0" width="160" height="29">
<path d="M160 0H0V29H160V0Z" fill="white"/>
</mask>
<g mask="url(#mask0_7_870)">
<path d="M0 15.2437H15.02V29H0V15.2437ZM15.2852 0H30.7969V15.2437H15.2852V0Z" fill="#00ADE5"/>
<path d="M2.91089 2.65283H27.8222V26.7737H2.91089V2.65283Z" fill="#00ADE5"/>
<path d="M7.52893 9.17542V23.756H12.3685V4.54736L7.52893 9.17542ZM23.4889 9.17542V23.756H18.6493V4.54736L23.4889 9.17542ZM17.9311 12.9651V23.756H13.0867V8.33695L17.9311 12.9651Z" fill="white"/>
<path d="M35.9983 7.23813V17.2807H38.0131V11.0562L42.0959 17.2807L46.0823 11.113V17.2807H48.2804V7.23813H46.0823L42.1393 13.3773L38.0131 7.23813H35.9983ZM59.4008 9.2609V7.23813H49.2203V17.2807H59.4008V15.2437H51.24V13.1405H57.2461V11.1699H51.24V9.2609H59.4008ZM70.6513 7.23813H60.3407V9.2609H64.4669V17.2807H66.4818V9.2609H70.6513V7.23813ZM118.04 15.3432V7.23813H115.841V17.2807H124.089V15.3432H118.04ZM125.034 7.23813H127.141V17.2853H125.034V7.23813ZM138.213 7.23813H128.08V9.2609H132.159V17.2807H134.178V9.2609H138.213V7.23813ZM157.937 7.23813V14.031L151.975 7.23813H149.733V17.2807H151.975V10.5162L157.937 17.2807H160V7.23813H157.937ZM90.2363 7.23813H84.64C84.3422 7.23875 84.0481 7.29718 83.7733 7.41005C83.4993 7.52291 83.2504 7.68806 83.0407 7.89582C82.8318 8.10365 82.6667 8.35008 82.5548 8.62089C82.4422 8.89178 82.3859 9.18171 82.3889 9.47401V15.0732C82.3904 15.6595 82.6274 16.2214 83.0496 16.636C83.4711 17.0507 84.043 17.2841 84.64 17.2853H90.2363C90.8326 17.2841 91.4044 17.0507 91.8267 16.636C92.2481 16.2214 92.4859 15.6595 92.4874 15.0732V9.47401C92.4889 9.18186 92.4326 8.89223 92.32 8.62164C92.2081 8.35112 92.043 8.10492 91.8333 7.89723C91.6244 7.68955 91.3755 7.52447 91.1015 7.41132C90.8274 7.29822 90.5333 7.23938 90.2363 7.23813ZM90.4822 14.7652C90.4822 14.9651 90.4015 15.1566 90.2578 15.2979C90.1141 15.4391 89.9185 15.5184 89.7155 15.5184H84.977C84.7741 15.5184 84.5793 15.4391 84.4356 15.2979C84.2918 15.1566 84.2111 14.9651 84.2111 14.7652V9.8151C84.2111 9.61537 84.2918 9.42375 84.4356 9.28254C84.5793 9.14126 84.7741 9.06192 84.977 9.06192H89.7155C89.9185 9.06192 90.1141 9.14126 90.2578 9.28254C90.4015 9.42375 90.4822 9.61537 90.4822 9.8151V14.7652ZM112.564 7.23813H106.967C106.67 7.23875 106.376 7.29718 106.101 7.41005C105.827 7.52291 105.578 7.68806 105.369 7.89582C105.159 8.10365 104.994 8.35008 104.882 8.62089C104.77 8.89178 104.714 9.18171 104.716 9.47401V15.0732C104.718 15.6595 104.956 16.2214 105.377 16.636C105.799 17.0507 106.371 17.2841 106.967 17.2853H112.564C113.161 17.2841 113.733 17.0507 114.154 16.636C114.576 16.2214 114.813 15.6595 114.815 15.0732V9.47401C114.818 9.18171 114.761 8.89178 114.649 8.62089C114.537 8.35008 114.372 8.10365 114.163 7.89582C113.953 7.68806 113.704 7.52291 113.43 7.41005C113.156 7.29718 112.861 7.23875 112.564 7.23813ZM112.795 14.7652C112.795 14.9651 112.714 15.1566 112.57 15.2979C112.427 15.4391 112.232 15.5184 112.029 15.5184H107.29C107.088 15.5172 106.894 15.4373 106.752 15.2962C106.609 15.1551 106.529 14.9642 106.529 14.7652V9.8151C106.529 9.61537 106.61 9.42375 106.753 9.28254C106.897 9.14126 107.092 9.06192 107.296 9.06192H112.029C112.232 9.06192 112.427 9.14126 112.57 9.28254C112.714 9.42375 112.795 9.61537 112.795 9.8151V14.7652ZM81.7718 12.1552V9.2609C81.7718 8.0577 80.5326 7.2334 79.1881 7.2334H71.5961V17.2807H73.7941V14.14H75.6793L78.9326 17.2807H81.7859L78.5711 14.14H79.4726C80.04 14.1548 80.5918 13.9587 81.0178 13.5906C81.4444 13.2226 81.7133 12.7099 81.7718 12.1552ZM73.7893 12.2594V9.26558H78.9474C79.6941 9.26558 79.9356 9.58771 79.9356 10.6867C79.9356 11.7857 79.757 12.2594 78.8889 12.2594H73.7893ZM101.434 7.23813H93.4274V17.2853H95.5341V14.1447H101.434C102.03 14.1435 102.602 13.91 103.024 13.4954C103.446 13.0808 103.684 12.5189 103.685 11.9325V9.47401C103.687 9.18171 103.631 8.89178 103.519 8.62089C103.407 8.35008 103.242 8.10365 103.033 7.89582C102.824 7.68806 102.575 7.52291 102.3 7.41005C102.026 7.29718 101.731 7.23875 101.434 7.23813ZM101.573 11.6436C101.577 11.7308 101.562 11.8177 101.53 11.8992C101.499 11.9807 101.45 12.0551 101.389 12.1178C101.327 12.1807 101.253 12.2306 101.172 12.2647C101.09 12.2988 101.002 12.3163 100.913 12.3162H95.5289V9.26558H100.923C101.098 9.26558 101.266 9.33399 101.39 9.45565C101.513 9.57737 101.583 9.74245 101.583 9.91459L101.573 11.6436ZM146.537 7.23813H140.907C140.61 7.23875 140.316 7.29718 140.041 7.41005C139.767 7.52291 139.518 7.68806 139.308 7.89582C139.099 8.10365 138.933 8.35008 138.821 8.62089C138.71 8.89178 138.653 9.18171 138.656 9.47401V17.2853H140.676V15.2484H146.639V17.2853H148.788V9.47401C148.792 9.18156 148.736 8.89134 148.624 8.62022C148.513 8.34904 148.347 8.10239 148.138 7.89448C147.928 7.6865 147.679 7.52142 147.404 7.40877C147.13 7.29611 146.835 7.23812 146.537 7.23813ZM140.676 13.2305V9.84826C140.676 9.69374 140.739 9.54555 140.85 9.43624C140.961 9.327 141.111 9.26558 141.269 9.26558H146.056C146.213 9.26558 146.363 9.327 146.475 9.43624C146.586 9.54555 146.648 9.69374 146.648 9.84826V13.2305H140.676Z" fill="#6D6E70"/>
<path d="M62.8714 20.9611C63.0327 20.9452 63.1956 20.9664 63.3471 21.0231C63.4985 21.0798 63.6344 21.1705 63.7439 21.288C63.9359 21.5666 64.029 21.8996 64.009 22.2354V22.7091C64.029 23.045 63.9359 23.378 63.7439 23.6565C63.6344 23.774 63.4985 23.8647 63.3471 23.9215C63.1956 23.9782 63.0327 23.9994 62.8714 23.9834H60.6782V25.1866C60.6782 25.2766 60.6397 25.3239 60.5625 25.3239H59.9889C59.9069 25.3239 59.8684 25.2766 59.8684 25.1866V21.127C59.8684 21.0038 59.9214 20.9375 60.0274 20.9375H62.8714V20.9611ZM60.6782 23.1781H62.7075C62.7774 23.1837 62.8476 23.1744 62.9134 23.1506C62.9791 23.1269 63.0388 23.0894 63.0883 23.0407C63.1702 22.9154 63.2091 22.7677 63.1992 22.6191V22.3823C63.2091 22.2337 63.1702 22.086 63.0883 21.9607C63.0401 21.9103 62.9806 21.8716 62.9145 21.8478C62.8483 21.8239 62.7775 21.8155 62.7075 21.8233H60.736C60.6878 21.8233 60.6686 21.8233 60.6686 21.8991L60.6782 23.1781ZM67.5616 20.9611C67.7228 20.9452 67.8857 20.9664 68.0371 21.0231C68.1886 21.0798 68.3246 21.1705 68.434 21.288C68.626 21.5666 68.7191 21.8996 68.6991 22.2354V22.5907C68.7136 22.8856 68.6506 23.1793 68.516 23.4433C68.4508 23.549 68.3632 23.6396 68.2593 23.7091C68.1553 23.7785 68.0374 23.8252 67.9134 23.846L68.8197 25.1724C68.8269 25.1871 68.8307 25.2033 68.8307 25.2198C68.8307 25.2361 68.8269 25.2523 68.8197 25.2671C68.8197 25.3097 68.7859 25.3287 68.7329 25.3287H68.0484C68.017 25.3382 67.9834 25.3382 67.952 25.3287C67.9318 25.3104 67.914 25.2897 67.899 25.2671L67.0603 23.9644H65.3491V25.2102C65.3491 25.3003 65.3105 25.3477 65.2334 25.3477H64.6597C64.5778 25.3477 64.5392 25.3003 64.5392 25.2102V21.1506C64.5392 21.0275 64.5923 20.9611 64.6983 20.9611H67.5616ZM65.3683 23.2112H67.3977C67.4675 23.2169 67.5377 23.2075 67.6035 23.1838C67.6693 23.1601 67.729 23.1226 67.7785 23.0739C67.8603 22.9486 67.8992 22.8009 67.8894 22.6523V22.387C67.8992 22.2384 67.8603 22.0907 67.7785 21.9654C67.729 21.9167 67.6693 21.8792 67.6035 21.8555C67.5377 21.8317 67.4675 21.8224 67.3977 21.828H65.4358C65.3876 21.828 65.3683 21.8517 65.3683 21.9038V23.2112ZM73.0278 20.9611C73.1097 20.9611 73.1483 21.0085 73.1483 21.0986V21.6954C73.1483 21.7854 73.1097 21.8328 73.0278 21.8328H70.714C70.5983 21.8279 70.4826 21.8423 70.3718 21.8754C70.287 21.8985 70.2114 21.9464 70.1549 22.0128C70.0979 22.0923 70.0585 22.1826 70.0392 22.278C70.016 22.4142 70.0047 22.5521 70.0054 22.6901V22.7375H72.994C73.0711 22.7375 73.1097 22.7849 73.1097 22.8749V23.3486C73.1097 23.4386 73.0711 23.486 72.994 23.486H70.0054V23.5902C70.0023 23.7283 70.0136 23.8664 70.0392 24.0024C70.0532 24.0992 70.0931 24.1908 70.1549 24.2676C70.2114 24.3339 70.287 24.3819 70.3718 24.405C70.4826 24.438 70.5983 24.4524 70.714 24.4476H73.0278C73.1097 24.4476 73.1483 24.495 73.1483 24.585V25.1818C73.1483 25.2718 73.1097 25.3193 73.0278 25.3193H70.6948C70.4632 25.3249 70.2322 25.2946 70.0103 25.2292C69.8251 25.1821 69.6577 25.0834 69.5283 24.945C69.3994 24.7984 69.31 24.6226 69.268 24.4334C69.2095 24.1817 69.182 23.9241 69.186 23.666V22.6239C69.182 22.3673 69.2095 22.1113 69.268 21.8612C69.31 21.672 69.3994 21.4961 69.5283 21.3496C69.6596 21.2124 69.8261 21.1126 70.0103 21.0606C70.2322 20.9953 70.4632 20.9649 70.6948 20.9707H73.0278V20.9611ZM74.8111 20.9611C74.8786 20.9517 74.9467 20.9517 75.0134 20.9611C75.0674 20.9751 75.1186 20.9992 75.163 21.0322C75.2097 21.0728 75.2489 21.1208 75.2786 21.1743C75.3186 21.2524 75.3519 21.3332 75.38 21.4159L76.4837 24.4239C76.4882 24.4398 76.4971 24.4539 76.5104 24.4642C76.5237 24.4745 76.5393 24.4803 76.5563 24.4808H76.643C76.66 24.4803 76.6756 24.4745 76.6889 24.4642C76.7015 24.4539 76.7111 24.4398 76.7156 24.4239L77.8193 21.4159C77.8467 21.3332 77.8808 21.2524 77.92 21.1743C77.9482 21.1192 77.9874 21.0708 78.0363 21.0322C78.0793 20.9994 78.1282 20.9752 78.1808 20.9611H78.9474C79.0163 20.9519 79.0874 20.9606 79.1526 20.9864C79.2178 21.0122 79.2749 21.054 79.3186 21.108C79.3956 21.2655 79.4289 21.4405 79.4149 21.6148V25.2102C79.4149 25.3003 79.3763 25.3477 79.2941 25.3477H78.7541C78.6771 25.3477 78.6386 25.3003 78.6386 25.2102V21.937C78.6386 21.8944 78.6386 21.8754 78.5948 21.8754H78.5467C78.5311 21.8741 78.5156 21.8787 78.503 21.8883C78.4904 21.898 78.4823 21.912 78.4793 21.9275L77.4097 24.7366C77.3741 24.8346 77.3304 24.9297 77.2793 25.0208C77.2408 25.0907 77.1919 25.1545 77.1349 25.2102C77.0867 25.2589 77.0267 25.2948 76.9608 25.3145C76.886 25.3371 76.8082 25.3483 76.7297 25.3477H76.4741C76.3956 25.3486 76.3178 25.3374 76.243 25.3145C76.1771 25.2948 76.1171 25.2589 76.0697 25.2102C76.0119 25.1545 75.963 25.0907 75.9245 25.0208C75.8734 24.9297 75.8304 24.8346 75.7948 24.7366L74.7148 21.9275C74.7126 21.912 74.7045 21.898 74.6919 21.8883C74.6793 21.8787 74.663 21.8741 74.6474 21.8754H74.5993C74.5704 21.8754 74.5556 21.8754 74.5556 21.937V25.2102C74.5556 25.3003 74.5171 25.3477 74.44 25.3477H73.9003C73.8183 25.3477 73.7797 25.3003 73.7797 25.2102V21.6148C73.7653 21.4405 73.7986 21.2655 73.8762 21.108C73.9209 21.054 73.9788 21.0122 74.0447 20.9864C74.1104 20.9608 74.1823 20.952 74.2519 20.9611H74.8111ZM80.7837 20.9611C80.8608 20.9611 80.8993 21.0085 80.8993 21.0986V25.2102C80.8993 25.3003 80.8608 25.3477 80.7837 25.3477H80.2245C80.1423 25.3477 80.1037 25.3003 80.1037 25.2102V21.0986C80.1037 21.0085 80.1423 20.9611 80.2245 20.9611H80.7837ZM82.2874 20.9611C82.3645 20.9611 82.403 21.0085 82.403 21.0986V23.5997C82.4 23.7394 82.4111 23.8791 82.4371 24.0166C82.4563 24.112 82.4956 24.2023 82.5526 24.2818C82.6089 24.3482 82.6845 24.3961 82.7697 24.4192C82.8808 24.4522 82.9963 24.4667 83.1119 24.4618H84.5578C84.6734 24.4667 84.7897 24.4522 84.9 24.4192C84.9852 24.3961 85.0608 24.3482 85.1171 24.2818C85.1756 24.2036 85.2134 24.1125 85.2282 24.0166C85.2511 23.8788 85.2623 23.7393 85.2615 23.5997V21.0986C85.2615 21.0085 85.3 20.9611 85.3771 20.9611H85.9556C86.0326 20.9611 86.0711 21.0085 86.0711 21.0986V23.6849C86.0749 23.9428 86.0489 24.2001 85.9941 24.4524C85.9519 24.6404 85.8645 24.8158 85.7386 24.964C85.6097 25.1023 85.4423 25.201 85.2571 25.2482C85.0341 25.3112 84.8037 25.3416 84.5726 25.3381H83.0445C82.8126 25.3439 82.5815 25.3135 82.36 25.2482C82.1748 25.201 82.0074 25.1023 81.8778 24.964C81.7489 24.8174 81.6593 24.6415 81.6178 24.4524C81.5593 24.2007 81.5319 23.943 81.5356 23.6849V21.0986C81.5356 21.0085 81.5741 20.9611 81.6563 20.9611H82.2874ZM87.8311 20.9611C87.8978 20.9517 87.966 20.9517 88.0334 20.9611C88.0874 20.9751 88.1378 20.9992 88.183 21.0322C88.2297 21.0728 88.2682 21.1208 88.2986 21.1743C88.3378 21.2524 88.3719 21.3332 88.4 21.4159L89.5037 24.4239C89.5074 24.4398 89.5171 24.4539 89.5304 24.4642C89.543 24.4745 89.5593 24.4803 89.5756 24.4808H89.6578C89.6741 24.4803 89.6904 24.4745 89.7037 24.4642C89.7163 24.4539 89.726 24.4398 89.7304 24.4239L90.8341 21.4159C90.8615 21.3332 90.8956 21.2524 90.9349 21.1743C90.963 21.1192 91.0023 21.0708 91.0511 21.0322C91.0941 20.9994 91.143 20.9752 91.1956 20.9611H91.9623C92.0311 20.9519 92.1023 20.9606 92.1674 20.9864C92.2326 21.0122 92.2897 21.054 92.3334 21.108C92.4104 21.2655 92.4437 21.4405 92.4297 21.6148V25.2102C92.4297 25.3003 92.3911 25.3477 92.3089 25.3477H91.7689C91.6919 25.3477 91.6534 25.3003 91.6534 25.2102V21.937C91.6534 21.8944 91.6534 21.8754 91.6097 21.8754H91.5615C91.546 21.8741 91.5304 21.8787 91.5178 21.8883C91.5052 21.898 91.4971 21.912 91.4941 21.9275L90.4245 24.7366C90.3889 24.8346 90.3452 24.9297 90.2941 25.0208C90.2556 25.0907 90.2067 25.1545 90.1497 25.2102C90.1015 25.2589 90.0415 25.2948 89.9756 25.3145C89.9008 25.3371 89.823 25.3483 89.7445 25.3477H89.4889C89.4104 25.3486 89.3326 25.3374 89.2578 25.3145C89.1926 25.2923 89.1341 25.2567 89.0845 25.2102C89.0267 25.1545 88.9778 25.0907 88.9393 25.0208C88.8882 24.9297 88.8452 24.8346 88.8097 24.7366L87.7297 21.9275C87.7274 21.912 87.7193 21.898 87.7067 21.8883C87.6941 21.8787 87.6778 21.8741 87.6623 21.8754H87.6141C87.5852 21.8754 87.5704 21.8754 87.5704 21.937V25.2102C87.5704 25.3003 87.5319 25.3477 87.4549 25.3477H86.9149C86.8334 25.3477 86.7948 25.3003 86.7948 25.2102V21.6148C86.78 21.4405 86.8134 21.2655 86.8911 21.108C86.9356 21.054 86.9934 21.0122 87.0593 20.9864C87.1252 20.9608 87.1971 20.952 87.2667 20.9611H87.8311ZM97.886 20.9611C98.0474 20.9452 98.2104 20.9664 98.3615 21.0231C98.5134 21.0798 98.6489 21.1705 98.7586 21.288C98.9504 21.5666 99.0437 21.8996 99.0237 22.2354V22.7091C99.0437 23.045 98.9504 23.378 98.7586 23.6565C98.6489 23.774 98.5134 23.8647 98.3615 23.9215C98.2104 23.9782 98.0474 23.9994 97.886 23.9834H95.6926V25.1866C95.6926 25.2766 95.6541 25.3239 95.5771 25.3239H95.0037C94.9215 25.3239 94.883 25.2766 94.883 25.1866V21.127C94.883 21.0038 94.9363 20.9375 95.0423 20.9375H97.886V20.9611ZM95.6926 23.1781H97.7223C97.7919 23.1837 97.8623 23.1744 97.9282 23.1506C97.9934 23.1269 98.0534 23.0894 98.103 23.0407C98.1845 22.9154 98.2237 22.7677 98.2141 22.6191V22.3823C98.2237 22.2337 98.1845 22.086 98.103 21.9607C98.0548 21.9103 97.9948 21.8716 97.9289 21.8478C97.863 21.8239 97.7919 21.8155 97.7223 21.8233H95.76C95.7119 21.8233 95.6926 21.8233 95.6926 21.8991V23.1781ZM102.557 20.9611C102.718 20.9452 102.881 20.9664 103.033 21.0231C103.184 21.0798 103.32 21.1705 103.43 21.288C103.622 21.5666 103.715 21.8996 103.694 22.2354V22.5907C103.709 22.8856 103.646 23.1793 103.511 23.4433C103.446 23.549 103.359 23.6396 103.255 23.7091C103.15 23.7785 103.033 23.8252 102.909 23.846L103.815 25.1724C103.822 25.1871 103.826 25.2033 103.826 25.2198C103.826 25.2361 103.822 25.2523 103.815 25.2671C103.815 25.3097 103.782 25.3287 103.728 25.3287H103.044C103.013 25.3382 102.979 25.3382 102.947 25.3287C102.927 25.3104 102.91 25.2897 102.894 25.2671L102.056 23.9644H100.344V25.2102C100.344 25.3003 100.306 25.3477 100.229 25.3477H99.6548C99.5734 25.3477 99.5348 25.3003 99.5348 25.2102V21.1506C99.5348 21.0275 99.5874 20.9611 99.6934 20.9611H102.557ZM100.364 23.2112H102.398C102.467 23.2169 102.538 23.2075 102.604 23.1838C102.67 23.1601 102.729 23.1226 102.779 23.0739C102.861 22.9486 102.899 22.8009 102.89 22.6523V22.387C102.899 22.2384 102.861 22.0907 102.779 21.9654C102.729 21.9167 102.67 21.8792 102.604 21.8555C102.538 21.8317 102.467 21.8224 102.398 21.828H100.436C100.387 21.828 100.368 21.8517 100.368 21.9038L100.364 23.2112ZM107.329 20.9611C107.561 20.9554 107.792 20.9858 108.013 21.0512C108.198 21.1031 108.364 21.203 108.496 21.3402C108.621 21.4882 108.708 21.6636 108.751 21.8517C108.81 22.1018 108.837 22.3578 108.833 22.6144V23.6849C108.837 23.943 108.81 24.2007 108.751 24.4524C108.708 24.6404 108.621 24.8158 108.496 24.964C108.366 25.1023 108.199 25.201 108.013 25.2482C107.791 25.3112 107.561 25.3416 107.329 25.3381H105.69C105.459 25.3439 105.227 25.3135 105.006 25.2482C104.82 25.2026 104.652 25.1036 104.524 24.964C104.395 24.8174 104.305 24.6415 104.263 24.4524C104.204 24.2007 104.177 23.943 104.182 23.6849V22.6144C104.177 22.3578 104.204 22.1018 104.263 21.8517C104.305 21.6625 104.395 21.4866 104.524 21.3402C104.654 21.2016 104.821 21.1015 105.006 21.0512C105.227 20.9858 105.459 20.9554 105.69 20.9611H107.329ZM105.02 23.6233C105.017 23.7615 105.028 23.8996 105.054 24.0355C105.073 24.1308 105.113 24.2213 105.17 24.3008C105.226 24.3671 105.302 24.415 105.387 24.4381C105.497 24.4712 105.613 24.4856 105.729 24.4808H107.3C107.416 24.4856 107.531 24.4712 107.642 24.4381C107.727 24.415 107.803 24.3671 107.859 24.3008C107.916 24.2213 107.956 24.1308 107.975 24.0355C108.001 23.8996 108.012 23.7615 108.009 23.6233V22.6759C108.012 22.5378 108.001 22.3997 107.975 22.2638C107.956 22.1684 107.916 22.0781 107.859 21.9986C107.803 21.9322 107.727 21.8843 107.642 21.8612C107.531 21.8281 107.416 21.8137 107.3 21.8186H105.729C105.613 21.8137 105.497 21.8281 105.387 21.8612C105.302 21.8843 105.226 21.9322 105.17 21.9986C105.113 22.0781 105.073 22.1684 105.054 22.2638C105.028 22.3997 105.017 22.5378 105.02 22.6759V23.6233ZM112.477 20.9611C112.639 20.9452 112.802 20.9664 112.953 21.0231C113.104 21.0798 113.24 21.1705 113.35 21.288C113.542 21.5666 113.635 21.8996 113.615 22.2354V22.7091C113.635 23.045 113.542 23.378 113.35 23.6565C113.24 23.774 113.104 23.8647 112.953 23.9215C112.802 23.9782 112.639 23.9994 112.477 23.9834H110.284V25.1866C110.284 25.2766 110.245 25.3239 110.168 25.3239H109.595C109.513 25.3239 109.474 25.2766 109.474 25.1866V21.127C109.474 21.0038 109.527 20.9375 109.633 20.9375H112.477V20.9611ZM110.279 23.1781H112.313C112.383 23.1837 112.453 23.1744 112.519 23.1506C112.584 23.1269 112.644 23.0894 112.694 23.0407C112.776 22.9154 112.815 22.7677 112.804 22.6191V22.3823C112.815 22.2337 112.776 22.086 112.694 21.9607C112.644 21.912 112.584 21.8744 112.519 21.8507C112.453 21.827 112.383 21.8176 112.313 21.8233H110.351C110.303 21.8233 110.284 21.8233 110.284 21.8991L110.279 23.1781ZM117.914 20.9611C117.996 20.9611 118.035 21.0085 118.035 21.0986V21.6954C118.035 21.7854 117.996 21.8328 117.914 21.8328H115.601C115.485 21.8279 115.369 21.8423 115.259 21.8754C115.173 21.8985 115.098 21.9464 115.042 22.0128C114.984 22.0923 114.945 22.1826 114.926 22.278C114.902 22.4142 114.891 22.5521 114.892 22.6901V22.7375H117.885C117.962 22.7375 118.001 22.7849 118.001 22.8749V23.3486C118.001 23.4386 117.962 23.486 117.885 23.486H114.892V23.5902C114.889 23.7283 114.9 23.8664 114.926 24.0024C114.94 24.0992 114.98 24.1908 115.042 24.2676C115.098 24.3339 115.173 24.3819 115.259 24.405C115.369 24.438 115.485 24.4524 115.601 24.4476H117.914C117.996 24.4476 118.035 24.495 118.035 24.585V25.1818C118.035 25.2718 117.996 25.3193 117.914 25.3193H115.582C115.35 25.3249 115.119 25.2946 114.897 25.2292C114.712 25.1821 114.544 25.0834 114.415 24.945C114.286 24.7984 114.196 24.6226 114.155 24.4334C114.096 24.1817 114.068 23.9241 114.073 23.666V22.6239C114.069 22.3673 114.096 22.1113 114.155 21.8612C114.214 21.6832 114.315 21.5211 114.448 21.3875C114.58 21.2503 114.747 21.1505 114.93 21.0986C115.153 21.0332 115.384 21.0028 115.615 21.0085H117.948L117.914 20.9611ZM121.65 20.9611C121.811 20.9452 121.974 20.9664 122.126 21.0231C122.277 21.0798 122.413 21.1705 122.522 21.288C122.715 21.5666 122.807 21.8996 122.787 22.2354V22.5907C122.803 22.8862 122.738 23.1804 122.6 23.4433C122.534 23.549 122.447 23.6396 122.343 23.7091C122.239 23.7785 122.121 23.8252 121.997 23.846L122.903 25.1724C122.91 25.1871 122.914 25.2033 122.914 25.2198C122.914 25.2361 122.91 25.2523 122.903 25.2671C122.903 25.3097 122.87 25.3287 122.816 25.3287H122.161C122.13 25.3382 122.096 25.3382 122.064 25.3287C122.044 25.3104 122.027 25.2897 122.012 25.2671L121.173 23.9644H119.462V25.2102C119.462 25.3003 119.423 25.3477 119.346 25.3477H118.773C118.69 25.3477 118.652 25.3003 118.652 25.2102V21.1506C118.652 21.0275 118.705 20.9611 118.811 20.9611H121.65ZM119.452 23.2112H121.472C121.542 23.2169 121.612 23.2075 121.678 23.1838C121.743 23.1601 121.803 23.1226 121.853 23.0739C121.934 22.9486 121.973 22.8009 121.964 22.6523V22.387C121.973 22.2384 121.934 22.0907 121.853 21.9654C121.803 21.9167 121.743 21.8792 121.678 21.8555C121.612 21.8317 121.542 21.8224 121.472 21.828H119.544C119.496 21.828 119.476 21.8517 119.476 21.9038L119.452 23.2112ZM127.405 20.9611C127.487 20.9611 127.526 21.0085 127.526 21.0986V21.7143C127.526 21.8091 127.487 21.8564 127.405 21.8564H125.742V25.2102C125.742 25.3003 125.704 25.3477 125.627 25.3477H125.053C124.976 25.3477 124.938 25.3003 124.938 25.2102V21.847H123.27C123.187 21.847 123.149 21.7996 123.149 21.7049V21.089C123.149 20.9991 123.187 20.9517 123.27 20.9517L127.405 20.9611ZM128.702 20.9611C128.779 20.9611 128.818 21.0085 128.818 21.0986V25.2102C128.818 25.3003 128.779 25.3477 128.702 25.3477H128.124C128.042 25.3477 128.003 25.3003 128.003 25.2102V21.0986C128.003 21.0085 128.042 20.9611 128.124 20.9611H128.702ZM133.291 20.9611C133.373 20.9611 133.412 21.0085 133.412 21.0986V21.6954C133.412 21.7854 133.373 21.8328 133.291 21.8328H130.977C130.862 21.8279 130.746 21.8423 130.635 21.8754C130.55 21.8985 130.475 21.9464 130.418 22.0128C130.362 22.0923 130.322 22.1826 130.302 22.278C130.279 22.4142 130.268 22.5521 130.269 22.6901V22.7375H133.247C133.324 22.7375 133.364 22.7849 133.364 22.8749V23.3486C133.364 23.4386 133.324 23.486 133.247 23.486H130.254V23.5902C130.251 23.7283 130.262 23.8664 130.288 24.0024C130.302 24.0992 130.342 24.1908 130.404 24.2676C130.46 24.3339 130.536 24.3819 130.621 24.405C130.731 24.438 130.847 24.4524 130.963 24.4476H133.276C133.359 24.4476 133.397 24.495 133.397 24.585V25.1818C133.397 25.2718 133.359 25.3193 133.276 25.3193H130.944C130.712 25.3249 130.481 25.2946 130.259 25.2292C130.074 25.1821 129.907 25.0834 129.777 24.945C129.648 24.7984 129.559 24.6226 129.517 24.4334C129.459 24.1817 129.431 23.9241 129.435 23.666V22.6239C129.431 22.3673 129.459 22.1113 129.517 21.8612C129.559 21.672 129.648 21.4961 129.777 21.3496C129.908 21.2124 130.075 21.1126 130.259 21.0606C130.481 20.9953 130.712 20.9649 130.944 20.9707H133.276L133.291 20.9611ZM137.702 20.9611C137.779 20.9611 137.817 21.0085 137.817 21.0986V21.6954C137.817 21.7854 137.779 21.8328 137.702 21.8328H135.046C135.004 21.8301 134.963 21.8374 134.925 21.8539C134.887 21.8704 134.854 21.8956 134.829 21.9275C134.782 22.0044 134.759 22.0937 134.766 22.1833V22.3965C134.766 22.6286 134.858 22.747 135.041 22.747H137.027C137.156 22.7374 137.287 22.7577 137.407 22.8062C137.528 22.8548 137.636 22.9302 137.721 23.0265C137.89 23.2591 137.972 23.5419 137.953 23.8271V24.3292C137.964 24.5936 137.884 24.8539 137.726 25.0681C137.638 25.1662 137.528 25.2429 137.405 25.2922C137.282 25.3416 137.15 25.3622 137.017 25.3523H134.082C133.999 25.3523 133.961 25.305 133.961 25.215V24.6323C133.961 24.5423 133.999 24.495 134.082 24.495H136.863C136.904 24.4976 136.945 24.4904 136.983 24.4739C137.021 24.4574 137.054 24.4321 137.08 24.4002C137.127 24.3234 137.149 24.234 137.142 24.1445V23.8745C137.142 23.6423 137.051 23.5239 136.867 23.5239H134.882C134.758 23.5317 134.634 23.5129 134.518 23.4687C134.402 23.4245 134.298 23.3561 134.212 23.2681C134.043 23.0355 133.961 22.7527 133.98 22.4675V21.9938C133.969 21.7295 134.049 21.4691 134.207 21.2549C134.295 21.1569 134.404 21.0801 134.527 21.0308C134.65 20.9815 134.783 20.9609 134.916 20.9707L137.702 20.9611Z" fill="#00ADE5"/>
</g>
</svg>
