<svg width="290" height="34" viewBox="0 0 290 34" fill="none" xmlns="http://www.w3.org/2000/svg">
<g clip-path="url(#clip0_1141_7638)">
<path d="M221.856 8.08568C222.704 8.08568 223.313 8.31608 223.672 8.77687C224.042 9.23766 224.226 9.92885 224.226 10.8395V11.8269C224.226 12.7375 224.042 13.4287 223.672 13.8895C223.302 14.3503 222.693 14.5916 221.856 14.5916H217.288V17.1589C217.288 17.3564 217.212 17.4552 217.049 17.4552H215.852C215.678 17.4552 215.602 17.3564 215.602 17.1589V8.48064C215.602 8.21733 215.711 8.07471 215.929 8.07471H221.856V8.08568ZM217.288 12.8253H221.518C221.899 12.8253 222.16 12.7265 222.312 12.529C222.465 12.3316 222.541 12.0353 222.541 11.6294V11.1247C222.541 10.7188 222.465 10.4226 222.312 10.2251C222.16 10.0276 221.888 9.92885 221.518 9.92885H217.44C217.342 9.92885 217.299 9.98371 217.299 10.0934V12.8253H217.288Z" fill="#1EADE5"/>
<path d="M229.12 8.08594C229.403 8.08594 229.631 8.15177 229.827 8.29439C230.023 8.43702 230.208 8.70033 230.393 9.10627L234.047 17.1592C234.079 17.247 234.09 17.3238 234.079 17.3786C234.058 17.4335 234.003 17.4664 233.916 17.4664H232.513C232.383 17.4664 232.307 17.4115 232.263 17.2908L231.48 15.5574H226.293L225.531 17.2908C225.477 17.4115 225.401 17.4664 225.281 17.4664H223.846C223.748 17.4664 223.693 17.4335 223.672 17.3786C223.65 17.3238 223.672 17.247 223.704 17.1592L227.326 9.10627C227.511 8.70033 227.685 8.43702 227.87 8.29439C228.044 8.15177 228.25 8.08594 228.489 8.08594H229.142H229.12ZM226.978 14.0104H230.773L229.022 10.0827C228.99 10.0169 228.957 9.98397 228.903 9.98397H228.837C228.837 9.98397 228.75 10.0169 228.718 10.0827L226.989 14.0104H226.978Z" fill="#1EADE5"/>
<path d="M235.961 8.08568C236.124 8.08568 236.2 8.18442 236.2 8.3819V13.7249C236.2 14.087 236.222 14.3832 236.276 14.6136C236.32 14.855 236.407 15.0415 236.515 15.1731C236.624 15.3158 236.776 15.4145 236.961 15.4694C237.146 15.5242 237.385 15.5571 237.668 15.5571H242.138C242.301 15.5571 242.377 15.6559 242.377 15.8533V17.1699C242.377 17.3674 242.301 17.4661 242.138 17.4661H237.603C237.048 17.4661 236.57 17.4003 236.178 17.2796C235.787 17.1589 235.471 16.9505 235.221 16.6652C234.971 16.38 234.797 16.0179 234.677 15.5681C234.569 15.1183 234.503 14.5697 234.503 13.9224V8.37093C234.503 8.17345 234.59 8.07471 234.754 8.07471H235.95L235.961 8.08568Z" fill="#1EADE5"/>
<path d="M245.564 8.08594C245.727 8.08594 245.868 8.09691 245.988 8.12982C246.107 8.15177 246.205 8.20662 246.292 8.28342C246.379 8.36022 246.455 8.45896 246.532 8.59062C246.597 8.72227 246.673 8.89781 246.749 9.10627L249.044 15.5354C249.076 15.6122 249.12 15.6561 249.196 15.6561H249.327C249.403 15.6561 249.457 15.6122 249.479 15.5354L251.773 9.10627C251.85 8.88684 251.915 8.72227 251.991 8.59062C252.056 8.45896 252.143 8.36022 252.23 8.28342C252.317 8.20662 252.415 8.15177 252.535 8.12982C252.654 8.10788 252.785 8.08594 252.948 8.08594H254.133C254.514 8.08594 254.775 8.19565 254.906 8.4041C255.036 8.61256 255.101 8.97461 255.101 9.47929V17.1702C255.101 17.3676 255.014 17.4664 254.851 17.4664H253.72C253.557 17.4664 253.481 17.3676 253.481 17.1702V10.1705C253.481 10.0827 253.448 10.0388 253.394 10.0388H253.296C253.22 10.0388 253.176 10.0717 253.155 10.1485L250.925 16.1498C250.838 16.3912 250.751 16.5997 250.653 16.7642C250.566 16.9288 250.458 17.0714 250.36 17.1702C250.251 17.2799 250.131 17.3567 250.001 17.4006C249.87 17.4444 249.707 17.4664 249.522 17.4664H248.989C248.804 17.4664 248.641 17.4444 248.511 17.4006C248.38 17.3567 248.25 17.2799 248.152 17.1702C248.043 17.0604 247.945 16.9288 247.858 16.7642C247.771 16.5997 247.673 16.3912 247.586 16.1498L245.357 10.1485C245.335 10.0827 245.292 10.0388 245.216 10.0388H245.118C245.063 10.0388 245.031 10.0827 245.031 10.1705V17.1702C245.031 17.3676 244.944 17.4664 244.792 17.4664H243.66C243.486 17.4664 243.41 17.3676 243.41 17.1702V9.47929C243.41 8.97461 243.476 8.61256 243.606 8.4041C243.737 8.19565 243.998 8.08594 244.389 8.08594H245.596H245.564Z" fill="#1EADE5"/>
<path d="M222.53 21.2842C222.693 21.2842 222.769 21.3829 222.769 21.5804V27.1319C222.769 27.7792 222.715 28.3168 222.606 28.7776C222.497 29.2384 222.312 29.6004 222.073 29.8747C221.834 30.149 221.508 30.3574 221.116 30.4891C220.725 30.6207 220.246 30.6756 219.691 30.6756H215.385C215.211 30.6756 215.135 30.5769 215.135 30.3794V29.0628C215.135 28.8653 215.222 28.7666 215.385 28.7666H219.637C219.92 28.7666 220.159 28.7337 220.355 28.6788C220.54 28.624 220.692 28.5252 220.801 28.3826C220.909 28.24 220.986 28.0535 221.029 27.8231C221.073 27.5927 221.094 27.2855 221.094 26.9344V21.5914C221.094 21.3939 221.181 21.2952 221.344 21.2952H222.541L222.53 21.2842Z" fill="#1EADE5"/>
<path d="M225.64 21.2842C225.803 21.2842 225.879 21.3829 225.879 21.5804V26.9234C225.879 27.2855 225.901 27.5817 225.956 27.8121C225.999 28.0535 226.086 28.24 226.195 28.3716C226.304 28.5143 226.456 28.613 226.641 28.6679C226.826 28.7227 227.065 28.7556 227.348 28.7556H230.404C230.686 28.7556 230.926 28.7227 231.11 28.6679C231.295 28.613 231.448 28.5143 231.556 28.3716C231.665 28.229 231.741 28.0425 231.785 27.8121C231.828 27.5817 231.85 27.2745 231.85 26.9234V21.5804C231.85 21.3829 231.926 21.2842 232.089 21.2842H233.296C233.459 21.2842 233.536 21.3829 233.536 21.5804V27.1319C233.536 27.7792 233.481 28.3168 233.372 28.7776C233.264 29.2384 233.079 29.6004 232.84 29.8747C232.6 30.149 232.274 30.3574 231.883 30.4891C231.491 30.6098 231.013 30.6756 230.458 30.6756H227.282C226.728 30.6756 226.249 30.6098 225.858 30.4891C225.466 30.3684 225.151 30.1599 224.901 29.8747C224.651 29.5894 224.476 29.2274 224.357 28.7776C224.248 28.3277 224.183 27.7792 224.183 27.1319V21.5804C224.183 21.3829 224.27 21.2842 224.433 21.2842H225.629H225.64Z" fill="#1EADE5"/>
<path d="M237.179 21.2842C237.342 21.2842 237.483 21.2952 237.603 21.3281C237.723 21.35 237.82 21.4049 237.907 21.4817C237.994 21.5585 238.071 21.6572 238.147 21.7889C238.212 21.9205 238.288 22.0961 238.364 22.3045L240.659 28.7337C240.691 28.8105 240.735 28.8544 240.811 28.8544H240.942C241.018 28.8544 241.072 28.8105 241.094 28.7337L243.389 22.3045C243.465 22.0851 243.53 21.9205 243.606 21.7889C243.671 21.6572 243.758 21.5585 243.845 21.4817C243.932 21.4049 244.03 21.35 244.15 21.3281C244.269 21.3061 244.4 21.2842 244.563 21.2842H245.748C246.129 21.2842 246.39 21.3939 246.521 21.6023C246.651 21.8108 246.716 22.1729 246.716 22.6775V30.3684C246.716 30.5659 246.629 30.6646 246.466 30.6646H245.335C245.172 30.6646 245.096 30.5659 245.096 30.3684V23.3687C245.096 23.281 245.063 23.2371 245.009 23.2371H244.911C244.835 23.2371 244.791 23.27 244.77 23.3468L242.54 29.3481C242.453 29.5894 242.366 29.7979 242.268 29.9625C242.181 30.127 242.073 30.2697 241.975 30.3684C241.866 30.4781 241.746 30.5549 241.616 30.5988C241.485 30.6427 241.322 30.6646 241.137 30.6646H240.604C240.42 30.6646 240.256 30.6427 240.126 30.5988C239.995 30.5549 239.865 30.4781 239.767 30.3684C239.658 30.2587 239.56 30.127 239.473 29.9625C239.386 29.7979 239.289 29.5894 239.202 29.3481L236.972 23.3468C236.95 23.281 236.907 23.2371 236.831 23.2371H236.733C236.678 23.2371 236.646 23.281 236.646 23.3687V30.3684C236.646 30.5659 236.559 30.6646 236.407 30.6646H235.276C235.102 30.6646 235.025 30.5659 235.025 30.3684V22.6775C235.025 22.1729 235.091 21.8108 235.221 21.6023C235.352 21.3939 235.613 21.2842 236.004 21.2842H237.211H237.179Z" fill="#1EADE5"/>
<path d="M256.036 21.2844C256.21 21.2844 256.287 21.3832 256.287 21.5806V22.8533C256.287 23.0508 256.2 23.1495 256.036 23.1495H251.219C250.936 23.1495 250.697 23.1824 250.512 23.2373C250.327 23.2922 250.175 23.3909 250.055 23.5335C249.935 23.6761 249.859 23.8627 249.816 24.0931C249.772 24.3344 249.751 24.6197 249.751 24.9708V25.1024H255.982C256.145 25.1024 256.221 25.2012 256.221 25.3986V26.4519C256.221 26.6494 256.145 26.7481 255.982 26.7481H249.751V26.9785C249.751 27.3296 249.772 27.6148 249.816 27.8562C249.859 28.0976 249.935 28.2841 250.055 28.4157C250.164 28.5584 250.316 28.6571 250.512 28.712C250.697 28.7668 250.936 28.7997 251.219 28.7997H256.036C256.21 28.7997 256.287 28.8985 256.287 29.096V30.3686C256.287 30.5661 256.2 30.6649 256.036 30.6649H251.186C250.631 30.6649 250.153 30.599 249.761 30.4783C249.37 30.3577 249.055 30.1492 248.804 29.864C248.554 29.5787 248.38 29.2166 248.261 28.7668C248.141 28.317 248.087 27.7684 248.087 27.1211V24.8172C248.087 24.1699 248.141 23.6323 248.261 23.1824C248.369 22.7326 248.554 22.3706 248.804 22.0853C249.055 21.8001 249.37 21.6026 249.761 21.4709C250.153 21.3393 250.621 21.2734 251.186 21.2734H256.036V21.2844Z" fill="#1EADE5"/>
<path d="M259.005 21.2842C259.169 21.2842 259.245 21.3829 259.245 21.5804V30.3684C259.245 30.5659 259.169 30.6646 259.005 30.6646H257.809C257.635 30.6646 257.559 30.5659 257.559 30.3684V21.5804C257.559 21.3829 257.646 21.2842 257.809 21.2842H259.005Z" fill="#1EADE5"/>
<path d="M266.966 21.2844C267.814 21.2844 268.423 21.5148 268.782 21.9756C269.152 22.4364 269.337 23.1276 269.337 24.0382V24.8062C269.337 25.5742 269.206 26.1776 268.945 26.6274C268.684 27.0772 268.271 27.3625 267.684 27.4832L269.576 30.3247C269.576 30.3247 269.62 30.4345 269.609 30.5222C269.598 30.61 269.533 30.6539 269.435 30.6539H268.01C267.912 30.6539 267.847 30.6429 267.814 30.61C267.782 30.5881 267.738 30.5442 267.706 30.4783L265.966 27.6916H262.399V30.3577C262.399 30.5551 262.322 30.6539 262.159 30.6539H260.963C260.789 30.6539 260.713 30.5551 260.713 30.3577V21.6794C260.713 21.4161 260.822 21.2734 261.039 21.2734H266.966V21.2844ZM262.399 26.0679H266.629C267.01 26.0679 267.271 25.9691 267.423 25.7717C267.575 25.5742 267.651 25.278 267.651 24.872V24.3125C267.651 23.9065 267.575 23.6103 267.423 23.4128C267.271 23.2154 266.999 23.1166 266.629 23.1166H262.551C262.453 23.1166 262.409 23.1715 262.409 23.2812V26.0679H262.399Z" fill="#1EADE5"/>
<path d="M275.601 21.2842C275.884 21.2842 276.112 21.35 276.308 21.4926C276.504 21.6353 276.689 21.8986 276.874 22.3045L280.528 30.3574C280.56 30.4452 280.571 30.522 280.56 30.5769C280.539 30.6317 280.484 30.6646 280.397 30.6646H278.994C278.864 30.6646 278.788 30.6098 278.744 30.4891L277.961 28.7556H272.774L272.012 30.4891C271.958 30.6098 271.882 30.6646 271.762 30.6646H270.327C270.229 30.6646 270.174 30.6317 270.153 30.5769C270.131 30.522 270.153 30.4452 270.185 30.3574L273.807 22.3045C273.992 21.8986 274.166 21.6353 274.351 21.4926C274.525 21.35 274.731 21.2842 274.97 21.2842H275.623H275.601ZM273.459 27.2087H277.254L275.503 23.281C275.471 23.2151 275.438 23.1822 275.384 23.1822H275.318C275.318 23.1822 275.231 23.2151 275.199 23.281L273.47 27.2087H273.459Z" fill="#1EADE5"/>
<path d="M282.909 21.2842C283.073 21.2842 283.149 21.3829 283.149 21.5804V25.0583H288.314V21.5804C288.314 21.3829 288.401 21.2842 288.554 21.2842H289.75C289.924 21.2842 290 21.3829 290 21.5804V30.3684C290 30.5659 289.913 30.6646 289.75 30.6646H288.554C288.39 30.6646 288.314 30.5659 288.314 30.3684V26.8027H283.149V30.3684C283.149 30.5659 283.073 30.6646 282.909 30.6646H281.713C281.539 30.6646 281.463 30.5659 281.463 30.3684V21.5804C281.463 21.3829 281.55 21.2842 281.713 21.2842H282.909Z" fill="#1EADE5"/>
<path d="M17.1503 17.8721H0V33.9999H17.1503V17.8721Z" fill="#1EADE5"/>
<path d="M35.1707 0H17.4548V17.8722H35.1707V0Z" fill="#1EADE5"/>
<path d="M31.7775 3.11572H3.32782V31.3887H31.7775V3.11572Z" fill="#1EADE5"/>
<path d="M8.60236 10.7518V27.8451H14.127V5.33203L8.60236 10.7518Z" fill="white"/>
<path d="M26.8293 10.7518V27.8451H21.2938V5.33203L26.8293 10.7518Z" fill="white"/>
<path d="M20.4781 15.1952V27.8451H14.9535V9.77539L20.4781 15.1952Z" fill="white"/>
<path d="M41.1085 8.48096V20.2531H43.4141V12.9572L48.0687 20.2531L52.6254 13.0231V20.2531H55.1376V8.48096H52.6254L48.1231 15.6781L43.4141 8.48096H41.1085Z" fill="white"/>
<path d="M67.8291 10.8617V8.48096H56.2143V20.2531H67.8291V17.8724H58.5199V15.4038H65.3713V13.0999H58.5199V10.8617H67.8291Z" fill="white"/>
<path d="M80.6837 8.48096H68.9057V10.8617H73.6147V20.2531H75.9203V10.8617H80.6837V8.48096Z" fill="white"/>
<path d="M134.799 17.9821V8.48096H132.287V20.2531H133.537H134.799H141.705V17.9821H134.799Z" fill="white"/>
<path d="M145.185 8.48096H142.781V20.2531H145.185V8.48096Z" fill="white"/>
<path d="M157.833 8.48096H146.262V10.8617H150.916V20.2531H153.222V10.8617H157.833V8.48096Z" fill="white"/>
<path d="M180.355 8.48096V16.4461L173.548 8.48096H170.992V20.2531H173.548V12.3319L180.355 20.2531H181.139H182.715V8.48096H180.355Z" fill="white"/>
<path d="M103.043 8.48096H96.6485C95.2347 8.48096 94.082 9.64391 94.082 11.0702V17.6639C94.082 19.0902 95.2347 20.2531 96.6485 20.2531H103.043C104.457 20.2531 105.61 19.0902 105.61 17.6639V11.0702C105.61 9.64391 104.457 8.48096 103.043 8.48096ZM103.326 17.3019C103.326 17.7956 102.934 18.1905 102.445 18.1905H97.0292C96.5398 18.1905 96.1483 17.7956 96.1483 17.3019V11.4981C96.1483 11.0044 96.5398 10.6094 97.0292 10.6094H102.445C102.934 10.6094 103.326 11.0044 103.326 11.4981V17.3019Z" fill="white"/>
<path d="M128.546 8.48096H122.151C120.737 8.48096 119.584 9.64391 119.584 11.0702V17.6639C119.584 19.0902 120.737 20.2531 122.151 20.2531H128.546C129.959 20.2531 131.112 19.0902 131.112 17.6639V11.0702C131.112 9.64391 129.959 8.48096 128.546 8.48096ZM128.828 17.3019C128.828 17.7956 128.437 18.1905 127.948 18.1905H122.532C122.042 18.1905 121.651 17.7956 121.651 17.3019V11.4981C121.651 11.0044 122.042 10.6094 122.532 10.6094H127.948C128.437 10.6094 128.828 11.0044 128.828 11.4981V17.3019Z" fill="white"/>
<path d="M93.3751 14.2519V10.8617C93.3751 9.44643 91.9613 8.48096 90.4279 8.48096H81.7603V20.2531H84.2725V16.5668H86.4149L90.1234 20.2531H93.386L89.7536 16.5668H90.7759C92.3419 16.5668 93.386 15.2612 93.386 14.2409L93.3751 14.2519ZM84.2616 14.3725V10.8617H90.1451C90.9934 10.8617 91.2761 11.2457 91.2761 12.5294C91.2761 13.813 91.0695 14.3725 90.0799 14.3725H84.2616Z" fill="white"/>
<path d="M115.843 8.48096H106.686V20.2531H109.09V16.5668H115.843C117.257 16.5668 118.41 15.4038 118.41 13.9776V11.0702C118.41 9.64391 117.257 8.48096 115.843 8.48096ZM116.007 13.6484C116.007 14.0653 115.669 14.4054 115.256 14.4054H109.101V10.8617H115.256C115.669 10.8617 116.007 11.2018 116.007 11.6187V13.6484Z" fill="white"/>
<path d="M167.349 8.48096H160.91C159.497 8.48096 158.344 9.64391 158.344 11.0702V20.2531H160.649V17.8614H167.457V20.2531H169.915V11.0702C169.915 9.64391 168.762 8.48096 167.349 8.48096ZM160.649 15.5026V11.531C160.649 11.158 160.954 10.8508 161.324 10.8508H166.783C167.153 10.8508 167.457 11.158 167.457 11.531V15.5026H160.649Z" fill="white"/>
<path d="M61.206 25.9692C62.1739 25.9692 62.5763 26.419 62.5763 27.2858V27.7575C62.5763 28.6243 62.1848 29.0741 61.206 29.0741H58.5742V30.3029C58.5742 30.4016 58.5307 30.4455 58.4328 30.4455H57.7477C57.6498 30.4455 57.6063 30.4016 57.6063 30.3029V26.1447C57.6063 26.0131 57.6716 25.9473 57.8021 25.9473H61.2169L61.206 25.9692ZM58.5742 28.2403H61.0103C61.4453 28.2403 61.5975 28.0538 61.5975 27.6698V27.4284C61.5975 27.0444 61.4344 26.8579 61.0103 26.8579H58.6612C58.6068 26.8579 58.5742 26.8798 58.5742 26.9347V28.2403Z" fill="#1EADE5"/>
<path d="M66.6763 25.9692C67.6442 25.9692 68.0466 26.419 68.0466 27.2858V27.6478C68.0466 28.3829 67.7638 28.8108 67.1004 28.9315L68.188 30.2919C68.188 30.2919 68.2206 30.4565 68.101 30.4565H67.2853C67.1766 30.4565 67.1439 30.4345 67.1113 30.3687L66.1108 29.0302H64.0554V30.3029C64.0554 30.4016 64.0119 30.4455 63.914 30.4455H63.2288C63.131 30.4455 63.0875 30.4016 63.0875 30.3029V26.1447C63.0875 26.0131 63.1527 25.9473 63.2832 25.9473H66.6981L66.6763 25.9692ZM64.0445 28.2622H66.4806C66.9156 28.2622 67.0678 28.0757 67.0678 27.6917V27.4174C67.0678 27.0334 66.9047 26.8469 66.4806 26.8469H64.1315C64.0771 26.8469 64.0445 26.8689 64.0445 26.9237V28.2622Z" fill="#1EADE5"/>
<path d="M73.1036 25.9692C73.2015 25.9692 73.245 26.0131 73.245 26.1119V26.7263C73.245 26.825 73.1906 26.8689 73.1036 26.8689H70.3304C69.667 26.8689 69.4821 27.0664 69.4821 27.7356V27.8014H73.071C73.1688 27.8014 73.2123 27.8453 73.2123 27.9441V28.4487C73.2123 28.5475 73.1688 28.5914 73.071 28.5914H69.4821V28.7011C69.4821 29.3703 69.667 29.5678 70.3304 29.5678H73.1036C73.2015 29.5678 73.245 29.6117 73.245 29.7104V30.3248C73.245 30.4236 73.1906 30.4675 73.1036 30.4675H70.3086C69.0254 30.4675 68.5251 30.0067 68.5251 28.7779V27.6698C68.5251 26.441 69.0254 25.9802 70.3086 25.9802H73.1036V25.9692Z" fill="#1EADE5"/>
<path d="M75.1155 25.9692C75.4961 25.9692 75.6266 26.057 75.8006 26.452L77.1274 29.5239C77.1274 29.5239 77.1709 29.5788 77.2144 29.5788H77.2906C77.2906 29.5788 77.3558 29.5678 77.3776 29.5239L78.7043 26.452C78.8783 26.046 78.998 25.9692 79.3786 25.9692H80.0638C80.5096 25.9692 80.6184 26.1448 80.6184 26.6385V30.3139C80.6184 30.4126 80.564 30.4565 80.477 30.4565H79.8245C79.7266 30.4565 79.6831 30.4126 79.6831 30.3139V26.9676C79.6831 26.9676 79.6722 26.9018 79.6287 26.9018H79.5744C79.5744 26.9018 79.5091 26.9128 79.4874 26.9567L78.2041 29.8311C77.9975 30.2919 77.8126 30.4565 77.3884 30.4565H77.0839C76.6598 30.4565 76.4749 30.2919 76.2683 29.8311L74.985 26.9567C74.985 26.9567 74.9524 26.9018 74.898 26.9018H74.8436C74.8436 26.9018 74.7892 26.9237 74.7892 26.9676V30.3139C74.7892 30.4126 74.7457 30.4565 74.6479 30.4565H73.9953C73.8975 30.4565 73.854 30.4126 73.854 30.3139V26.6385C73.854 26.1558 73.9736 25.9692 74.4195 25.9692H75.1155Z" fill="#1EADE5"/>
<path d="M82.1409 25.9692C82.2388 25.9692 82.2823 26.0131 82.2823 26.1119V30.3139C82.2823 30.4126 82.2388 30.4565 82.1409 30.4565H81.4558C81.3579 30.4565 81.3144 30.4126 81.3144 30.3139V26.1119C81.3144 26.0131 81.3688 25.9692 81.4558 25.9692H82.1409Z" fill="#1EADE5"/>
<path d="M83.8266 25.9692C83.9245 25.9692 83.968 26.0131 83.968 26.1119V28.6682C83.968 29.3484 84.1637 29.5459 84.8162 29.5459H86.578C87.2305 29.5459 87.4154 29.3484 87.4154 28.6682V26.1119C87.4154 26.0131 87.4589 25.9692 87.5568 25.9692H88.2528C88.3507 25.9692 88.3942 26.0131 88.3942 26.1119V28.7669C88.3942 29.9957 87.9048 30.4565 86.6107 30.4565H84.7836C83.5003 30.4565 83.0001 29.9957 83.0001 28.7669V26.1119C83.0001 26.0131 83.0544 25.9692 83.1414 25.9692H83.8266Z" fill="#1EADE5"/>
<path d="M90.3409 25.9692C90.7215 25.9692 90.852 26.057 91.026 26.452L92.3528 29.5239C92.3528 29.5239 92.3963 29.5788 92.4398 29.5788H92.516C92.516 29.5788 92.5812 29.5678 92.603 29.5239L93.9297 26.452C94.1038 26.046 94.2234 25.9692 94.604 25.9692H95.2892C95.735 25.9692 95.8438 26.1448 95.8438 26.6385V30.3139C95.8438 30.4126 95.7894 30.4565 95.7024 30.4565H95.0499C94.952 30.4565 94.9085 30.4126 94.9085 30.3139V26.9676C94.9085 26.9676 94.8976 26.9018 94.8541 26.9018H94.7998C94.7998 26.9018 94.7345 26.9128 94.7128 26.9567L93.4295 29.8311C93.2229 30.2919 93.038 30.4565 92.6138 30.4565H92.3093C91.8852 30.4565 91.7003 30.2919 91.4937 29.8311L90.2104 26.9567C90.2104 26.9567 90.1778 26.9018 90.1234 26.9018H90.069C90.069 26.9018 90.0146 26.9237 90.0146 26.9676V30.3139C90.0146 30.4126 89.9711 30.4565 89.8733 30.4565H89.2208C89.1229 30.4565 89.0794 30.4126 89.0794 30.3139V26.6385C89.0794 26.1558 89.199 25.9692 89.6449 25.9692H90.3409Z" fill="#1EADE5"/>
<path d="M102.151 25.9692C103.119 25.9692 103.522 26.419 103.522 27.2858V27.7575C103.522 28.6243 103.13 29.0741 102.151 29.0741H99.5196V30.3029C99.5196 30.4016 99.4761 30.4455 99.3782 30.4455H98.6931C98.5952 30.4455 98.5517 30.4016 98.5517 30.3029V26.1447C98.5517 26.0131 98.617 25.9473 98.7475 25.9473H102.162L102.151 25.9692ZM99.5196 28.2403H101.956C102.391 28.2403 102.543 28.0538 102.543 27.6698V27.4284C102.543 27.0444 102.38 26.8579 101.956 26.8579H99.6066C99.5522 26.8579 99.5196 26.8798 99.5196 26.9347V28.2403Z" fill="#1EADE5"/>
<path d="M107.622 25.9692C108.59 25.9692 108.992 26.419 108.992 27.2858V27.6478C108.992 28.3829 108.709 28.8108 108.046 28.9315L109.133 30.2919C109.133 30.2919 109.166 30.4565 109.046 30.4565H108.231C108.122 30.4565 108.089 30.4345 108.057 30.3687L107.056 29.0302H105.001V30.3029C105.001 30.4016 104.957 30.4455 104.859 30.4455H104.174C104.076 30.4455 104.033 30.4016 104.033 30.3029V26.1447C104.033 26.0131 104.098 25.9473 104.229 25.9473H107.643L107.622 25.9692ZM104.99 28.2622H107.426C107.861 28.2622 108.013 28.0757 108.013 27.6917V27.4174C108.013 27.0334 107.85 26.8469 107.426 26.8469H105.077C105.023 26.8469 104.99 26.8689 104.99 26.9237V28.2622Z" fill="#1EADE5"/>
<path d="M113.212 25.9692C114.506 25.9692 114.995 26.43 114.995 27.6588V28.7669C114.995 29.9957 114.506 30.4565 113.212 30.4565H111.243C109.96 30.4565 109.46 29.9957 109.46 28.7669V27.6588C109.46 26.43 109.96 25.9692 111.243 25.9692H113.212ZM110.438 28.6901C110.438 29.3594 110.634 29.5568 111.287 29.5568H113.179C113.831 29.5568 114.027 29.3594 114.027 28.6901V27.7246C114.027 27.0554 113.831 26.8579 113.179 26.8579H111.287C110.634 26.8579 110.438 27.0554 110.438 27.7246V28.6901Z" fill="#1EADE5"/>
<path d="M119.258 25.9692C120.226 25.9692 120.629 26.419 120.629 27.2858V27.7575C120.629 28.6243 120.237 29.0741 119.258 29.0741H116.626V30.3029C116.626 30.4016 116.583 30.4455 116.485 30.4455H115.8C115.702 30.4455 115.659 30.4016 115.659 30.3029V26.1447C115.659 26.0131 115.724 25.9473 115.854 25.9473H119.269L119.258 25.9692ZM116.626 28.2403H119.062C119.497 28.2403 119.65 28.0538 119.65 27.6698V27.4284C119.65 27.0444 119.487 26.8579 119.062 26.8579H116.713C116.659 26.8579 116.626 26.8798 116.626 26.9347V28.2403Z" fill="#1EADE5"/>
<path d="M125.653 25.9692C125.751 25.9692 125.794 26.0131 125.794 26.1119V26.7263C125.794 26.825 125.74 26.8689 125.653 26.8689H122.88C122.216 26.8689 122.031 27.0664 122.031 27.7356V27.8014H125.62C125.718 27.8014 125.762 27.8453 125.762 27.9441V28.4487C125.762 28.5475 125.718 28.5914 125.62 28.5914H122.031V28.7011C122.031 29.3703 122.216 29.5678 122.88 29.5678H125.653C125.751 29.5678 125.794 29.6117 125.794 29.7104V30.3248C125.794 30.4236 125.74 30.4675 125.653 30.4675H122.858C121.575 30.4675 121.074 30.0067 121.074 28.7779V27.6698C121.074 26.441 121.575 25.9802 122.858 25.9802H125.653V25.9692Z" fill="#1EADE5"/>
<path d="M130.003 25.9692C130.971 25.9692 131.373 26.419 131.373 27.2858V27.6478C131.373 28.3829 131.091 28.8108 130.427 28.9315L131.515 30.2919C131.515 30.2919 131.547 30.4565 131.428 30.4565H130.612C130.503 30.4565 130.471 30.4345 130.438 30.3687L129.437 29.0302H127.382V30.3029C127.382 30.4016 127.339 30.4455 127.241 30.4455H126.556C126.458 30.4455 126.414 30.4016 126.414 30.3029V26.1447C126.414 26.0131 126.479 25.9473 126.61 25.9473H130.025L130.003 25.9692ZM127.371 28.2622H129.807C130.242 28.2622 130.395 28.0757 130.395 27.6917V27.4174C130.395 27.0334 130.231 26.8469 129.807 26.8469H127.458C127.404 26.8469 127.371 26.8689 127.371 26.9237V28.2622Z" fill="#1EADE5"/>
<path d="M136.778 25.9692C136.876 25.9692 136.92 26.0131 136.92 26.1119V26.7372C136.92 26.836 136.865 26.8799 136.778 26.8799H134.788V30.3139C134.788 30.4126 134.745 30.4565 134.647 30.4565H133.951C133.853 30.4565 133.809 30.4126 133.809 30.3139V26.8799H131.819C131.721 26.8799 131.678 26.825 131.678 26.7372V26.1119C131.678 26.0131 131.732 25.9692 131.819 25.9692H136.778Z" fill="#1EADE5"/>
<path d="M138.203 25.9692C138.301 25.9692 138.344 26.0131 138.344 26.1119V30.3139C138.344 30.4126 138.301 30.4565 138.203 30.4565H137.518C137.42 30.4565 137.376 30.4126 137.376 30.3139V26.1119C137.376 26.0131 137.431 25.9692 137.518 25.9692H138.203Z" fill="#1EADE5"/>
<path d="M143.586 25.9692C143.684 25.9692 143.728 26.0131 143.728 26.1119V26.7263C143.728 26.825 143.673 26.8689 143.586 26.8689H140.813C140.15 26.8689 139.965 27.0664 139.965 27.7356V27.8014H143.554C143.651 27.8014 143.695 27.8453 143.695 27.9441V28.4487C143.695 28.5475 143.651 28.5914 143.554 28.5914H139.965V28.7011C139.965 29.3703 140.15 29.5678 140.813 29.5678H143.586C143.684 29.5678 143.728 29.6117 143.728 29.7104V30.3248C143.728 30.4236 143.673 30.4675 143.586 30.4675H140.791C139.508 30.4675 139.008 30.0067 139.008 28.7779V27.6698C139.008 26.441 139.508 25.9802 140.791 25.9802H143.586V25.9692Z" fill="#1EADE5"/>
<path d="M148.752 25.9692C148.85 25.9692 148.893 26.0131 148.893 26.1119V26.7263C148.893 26.825 148.85 26.8689 148.752 26.8689H145.566C145.326 26.8689 145.228 27.0005 145.228 27.2309V27.4504C145.228 27.6917 145.337 27.8124 145.555 27.8124H147.936C148.665 27.8124 149.046 28.2074 149.046 28.9205V29.4362C149.046 30.0615 148.687 30.4784 147.925 30.4784H144.402C144.304 30.4784 144.26 30.4345 144.26 30.3358V29.7214C144.26 29.6227 144.315 29.5788 144.402 29.5788H147.741C147.98 29.5788 148.078 29.4471 148.078 29.2167V28.9534C148.078 28.7121 147.969 28.5914 147.751 28.5914H145.37C144.641 28.5914 144.26 28.1964 144.26 27.4833V27.0115C144.26 26.3861 144.619 25.9692 145.381 25.9692H148.752Z" fill="#1EADE5"/>
<path d="M152.471 25.9692C152.569 25.9692 152.613 26.0131 152.613 26.1119V28.6682C152.613 29.3484 152.808 29.5459 153.461 29.5459H156.038C156.136 29.5459 156.18 29.5898 156.18 29.6885V30.3139C156.18 30.4126 156.136 30.4565 156.038 30.4565H153.428C152.145 30.4565 151.645 29.9957 151.645 28.7669V26.1119C151.645 26.0131 151.699 25.9692 151.786 25.9692H152.471Z" fill="#1EADE5"/>
<path d="M157.343 25.9692C157.441 25.9692 157.485 26.0131 157.485 26.1119V28.6682C157.485 29.3484 157.681 29.5459 158.333 29.5459H160.911C161.008 29.5459 161.052 29.5898 161.052 29.6885V30.3139C161.052 30.4126 161.008 30.4565 160.911 30.4565H158.3C157.017 30.4565 156.517 29.9957 156.517 28.7669V26.1119C156.517 26.0131 156.571 25.9692 156.658 25.9692H157.343Z" fill="#1EADE5"/>
<path d="M166.076 25.969C166.174 25.969 166.218 26.0129 166.218 26.1116V26.737C166.218 26.8357 166.174 26.8796 166.076 26.8796H163.249C162.596 26.8796 162.4 27.0771 162.4 27.7463V28.6569C162.4 29.3372 162.596 29.5346 163.249 29.5346H166.076C166.174 29.5346 166.218 29.5785 166.218 29.6773V30.3026C166.218 30.4014 166.174 30.4453 166.076 30.4453H163.205C161.922 30.4453 161.422 29.9845 161.422 28.7557V27.6476C161.422 26.4188 161.922 25.958 163.205 25.958H166.076V25.969Z" fill="#1EADE5"/>
<path d="M199.333 0H198.245V34H199.333V0Z" fill="white"/>
</g>
<defs>
<clipPath id="clip0_1141_7638">
<rect width="290" height="34" fill="white"/>
</clipPath>
</defs>
</svg>
