<svg width="121" height="21" viewBox="0 0 121 21" fill="none" xmlns="http://www.w3.org/2000/svg">
<g clip-path="url(#clip0_322_14116)">
<path d="M14 0H19V21H9L5 0V21H0V0H9L14 21V0ZM34 0H25L20 21H25L26 17H33L34 21H39L34 0ZM27 13L29 0L32 13H27ZM50 13L57 0H52L45 11V0H40V21H45V13H49L52 21H57L54 13H50ZM70 8H66L64 12V0H59V21H64V12H70V21H75V0H70V8ZM78 21H91V17H83V12H90V8H86L83 12V4H91V0H78V21ZM93 21H107V17H99V12H105V8H101L99 12V4H107V0H93V21ZM114 17V0H109V21H121V17H114Z" fill="#00ADE5"/>
</g>
<defs>
<clipPath id="clip0_322_14116">
<rect width="121" height="21" fill="white"/>
</clipPath>
</defs>
</svg>
