<?xml version="1.0" encoding="UTF-8"?><svg id="_Слой_2" xmlns="http://www.w3.org/2000/svg" viewBox="0 0 266.66 30.99"><defs><style>.cls-1{fill:#fff;}.cls-2{fill:#aeafb2;}.cls-3{fill:#1eade5;}.cls-4{fill:#68676c;}</style></defs><g id="_Слой_1-2"><path class="cls-3" d="m204,7.37c.78,0,1.34.21,1.67.63.34.42.51,1.05.51,1.88v.9c0,.83-.17,1.46-.51,1.88-.34.42-.9.64-1.67.64h-4.2v2.34c0,.18-.07.27-.22.27h-1.1c-.16,0-.23-.09-.23-.27v-7.91c0-.24.1-.37.3-.37h5.45Zm-4.2,4.32h3.89c.35,0,.59-.09.73-.27.14-.18.21-.45.21-.82v-.46c0-.37-.07-.64-.21-.82-.14-.18-.39-.27-.73-.27h-3.75c-.09,0-.13.05-.13.15v2.49Z"/><path class="cls-3" d="m210.68,7.37c.26,0,.47.06.65.19.18.13.35.37.52.74l3.36,7.34c.03.08.04.15.03.2-.02.05-.07.08-.15.08h-1.29c-.12,0-.19-.05-.23-.16l-.72-1.58h-4.77l-.7,1.58c-.05.11-.12.16-.23.16h-1.32c-.09,0-.14-.03-.16-.08-.02-.05,0-.12.03-.2l3.33-7.34c.17-.37.33-.61.5-.74.16-.13.35-.19.57-.19h.6Zm-1.97,5.4h3.49l-1.61-3.58c-.03-.06-.06-.09-.11-.09h-.06s-.08.03-.11.09l-1.59,3.58Z"/><path class="cls-3" d="m216.97,7.37c.15,0,.22.09.22.27v4.87c0,.33.02.6.07.81.04.22.12.39.22.51.1.13.24.22.41.27.17.05.39.08.65.08h4.11c.15,0,.22.09.22.27v1.2c0,.18-.07.27-.22.27h-4.17c-.51,0-.95-.06-1.31-.17-.36-.11-.65-.3-.88-.56-.23-.26-.39-.59-.5-1-.1-.41-.16-.91-.16-1.5v-5.06c0-.18.08-.27.23-.27h1.1Z"/><path class="cls-3" d="m225.8,7.37c.15,0,.28.01.39.04.11.02.2.07.28.14s.15.16.22.28c.06.12.13.28.2.47l2.11,5.86c.03.07.07.11.14.11h.12c.07,0,.12-.04.14-.11l2.11-5.86c.07-.2.13-.35.2-.47.06-.12.14-.21.22-.28.08-.07.17-.12.28-.14.11-.02.23-.04.38-.04h1.09c.35,0,.59.1.71.29.12.19.18.52.18.98v7.01c0,.18-.08.27-.23.27h-1.04c-.15,0-.22-.09-.22-.27v-6.38c0-.08-.03-.12-.08-.12h-.09c-.07,0-.11.03-.13.1l-2.05,5.47c-.08.22-.16.41-.25.56-.08.15-.18.28-.27.37-.1.1-.21.17-.33.21-.12.04-.27.06-.44.06h-.49c-.17,0-.32-.02-.44-.06-.12-.04-.24-.11-.33-.21-.1-.1-.19-.22-.27-.37-.08-.15-.17-.34-.25-.56l-2.05-5.47c-.02-.06-.06-.1-.13-.1h-.09c-.05,0-.08.04-.08.12v6.38c0,.18-.08.27-.22.27h-1.04c-.16,0-.23-.09-.23-.27v-7.01c0-.46.06-.79.18-.98.12-.19.36-.29.72-.29h1.11Z"/><path class="cls-3" d="m204.62,19.4c.15,0,.22.09.22.27v5.06c0,.59-.05,1.08-.15,1.5s-.27.75-.49,1-.52.44-.88.56-.8.17-1.31.17h-3.96c-.16,0-.23-.09-.23-.27v-1.2c0-.18.08-.27.23-.27h3.91c.26,0,.48-.03.66-.08.17-.05.31-.14.41-.27.1-.13.17-.3.21-.51.04-.21.06-.49.06-.81v-4.87c0-.18.08-.27.23-.27h1.1Z"/><path class="cls-3" d="m207.48,19.4c.15,0,.22.09.22.27v4.87c0,.33.02.6.07.81.04.22.12.39.22.51.1.13.24.22.41.27.17.05.39.08.65.08h2.81c.26,0,.48-.03.65-.08.17-.05.31-.14.41-.27.1-.13.17-.3.21-.51.04-.21.06-.49.06-.81v-4.87c0-.18.07-.27.22-.27h1.11c.15,0,.22.09.22.27v5.06c0,.59-.05,1.08-.15,1.5s-.27.75-.49,1-.52.44-.88.56c-.36.11-.8.17-1.31.17h-2.92c-.51,0-.95-.06-1.31-.17-.36-.11-.65-.3-.88-.56-.23-.26-.39-.59-.5-1-.1-.41-.16-.91-.16-1.5v-5.06c0-.18.08-.27.23-.27h1.1Z"/><path class="cls-3" d="m218.09,19.4c.15,0,.28.01.39.04.11.02.2.07.28.14s.15.16.22.28c.06.12.13.28.2.47l2.11,5.86c.03.07.07.11.14.11h.12c.07,0,.12-.04.14-.11l2.11-5.86c.07-.2.13-.35.2-.47.06-.12.14-.21.22-.28.08-.07.17-.12.28-.14.11-.02.23-.04.38-.04h1.09c.35,0,.59.1.71.29.12.19.18.52.18.98v7.01c0,.18-.08.27-.23.27h-1.04c-.15,0-.22-.09-.22-.27v-6.38c0-.08-.03-.12-.08-.12h-.09c-.07,0-.11.03-.13.1l-2.05,5.47c-.08.22-.16.41-.25.56-.08.15-.18.28-.27.37-.1.1-.21.17-.33.21-.12.04-.27.06-.44.06h-.49c-.17,0-.32-.02-.44-.06-.12-.04-.24-.11-.33-.21-.1-.1-.19-.22-.27-.37-.08-.15-.17-.34-.25-.56l-2.05-5.47c-.02-.06-.06-.1-.13-.1h-.09c-.05,0-.08.04-.08.12v6.38c0,.18-.08.27-.22.27h-1.04c-.16,0-.23-.09-.23-.27v-7.01c0-.46.06-.79.18-.98.12-.19.36-.29.72-.29h1.11Z"/><path class="cls-3" d="m235.43,19.4c.16,0,.23.09.23.27v1.16c0,.18-.08.27-.23.27h-4.43c-.26,0-.48.03-.65.08-.17.05-.31.14-.42.27-.11.13-.18.3-.22.51-.04.22-.06.48-.06.8v.12h5.73c.15,0,.22.09.22.27v.96c0,.18-.07.27-.22.27h-5.73v.21c0,.32.02.58.06.8.04.22.11.39.22.51.1.13.24.22.42.27.17.05.39.08.65.08h4.43c.16,0,.23.09.23.27v1.16c0,.18-.08.27-.23.27h-4.46c-.51,0-.95-.06-1.31-.17s-.65-.3-.88-.56-.39-.59-.5-1-.16-.91-.16-1.5v-2.1c0-.59.05-1.08.16-1.49.1-.41.27-.74.5-1,.23-.26.52-.44.88-.56s.79-.18,1.31-.18h4.46Z"/><path class="cls-3" d="m238.16,19.4c.15,0,.22.09.22.27v8.01c0,.18-.07.27-.22.27h-1.1c-.16,0-.23-.09-.23-.27v-8.01c0-.18.08-.27.23-.27h1.1Z"/><path class="cls-3" d="m245.48,19.4c.78,0,1.34.21,1.67.63.34.42.51,1.05.51,1.88v.7c0,.7-.12,1.25-.36,1.66-.24.41-.62.67-1.16.78l1.74,2.59s.04.1.03.18c-.01.08-.07.12-.16.12h-1.31c-.09,0-.15-.01-.18-.04-.03-.02-.07-.06-.1-.12l-1.6-2.54h-3.28v2.43c0,.18-.07.27-.22.27h-1.1c-.16,0-.23-.09-.23-.27v-7.91c0-.24.1-.37.3-.37h5.45Zm-4.2,4.36h3.89c.35,0,.59-.09.73-.27.14-.18.21-.45.21-.82v-.51c0-.37-.07-.64-.21-.82-.14-.18-.39-.27-.73-.27h-3.75c-.09,0-.13.05-.13.15v2.54Z"/><path class="cls-3" d="m253.42,19.4c.26,0,.47.06.65.19.18.13.35.37.52.74l3.36,7.34c.03.08.04.15.03.2-.02.05-.07.08-.15.08h-1.29c-.12,0-.19-.05-.23-.16l-.72-1.58h-4.77l-.7,1.58c-.05.11-.12.16-.23.16h-1.32c-.09,0-.14-.03-.16-.08-.02-.05,0-.12.03-.2l3.33-7.34c.17-.37.33-.61.5-.74.16-.13.35-.19.57-.19h.6Zm-1.97,5.4h3.49l-1.61-3.58c-.03-.06-.06-.09-.11-.09h-.06s-.08.03-.11.09l-1.59,3.58Z"/><path class="cls-3" d="m260.14,19.4c.15,0,.22.09.22.27v3.17h4.75v-3.17c0-.18.08-.27.22-.27h1.1c.16,0,.23.09.23.27v8.01c0,.18-.08.27-.23.27h-1.1c-.15,0-.22-.09-.22-.27v-3.25h-4.75v3.25c0,.18-.07.27-.22.27h-1.1c-.16,0-.23-.09-.23-.27v-8.01c0-.18.08-.27.23-.27h1.1Z"/><rect class="cls-3" y="16.29" width="15.77" height="14.7"/><rect class="cls-3" x="16.05" y="0" width="16.29" height="16.29"/><rect class="cls-3" x="3.06" y="2.84" width="26.16" height="25.77"/><polygon class="cls-1" points="7.91 9.8 7.91 25.38 12.99 25.38 12.99 4.86 7.91 9.8"/><polygon class="cls-1" points="24.67 9.8 24.67 25.38 19.58 25.38 19.58 4.86 24.67 9.8"/><polygon class="cls-1" points="18.83 13.85 18.83 25.38 13.75 25.38 13.75 8.91 18.83 13.85"/><polygon class="cls-4" points="37.8 7.73 37.8 18.46 39.92 18.46 39.92 11.81 44.2 18.46 48.39 11.87 48.39 18.46 50.7 18.46 50.7 7.73 48.39 7.73 44.25 14.29 39.92 7.73 37.8 7.73"/><polygon class="cls-4" points="62.37 9.9 62.37 7.73 51.69 7.73 51.69 18.46 62.37 18.46 62.37 16.29 53.81 16.29 53.81 14.04 60.11 14.04 60.11 11.94 53.81 11.94 53.81 9.9 62.37 9.9"/><polygon class="cls-4" points="74.19 7.73 63.36 7.73 63.36 9.9 67.69 9.9 67.69 18.46 69.81 18.46 69.81 9.9 74.19 9.9 74.19 7.73"/><polygon class="cls-4" points="123.95 16.39 123.95 7.73 121.64 7.73 121.64 18.46 122.79 18.46 123.95 18.46 130.3 18.46 130.3 16.39 123.95 16.39"/><rect class="cls-4" x="131.29" y="7.73" width="2.21" height="10.73"/><polygon class="cls-4" points="145.13 7.73 134.49 7.73 134.49 9.9 138.77 9.9 138.77 18.46 140.89 18.46 140.89 9.9 145.13 9.9 145.13 7.73"/><polygon class="cls-4" points="165.84 7.73 165.84 14.99 159.58 7.73 157.23 7.73 157.23 18.46 159.58 18.46 159.58 11.24 165.84 18.46 166.56 18.46 168.01 18.46 168.01 7.73 165.84 7.73"/><path class="cls-4" d="m94.75,7.73h-5.88c-1.3,0-2.36,1.06-2.36,2.36v6.01c0,1.3,1.06,2.36,2.36,2.36h5.88c1.3,0,2.36-1.06,2.36-2.36v-6.01c0-1.3-1.06-2.36-2.36-2.36Zm.26,8.04c0,.45-.36.81-.81.81h-4.98c-.45,0-.81-.36-.81-.81v-5.29c0-.45.36-.81.81-.81h4.98c.45,0,.81.36.81.81v5.29Z"/><path class="cls-4" d="m118.2,7.73h-5.88c-1.3,0-2.36,1.06-2.36,2.36v6.01c0,1.3,1.06,2.36,2.36,2.36h5.88c1.3,0,2.36-1.06,2.36-2.36v-6.01c0-1.3-1.06-2.36-2.36-2.36Zm.26,8.04c0,.45-.36.81-.81.81h-4.98c-.45,0-.81-.36-.81-.81v-5.29c0-.45.36-.81.81-.81h4.98c.45,0,.81.36.81.81v5.29Z"/><path class="cls-4" d="m85.86,12.99v-3.09c0-1.29-1.3-2.17-2.71-2.17h-7.97v10.73h2.31v-3.36h1.97l3.41,3.36h3l-3.34-3.36h.94c1.44,0,2.4-1.19,2.4-2.12Zm-8.38.11v-3.2h5.41c.78,0,1.04.35,1.04,1.52s-.19,1.68-1.1,1.68h-5.35Z"/><path class="cls-4" d="m106.52,7.73h-8.42v10.73h2.21v-3.36h6.21c1.3,0,2.36-1.06,2.36-2.36v-2.65c0-1.3-1.06-2.36-2.36-2.36Zm.15,4.71c0,.38-.31.69-.69.69h-5.66v-3.23h5.66c.38,0,.69.31.69.69v1.85Z"/><path class="cls-4" d="m153.88,7.73h-5.92c-1.3,0-2.36,1.06-2.36,2.36v8.37h2.12v-2.18h6.26v2.18h2.26v-8.37c0-1.3-1.06-2.36-2.36-2.36Zm-6.16,6.4v-3.62c0-.34.28-.62.62-.62h5.02c.34,0,.62.28.62.62v3.62h-6.26Z"/><path class="cls-3" d="m56.28,23.67c.89,0,1.26.41,1.26,1.2v.43c0,.79-.36,1.2-1.26,1.2h-2.42v1.12c0,.09-.04.13-.13.13h-.63c-.09,0-.13-.04-.13-.13v-3.79c0-.12.06-.18.18-.18h3.14Zm-2.42,2.07h2.24c.4,0,.54-.17.54-.52v-.22c0-.35-.15-.52-.54-.52h-2.16c-.05,0-.08.02-.08.07v1.19Z"/><path class="cls-3" d="m61.31,23.67c.89,0,1.26.41,1.26,1.2v.33c0,.67-.26,1.06-.87,1.17l1,1.24s.03.15-.08.15h-.75c-.1,0-.13-.02-.16-.08l-.92-1.22h-1.89v1.16c0,.09-.04.13-.13.13h-.63c-.09,0-.13-.04-.13-.13v-3.79c0-.12.06-.18.18-.18h3.14Zm-2.42,2.09h2.24c.4,0,.54-.17.54-.52v-.25c0-.35-.15-.52-.54-.52h-2.16c-.05,0-.08.02-.08.07v1.22Z"/><path class="cls-3" d="m67.22,23.67c.09,0,.13.04.13.13v.56c0,.09-.05.13-.13.13h-2.55c-.61,0-.78.18-.78.79v.06h3.3c.09,0,.13.04.13.13v.46c0,.09-.04.13-.13.13h-3.3v.1c0,.61.17.79.78.79h2.55c.09,0,.13.04.13.13v.56c0,.09-.05.13-.13.13h-2.57c-1.18,0-1.64-.42-1.64-1.54v-1.01c0-1.12.46-1.54,1.64-1.54h2.57Z"/><path class="cls-3" d="m69.07,23.67c.35,0,.47.08.63.44l1.22,2.8s.04.05.08.05h.07s.06-.01.08-.05l1.22-2.8c.16-.37.27-.44.62-.44h.63c.41,0,.51.16.51.61v3.35c0,.09-.05.13-.13.13h-.6c-.09,0-.13-.04-.13-.13v-3.05s-.01-.06-.05-.06h-.05s-.06.01-.08.05l-1.18,2.62c-.19.42-.36.57-.75.57h-.28c-.39,0-.56-.15-.75-.57l-1.18-2.62s-.03-.05-.08-.05h-.05s-.05.02-.05.06v3.05c0,.09-.04.13-.13.13h-.6c-.09,0-.13-.04-.13-.13v-3.35c0-.44.11-.61.52-.61h.64Z"/><path class="cls-3" d="m75.53,23.67c.09,0,.13.04.13.13v3.83c0,.09-.04.13-.13.13h-.63c-.09,0-.13-.04-.13-.13v-3.83c0-.09.05-.13.13-.13h.63Z"/><path class="cls-3" d="m77.08,23.67c.09,0,.13.04.13.13v2.33c0,.62.18.8.78.8h1.62c.6,0,.77-.18.77-.8v-2.33c0-.09.04-.13.13-.13h.64c.09,0,.13.04.13.13v2.42c0,1.12-.45,1.54-1.64,1.54h-1.68c-1.18,0-1.64-.42-1.64-1.54v-2.42c0-.09.05-.13.13-.13h.63Z"/><path class="cls-3" d="m83.07,23.67c.35,0,.47.08.63.44l1.22,2.8s.04.05.08.05h.07s.06-.01.08-.05l1.22-2.8c.16-.37.27-.44.62-.44h.63c.41,0,.51.16.51.61v3.35c0,.09-.05.13-.13.13h-.6c-.09,0-.13-.04-.13-.13v-3.05s-.01-.06-.05-.06h-.05s-.06.01-.08.05l-1.18,2.62c-.19.42-.36.57-.75.57h-.28c-.39,0-.56-.15-.75-.57l-1.18-2.62s-.03-.05-.08-.05h-.05s-.05.02-.05.06v3.05c0,.09-.04.13-.13.13h-.6c-.09,0-.13-.04-.13-.13v-3.35c0-.44.11-.61.52-.61h.64Z"/><path class="cls-3" d="m93.93,23.67c.89,0,1.26.41,1.26,1.2v.43c0,.79-.36,1.2-1.26,1.2h-2.42v1.12c0,.09-.04.13-.13.13h-.63c-.09,0-.13-.04-.13-.13v-3.79c0-.12.06-.18.18-.18h3.14Zm-2.42,2.07h2.24c.4,0,.54-.17.54-.52v-.22c0-.35-.15-.52-.54-.52h-2.16c-.05,0-.08.02-.08.07v1.19Z"/><path class="cls-3" d="m98.96,23.67c.89,0,1.26.41,1.26,1.2v.33c0,.67-.26,1.06-.87,1.17l1,1.24s.03.15-.08.15h-.75c-.1,0-.13-.02-.16-.08l-.92-1.22h-1.89v1.16c0,.09-.04.13-.13.13h-.63c-.09,0-.13-.04-.13-.13v-3.79c0-.12.06-.18.18-.18h3.14Zm-2.42,2.09h2.24c.4,0,.54-.17.54-.52v-.25c0-.35-.15-.52-.54-.52h-2.16c-.05,0-.08.02-.08.07v1.22Z"/><path class="cls-3" d="m104.1,23.67c1.19,0,1.64.42,1.64,1.54v1.01c0,1.12-.45,1.54-1.64,1.54h-1.81c-1.18,0-1.64-.42-1.64-1.54v-1.01c0-1.12.46-1.54,1.64-1.54h1.81Zm-2.55,2.48c0,.61.18.79.78.79h1.74c.6,0,.78-.18.78-.79v-.88c0-.61-.18-.79-.78-.79h-1.74c-.6,0-.78.18-.78.79v.88Z"/><path class="cls-3" d="m109.66,23.67c.89,0,1.26.41,1.26,1.2v.43c0,.79-.36,1.2-1.26,1.2h-2.42v1.12c0,.09-.04.13-.13.13h-.63c-.09,0-.13-.04-.13-.13v-3.79c0-.12.06-.18.18-.18h3.14Zm-2.42,2.07h2.24c.4,0,.54-.17.54-.52v-.22c0-.35-.15-.52-.54-.52h-2.16c-.05,0-.08.02-.08.07v1.19Z"/><path class="cls-3" d="m115.54,23.67c.09,0,.13.04.13.13v.56c0,.09-.05.13-.13.13h-2.55c-.61,0-.78.18-.78.79v.06h3.3c.09,0,.13.04.13.13v.46c0,.09-.04.13-.13.13h-3.3v.1c0,.61.17.79.78.79h2.55c.09,0,.13.04.13.13v.56c0,.09-.05.13-.13.13h-2.57c-1.18,0-1.64-.42-1.64-1.54v-1.01c0-1.12.46-1.54,1.64-1.54h2.57Z"/><path class="cls-3" d="m119.54,23.67c.89,0,1.26.41,1.26,1.2v.33c0,.67-.26,1.06-.87,1.17l1,1.24s.03.15-.08.15h-.75c-.1,0-.13-.02-.16-.08l-.92-1.22h-1.89v1.16c0,.09-.04.13-.13.13h-.63c-.09,0-.13-.04-.13-.13v-3.79c0-.12.06-.18.18-.18h3.14Zm-2.42,2.09h2.24c.4,0,.54-.17.54-.52v-.25c0-.35-.15-.52-.54-.52h-2.16c-.05,0-.08.02-.08.07v1.22Z"/><path class="cls-3" d="m125.77,23.67c.09,0,.13.04.13.13v.57c0,.09-.05.13-.13.13h-1.83v3.13c0,.09-.04.13-.13.13h-.64c-.09,0-.13-.04-.13-.13v-3.13h-1.83c-.09,0-.13-.05-.13-.13v-.57c0-.09.05-.13.13-.13h4.56Z"/><path class="cls-3" d="m127.08,23.67c.09,0,.13.04.13.13v3.83c0,.09-.04.13-.13.13h-.63c-.09,0-.13-.04-.13-.13v-3.83c0-.09.05-.13.13-.13h.63Z"/><path class="cls-3" d="m132.03,23.67c.09,0,.13.04.13.13v.56c0,.09-.05.13-.13.13h-2.55c-.61,0-.78.18-.78.79v.06h3.3c.09,0,.13.04.13.13v.46c0,.09-.04.13-.13.13h-3.3v.1c0,.61.17.79.78.79h2.55c.09,0,.13.04.13.13v.56c0,.09-.05.13-.13.13h-2.57c-1.18,0-1.64-.42-1.64-1.54v-1.01c0-1.12.46-1.54,1.64-1.54h2.57Z"/><path class="cls-3" d="m136.78,23.67c.09,0,.13.04.13.13v.56c0,.09-.04.13-.13.13h-2.93c-.22,0-.31.12-.31.33v.2c0,.22.1.33.3.33h2.19c.67,0,1.02.36,1.02,1.01v.47c0,.57-.33.95-1.03.95h-3.24c-.09,0-.13-.04-.13-.13v-.56c0-.09.05-.13.13-.13h3.07c.22,0,.31-.12.31-.33v-.24c0-.22-.1-.33-.3-.33h-2.19c-.67,0-1.02-.36-1.02-1.01v-.43c0-.57.33-.95,1.03-.95h3.1Z"/><path class="cls-3" d="m140.2,23.67c.09,0,.13.04.13.13v2.33c0,.62.18.8.78.8h2.37c.09,0,.13.04.13.13v.57c0,.09-.04.13-.13.13h-2.4c-1.18,0-1.64-.42-1.64-1.54v-2.42c0-.09.05-.13.13-.13h.63Z"/><path class="cls-3" d="m144.68,23.67c.09,0,.13.04.13.13v2.33c0,.62.18.8.78.8h2.37c.09,0,.13.04.13.13v.57c0,.09-.04.13-.13.13h-2.4c-1.18,0-1.64-.42-1.64-1.54v-2.42c0-.09.05-.13.13-.13h.63Z"/><path class="cls-3" d="m152.71,23.67c.09,0,.13.04.13.13v.57c0,.09-.04.13-.13.13h-2.6c-.6,0-.78.18-.78.79v.83c0,.62.18.8.78.8h2.6c.09,0,.13.04.13.13v.57c0,.09-.04.13-.13.13h-2.64c-1.18,0-1.64-.42-1.64-1.54v-1.01c0-1.12.46-1.54,1.64-1.54h2.64Z"/><rect class="cls-2" x="182.29" width="1" height="30.99"/></g></svg>