<svg width="45" height="45" viewBox="0 0 45 45" fill="none" xmlns="http://www.w3.org/2000/svg">
<path d="M26.5278 31.8568C26.1334 31.7234 25.3179 32.027 24.8964 32.2495C24.7927 32.3041 24.6693 32.3048 24.5653 32.2511C24.461 32.1974 24.3888 32.0957 24.3709 31.9783C24.2484 31.1772 23.6766 29.0977 22.5189 29.0977C21.142 29.0977 20.6711 31.9494 20.6669 31.9783C20.649 32.0957 20.5768 32.1974 20.4725 32.2511C20.3682 32.3051 20.2447 32.3041 20.1411 32.2492C19.7911 32.0646 19.1693 31.8239 18.7429 31.8239C18.6556 31.8239 18.5769 31.8339 18.51 31.8565C18.43 31.8835 18.3819 31.9243 18.3495 31.9927C18.1776 32.3544 18.796 32.9913 19.3413 33.5531C19.9951 34.2267 20.6712 34.923 20.6712 35.6892V43.0915C20.6712 44.144 21.5 45 22.519 45C23.5379 45 24.3668 44.1437 24.3668 43.0915V35.6892C24.3668 34.923 25.0428 34.2268 25.6967 33.5531C26.2423 32.9913 26.8603 32.3544 26.6885 31.9927C26.6558 31.9246 26.608 31.8838 26.528 31.8568L26.5278 31.8568Z" fill="#61C7E8"/>
<path d="M22.1555 28.3999V4.81976C21.6173 4.98236 21.2226 5.49653 21.2226 6.10484V7.21667C21.2226 7.3529 21.1489 7.47783 21.031 7.54186C20.9131 7.60621 20.7699 7.59868 20.6589 7.52334C20.2873 7.27097 19.8837 7.04874 19.4597 6.86354C19.3681 6.82367 19.2712 6.80327 19.1721 6.80327C18.874 6.80327 18.6059 6.9869 18.489 7.27129C18.3276 7.66366 18.5047 8.11753 18.8836 8.28299C19.7409 8.65747 20.5092 9.38541 21.1667 10.4464C21.2584 10.5942 21.2355 10.7873 21.1118 10.9087C20.9881 11.0302 20.7977 11.0465 20.6557 10.948C19.2822 9.9947 17.6354 9.31696 15.6208 8.87692C15.5695 8.86562 15.518 8.85997 15.4665 8.85997C15.1187 8.85997 14.8135 9.11643 14.7407 9.46956C14.6549 9.88579 14.9123 10.2957 15.3137 10.3836C17.8304 10.9336 19.7288 11.8951 21.1177 13.3229C21.185 13.392 21.2226 13.4852 21.2226 13.5822V13.8001C21.2226 13.9241 21.1612 14.0399 21.0597 14.108C20.9579 14.1764 20.8292 14.1877 20.7172 14.1391C17.5723 12.7667 14.1162 11.9584 10.4455 11.7365C10.4329 11.7359 10.4181 11.7353 10.4036 11.7353C10.0107 11.7353 9.6852 12.0536 9.66206 12.4598C9.63799 12.8838 9.95119 13.2492 10.3604 13.2737C14.2049 13.5063 17.7899 14.4104 21.0151 15.9609C21.142 16.0218 21.2228 16.1518 21.2228 16.2943V16.3564C21.2228 16.4679 21.1734 16.5733 21.088 16.6433C21.0028 16.7133 20.8911 16.7406 20.7837 16.7168C18.3333 16.18 15.8052 15.9079 13.27 15.9079C11.2016 15.9079 9.08327 16.0878 6.97388 16.4425C6.56904 16.5106 6.29379 16.9077 6.36013 17.3274C6.41938 17.7012 6.72733 17.9724 7.09268 17.9724C7.13249 17.9724 7.1726 17.969 7.21179 17.9627C9.24219 17.6212 11.2803 17.4482 13.2694 17.4482C15.6084 17.4482 17.9409 17.689 20.2021 18.1642C20.3851 18.2025 20.5092 18.3758 20.4894 18.5648C20.4697 18.7534 20.3129 18.8937 20.1253 18.8943L20.0136 18.8925C19.9611 18.8915 19.909 18.8906 19.8568 18.8906C15.6065 18.8906 11.3128 19.9397 7.09605 22.0092C6.91646 22.0974 6.78099 22.2524 6.71404 22.4461C6.64677 22.6411 6.65726 22.851 6.74366 23.0375C6.86647 23.3034 7.12938 23.4751 7.41388 23.4751C7.52435 23.4751 7.63112 23.45 7.73109 23.401C11.7487 21.4301 15.8296 20.4306 19.8599 20.4306C20.166 20.4306 20.4983 20.4381 20.8754 20.4538C21.0698 20.462 21.2231 20.6246 21.2231 20.8223C21.2231 21.0081 21.0874 21.1673 20.9062 21.1905C17.6524 21.6105 14.541 23.0165 11.6584 25.3688C11.3347 25.6331 11.2803 26.1196 11.5371 26.4536C11.6787 26.6382 11.8907 26.7437 12.1181 26.7437C12.2838 26.7437 12.4468 26.685 12.5773 26.5785C14.8221 24.7463 17.3605 23.6995 20.8077 23.1847C20.9889 23.158 21.1613 23.2723 21.2101 23.4518C21.2585 23.6314 21.1678 23.8197 20.9987 23.8907C19.3861 24.5668 17.7708 26.1369 16.0606 28.6911C15.9468 28.8609 15.9042 29.0665 15.9403 29.2699C15.9764 29.4727 16.0865 29.6484 16.2504 29.7649C16.3748 29.8534 16.5198 29.8999 16.6701 29.8999C16.9135 29.8999 17.1419 29.7762 17.2804 29.569C18.3583 27.9594 19.4685 26.8224 20.6751 26.0933C20.7871 26.0255 20.9262 26.0239 21.0395 26.0898C21.1527 26.1554 21.2228 26.2778 21.2228 26.4103V28.934C21.4826 28.6747 21.7908 28.4792 22.1556 28.4001L22.1555 28.3999Z" fill="#61C7E8"/>
<path d="M24.8342 18.1647C27.0954 17.6895 29.4275 17.4484 31.7663 17.4484C33.7556 17.4484 35.7934 17.6214 37.8236 17.9629C37.8634 17.9695 37.9038 17.9729 37.9436 17.9729C38.3086 17.9729 38.6166 17.7014 38.6758 17.3276C38.7425 16.9079 38.4669 16.5108 38.0618 16.4427C35.9527 16.088 33.8343 15.9081 31.766 15.9081C29.2304 15.9081 26.7026 16.1803 24.2523 16.717C24.1449 16.7405 24.0335 16.7132 23.948 16.6435C23.8628 16.5735 23.8132 16.4681 23.8132 16.3566V16.2945C23.8132 16.152 23.894 16.022 24.0208 15.9611C27.246 14.4105 30.831 13.5061 34.6756 13.2739C35.0845 13.2491 35.3977 12.884 35.3736 12.4596C35.3505 12.0535 35.0246 11.7352 34.6321 11.7352C34.6179 11.7352 34.6037 11.7355 34.5892 11.7364C30.919 11.9584 27.4637 12.7666 24.3183 14.139C24.2063 14.1879 24.0777 14.1763 23.9758 14.1079C23.874 14.0398 23.8129 13.9239 23.8129 13.7999V13.5821C23.8129 13.4848 23.8506 13.3919 23.9178 13.3228C25.3067 11.8949 27.205 10.9335 29.7218 10.3835C30.1235 10.2959 30.3806 9.88567 30.2948 9.46912C30.222 9.11599 29.9168 8.85985 29.5693 8.85985C29.5178 8.85985 29.466 8.8655 29.4157 8.87649C27.4007 9.31689 25.7536 9.99458 24.3801 10.9479C24.2381 11.0467 24.0478 11.0301 23.924 10.9086C23.8003 10.7875 23.7775 10.5944 23.8691 10.4463C24.527 9.3853 25.295 8.65734 26.1525 8.28255C26.5314 8.11681 26.7086 7.66292 26.5472 7.27053C26.4302 6.98645 26.1621 6.80282 25.864 6.80282C25.765 6.80282 25.6678 6.82323 25.5758 6.86341C25.1521 7.04861 24.7488 7.27053 24.3776 7.5229C24.2665 7.59824 24.1233 7.60577 24.0052 7.54142C23.8873 7.47739 23.8135 7.35214 23.8135 7.21622L23.8129 6.10472C23.8129 5.49639 23.4183 4.98253 22.8801 4.81964V28.3997C23.2448 28.4788 23.5531 28.6741 23.8129 28.9349V26.4116C23.8129 26.2791 23.883 26.1564 23.9962 26.0911C24.1095 26.0255 24.2486 26.027 24.3606 26.0945C25.5671 26.8237 26.6774 27.9607 27.7553 29.5703C27.8941 29.7775 28.1222 29.9011 28.3656 29.9011C28.5159 29.9011 28.6609 29.8544 28.785 29.7665C28.9491 29.6497 29.0593 29.4739 29.0954 29.2712C29.1318 29.0678 29.0889 28.8621 28.9751 28.6923C27.265 26.1382 25.6496 24.5681 24.037 23.8919C23.8679 23.821 23.7768 23.6327 23.8256 23.4531C23.874 23.2732 24.0465 23.159 24.228 23.186C27.6751 23.7008 30.2134 24.7477 32.4584 26.5801C32.5886 26.6862 32.7516 26.7449 32.9173 26.7449C33.145 26.7449 33.3567 26.6391 33.4983 26.4549C33.755 26.1209 33.7004 25.634 33.3767 25.3697C30.4947 23.0174 27.3833 21.6114 24.1296 21.1915C23.9485 21.1682 23.8127 21.0113 23.8127 20.8255C23.8127 20.6277 23.9661 20.4626 24.1605 20.4544C24.5372 20.4387 24.8696 20.4312 25.1772 20.4312C29.2069 20.4312 33.2868 21.4307 37.3045 23.4016C37.4047 23.4509 37.5115 23.4757 37.622 23.4757C37.9062 23.4757 38.1691 23.304 38.2919 23.0384C38.378 22.8517 38.3885 22.6417 38.3215 22.4471C38.2549 22.2531 38.1194 22.098 37.9398 22.0101C33.7222 19.9406 29.4289 18.8915 25.179 18.8915C25.1257 18.8915 25.0723 18.8925 25.0189 18.8934L24.9109 18.8953H24.9069C24.7217 18.8953 24.5662 18.7534 24.5465 18.566C24.5267 18.3764 24.6508 18.2031 24.8337 18.1645L24.8342 18.1647Z" fill="#61C7E8"/>
<path d="M42.8307 17.7734C42.7708 17.7498 42.7097 17.7379 42.6493 17.7379C42.5434 17.7379 42.4397 17.774 42.3502 17.844C42.2058 17.9573 42.1321 18.1372 42.1531 18.3246C42.2213 18.932 42.2558 19.5516 42.2558 20.1662C42.2558 22.7197 41.6788 25.1864 40.5405 27.4982C39.4428 29.7278 37.8812 31.7016 35.8989 33.3649C35.4592 33.7338 35.3567 34.3795 35.6607 34.8663L35.6848 34.9046C35.8529 35.174 36.1248 35.3582 36.4309 35.4097C36.737 35.4612 37.0394 35.3805 37.2822 35.1818C37.2865 35.1784 37.2908 35.1749 37.2955 35.1715C41.9361 31.3698 44.6364 25.9303 44.6364 20.1663C44.6364 19.5963 44.6102 19.0218 44.5581 18.4556L42.8307 17.7734Z" fill="#61C7E8"/>
<path d="M2.84683 13.9323L2.89034 13.9461C3.43373 14.1207 4.02462 13.8523 4.265 13.3221C5.73967 10.0708 8.2141 7.30253 11.4208 5.31585C14.6988 3.28522 18.5362 2.21205 22.5179 2.21205C26.4997 2.21205 30.3371 3.28522 33.6151 5.31585C36.8221 7.30253 39.2965 10.0708 40.7709 13.3221C41.0113 13.8523 41.6019 14.12 42.145 13.9461L42.1894 13.932C42.5063 13.8303 42.7659 13.5917 42.9007 13.2772C43.0362 12.9618 43.0312 12.6036 42.8874 12.2947C39.4107 4.82587 31.4151 0 22.5179 0C13.6208 0 5.62493 4.82619 2.14838 12.2947C2.00458 12.6036 1.99965 12.9617 2.13511 13.2772C2.27026 13.5918 2.52947 13.8303 2.84698 13.9323H2.84683Z" fill="#61C7E8"/>
<path d="M9.35203 34.9056L9.37579 34.8673C9.67974 34.3801 9.57729 33.7348 9.13757 33.3659C7.1556 31.7026 5.59396 29.7288 4.49601 27.4992C3.3577 25.1873 2.78065 22.7207 2.78065 20.1672C2.78065 19.5526 2.81521 18.933 2.8834 18.3256C2.90439 18.1379 2.83064 17.9583 2.68622 17.845C2.54583 17.7348 2.37055 17.7088 2.20578 17.774L0.478722 18.4565C0.426573 19.0227 0.400345 19.5971 0.400345 20.1672C0.400345 25.9316 3.10069 31.3714 7.74162 35.1723C7.74594 35.1758 7.75057 35.1789 7.75489 35.1827C7.99774 35.3811 8.30014 35.4618 8.60622 35.4106C8.91201 35.3585 9.18417 35.1745 9.35203 34.9052L9.35203 34.9056Z" fill="#61C7E8"/>
<path d="M16.9655 39.7062C15.689 39.4868 14.5898 39.3766 13.7342 39.3766C12.9507 39.3766 12.3712 39.4689 12.0453 39.6538C11.224 40.1202 10.957 41.3381 10.8712 42.1539C11.3992 41.7597 12.1623 41.2756 12.8186 41.1912C13.3123 41.1281 13.745 41.2204 14.1637 41.3102C14.6799 41.4207 15.2137 41.535 15.9268 41.368C16.3749 41.2631 16.8103 40.9495 17.2216 40.436C17.3241 40.3079 17.3509 40.139 17.2938 39.9843C17.2676 39.913 17.1828 39.7435 16.9655 39.7062Z" fill="#61C7E8"/>
<path d="M32.9911 39.6532C32.3095 39.2661 30.5161 39.285 28.0706 39.7056C27.8534 39.7429 27.7689 39.9128 27.7426 39.9837C27.6852 40.1388 27.7124 40.3076 27.8148 40.4354C28.2259 40.9489 28.6616 41.2625 29.1096 41.3674C29.8224 41.5344 30.3566 41.4201 30.8728 41.3096C31.1953 41.2406 31.5264 41.1696 31.8868 41.1696C31.9945 41.1696 32.1046 41.1759 32.2179 41.1903C32.8742 41.2745 33.6373 41.7588 34.1652 42.153C34.0795 41.3376 33.8125 40.1196 32.9911 39.6532Z" fill="#61C7E8"/>
<path d="M0.718716 16.7384C0.740625 16.6219 0.76346 16.5061 0.787528 16.3906C0.946133 15.6266 1.15627 14.8628 1.41146 14.1218C1.47749 13.9297 1.37813 13.7191 1.18898 13.6516C1.00013 13.5844 0.793081 13.6855 0.727042 13.8779C0.461668 14.6488 0.243201 15.443 0.0781178 16.2381C0.0531231 16.3583 0.0290551 16.4791 0.00652897 16.6003C-0.0311167 16.8003 0.0978624 16.9936 0.294733 17.0319C0.317567 17.0363 0.340401 17.0385 0.362927 17.0385C0.533571 17.0382 0.685389 16.9148 0.718716 16.7384Z" fill="#61C7E8"/>
<path d="M12.1555 36.7844L12.1775 36.7455C12.6681 35.8729 12.4036 34.7749 11.5754 34.2459C11.4057 34.1376 11.182 34.1898 11.0755 34.3621C10.9691 34.5347 11.0203 34.7623 11.1897 34.8706C11.6791 35.1832 11.8399 35.86 11.5477 36.3795L11.5257 36.4184C11.3776 36.6817 11.1385 36.8679 10.8527 36.9423C10.5726 37.0151 10.2825 36.9705 10.0359 36.8167C9.8363 36.6921 9.63542 36.5621 9.43917 36.4306C9.27192 36.3186 9.04697 36.3657 8.93681 36.5358C8.82665 36.7059 8.87293 36.9347 9.04018 37.0465C9.24291 37.1824 9.45027 37.3164 9.6564 37.4451C9.94152 37.6231 10.2609 37.7142 10.5859 37.7142C10.7343 37.7142 10.8839 37.695 11.032 37.6567C11.51 37.5327 11.909 37.2229 12.1555 36.7844Z" fill="#61C7E8"/>
<path d="M44.9928 16.4049C44.8119 15.494 44.562 14.5862 44.25 13.707C44.1822 13.5155 43.9742 13.416 43.786 13.4851C43.5977 13.5541 43.4999 13.7657 43.5678 13.9572C43.8677 14.8025 44.1078 15.6751 44.2815 16.5509C44.3164 16.726 44.4676 16.8469 44.6367 16.8469C44.6605 16.8469 44.6845 16.8444 44.7089 16.8393C44.9055 16.7992 45.0323 16.6045 44.9928 16.4049Z" fill="#61C7E8"/>
<path d="M35.6943 36.3649C35.4663 36.5194 35.2327 36.6713 35 36.8166C34.7538 36.9704 34.4637 37.015 34.1832 36.9422C33.8975 36.8678 33.6584 36.6816 33.5106 36.4183L33.4886 36.379C33.1967 35.8595 33.3575 35.1828 33.8469 34.8705C34.0166 34.7622 34.0678 34.5346 33.9611 34.362C33.8546 34.1897 33.6309 34.1372 33.4612 34.2458C32.633 34.7748 32.3685 35.8728 32.8592 36.7454L32.8811 36.7846C33.1273 37.2231 33.5263 37.5326 34.0037 37.6569C34.1518 37.6955 34.3014 37.7146 34.4499 37.7143C34.7748 37.7143 35.0945 37.6233 35.3793 37.4453C35.6194 37.2953 35.8607 37.1383 36.0961 36.9789C36.2627 36.8659 36.3081 36.637 36.197 36.4675C36.0862 36.2983 35.8613 36.2519 35.6943 36.3649Z" fill="#61C7E8"/>
</svg>
