<svg width="220" height="27" viewBox="0 0 220 27" fill="none" xmlns="http://www.w3.org/2000/svg">
<g clip-path="url(#clip0_841_5253)">
<path d="M174.417 7.00819H172V14H172.881V11.8795H174.417C176.031 11.8795 177 10.9626 177 9.43977C177 7.91696 176.023 7 174.417 7V7.00819ZM174.391 11.0117H172.881V7.87602H174.391C175.525 7.87602 176.119 8.44912 176.119 9.44795C176.119 10.4468 175.525 11.0199 174.391 11.0199V11.0117Z" fill="#68676C"/>
<path d="M180.965 7H180.025L177 14H177.987L178.719 12.2459H182.262L182.995 14H184L180.965 7ZM179.048 11.4508L180.486 8.01639L181.923 11.4508H179.048Z" fill="#68676C"/>
<path d="M189 13.1311H185.831V7H185V14H189V13.1311Z" fill="#68676C"/>
<path d="M193.709 13.1557L196.091 8.90164L196.101 14H197L196.991 7H196.221L193.514 11.918L190.77 7H190V14H190.899V8.92623L193.282 13.1557H193.709Z" fill="#68676C"/>
<path d="M171.671 17.9815H174.068V22.4259C174.068 23.4907 173.676 24.0278 172.93 24.0278C172.371 24.0278 171.904 23.7037 171.55 23.0926L171 23.8611C171.429 24.5926 172.147 25 172.93 25C174.282 25 175 24.1296 175 22.3704V17H171.671V17.9815Z" fill="#68676C"/>
<path d="M181.183 21.4537C181.183 23.2037 180.575 24 179.508 24C178.442 24 177.842 23.2037 177.842 21.4537V17H177V21.5C177 23.7963 177.95 25 179.5 25C181.05 25 182 23.787 182 21.5V17H181.183V21.4537Z" fill="#68676C"/>
<path d="M190.222 17L187.519 21.9205L184.769 17H184V24H184.898V18.9322L187.278 23.1485H187.713L190.093 18.8994L190.102 24H191L190.991 17H190.222Z" fill="#68676C"/>
<path d="M193.988 20.8725H197.438V20.0211H193.988V17.876H197.864V17H193V24H198V23.1322H193.988V20.8725Z" fill="#68676C"/>
<path d="M200 17H199V24H200V17Z" fill="#68676C"/>
<path d="M205.897 19.4426C205.897 17.918 204.94 17 203.368 17H201V24H201.863V21.8689H203.359C203.487 21.8689 203.615 21.8607 203.744 21.8443L205.051 23.9918H206L204.564 21.6393C205.419 21.2869 205.897 20.5082 205.897 19.4262V19.4426ZM203.342 21.0246H201.872V17.877H203.342C204.453 17.877 205.034 18.4508 205.034 19.4508C205.034 20.4508 204.453 21.0328 203.342 21.0328V21.0246Z" fill="#68676C"/>
<path d="M210.026 17L207 24H207.987L208.719 22.2459H212.262L212.995 24H214L210.965 17H210.026ZM209.048 21.4508L210.486 18.0164L211.923 21.4508H209.048Z" fill="#68676C"/>
<path d="M219.173 17V20.0129H215.835V17H215V24H215.835V20.8807H219.173V24H220V17H219.173Z" fill="#68676C"/>
<path d="M29 0H14.3924V2.47435H2.74397V14.1926H0V27H14.1413V24.9264H26.2022V14.1926H29V0Z" fill="#1EADE5"/>
<path d="M7 8.33333V22H12V4L7 8.33333Z" fill="white"/>
<path d="M22 8.33333V22H17V4L22 8.33333Z" fill="white"/>
<path d="M17 12.1992V22H12V8L17 12.1992Z" fill="white"/>
<path d="M39.5 12.5023L35.8078 7H34V16H35.8078V10.4222L39.4574 16L43.0302 10.4725V16H45V7H43.0302L39.5 12.5023Z" fill="#68676C"/>
<path d="M46 16H55V14.1799H47.7865V12.2926H53.0955V10.5312H47.7865V8.82013H55V7H46V16Z" fill="#68676C"/>
<path d="M56 8.82013H59.9982V16H61.9557V8.82013H66V7H56V8.82013Z" fill="#68676C"/>
<path d="M110.134 7H108V16H109.062H110.134H116V14.2637H110.134V7Z" fill="#68676C"/>
<path d="M119 7H117V16H119V7Z" fill="#68676C"/>
<path d="M120 8.82013H123.62V16H125.414V8.82013H129V7H120V8.82013Z" fill="#68676C"/>
<path d="M147.987 7V13.0895L142.18 7H140V16H142.18V9.94408L147.987 16H148.655H150V7H147.987Z" fill="#68676C"/>
<path d="M83.9962 7H79.0038C77.9 7 77 7.8891 77 8.9795V14.0205C77 15.1109 77.9 16 79.0038 16H83.9962C85.1 16 86 15.1109 86 14.0205V8.9795C86 7.8891 85.1 7 83.9962 7ZM84.217 13.7437C84.217 14.1212 83.9113 14.4231 83.5292 14.4231H79.3009C78.9189 14.4231 78.6132 14.1212 78.6132 13.7437V9.30662C78.6132 8.92917 78.9189 8.62721 79.3009 8.62721H83.5292C83.9113 8.62721 84.217 8.92917 84.217 9.30662V13.7437Z" fill="#68676C"/>
<path d="M104.996 7H100.004C98.9 7 98 7.8891 98 8.9795V14.0205C98 15.1109 98.9 16 100.004 16H104.996C106.1 16 107 15.1109 107 14.0205V8.9795C107 7.8891 106.1 7 104.996 7ZM105.217 13.7437C105.217 14.1212 104.911 14.4231 104.529 14.4231H100.301C99.9189 14.4231 99.6132 14.1212 99.6132 13.7437V9.30662C99.6132 8.92917 99.9189 8.62721 100.301 8.62721H104.529C104.911 8.62721 105.217 8.92917 105.217 9.30662V13.7437Z" fill="#68676C"/>
<path d="M74.4556 7.00838H67V16H69.1609V13.1844H71.0037L74.1936 16H77L73.8756 13.1844H74.7549C76.102 13.1844 77 12.1872 77 11.4078V8.81844C77 7.73743 75.7839 7 74.4649 7L74.4556 7.00838ZM74.1656 11.5084H69.1609V8.82682H74.2217C74.9514 8.82682 75.1946 9.12011 75.1946 10.1006C75.1946 11.081 75.0168 11.5084 74.1656 11.5084Z" fill="#68676C"/>
<path d="M94.8108 7H87V16H89.0501V13.1817H94.8108C96.0167 13.1817 97 12.2926 97 11.2022V8.9795C97 7.8891 96.0167 7 94.8108 7ZM94.9499 10.9506C94.9499 11.2693 94.6623 11.5294 94.3098 11.5294H89.0594V8.82013H94.3098C94.6623 8.82013 94.9499 9.08015 94.9499 9.39888V10.9506Z" fill="#68676C"/>
<path d="M136.004 7H130.996C129.897 7 129 7.8891 129 8.9795V16H130.793V14.1715H136.088V16H138V8.9795C138 7.8891 137.103 7 136.004 7ZM136.088 12.3681H130.793V9.33178C130.793 9.0466 131.03 8.81174 131.318 8.81174H135.564C135.851 8.81174 136.088 9.0466 136.088 9.33178V12.3681Z" fill="#68676C"/>
<path d="M49.9059 21H47.1575C47.0525 21 47 21.0585 47 21.1756V24.8732C47 24.961 47.0438 25 47.1138 25H47.6652C47.744 25 47.779 24.961 47.779 24.8732V23.7805H49.8972C50.6762 23.7805 51 23.3707 51 22.6098V22.1902C51 21.4195 50.6849 21.0195 49.8972 21.0195L49.9059 21ZM50.221 22.5122C50.221 22.8537 50.0897 23.0195 49.7484 23.0195H47.7877V21.8585C47.7877 21.8098 47.8053 21.7902 47.8578 21.7902H49.7484C50.0985 21.7902 50.221 21.9561 50.221 22.2976V22.5122Z" fill="#1EADE5"/>
<path d="M55.1527 23.6277C55.6711 23.5207 55.892 23.1411 55.892 22.489V22.1679C55.892 21.399 55.5861 21 54.8213 21H52.153C52.051 21 52 21.0584 52 21.1752V24.8637C52 24.9513 52.0425 24.9903 52.1105 24.9903H52.6458C52.7223 24.9903 52.7563 24.9513 52.7563 24.8637V23.7348H54.3624L55.1442 24.9221C55.1697 24.9708 55.1952 25 55.2802 25H55.9175C56.011 25 56.011 24.8929 55.9855 24.854L55.1357 23.6472L55.1527 23.6277ZM55.1357 22.5182C55.1357 22.8589 55.0083 23.0243 54.6768 23.0243H52.7733V21.837C52.7733 21.837 52.7903 21.7689 52.8413 21.7689H54.6768C55.0168 21.7689 55.1357 21.9343 55.1357 22.2749V22.5182Z" fill="#1EADE5"/>
<path d="M59.8802 21.0098H57.5115C56.424 21.0098 56 21.4195 56 22.5122V23.4976C56 24.5902 56.424 25 57.5115 25H59.8802C59.9631 25 60 24.961 60 24.8732V24.3268C60 24.239 59.9539 24.2 59.8802 24.2H57.53C56.9677 24.2 56.8111 24.0244 56.8111 23.4293V23.3317H59.8525C59.9355 23.3317 59.9724 23.2927 59.9724 23.2049V22.7561C59.9724 22.6683 59.9355 22.6293 59.8525 22.6293H56.8111V22.5707C56.8111 21.9756 56.9677 21.8 57.53 21.8H59.8802C59.9631 21.8 60 21.761 60 21.6732V21.1268C60 21.039 59.9539 21 59.8802 21V21.0098Z" fill="#1EADE5"/>
<path d="M65.508 21H64.9003C64.5723 21 64.4566 21.0782 64.3022 21.4303L63.1254 24.1687C63.1254 24.1687 63.0868 24.2176 63.0482 24.2176H62.9807C62.9807 24.2176 62.9228 24.2078 62.9035 24.1687L61.7267 21.4303C61.5723 21.0685 61.4662 21 61.119 21H60.5016C60.1061 21 60 21.1565 60 21.5966V24.8729C60 24.9609 60.0482 25 60.1254 25H60.7042C60.791 25 60.8296 24.9609 60.8296 24.8729V21.89C60.8296 21.89 60.8392 21.8313 60.8778 21.8313H60.926C60.926 21.8313 60.9839 21.8411 61.0032 21.8802L62.1415 24.4425C62.3248 24.8533 62.4887 25 62.865 25H63.135C63.5113 25 63.6752 24.8533 63.8585 24.4425L64.9968 21.8802C64.9968 21.8802 65.0354 21.8313 65.074 21.8313H65.1222C65.1222 21.8313 65.1704 21.8509 65.1704 21.89V24.8729C65.1704 24.9609 65.209 25 65.2958 25H65.8746C65.9614 25 66 24.9609 66 24.8729V21.5966C66 21.1663 65.8939 21 65.508 21Z" fill="#1EADE5"/>
<path d="M66.8539 21H66.1461C66.0449 21 66 21.0391 66 21.1271V24.8729C66 24.9609 66.0562 25 66.1461 25H66.8539C66.9551 25 67 24.9609 67 24.8729V21.1271C67 21.0391 66.9551 21 66.8539 21Z" fill="#1EADE5"/>
<path d="M71.8952 21H71.379C71.3065 21 71.2742 21.0391 71.2742 21.1271V23.4059C71.2742 24.0122 71.1371 24.1883 70.6532 24.1883H69.3468C68.8629 24.1883 68.7177 24.0122 68.7177 23.4059V21.1271C68.7177 21.0391 68.6855 21 68.6129 21H68.1048C68.0323 21 68 21.0391 68 21.1271V23.4939C68 24.5892 68.371 25 69.3226 25H70.6774C71.6371 25 72 24.5892 72 23.4939V21.1271C72 21.0391 71.9677 21 71.8952 21Z" fill="#1EADE5"/>
<path d="M78.508 21H77.9003C77.5723 21 77.4566 21.0782 77.3022 21.4303L76.1254 24.1687C76.1254 24.1687 76.0868 24.2176 76.0482 24.2176H75.9807C75.9807 24.2176 75.9228 24.2078 75.9035 24.1687L74.7267 21.4303C74.5723 21.0685 74.4662 21 74.119 21H73.5016C73.1061 21 73 21.1565 73 21.5966V24.8729C73 24.9609 73.0482 25 73.1254 25H73.7042C73.791 25 73.8296 24.9609 73.8296 24.8729V21.89C73.8296 21.89 73.8392 21.8313 73.8778 21.8313H73.926C73.926 21.8313 73.9839 21.8411 74.0032 21.8802L75.1415 24.4425C75.3248 24.8533 75.4887 25 75.865 25H76.135C76.5113 25 76.6752 24.8533 76.8585 24.4425L77.9968 21.8802C77.9968 21.8802 78.0354 21.8313 78.074 21.8313H78.1222C78.1222 21.8313 78.1704 21.8509 78.1704 21.89V24.8729C78.1704 24.9609 78.209 25 78.2958 25H78.8746C78.9614 25 79 24.9609 79 24.8729V21.5966C79 21.1663 78.8939 21 78.508 21Z" fill="#1EADE5"/>
<path d="M83.9059 21H81.1575C81.0525 21 81 21.0585 81 21.1756V24.8732C81 24.961 81.0438 25 81.1138 25H81.6652C81.744 25 81.779 24.961 81.779 24.8732V23.7805H83.8972C84.6761 23.7805 85 23.3707 85 22.6098V22.1902C85 21.4195 84.6849 21.0195 83.8972 21.0195L83.9059 21ZM84.221 22.5122C84.221 22.8537 84.0897 23.0195 83.7484 23.0195H81.7877V21.8585C81.7877 21.8098 81.8052 21.7902 81.8578 21.7902H83.7484C84.0985 21.7902 84.221 21.9561 84.221 22.2976V22.5122Z" fill="#1EADE5"/>
<path d="M88.1527 23.6277C88.6711 23.5207 88.892 23.1411 88.892 22.489V22.1679C88.892 21.399 88.5861 21 87.8213 21H85.153C85.051 21 85 21.0584 85 21.1752V24.8637C85 24.9513 85.0425 24.9903 85.1105 24.9903H85.6458C85.7223 24.9903 85.7563 24.9513 85.7563 24.8637V23.7348H87.3624L88.1442 24.9221C88.1782 24.9708 88.1952 25 88.2802 25H88.9175C89.011 25 89.011 24.8929 88.9855 24.854L88.1357 23.6472L88.1527 23.6277ZM88.1357 22.5182C88.1357 22.8589 88.0083 23.0243 87.6768 23.0243H85.7733V21.837C85.7733 21.837 85.7903 21.7689 85.8413 21.7689H87.6768C88.0167 21.7689 88.1357 21.9343 88.1357 22.2749V22.5182Z" fill="#1EADE5"/>
<path d="M92.389 21H90.611C89.4519 21 89 21.4108 89 22.5061V23.4939C89 24.5892 89.4519 25 90.611 25H92.389C93.558 25 94 24.5892 94 23.4939V22.5061C94 21.4108 93.558 21 92.389 21ZM93.1159 23.4254C93.1159 24.022 92.9391 24.198 92.3497 24.198H90.6405C90.0511 24.198 89.8743 24.022 89.8743 23.4254V22.5648C89.8743 21.9682 90.0511 21.7922 90.6405 21.7922H92.3497C92.9391 21.7922 93.1159 21.9682 93.1159 22.5648V23.4254Z" fill="#1EADE5"/>
<path d="M97.9059 21H95.1575C95.0525 21 95 21.0585 95 21.1756V24.8732C95 24.961 95.0438 25 95.1138 25H95.6652C95.744 25 95.779 24.961 95.779 24.8732V23.7805H97.8972C98.6761 23.7805 99 23.3707 99 22.6098V22.1902C99 21.4195 98.6849 21.0195 97.8972 21.0195L97.9059 21ZM98.221 22.5122C98.221 22.8537 98.0897 23.0195 97.7484 23.0195H95.7877V21.8585C95.7877 21.8098 95.8053 21.7902 95.8578 21.7902H97.7484C98.0985 21.7902 98.221 21.9561 98.221 22.2976V22.5122Z" fill="#1EADE5"/>
<path d="M102.88 21.0098H100.512C99.424 21.0098 99 21.4195 99 22.5122V23.4976C99 24.5902 99.424 25 100.512 25H102.88C102.963 25 103 24.961 103 24.8732V24.3268C103 24.239 102.954 24.2 102.88 24.2H100.53C99.9677 24.2 99.8111 24.0244 99.8111 23.4293V23.3317H102.853C102.935 23.3317 102.972 23.2927 102.972 23.2049V22.7561C102.972 22.6683 102.935 22.6293 102.853 22.6293H99.8111V22.5707C99.8111 21.9756 99.9677 21.8 100.53 21.8H102.88C102.963 21.8 103 21.761 103 21.6732V21.1268C103 21.039 102.954 21 102.88 21V21.0098Z" fill="#1EADE5"/>
<path d="M106.154 23.6277C106.673 23.5207 106.894 23.1411 106.894 22.489V22.1679C106.894 21.399 106.588 21 105.823 21H103.153C103.051 21 103 21.0584 103 21.1752V24.8637C103 24.9513 103.043 24.9903 103.111 24.9903H103.646C103.723 24.9903 103.757 24.9513 103.757 24.8637V23.7348H105.364L106.146 24.9221C106.171 24.9708 106.197 25 106.282 25H106.919C107.004 25 107.013 24.8929 106.987 24.854L106.137 23.6472L106.154 23.6277ZM106.137 22.5182C106.137 22.8589 106.01 23.0243 105.678 23.0243H103.774V21.837C103.774 21.837 103.791 21.7689 103.842 21.7689H105.678C106.018 21.7689 106.137 21.9343 106.137 22.2749V22.5182Z" fill="#1EADE5"/>
<path d="M111.892 21H108.108C108.033 21 108 21.0391 108 21.1271V21.6846C108 21.7726 108.041 21.8117 108.108 21.8117H109.627V24.8729C109.627 24.9609 109.66 25 109.734 25H110.266C110.34 25 110.373 24.9609 110.373 24.8729V21.8117H111.892C111.967 21.8117 112 21.7628 112 21.6846V21.1271C112 21.0391 111.959 21 111.892 21Z" fill="#1EADE5"/>
<path d="M112.854 21H112.146C112.045 21 112 21.0391 112 21.1271V24.8729C112 24.9609 112.056 25 112.146 25H112.854C112.955 25 113 24.9609 113 24.8729V21.1271C113 21.0391 112.955 21 112.854 21Z" fill="#1EADE5"/>
<path d="M117.88 21.0098H115.512C114.424 21.0098 114 21.4195 114 22.5122V23.4976C114 24.5902 114.424 25 115.512 25H117.88C117.963 25 118 24.961 118 24.8732V24.3268C118 24.239 117.954 24.2 117.88 24.2H115.53C114.968 24.2 114.811 24.0244 114.811 23.4293V23.3317H117.853C117.935 23.3317 117.972 23.2927 117.972 23.2049V22.7561C117.972 22.6683 117.935 22.6293 117.853 22.6293H114.811V22.5707C114.811 21.9756 114.968 21.8 115.53 21.8H117.88C117.963 21.8 118 21.761 118 21.6732V21.1268C118 21.039 117.954 21 117.88 21V21.0098Z" fill="#1EADE5"/>
<path d="M121.073 22.635H119.082C118.9 22.635 118.809 22.528 118.809 22.3139V22.1192C118.809 21.9246 118.891 21.7981 119.091 21.7981H121.755C121.836 21.7981 121.873 21.7591 121.873 21.6715V21.1265C121.873 21.0389 121.836 21 121.755 21H118.936C118.291 21 118 21.3796 118 21.9246V22.3431C118 22.9659 118.318 23.326 118.927 23.326H120.918C121.1 23.326 121.191 23.4331 121.191 23.6472V23.8808C121.191 24.0754 121.109 24.2019 120.909 24.2019H118.118C118.036 24.2019 118 24.2409 118 24.3285V24.8735C118 24.9611 118.045 25 118.118 25H121.064C121.709 25 122 24.6204 122 24.0754V23.618C122 22.9951 121.682 22.635 121.073 22.635Z" fill="#1EADE5"/>
<path d="M127.875 24.1883H125.602C125.026 24.1883 124.854 24.0122 124.854 23.4059V21.1271C124.854 21.0391 124.815 21 124.729 21H124.125C124.038 21 124 21.0391 124 21.1271V23.4939C124 24.5892 124.441 25 125.573 25H127.875C127.962 25 128 24.9609 128 24.8729V24.3154C128 24.2274 127.962 24.1883 127.875 24.1883Z" fill="#1EADE5"/>
<path d="M131.875 24.1883H129.602C129.026 24.1883 128.854 24.0122 128.854 23.4059V21.1271C128.854 21.0391 128.815 21 128.729 21H128.125C128.038 21 128 21.0391 128 21.1271V23.4939C128 24.5892 128.441 25 129.573 25H131.875C131.962 25 132 24.9609 132 24.8729V24.3154C132 24.2274 131.962 24.1883 131.875 24.1883Z" fill="#1EADE5"/>
<path d="M133.524 21.8117H135.882C135.964 21.8117 136 21.7628 136 21.6846V21.1271C136 21.0391 135.964 21 135.882 21H133.488C132.417 21 132 21.4108 132 22.5061V23.4939C132 24.5892 132.417 25 133.488 25H135.882C135.964 25 136 24.9609 136 24.8729V24.3154C136 24.2274 135.964 24.1883 135.882 24.1883H133.524C132.98 24.1883 132.816 24.0122 132.816 23.4059V22.5941C132.816 21.9878 132.98 21.8215 133.524 21.8215V21.8117Z" fill="#1EADE5"/>
<path d="M161 7H160V25H161V7Z" fill="#AEAFB2"/>
</g>
<defs>
<clipPath id="clip0_841_5253">
<rect width="220" height="27" fill="white"/>
</clipPath>
</defs>
</svg>
