<svg width="40" height="40" viewBox="0 0 40 40" fill="none" xmlns="http://www.w3.org/2000/svg">
<path d="M37.9677 19.9986C38.9659 19.8299 39.7913 19.0424 39.966 17.9988C40.1906 16.6677 39.2778 15.2239 37.9677 14.999C36.8572 14.8052 35.956 14.1928 34.9702 13.999C34.8704 13.9178 35.095 14.049 34.9702 13.999C34.8267 13.949 34.0896 13.924 33.9711 13.999C32.4301 13.6991 31.216 13.2866 29.9745 12.9991V5.99958H30.9736C31.766 5.99958 32.8971 5.78704 32.9719 4.99965C33.0655 4.09353 31.8595 2.99979 30.9736 2.99979H24.9787C24.1864 2.99979 24.0607 4.20601 23.9796 4.99965C23.8923 5.90578 24.0991 5.99958 24.9787 5.99958H25.9779V11.9992C23.5884 11.318 22.0926 10.5055 20.9821 9.99931V8.99938C20.9821 8.22448 20.7566 7.99944 19.983 7.99944H18.9838V3.99972C18.9838 1.35634 13.6839 0 8.99235 0C4.29453 0 0 1.35634 0 3.99972V38.9973C0 39.341 0.656016 39.9972 0.99915 39.9972H5.9949C6.34427 39.9972 6.99405 39.341 6.99405 38.9973V18.9987H16.9855C17.9151 18.9987 18.8279 17.8862 18.9838 16.9988H19.983C20.7566 16.9988 20.9821 16.7738 20.9821 15.9989C22.155 16.4426 23.4877 16.5801 24.9787 16.9988C25.0224 17.1238 25.8469 16.9488 25.9779 16.9988C25.8469 16.9988 26.0964 17.0426 25.9779 16.9988C25.8531 17.0363 26.0964 16.9988 25.9779 16.9988C25.9405 16.9863 26.0153 17.0113 25.9779 16.9988V17.9988C25.1419 18.1175 24.1845 18.6925 22.9804 18.9987C22.8494 18.8924 23.1427 18.9174 22.9804 18.9987C22.8307 19.0674 22.0874 18.8799 21.9813 18.9987C19.6417 19.6986 17.6344 21.1737 16.9855 22.9984C16.5364 24.2732 16.9865 24.9046 17.9847 25.9982C18.228 26.2669 18.5658 26.7357 18.9838 26.9981C18.8528 26.8981 18.9776 27.1481 18.9838 26.9981C19.1772 27.1544 19.7147 27.9981 19.983 27.9981C19.9206 28.0043 20.0454 27.9981 19.983 27.9981C19.958 28.0043 20.0079 27.9918 19.983 27.9981C21.6238 28.7605 23.5323 29.3793 25.9779 29.9979C24.1125 30.2791 21.2183 31.4729 19.983 31.9978C19.8645 32.029 20.0828 31.9353 19.983 31.9978C19.4277 32.3727 19.6211 33.0665 19.983 33.9976C19.2967 34.3101 18.0586 35.0789 16.9855 36.9974C16.3679 38.0973 15.7306 38.5911 15.9864 38.9973C16.2983 39.4972 17.2797 39.9972 17.9847 39.9972C17.9223 40.0035 18.0471 39.9972 17.9847 39.9972C18.8831 39.941 19.6586 39.7097 19.983 38.9973C20.4946 37.8849 22.6498 36.2787 22.9804 35.9975C22.7558 36.0725 23.1676 35.935 22.9804 35.9975C23.8601 35.7038 24.805 35.235 25.9779 34.9976V36.9974C25.5349 36.9974 25.1534 36.5912 24.9787 36.9974V37.9974C24.8228 38.3473 24.7666 38.6786 24.9787 38.9973C25.1846 39.3097 25.6036 39.9972 25.9779 39.9972H30.9736C31.348 39.9972 30.7678 39.3097 30.9736 38.9973C31.1858 38.6786 32.1225 38.3473 31.9728 37.9974L30.9736 36.9974C30.7927 36.5912 30.4174 36.9974 29.9745 36.9974V33.9976C30.8167 33.7477 32.1047 33.2727 32.9719 32.9977C33.0718 33.0415 32.8721 33.9789 32.9719 33.9976C32.8846 33.9976 33.0655 34.0164 32.9719 33.9976C33.1903 33.9976 33.8026 33.1164 33.9711 32.9977C33.9711 33.1477 34.1083 32.904 33.9711 32.9977C35.718 32.4228 37.9677 31.9978 37.9677 31.9978C38.7226 31.6853 38.8296 30.8603 38.9668 29.9979C39.1852 28.6606 39.2841 27.2106 37.9677 26.9981C37.0818 26.8544 35.3873 26.2607 33.9711 25.9982C33.8089 25.8232 33.1965 26.0419 32.9719 25.9982C32.8035 25.9607 33.078 25.8795 32.9719 25.9982C32.0049 25.8107 30.9789 26.2107 29.9745 25.9982V21.9985C32.8131 21.1798 36.4517 20.536 37.9677 19.9986ZM34.9702 16.9988C35.2136 16.3364 35.0389 15.5239 34.9702 14.999C35.7626 15.1489 37.1005 15.8489 37.9677 15.9989C38.7725 16.1364 39.1041 16.1739 38.9668 16.9988C38.892 17.4613 38.342 17.78 37.9677 17.9988C37.8741 18.03 38.2048 18.9174 37.9677 18.9987C37.818 19.0237 37.1245 19.0237 36.9685 18.9987C35.9953 18.83 35.8811 18.1737 34.9702 17.9988C35.2011 17.6925 34.8205 17.4113 34.9702 16.9988ZM29.9745 17.9988C29.9308 18.0112 30.0182 17.9863 29.9745 17.9988C30.7294 18.1675 31.1617 18.8362 31.9728 18.9987C32.0165 19.1299 32.8284 18.9487 32.9719 18.9987C32.8409 18.9987 33.0905 19.0487 32.9719 18.9987C33.1466 18.9987 33.7902 19.0862 33.9711 18.9987C33.9649 19.0049 33.9773 18.9987 33.9711 18.9987C34.6823 19.1424 35.2207 18.8674 35.9694 18.9987C34.2724 19.5861 31.8898 20.4361 29.9745 20.9985V17.9988ZM5.9949 33.9976H0.99915V30.9978H5.9949V33.9976ZM5.9949 25.9982H0.99915V22.9984H5.9949V25.9982ZM5.9949 17.9988H0.99915V8.99938H5.9949C5.9949 8.86189 6.12591 8.99938 5.9949 8.99938V17.9988ZM17.9847 16.9988C17.9847 17.5237 17.5096 17.9988 16.9855 17.9988H6.99405V8.99938C6.99405 8.34947 6.64373 7.99944 5.9949 7.99944H0.99915V5.99958H17.9847V16.9988ZM18.9838 37.9974C18.7967 38.4036 18.5462 38.9598 17.9847 38.9973C17.5542 39.0223 17.1353 39.2348 16.9855 38.9973C16.8171 38.7286 16.6798 37.5474 16.9855 36.9974C17.9713 35.2289 19.4714 35.2225 19.983 34.9976C20.3324 35.5162 20.5454 35.7725 20.9821 35.9975C20.3645 36.6037 19.3769 37.1412 18.9838 37.9974ZM26.977 5.99958H28.9753V12.9991C28.5823 12.9054 28.3443 13.0991 27.9762 12.9991C27.8514 12.8429 27.1642 12.0679 26.977 11.9992C26.9646 11.9929 26.9895 12.0054 26.977 11.9992V5.99958ZM26.977 16.9988C27.5073 17.1301 28.4201 17.8675 28.9753 17.9988V24.9983C28.4201 24.8733 27.5073 25.1232 26.977 24.9983V16.9988ZM25.9779 15.9989C24.0938 15.4927 22.3859 15.5364 20.9821 14.999V10.9992C22.2861 11.5617 24.2257 12.2617 26.977 12.9991C27.0706 13.3241 27.2328 14.3116 26.977 14.999C26.7462 15.6426 26.2649 15.8052 25.9779 15.9989ZM23.9796 22.9984C24.0732 23.0172 24.8914 22.9984 24.9787 22.9984C24.8352 23.0609 25.141 22.9984 24.9787 22.9984C24.9351 23.0484 25.0411 22.9672 24.9787 22.9984C25.3718 22.9172 25.51 23.0859 25.9779 22.9984V24.9983C24.6553 24.6671 23.7915 24.3045 22.9804 23.9983C23.3049 23.9046 23.5616 23.0921 23.9796 22.9984ZM19.983 26.9981C19.2655 26.6419 19.2833 26.3294 18.9838 25.9982C18.2289 25.1671 17.654 23.9358 17.9847 22.9984C18.4214 21.7673 19.9412 20.686 21.9813 19.9986C21.9688 20.5048 21.713 21.3986 21.9813 21.9985C22.1872 22.4422 22.6997 22.6922 22.9804 22.9984C22.394 23.1609 22.3494 22.8359 21.9813 22.9984C21.8253 23.0671 21.0009 23.8296 20.9821 23.9983C20.9634 24.1671 21.8378 23.9046 21.9813 23.9983C21.8628 23.9358 22.0686 24.0608 21.9813 23.9983C21.9064 24.3108 21.4688 25.3483 20.9821 25.9982C20.6328 26.4669 20.2887 26.8544 19.983 26.9981ZM28.9753 36.9974H26.977V29.9979C27.5198 30.1291 28.4326 29.8792 28.9753 29.9979V36.9974ZM29.9745 32.9977V29.9979C30.1617 30.0417 30.7865 30.9604 30.9736 30.9978C31.0236 31.4915 30.643 31.4853 30.9736 31.9978C31.1234 32.2227 31.7981 32.8165 31.9728 32.9977C31.4238 33.1727 30.511 32.8415 29.9745 32.9977ZM34.9702 31.9978C34.153 32.2727 33.9577 31.6791 32.9719 31.9978C32.7286 31.8353 32.2099 32.3665 31.9728 31.9978C31.7919 31.7166 32.0414 31.2666 31.9728 30.9978C31.8231 30.9666 32.1225 31.0291 31.9728 30.9978C31.8168 30.9604 32.0289 31.1416 31.9728 30.9978C32.0477 31.0103 32.8971 30.9978 32.9719 30.9978C32.816 31.0666 33.1279 30.9978 32.9719 30.9978C33.8079 31.1603 34.2029 31.8665 34.9702 31.9978ZM32.9719 26.9981C33.1092 27.3106 33.1154 28.2918 32.9719 28.998C32.8409 29.6729 33.2215 29.7605 32.9719 29.9979C32.3668 29.8792 31.5414 30.1166 30.9736 29.9979C30.9674 29.9979 30.9799 29.9979 30.9736 29.9979C28.8337 29.5605 26.6258 28.448 24.9787 27.9981C23.3255 27.5419 22.0739 27.4418 20.9821 26.9981C21.2567 26.7857 21.7442 26.3107 21.9813 25.9982C22.4367 25.392 22.8432 25.4857 22.9804 24.9983C25.3637 25.8919 29.5593 26.3545 32.9719 26.9981Z" fill="#61C7E8"/>
<path d="M12 16C14.1953 16 15.9814 14.1908 16 12C16 11.9876 16 12.0062 16 12C16 11.9876 16 12.0062 16 12C15.9876 9.80295 14.1953 8 12 8C9.79845 8 8 9.79674 8 12C8 14.2095 9.79845 16 12 16Z" fill="#61C7E8"/>
</svg>
