<svg width="38" height="38" viewBox="0 0 38 38" fill="none" xmlns="http://www.w3.org/2000/svg">
<path d="M19.8324 32.2059V32.2593L19.8857 32.2558C23.3248 32.026 26.5399 30.4686 28.8522 27.9125C31.1645 25.3565 32.3929 22.0018 32.2779 18.5569C32.1629 15.1121 30.7137 11.8468 28.2361 9.45054C25.7586 7.0543 22.4468 5.71474 19 5.71474C15.5532 5.71474 12.2414 7.0543 9.76387 9.45054C7.28633 11.8468 5.83706 15.1121 5.7221 18.5569C5.60715 22.0018 6.83551 25.3565 9.14778 27.9125C11.4601 30.4686 14.6752 32.026 18.1143 32.2558L18.1677 32.2593V32.2059V22.2353V22.1853H18.1177H14.2941C14.0734 22.1853 13.8617 22.0976 13.7056 21.9415C13.5495 21.7854 13.4618 21.5737 13.4618 21.3529C13.4618 21.1322 13.5495 20.9205 13.7056 20.7644C13.8617 20.6083 14.0734 20.5206 14.2941 20.5206H18.1177H18.1677V20.4706V16.6471C18.1677 15.4902 18.6272 14.3808 19.4452 13.5628C20.2632 12.7448 21.3726 12.2853 22.5294 12.2853H24.8824C25.1031 12.2853 25.3148 12.373 25.4709 12.5291C25.627 12.6852 25.7147 12.8969 25.7147 13.1176C25.7147 13.3384 25.627 13.5501 25.4709 13.7062C25.3148 13.8623 25.1031 13.95 24.8824 13.95H22.5294C21.8141 13.95 21.1281 14.2342 20.6223 14.7399C20.1165 15.2457 19.8324 15.9318 19.8324 16.6471V20.4706V20.5206H19.8824H23.7059C23.9266 20.5206 24.1384 20.6083 24.2944 20.7644C24.4505 20.9205 24.5382 21.1322 24.5382 21.3529C24.5382 21.5737 24.4505 21.7854 24.2944 21.9415C24.1384 22.0976 23.9266 22.1853 23.7059 22.1853H19.8824H19.8324V22.2353V32.2059ZM10.6942 6.56953C13.1527 4.92681 16.0432 4.05001 19 4.05C22.9635 4.05466 26.7634 5.63125 29.5661 8.43391C32.3688 11.2366 33.9453 15.0365 33.95 19.0001C33.95 21.9569 33.0732 24.8473 31.4305 27.3058C29.7877 29.7643 27.4529 31.6805 24.7211 32.812C21.9894 33.9435 18.9834 34.2396 16.0834 33.6627C13.1834 33.0859 10.5196 31.662 8.42876 29.5712C6.33796 27.4804 4.91412 24.8166 4.33727 21.9166C3.76042 19.0166 4.05648 16.0106 5.18801 13.2789C6.31954 10.5471 8.23572 8.21226 10.6942 6.56953Z" fill="#9D9D9D" stroke="#F4F4F6" stroke-width="0.1"/>
</svg>
