<svg width="37" height="37" viewBox="0 0 37 37" fill="none" xmlns="http://www.w3.org/2000/svg">
<path d="M18.5 12.12C17.2382 12.12 16.0046 12.4942 14.9555 13.1952C13.9063 13.8963 13.0885 14.8927 12.6056 16.0585C12.1228 17.2243 11.9964 18.5071 12.2426 19.7447C12.4888 20.9823 13.0964 22.1191 13.9887 23.0113C14.8809 23.9036 16.0177 24.5112 17.2553 24.7574C18.4929 25.0036 19.7757 24.8772 20.9415 24.3944C22.1073 23.9115 23.1037 23.0937 23.8048 22.0445C24.5058 20.9954 24.88 19.7618 24.88 18.5C24.8781 16.8085 24.2053 15.1868 23.0092 13.9908C21.8132 12.7947 20.1915 12.1219 18.5 12.12ZM18.5 23.72C17.4676 23.72 16.4583 23.4139 15.5999 22.8403C14.7415 22.2667 14.0724 21.4514 13.6773 20.4976C13.2823 19.5438 13.1789 18.4942 13.3803 17.4816C13.5817 16.469 14.0789 15.5389 14.8089 14.8089C15.5389 14.0789 16.469 13.5817 17.4816 13.3803C18.4942 13.1789 19.5438 13.2823 20.4976 13.6773C21.4514 14.0724 22.2667 14.7415 22.8403 15.5999C23.4139 16.4583 23.72 17.4676 23.72 18.5C23.72 19.8844 23.17 21.2122 22.1911 22.1911C21.2122 23.17 19.8844 23.72 18.5 23.72ZM25.46 4H11.54C9.54097 4.0023 7.62448 4.79743 6.21096 6.21096C4.79743 7.62448 4.0023 9.54097 4 11.54V25.46C4.0023 27.459 4.79743 29.3755 6.21096 30.789C7.62448 32.2026 9.54097 32.9977 11.54 33H25.46C27.459 32.9977 29.3755 32.2026 30.789 30.789C32.2026 29.3755 32.9977 27.459 33 25.46V11.54C32.9977 9.54097 32.2026 7.62448 30.789 6.21096C29.3755 4.79743 27.459 4.0023 25.46 4ZM31.84 25.46C31.8381 27.1515 31.1653 28.7732 29.9692 29.9692C28.7732 31.1653 27.1515 31.8381 25.46 31.84H11.54C9.84851 31.8381 8.22684 31.1653 7.03078 29.9692C5.83471 28.7732 5.16192 27.1515 5.16 25.46V11.54C5.16192 9.84851 5.83471 8.22684 7.03078 7.03078C8.22684 5.83471 9.84851 5.16192 11.54 5.16H25.46C27.1515 5.16192 28.7732 5.83471 29.9692 7.03078C31.1653 8.22684 31.8381 9.84851 31.84 11.54V25.46ZM27.2 10.96C27.2 11.1894 27.132 11.4137 27.0045 11.6045C26.877 11.7952 26.6959 11.9439 26.4839 12.0317C26.2719 12.1195 26.0387 12.1425 25.8137 12.0977C25.5887 12.053 25.382 11.9425 25.2198 11.7802C25.0575 11.618 24.947 11.4113 24.9023 11.1863C24.8575 10.9613 24.8805 10.728 24.9683 10.5161C25.0561 10.3041 25.2048 10.123 25.3955 9.9955C25.5863 9.86803 25.8106 9.8 26.04 9.8C26.3477 9.8 26.6427 9.92221 26.8602 10.1398C27.0778 10.3573 27.2 10.6523 27.2 10.96Z" fill="#9D9D9D"/>
</svg>
