<svg width="38" height="38" viewBox="0 0 38 38" fill="none" xmlns="http://www.w3.org/2000/svg">
<path d="M11.4444 27.5556V16.2778M34 13.0556V25.9444C34 28.0809 33.1513 30.1299 31.6406 31.6406C30.1299 33.1513 28.0809 34 25.9444 34H13.0556C10.9191 34 8.87013 33.1513 7.35942 31.6406C5.84871 30.1299 5 28.0809 5 25.9444V13.0556C5 10.9191 5.84871 8.87013 7.35942 7.35942C8.87013 5.84871 10.9191 5 13.0556 5H25.9444C28.0809 5 30.1299 5.84871 31.6406 7.35942C33.1513 8.87013 34 10.9191 34 13.0556Z" stroke="#9D9D9D" stroke-width="1.5" stroke-linecap="round" stroke-linejoin="round"/>
<path d="M17.4 27V21.8005M17.4 21.8005V15.8011M17.4 21.8005C17.4 15.8011 27 15.8011 27 21.8005V27M11 11.0176L11.016 11" stroke="#9D9D9D" stroke-width="1.5" stroke-linecap="round" stroke-linejoin="round"/>
</svg>
