<svg width="32" height="32" viewBox="0 0 32 32" fill="none" xmlns="http://www.w3.org/2000/svg">
<path d="M28.7846 13.4454L18.9661 3.22419C18.8631 3.11712 18.732 3.04422 18.5892 3.01469C18.4465 2.98517 18.2985 3.00035 18.164 3.05832C18.0296 3.11628 17.9146 3.21443 17.8337 3.34037C17.7527 3.46632 17.7095 3.6144 17.7094 3.76592V9.1576C11.023 9.61627 2.93373 16.1847 2.00833 24.5737C1.97828 24.8409 2.02997 25.111 2.15604 25.3458C2.28211 25.5806 2.47613 25.7679 2.71046 25.8812C2.94479 25.9944 3.20748 26.0278 3.46111 25.9766C3.71474 25.9254 3.94636 25.7921 4.123 25.5958C5.50495 24.0614 10.4682 19.1744 17.7094 18.8588V24.2083C17.7095 24.3598 17.7527 24.5079 17.8337 24.6339C17.9146 24.7598 18.0296 24.858 18.164 24.9159C18.2985 24.9739 18.4465 24.9891 18.5892 24.9595C18.732 24.93 18.8631 24.8571 18.9661 24.75L28.7846 14.5288C28.9225 14.3851 29 14.1903 29 13.9871C29 13.784 28.9225 13.5891 28.7846 13.4454ZM19.1821 22.3583V18.0756C19.1821 17.8723 19.1046 17.6773 18.9665 17.5335C18.8284 17.3898 18.6411 17.309 18.4457 17.309C15.0424 17.309 11.725 18.2353 8.58796 20.0623C6.75954 21.1316 5.07532 22.4484 3.5793 23.9783C4.15613 20.5849 6.05356 17.3346 8.97948 14.7448C11.8759 12.1907 15.4131 10.6652 18.4457 10.6652C18.6411 10.6652 18.8284 10.5845 18.9665 10.4407C19.1046 10.2969 19.1821 10.1019 19.1821 9.89864V5.61723L27.2223 13.9871L19.1821 22.3583Z" fill="#00ADE5"/>
</svg>
