<svg width="33" height="33" viewBox="0 0 33 33" fill="none" xmlns="http://www.w3.org/2000/svg">
<path d="M30.9912 5.09442C30.9912 4.97489 30.9589 4.8575 30.8977 4.75416C30.8364 4.65083 30.7484 4.56523 30.6426 4.50608C30.5367 4.44692 30.4168 4.41631 30.2949 4.41736C30.1731 4.4184 30.0537 4.45106 29.949 4.51202C28.9774 5.07964 27.9222 5.49632 26.8208 5.74725C25.6171 4.61972 24.0151 3.99351 22.3509 4.00005C21.447 4.00131 20.5532 4.18664 19.7261 4.54432C18.899 4.90199 18.1565 5.42422 17.5458 6.07796C16.935 6.7317 16.4692 7.50271 16.1778 8.34221C15.8864 9.1817 15.7758 10.0714 15.853 10.955C11.6801 10.5199 7.85121 8.48505 5.19999 5.29352C5.12922 5.20873 5.03855 5.14206 4.93574 5.09922C4.83293 5.05639 4.72106 5.03868 4.60974 5.0476C4.49841 5.05652 4.39096 5.09182 4.2966 5.15046C4.20225 5.2091 4.1238 5.28933 4.06801 5.38427C3.49528 6.36418 3.19401 7.47413 3.19417 8.60372C3.19249 9.84346 3.55793 11.057 4.24609 12.0968L4.16326 12.0521C4.0551 12 3.93501 11.9763 3.81474 11.9835C3.69447 11.9906 3.57815 12.0282 3.47717 12.0927C3.37195 12.1598 3.28559 12.2518 3.22601 12.3602C3.16644 12.4686 3.13555 12.5899 3.13619 12.713C3.13067 12.8728 3.14033 13.034 3.16656 13.1911C3.23181 14.0854 3.48915 14.9559 3.92169 15.7456C4.35423 16.5353 4.95218 17.2263 5.67625 17.7731C5.588 17.7986 5.50583 17.8412 5.43458 17.8983C5.36333 17.9554 5.30443 18.0259 5.26134 18.1056C5.21826 18.1854 5.19186 18.2727 5.18369 18.3626C5.17552 18.4526 5.18576 18.5432 5.21379 18.6291C5.53268 19.6047 6.08667 20.4904 6.82876 21.2112C7.57085 21.932 8.47916 22.4666 9.47667 22.7696C7.43977 23.8884 5.09385 24.345 2.77589 24.0739C2.62056 24.0548 2.46324 24.0881 2.32975 24.1683C2.19626 24.2486 2.09452 24.3709 2.04123 24.5153C1.98794 24.6597 1.98626 24.8176 2.03648 24.9631C2.08669 25.1086 2.18581 25.233 2.31758 25.3159C5.09155 27.0683 8.32125 27.9998 11.6205 27.999C15.3632 28.0395 19.0146 26.8656 22.007 24.6596C24.9993 22.4536 27.1649 19.3394 28.1668 15.8011C28.6348 14.2611 28.8736 12.6616 28.8763 11.0539C28.8763 10.8913 28.8763 10.722 28.8722 10.55C29.5902 9.83376 30.1491 8.97934 30.5138 8.04061C30.8785 7.10188 31.0411 6.09784 30.9912 5.09442ZM27.645 9.87958C27.5316 10.0111 27.4738 10.1803 27.4834 10.3523C27.5589 12.0644 27.3424 13.7769 26.8429 15.4191C25.952 18.6917 23.9678 21.5764 21.208 23.6116C18.4481 25.6468 15.0722 26.7147 11.6205 26.6446C9.51397 26.6446 7.42865 26.2316 5.48712 25.4297C7.76891 25.1813 9.93352 24.3083 11.7337 22.9104C11.8457 22.824 11.9277 22.7058 11.9685 22.5718C12.0093 22.4379 12.0068 22.2949 11.9614 22.1624C11.9161 22.0299 11.83 21.9144 11.7151 21.8318C11.6002 21.7492 11.462 21.7035 11.3196 21.7009C10.436 21.6868 9.57122 21.4487 8.80924 21.0096C8.04726 20.5705 7.41403 19.9455 6.97112 19.1953C7.55782 19.1966 8.14038 19.1181 8.70222 18.9596C8.85031 18.917 8.97957 18.827 9.06939 18.7039C9.1592 18.5808 9.20437 18.4317 9.1977 18.2804C9.19102 18.1292 9.13288 17.9845 9.03256 17.8694C8.93224 17.7544 8.79552 17.6757 8.64424 17.6458C7.6561 17.4518 6.74835 16.9758 6.03491 16.2775C5.32147 15.5792 4.83412 14.6897 4.634 13.7207C5.22025 13.9072 5.83052 14.0112 6.44655 14.0295C6.59832 14.0405 6.74925 13.9992 6.87326 13.9127C6.99727 13.8261 7.08657 13.6998 7.12573 13.5555C7.17083 13.4154 7.16828 13.2648 7.11848 13.1262C7.06868 12.9877 6.97432 12.8688 6.84964 12.7875C6.14732 12.3288 5.57189 11.7065 5.17486 10.9761C4.77784 10.2457 4.57161 9.43012 4.57464 8.60236C4.57464 8.04299 4.66713 7.48768 4.85073 6.95945C7.91126 10.202 12.1415 12.1435 16.6399 12.3704C16.7474 12.3816 16.856 12.3652 16.955 12.3227C17.054 12.2802 17.14 12.213 17.2045 12.1279C17.273 12.0474 17.3214 11.9524 17.3461 11.8504C17.3708 11.7484 17.371 11.6422 17.3467 11.5401C17.2556 11.1665 17.2092 10.7838 17.2086 10.3997C17.2101 9.06215 17.7521 7.77978 18.7158 6.83376C19.6795 5.88773 20.9863 5.35527 22.3495 5.35311C23.0517 5.35115 23.7467 5.49205 24.3906 5.76689C25.0345 6.04174 25.6133 6.44458 26.0906 6.94997C26.1707 7.03385 26.2713 7.09628 26.3829 7.13136C26.4945 7.16644 26.6134 7.173 26.7283 7.15043C27.7079 6.96119 28.6605 6.65602 29.5652 6.24161C29.33 7.62218 28.659 8.89503 27.645 9.87958Z" fill="#9D9D9D"/>
</svg>
