<svg width="23" height="23" viewBox="0 0 23 23" fill="none" xmlns="http://www.w3.org/2000/svg">
<circle cx="11.5" cy="11.5" r="11.5" fill="white"/>
<path d="M12.8804 14.1151L13.7928 13.2028C13.9157 13.0815 14.0711 12.9984 14.2403 12.9637C14.4095 12.929 14.5851 12.9441 14.7458 13.0073L15.8577 13.4513C16.0202 13.5172 16.1595 13.6297 16.258 13.7747C16.3566 13.9197 16.4101 14.0905 16.4117 14.2658V16.3023C16.4107 16.4215 16.3856 16.5394 16.338 16.6487C16.2903 16.758 16.221 16.8565 16.1342 16.9383C16.0475 17.0201 15.945 17.0835 15.8331 17.1247C15.7212 17.1659 15.6021 17.184 15.483 17.178C7.69154 16.6933 6.1194 10.0952 5.82207 7.56997C5.80827 7.44596 5.82088 7.32044 5.85908 7.20166C5.89727 7.08288 5.96018 6.97353 6.04367 6.8808C6.12716 6.78808 6.22933 6.71409 6.34347 6.66369C6.45761 6.61329 6.58113 6.58763 6.7059 6.5884H8.67312C8.84866 6.58892 9.02004 6.64194 9.1652 6.74065C9.31037 6.83937 9.42268 6.97925 9.4877 7.14231L9.93165 8.25422C9.99692 8.41431 10.0136 8.59009 9.97952 8.75959C9.94548 8.92909 9.86225 9.08481 9.74022 9.20728L8.82789 10.1196C8.82789 10.1196 9.35329 13.6753 12.8804 14.1151Z" fill="#00ADE5"/>
</svg>
