<svg width="18" height="15" viewBox="0 0 18 15" fill="none" xmlns="http://www.w3.org/2000/svg">
<path d="M16.7647 0H1.23529C0.907674 0 0.593472 0.128633 0.361809 0.357602C0.130147 0.586571 0 0.897119 0 1.22093V13.7791C0 14.1029 0.130147 14.4134 0.361809 14.6424C0.593472 14.8714 0.907674 15 1.23529 15H16.7647C17.0923 15 17.4065 14.8714 17.6382 14.6424C17.8699 14.4134 18 14.1029 18 13.7791V1.22093C18 0.897119 17.8699 0.586571 17.6382 0.357602C17.4065 0.128633 17.0923 0 16.7647 0ZM1.23529 1.04651H16.7647C16.8115 1.04651 16.8564 1.06489 16.8895 1.0976C16.9226 1.13031 16.9412 1.17467 16.9412 1.22093V10.602L14.3409 8.03198C14.2262 7.91859 14.09 7.82865 13.9401 7.76728C13.7902 7.70591 13.6296 7.67433 13.4674 7.67433C13.3051 7.67433 13.1445 7.70591 12.9946 7.76728C12.8447 7.82865 12.7085 7.91859 12.5938 8.03198L10.7038 9.9L6.69706 5.93895C6.58235 5.82557 6.44617 5.73562 6.29629 5.67426C6.1464 5.61289 5.98576 5.58131 5.82353 5.58131C5.6613 5.58131 5.50066 5.61289 5.35077 5.67426C5.20089 5.73562 5.06471 5.82557 4.95 5.93895L1.05882 9.78488V1.22093C1.05882 1.17467 1.07742 1.13031 1.11051 1.0976C1.14361 1.06489 1.18849 1.04651 1.23529 1.04651ZM1.05882 13.7791V11.2648L5.69824 6.67936C5.71464 6.66301 5.73416 6.65004 5.75566 6.64118C5.77717 6.63233 5.80023 6.62777 5.82353 6.62777C5.84683 6.62777 5.86989 6.63233 5.8914 6.64118C5.9129 6.65004 5.93242 6.66301 5.94882 6.67936L13.3085 13.9535H1.23529C1.18849 13.9535 1.14361 13.9351 1.11051 13.9024C1.07742 13.8697 1.05882 13.8253 1.05882 13.7791ZM16.7647 13.9535H14.8059L11.4529 10.6395L13.3421 8.77151C13.3584 8.75529 13.3779 8.74243 13.3993 8.73365C13.4208 8.72487 13.4437 8.72036 13.4669 8.72036C13.4901 8.72036 13.5131 8.72487 13.5345 8.73365C13.5559 8.74243 13.5754 8.75529 13.5918 8.77151L16.9447 12.0855V13.7791C16.9447 13.8023 16.94 13.8252 16.9309 13.8466C16.9219 13.868 16.9085 13.8874 16.8918 13.9037C16.875 13.9199 16.8551 13.9327 16.8333 13.9412C16.8115 13.9498 16.7882 13.954 16.7647 13.9535ZM10.5882 5.05814C10.5882 4.88566 10.64 4.71705 10.7369 4.57363C10.8339 4.43022 10.9717 4.31844 11.1329 4.25243C11.2942 4.18642 11.4716 4.16915 11.6427 4.2028C11.8139 4.23645 11.9711 4.31951 12.0945 4.44148C12.2179 4.56344 12.3019 4.71883 12.336 4.888C12.37 5.05717 12.3526 5.23252 12.2858 5.39187C12.219 5.55123 12.1059 5.68743 11.9608 5.78326C11.8157 5.87909 11.6451 5.93023 11.4706 5.93023C11.2366 5.93023 11.0121 5.83835 10.8467 5.6748C10.6812 5.51125 10.5882 5.28943 10.5882 5.05814Z" fill="#6D6D6D"/>
</svg>
