<svg width="12" height="14" viewBox="0 0 12 14" fill="none" xmlns="http://www.w3.org/2000/svg">
<path d="M6.00002 7.00004C6.36669 7.00004 6.68069 6.86937 6.94202 6.60804C7.20335 6.34671 7.3338 6.03293 7.33335 5.66671C7.33335 5.30004 7.20269 4.98604 6.94135 4.72471C6.68002 4.46337 6.36624 4.33293 6.00002 4.33337C5.63335 4.33337 5.31935 4.46404 5.05802 4.72537C4.79669 4.98671 4.66624 5.30048 4.66669 5.66671C4.66669 6.03337 4.79735 6.34737 5.05869 6.60871C5.32002 6.87004 5.6338 7.00048 6.00002 7.00004ZM6.00002 13.6667C4.21113 12.1445 2.87513 10.7307 1.99202 9.42537C1.10891 8.12004 0.667131 6.9116 0.666687 5.80004C0.666687 4.13337 1.20291 2.8056 2.27535 1.81671C3.3478 0.827818 4.58935 0.333374 6.00002 0.333374C7.41113 0.333374 8.65291 0.827818 9.72535 1.81671C10.7978 2.8056 11.3338 4.13337 11.3334 5.80004C11.3334 6.91115 10.8916 8.1196 10.008 9.42537C9.12446 10.7312 7.78847 12.1449 6.00002 13.6667Z" fill="#A8A8A8"/>
</svg>
