<svg width="13" height="13" viewBox="0 0 13 13" fill="none" xmlns="http://www.w3.org/2000/svg">
<path d="M6.5 13C10.0881 13 13 10.0878 13 6.5C13 2.91195 10.0881 0 6.5 0C2.91195 0 0 2.91195 0 6.5C0 10.0881 2.91195 13 6.5 13ZM1.48202 9.75014H3.77004C4.08202 10.8421 4.52404 11.7262 5.0701 12.2981C3.588 11.9341 2.31404 11.0241 1.48205 9.75014H1.48202ZM1.19604 3.76996H3.66611C3.51006 4.52395 3.40614 5.356 3.38012 6.24003H0.519989C0.572004 5.356 0.806086 4.49796 1.19609 3.76996H1.19604ZM12.4803 6.24003H9.62015C9.59415 5.356 9.51612 4.52395 9.33417 3.76996H11.8042C12.1941 4.49796 12.4282 5.356 12.4802 6.24003H12.4803ZM11.8042 9.22998H9.33411C9.49016 8.47599 9.59408 7.64394 9.6201 6.75991H12.4802C12.4283 7.64394 12.1942 8.50198 11.8042 9.22998H11.8042ZM6.2402 9.75003V12.4281C5.46019 12.246 4.75821 11.206 4.34218 9.75003H6.2402ZM4.21214 9.22998C4.03009 8.47599 3.92616 7.64394 3.92616 6.75991H6.26619V9.22998H4.21214ZM6.76013 12.4539V9.74992H8.65815C8.24224 11.2319 7.54014 12.2719 6.76013 12.4539ZM6.76013 9.22998V6.75991H9.10017C9.07416 7.64394 8.97013 8.47599 8.81418 9.22998H6.76013ZM9.10017 6.24003H6.76013V3.76996H8.78819C8.97024 4.52395 9.07418 5.356 9.10017 6.24003ZM6.76013 3.2498V0.545785C7.54014 0.72784 8.24213 1.76781 8.65815 3.22381H6.76013V3.2498ZM6.2402 0.545785V3.22381H4.34218C4.7581 1.76781 5.46019 0.727834 6.2402 0.545785ZM6.2402 3.76974V6.23981H3.90017C3.92617 5.35578 4.03021 4.52373 4.18615 3.76974H6.2402ZM3.38007 6.75969C3.40607 7.64372 3.4841 8.47577 3.66605 9.22976H1.19609C0.806086 8.50176 0.572027 7.64372 0.519989 6.75969H3.38007ZM7.93004 12.2978C8.4761 11.7257 8.91801 10.8418 9.23009 9.74978H11.5181C10.6861 11.0237 9.41212 11.9338 7.93004 12.2978ZM11.5181 3.24964H9.23007C8.91809 2.15765 8.47607 1.27359 7.93001 0.701648C9.41212 1.06563 10.6861 1.97568 11.5181 3.24964ZM5.07018 0.701648C4.52412 1.2737 4.08222 2.15765 3.77013 3.24964H1.4821C2.31413 1.97571 3.58808 1.06566 5.07016 0.701648H5.07018Z" fill="#777777"/>
</svg>
