<svg width="40" height="45" viewBox="0 0 40 45" fill="none" xmlns="http://www.w3.org/2000/svg">
<path d="M29.3802 13.6403C28.81 13.6492 28.243 13.7287 27.693 13.8774V14.6475C27.6959 14.9711 27.5084 15.2665 27.2134 15.4031C26.9379 15.5267 26.6735 15.6731 26.4229 15.8411C26.1445 16.0182 25.7896 16.0268 25.5029 15.8626L24.8084 15.4772V15.4769C23.9554 16.2797 23.3421 17.3011 23.0367 18.4285L24.2404 19.0966C24.117 19.712 24.117 20.3459 24.2404 20.9613L23.037 21.6294V21.6291C23.3409 22.757 23.9528 23.7792 24.8048 24.5829L25.5026 24.1956L25.5029 24.1953C25.7896 24.0314 26.1445 24.0396 26.4231 24.2168C26.6735 24.3848 26.9378 24.5312 27.2133 24.6545C27.5083 24.7914 27.6958 25.0868 27.6926 25.4104V26.1837V26.1833C28.8534 26.4977 30.0775 26.4965 31.2376 26.1805V25.4104C31.2344 25.0868 31.422 24.7914 31.7172 24.6545C31.9924 24.5312 32.2571 24.3848 32.5074 24.2168C32.7861 24.0396 33.141 24.0314 33.4277 24.1956L34.1222 24.581C34.9752 23.7782 35.5884 22.7567 35.8939 21.6294L34.6901 20.9613C34.8135 20.3458 34.8135 19.712 34.6901 19.0965L35.8936 18.4284V18.4288C35.5897 17.3008 34.9777 16.2787 34.1254 15.475L33.4277 15.8623V15.8626C33.141 16.0268 32.7861 16.0182 32.5077 15.8411C32.257 15.6731 31.9924 15.5267 31.7172 15.4031C31.4219 15.2665 31.2347 14.9711 31.2376 14.6475V13.8742C30.632 13.7123 30.007 13.6333 29.3801 13.6403L29.3802 13.6403ZM31.9654 19.958C31.9654 20.6168 31.702 21.2488 31.2332 21.715C30.7642 22.1809 30.1283 22.4427 29.4654 22.4427C28.8024 22.4427 28.1666 22.1809 27.6975 21.715C27.2287 21.2488 26.9653 20.6168 26.9653 19.958C26.9653 19.2991 27.2287 18.6671 27.6975 18.2009C28.1666 17.735 28.8024 17.4732 29.4654 17.4732C30.1283 17.4732 30.7642 17.735 31.2332 18.2009C31.702 18.6671 31.9654 19.2991 31.9654 19.958Z" fill="#61C7E8"/>
<path d="M39.4604 27.1279H0.540609C0.383398 27.1282 0.234164 27.197 0.13244 27.3162C0.0291238 27.4363 -0.0167955 27.5944 0.00552322 27.7507C1.33591 37.1087 9.93138 44.1657 20.0001 44.1657C30.0688 44.1657 38.6649 37.1087 39.9947 27.7507H39.9944C40.017 27.5944 39.9708 27.4363 39.8678 27.3162C39.766 27.197 39.6168 27.1282 39.4596 27.1279H39.4604ZM38.0149 31.1241C36.4788 31.7183 34.8126 31.9018 33.1829 31.6565C32.5327 31.5035 31.8649 31.4363 31.1969 31.4562C30.8688 31.4676 30.5521 31.5792 30.29 31.7754C30.0279 31.9719 29.8327 32.2438 29.7317 32.5541C29.6612 32.9318 29.8072 33.335 29.6739 33.6976C29.4769 34.2341 28.7843 34.4252 28.186 34.4759C26.0147 34.6604 23.6729 34.0421 21.7344 34.9846C21.3352 35.1789 20.9343 35.4911 20.9047 35.9148C20.8616 36.5246 21.5785 36.9293 21.7918 37.5061C22.1448 38.4594 21.0711 39.2892 20.567 40.1794V40.1797C20.3291 40.6307 20.227 41.1403 20.2726 41.6477C20.3185 42.1551 20.5102 42.6384 20.8249 43.0403C20.5501 43.0514 20.278 43.0751 20.0006 43.0751V43.0755C15.8127 43.0815 11.7311 41.7675 8.34164 39.323C8.45357 39.2058 8.57825 39.1012 8.71314 39.0109C9.05052 38.8403 9.36653 38.6305 9.65446 38.3862C9.87226 38.0857 9.98164 37.7216 9.96569 37.3521C9.94975 36.9822 9.80912 36.6285 9.56645 36.348C9.06613 35.7817 8.51223 35.2645 7.91239 34.803C7.31034 34.3387 6.97523 33.6111 7.01507 32.8551C7.19715 32.1861 7.69142 31.6451 8.3435 31.4001C9.304 31.0733 10.2896 30.8261 11.2909 30.6607C12.7689 30.2696 14.0795 29.4129 15.0256 28.2184H38.8244C38.6423 29.2091 38.3712 30.1818 38.0144 31.124L38.0149 31.1241Z" fill="#61C7E8"/>
<path d="M12.322 0.151002C9.86817 0.142127 7.51132 1.10246 5.7699 2.82046C4.02849 4.53887 3.04505 6.87431 3.03615 9.31302C3.03615 16.4445 8.3848 21.5439 12.322 27.1275C15.9458 21.7644 21.6079 16.125 21.6079 9.31302C21.5989 6.87423 20.6155 4.53879 18.8741 2.82046C17.1327 1.10238 14.7758 0.142077 12.322 0.151002ZM17.6792 12.9093V11.51C17.6783 11.1338 17.5271 10.7732 17.2596 10.5073C16.992 10.2414 16.6291 10.0912 16.2507 10.0902H14.1078C13.7293 10.0912 13.3664 10.2414 13.0989 10.5073C12.8313 10.7732 12.6802 11.1339 12.6792 11.51V14.3497H16.3585C15.2162 15.2685 13.7915 15.7696 12.3221 15.7696C10.8527 15.7696 9.4279 15.2685 8.28568 14.3497H11.9649V11.51C11.964 11.1338 11.8128 10.7732 11.5453 10.5073C11.2777 10.2414 10.9148 10.0912 10.5364 10.0902H8.39347C8.01496 10.0912 7.65207 10.2414 7.38455 10.5073C7.11704 10.7732 6.96586 11.1339 6.96491 11.51V12.9093C6.10424 11.6197 5.74358 10.0633 5.9502 8.52935C6.15716 6.99544 6.91707 5.58826 8.08892 4.56905C9.26078 3.5501 10.765 2.98825 12.322 2.98825C13.8791 2.98825 15.3833 3.55016 16.5552 4.56905C17.727 5.58826 18.487 6.99544 18.6939 8.52935C18.9005 10.0633 18.5399 11.6197 17.6792 12.9093Z" fill="#61C7E8"/>
<path d="M16.6078 8.66955C16.6078 9.45337 15.9681 10.0889 15.1792 10.0889C14.3903 10.0889 13.7506 9.45337 13.7506 8.66955C13.7506 7.88573 14.3903 7.25018 15.1792 7.25018C15.9681 7.25018 16.6078 7.88573 16.6078 8.66955Z" fill="#61C7E8"/>
<path d="M13.7506 5.82989C13.7506 6.61371 13.1109 7.24925 12.322 7.24925C11.5331 7.24925 10.8934 6.61371 10.8934 5.82989C10.8934 5.04606 11.5331 4.41052 12.322 4.41052C13.1109 4.41052 13.7506 5.04606 13.7506 5.82989Z" fill="#61C7E8"/>
<path d="M10.8934 8.66955C10.8934 9.45337 10.2537 10.0889 9.46482 10.0889C8.6759 10.0889 8.03622 9.45337 8.03622 8.66955C8.03622 7.88573 8.6759 7.25018 9.46482 7.25018C10.2537 7.25018 10.8934 7.88573 10.8934 8.66955Z" fill="#61C7E8"/>
</svg>
