<svg width="32" height="31" viewBox="0 0 32 31" fill="none" xmlns="http://www.w3.org/2000/svg">
<path d="M0 22.6342V24.195C0 24.6243 0.351158 24.9754 0.780421 24.9754H31.2196C31.6489 24.9754 32 24.6243 32 24.195V22.6342H0Z" fill="#61C7E8"/>
<path d="M26.3493 13.6153C26.205 13.3967 25.963 13.2679 25.7014 13.2679H22.6341V15.6096C22.6341 16.4681 21.9317 17.1704 21.0732 17.1704H10.9268C10.0644 17.1704 9.36598 16.4681 9.36598 15.6096V13.2679H6.29865C6.03705 13.2679 5.79532 13.3967 5.65078 13.6153L0.679047 21.0732H31.321L26.3493 13.6153Z" fill="#61C7E8"/>
<path d="M3.12197 28.8781H1.56112C1.13184 28.8781 0.780701 29.2292 0.780701 29.6585C0.780701 30.0878 1.13186 30.4389 1.56112 30.4389H3.12197C3.55125 30.4389 3.90239 30.0877 3.90239 29.6585C3.90239 29.2292 3.55123 28.8781 3.12197 28.8781Z" fill="#61C7E8"/>
<path d="M21.0733 15.6097V9.00278L16 5.61914L10.9267 9.0025V15.6096H15.2196V12.4876C15.2196 12.0545 15.5669 11.7072 16 11.7072C16.4293 11.7072 16.7804 12.0545 16.7804 12.4876V15.6096L21.0733 15.6097Z" fill="#61C7E8"/>
<path d="M22.6342 0.780422C22.6342 0.347333 22.2831 0 21.8538 0C21.4207 0 21.0734 0.347347 21.0734 0.780422V3.22329L22.6342 4.26531V0.780422Z" fill="#61C7E8"/>
<path d="M9.03001 7.85567C9.30713 8.00403 9.63106 7.98824 9.8965 7.81266L15.5667 4.03104C15.8283 3.85928 16.1716 3.85928 16.4332 4.03104L22.1034 7.81266C22.3688 7.98824 22.6886 8.00376 22.9699 7.85567C23.247 7.70732 23.4147 7.4302 23.4147 7.11037C23.4147 6.82945 23.2742 6.56785 23.0401 6.4119L15.9996 1.71704L8.95989 6.4119C8.72579 6.56788 8.58533 6.82948 8.58533 7.11037C8.58533 7.42642 8.75301 7.70734 9.03012 7.85567H9.03001Z" fill="#61C7E8"/>
<path d="M8.58541 28.8781H7.02456C6.59528 28.8781 6.24414 29.2292 6.24414 29.6585C6.24414 30.0878 6.5953 30.4389 7.02456 30.4389H8.58541C9.01469 30.4389 9.36583 30.0877 9.36583 29.6585C9.36583 29.2292 9.01467 28.8781 8.58541 28.8781Z" fill="#61C7E8"/>
<path d="M14.0488 28.8781H12.488C12.0587 28.8781 11.7076 29.2292 11.7076 29.6585C11.7076 30.0878 12.0587 30.4389 12.488 30.4389H14.0488C14.4781 30.4389 14.8293 30.0877 14.8293 29.6585C14.8293 29.2292 14.4781 28.8781 14.0488 28.8781Z" fill="#61C7E8"/>
<path d="M19.5123 28.8781H17.9514C17.5222 28.8781 17.171 29.2292 17.171 29.6585C17.171 30.0878 17.5222 30.4389 17.9514 30.4389H19.5123C19.9416 30.4389 20.2927 30.0877 20.2927 29.6585C20.293 29.2292 19.9415 28.8781 19.5123 28.8781Z" fill="#61C7E8"/>
<path d="M24.9757 28.8781H23.4149C22.9856 28.8781 22.6345 29.2292 22.6345 29.6585C22.6345 30.0878 22.9856 30.4389 23.4149 30.4389H24.9757C25.405 30.4389 25.7561 30.0877 25.7561 29.6585C25.7561 29.2292 25.405 28.8781 24.9757 28.8781Z" fill="#61C7E8"/>
<path d="M30.4392 28.8781H28.8783C28.449 28.8781 28.0979 29.2292 28.0979 29.6585C28.0979 30.0878 28.4491 30.4389 28.8783 30.4389H30.4392C30.8684 30.4389 31.2196 30.0877 31.2196 29.6585C31.2196 29.2292 30.8684 28.8781 30.4392 28.8781Z" fill="#61C7E8"/>
</svg>
