<svg width="30" height="24" viewBox="0 0 30 24" fill="none" xmlns="http://www.w3.org/2000/svg">
<path d="M28.5924 17.6722C27.8815 17.3743 27.1067 17.0333 26.3377 16.8661C25.3322 16.5824 24.4835 16.6978 24.1214 16.7675C23.1618 16.9459 22.2586 17.2523 21.392 17.6742C20.9868 17.8724 20.4175 18.0257 19.684 17.9392C19.684 17.928 19.6896 3.92074 19.6896 3.92074C19.6896 1.75782 18.0951 0 15.9378 0C13.7796 0 12.186 1.75799 12.186 3.92074V5.16653C12.186 5.68707 12.6043 6.10616 13.124 6.10616C13.6418 6.10616 14.062 5.6871 14.062 5.16653L14.0618 3.9197C14.0618 2.79497 14.814 1.878 15.9376 1.878C17.0594 1.878 17.8134 2.79497 17.8134 3.9197V6.43869L10.3098 8.55924L10.31 6.73838C10.31 4.57546 8.71549 2.81847 6.55736 2.81847C4.40006 2.81847 2.8066 4.57546 2.8066 6.73838V7.98604C2.8066 8.50558 3.22494 8.92568 3.74461 8.92568C4.26237 8.92568 4.68261 8.50576 4.68261 7.98604L4.68244 6.73838C4.68244 5.61366 5.4365 4.69774 6.55823 4.69774C7.67997 4.69774 8.43403 5.61387 8.43403 6.73838V17.6478C7.73249 17.3537 6.99236 17.0212 6.23456 16.8548C5.2301 16.572 4.3934 16.6866 4.02847 16.7571C3.06993 16.9355 2.19293 17.2899 1.30475 17.6639C0.826416 17.8639 0.403476 17.9542 0.00756038 17.9636C0.00195063 18.0444 -0.00280881 19.3616 0.00195063 19.9433C0.694129 19.8615 1.38735 19.5496 1.98654 19.2875C2.91788 18.8807 3.59035 18.4654 4.71125 18.3922C5.80579 18.3969 6.91921 18.8197 7.82527 19.2875C8.11221 19.436 9.09527 19.8606 9.2763 19.9133C9.58585 20.0006 9.87196 20.0148 10.1757 19.9875C10.3501 19.98 11.5281 19.6606 12.0496 19.4021C12.9623 18.9483 13.7201 18.4653 14.8437 18.3921C15.9374 18.3969 17.0066 18.8197 17.9145 19.2875C18.3179 19.4979 18.7333 19.699 19.1658 19.8192C19.2426 19.8494 19.314 19.8737 19.3647 19.8812C19.5382 19.916 19.7023 19.9301 19.8599 19.9338C19.8927 19.9357 19.9236 19.9338 19.9574 19.9338C20.0513 19.9338 20.1422 19.9301 20.2332 19.9189C20.2417 19.9178 20.2529 19.917 20.2614 19.916C20.9096 19.8417 21.4591 19.558 22.0641 19.2968C22.9965 18.8881 23.6671 18.4747 24.7897 18.4015C25.8834 18.4044 26.9976 18.8272 27.9056 19.2968C28.5087 19.6069 29.062 19.9357 30 19.9912V18.0228C29.0668 17.9972 29.0884 17.8799 28.5921 17.6722L28.5924 17.6722ZM17.8119 8.39135V12.0754L10.3083 14.196V10.5111L17.8119 8.39135ZM14.1625 16.7563C13.2021 16.9358 12.3232 17.29 11.4369 17.6639C11.026 17.8367 10.6527 17.9307 10.2936 17.9796C10.2953 17.9561 10.3085 17.9353 10.3085 17.911V16.1492L17.8122 14.0295V17.3416C17.3413 17.149 16.8592 16.9647 16.3667 16.8549C15.365 16.5731 14.5266 16.6877 14.1627 16.7563L14.1625 16.7563Z" fill="#00ADE5"/>
<path d="M26.3386 21.1707C25.3335 20.9157 24.485 21.02 24.123 21.0826C23.1637 21.2434 22.2824 21.6271 21.3945 21.9625C20.9163 22.142 20.4765 22.3038 20.0705 22.3038H20.0002C19.9626 22.3038 19.9261 22.2386 19.8895 22.2386C19.4948 22.2208 19.0747 22.0997 18.604 21.9218C17.8942 21.6551 17.1422 21.3308 16.3714 21.1782C15.3699 20.9233 14.5317 21.0198 14.1678 21.0817C13.2077 21.2434 12.331 21.5601 11.444 21.8946C10.978 22.0708 10.5523 22.1673 10.1501 22.2011C10.0872 22.2028 10.0197 22.2071 9.95601 22.2054C9.8894 22.2071 9.82567 22.202 9.76093 22.2003C9.36243 22.1664 8.93963 22.0665 8.47536 21.8905C7.76369 21.6237 7.01069 21.3146 6.2419 21.1639C5.23775 20.9082 4.40131 21.0123 4.03649 21.0751C3.07824 21.2368 2.20152 21.5577 1.31362 21.8923C0.835427 22.0727 0.412617 22.1548 0.0168236 22.1634C0.0113857 22.2352 0.00560802 22.3072 0 22.3792C0.0018693 22.9016 0.00662731 23.4225 0.0112156 23.9475C0.70318 23.8739 1.39619 23.5927 1.99519 23.3565C2.92625 22.9898 3.5985 22.6155 4.71906 22.5495C5.81326 22.5538 6.92634 22.9357 7.83212 23.3565C8.11897 23.4903 9.10172 23.8739 9.2827 23.9205C9.59215 24.0002 9.87817 24.012 10.1818 23.9882C10.3562 23.9814 11.5338 23.6926 12.0552 23.4605C12.9676 23.0506 13.7251 22.6153 14.8484 22.5493C15.9418 22.5536 17.0106 22.9355 17.9182 23.3563C18.3215 23.546 18.7368 23.7273 19.1691 23.8356C19.246 23.8628 19.3173 23.9153 19.368 23.9237C19.5415 23.955 19.7055 24 19.863 24H19.9605C20.0543 24 20.1453 23.967 20.2362 23.9569C20.2447 23.9569 20.2559 23.9391 20.2644 23.9391C20.9124 23.8731 21.4617 23.6088 22.0666 23.3726C22.9987 23.005 23.669 22.629 24.7913 22.5622C25.8847 22.5656 26.9986 22.9433 27.9062 23.3668C28.5091 23.647 29.0623 23.94 30 23.9917V22.2175C29.0623 22.1921 29.083 22.0871 28.5878 21.9C27.8819 21.6288 27.1074 21.323 26.3386 21.1707Z" fill="#00ADE5"/>
</svg>
