<svg width="12" height="11" viewBox="0 0 12 11" fill="none" xmlns="http://www.w3.org/2000/svg">
<path d="M10.3877 1.61193C9.34948 0.574015 7.9668 0 6.49741 0C5.00225 0 3.60082 0.590415 2.55795 1.66113C2.44546 1.77827 2.44781 1.96571 2.56264 2.08051C2.67982 2.19297 2.8673 2.19063 2.98213 2.07583C3.91485 1.11991 5.16161 0.595101 6.49741 0.595101C9.20652 0.592758 11.4071 2.7951 11.4071 5.50117C11.4071 8.20724 9.20418 10.4096 6.49741 10.4096C3.79065 10.4096 1.58774 8.20958 1.58774 5.50117V5.44026L2.07753 5.92992C2.13378 5.98616 2.21111 6.01661 2.28845 6.01661C2.36578 6.01661 2.43843 5.98616 2.49937 5.92992C2.61654 5.81278 2.61654 5.62535 2.49937 5.51054L1.50806 4.5148C1.39088 4.39766 1.2034 4.39766 1.08857 4.5148L0.087882 5.5082C-0.029294 5.62535 -0.029294 5.81278 0.087882 5.92758C0.205058 6.04473 0.39254 6.04473 0.507372 5.92758L0.997168 5.43791V5.49883C0.997168 6.96784 1.56899 8.35016 2.60951 9.38807C3.65003 10.426 5.03037 11 6.49976 11C7.96914 11 9.35182 10.4283 10.39 9.38807C11.4282 8.34782 12 6.97018 12 5.50117C12 4.03216 11.4282 2.64984 10.3877 1.61193Z" fill="white"/>
<path d="M7.51881 3.08368L4.08296 6.52126C3.97235 6.63208 3.97235 6.80939 4.08296 6.91799C4.13606 6.97119 4.20907 7 4.28208 7C4.35509 7 4.42367 6.97119 4.48119 6.91799L7.91704 3.47597C8.02766 3.36516 8.02766 3.18785 7.91704 3.07924C7.80642 2.97286 7.62721 2.97286 7.51881 3.08368Z" fill="white"/>
<path d="M7.29204 6.29392C6.90265 6.68287 6.90265 7.31934 7.29204 7.70608C7.48009 7.89392 7.7323 8 8 8C8.2677 8 8.51991 7.89613 8.70796 7.70608C9.09735 7.31713 9.09735 6.68066 8.70796 6.29392C8.51991 6.10608 8.2677 6 8 6C7.7323 6 7.48451 6.10387 7.29204 6.29392ZM8.31416 7.31271C8.23009 7.39669 8.12168 7.44088 8.00221 7.44088C7.88274 7.44088 7.77434 7.39448 7.69027 7.31271C7.5177 7.14033 7.5177 6.86188 7.69027 6.6895C7.77434 6.60553 7.88274 6.56133 8.00221 6.56133C8.12168 6.56133 8.23009 6.60774 8.31416 6.6895C8.48673 6.86188 8.48673 7.14033 8.31416 7.31271Z" fill="white"/>
<path d="M5 3C4.73289 3 4.48124 3.10375 4.2936 3.2936C4.10596 3.48344 4 3.73289 4 4C4 4.26711 4.10375 4.51876 4.2936 4.7064C4.48344 4.89404 4.73289 5 5 5C5.26711 5 5.51876 4.89625 5.7064 4.7064C5.89404 4.51876 6 4.26711 6 4C6 3.73289 5.89625 3.48124 5.7064 3.2936C5.51656 3.10375 5.26932 3 5 3ZM5.31347 4.31126C5.22958 4.39514 5.12141 4.43929 5.00221 4.43929C4.883 4.43929 4.77483 4.39294 4.69095 4.31126C4.60706 4.22737 4.56291 4.11921 4.56291 4C4.56291 3.88079 4.60927 3.77263 4.69095 3.68874C4.77483 3.60486 4.883 3.56071 5.00221 3.56071C5.12141 3.56071 5.22958 3.60706 5.31347 3.68874C5.39735 3.77263 5.4415 3.88079 5.4415 4C5.43929 4.117 5.39514 4.22737 5.31347 4.31126Z" fill="white"/>
</svg>
