<svg width="35" height="35" viewBox="0 0 35 35" fill="none" xmlns="http://www.w3.org/2000/svg">
<path d="M33 3.9V15.6813C32.0303 14.6904 30.921 13.9292 29.672 13.3975C28.423 12.8658 27.1081 12.6 25.7273 12.6C25.4848 12.6 25.2424 12.6063 25 12.6188C24.7576 12.6314 24.5152 12.6614 24.2727 12.7087C24.2727 12.1529 24.0725 11.615 23.672 11.0949C23.2715 10.5748 22.6112 9.97695 21.6909 9.30125L14.0909 3.8275C14.0909 3.05417 14.376 2.38958 14.9462 1.83375C15.5164 1.27792 16.201 1 17 1H30.0909C30.8909 1 31.576 1.2842 32.1462 1.8526C32.7164 2.421 33.001 3.10347 33 3.9ZM24.2727 9.7H27.1818V6.8H24.2727V9.7ZM25.7273 30C23.7152 30 21.9998 29.2929 20.5811 27.8787C19.1624 26.4644 18.4536 24.7549 18.4545 22.75C18.4545 20.7442 19.1639 19.0341 20.5825 17.6199C22.0012 16.2057 23.7161 15.499 25.7273 15.5C27.7394 15.5 29.4548 16.2071 30.8735 17.6214C32.2921 19.0356 33.001 20.7451 33 22.75C33 24.7558 32.2907 26.4659 30.872 27.8801C29.4533 29.2943 27.7384 30.001 25.7273 30ZM25 23.475V26.375C25 26.5683 25.0727 26.7375 25.2182 26.8825C25.3636 27.0275 25.5333 27.1 25.7273 27.1C25.9212 27.1 26.0909 27.0275 26.2364 26.8825C26.3818 26.7375 26.4545 26.5683 26.4545 26.375V23.475H29.3636C29.5576 23.475 29.7273 23.4025 29.8727 23.2575C30.0182 23.1125 30.0909 22.9433 30.0909 22.75C30.0909 22.5567 30.0182 22.3875 29.8727 22.2425C29.7273 22.0975 29.5576 22.025 29.3636 22.025H26.4545V19.125C26.4545 18.9317 26.3818 18.7625 26.2364 18.6175C26.0909 18.4725 25.9212 18.4 25.7273 18.4C25.5333 18.4 25.3636 18.4725 25.2182 18.6175C25.0727 18.7625 25 18.9317 25 19.125V22.025H22.0909C21.897 22.025 21.7273 22.0975 21.5818 22.2425C21.4364 22.3875 21.3636 22.5567 21.3636 22.75C21.3636 22.9433 21.4364 23.1125 21.5818 23.2575C21.7273 23.4025 21.897 23.475 22.0909 23.475H25ZM1.00001 25.65V14.0863C1.00001 13.6029 1.1091 13.1558 1.32728 12.745C1.54546 12.3342 1.84849 11.9958 2.23637 11.73L9.50909 6.54625C10.0182 6.18375 10.5821 6.0025 11.2007 6.0025C11.8194 6.0025 12.3828 6.18375 12.8909 6.54625L20.1636 11.73C20.4788 11.9475 20.7392 12.2196 20.9447 12.5464C21.1503 12.8731 21.2899 13.2172 21.3636 13.5788C19.5939 14.4246 18.1816 15.6755 17.1265 17.3314C16.0715 18.9872 15.5445 20.7935 15.5455 22.75C15.5455 23.4992 15.6245 24.2425 15.7825 24.9801C15.9406 25.7177 16.1888 26.4243 16.5273 27.1H14.0909V18.4H8.27273V27.1H2.45455C2.04243 27.1 1.69673 26.9608 1.41746 26.6824C1.13819 26.404 0.999035 26.0599 1.00001 25.65Z" fill="#00ADE5"/>
</svg>
