<svg width="39" height="39" viewBox="0 0 39 39" fill="none" xmlns="http://www.w3.org/2000/svg">
<path d="M0.00807337 37.9969C-0.0801151 38.4124 0.573916 38.9042 1.00692 38.9966C0.958857 38.9966 1.06311 39.0043 1.00692 38.9966C1.38374 38.9966 1.92558 38.3586 2.00577 37.9969L3.00461 29.9994H10.9954L11.9942 37.9969C12.0744 38.3586 12.6243 38.9966 12.9931 38.9966C12.945 39.0043 13.0492 38.9966 12.9931 38.9966C13.426 38.9042 14.0801 38.4124 13.9919 37.9969L11.9942 28.9997C11.922 28.6458 11.3803 28.9997 10.9954 28.9997H3.00461L2.00577 16.0038C1.94964 15.5806 1.43986 14.9426 1.00692 15.0041C0.565854 15.0657 -0.0479902 15.5806 0.00807337 16.0038L2.00577 28.9997L0.00807337 37.9969Z" fill="#61C7E8"/>
<path d="M28.0043 28.9997C27.6274 28.9997 27.0858 28.6458 27.0056 28.9997L25.0081 37.9969C24.9199 38.4124 25.5738 38.9042 26.0068 38.9966C25.9507 38.9966 26.063 39.0043 26.0068 38.9966C26.3758 38.9966 26.9254 38.3586 27.0056 37.9969L28.0043 29.9994H35.9943L36.9931 37.9969C37.0733 38.3586 37.6229 38.9966 37.9918 38.9966C37.9357 39.0043 38.0479 38.9966 37.9918 38.9966C38.4249 38.9042 39.0868 38.4124 38.9906 37.9969L36.9931 28.9997L38.9906 16.0038C39.0547 15.5806 38.4329 15.0657 37.9918 15.0041C37.5507 14.9426 37.0572 15.5806 36.9931 16.0038L35.9943 28.9997H28.0043Z" fill="#61C7E8"/>
<path d="M17 38C17 38.4308 17.5664 39 18 39H21C21.4414 39 22 38.4308 22 38V24H29C29.4335 24 30 23.4308 30 23V20C30 19.5692 29.4335 19 29 19H20V15C20.78 14.8214 21.5128 14.5962 22 14C22.6464 14.791 23.8964 15 25 15C26.1036 15 27.3536 14.791 28 14C28.6463 14.791 28.8964 15 30 15C31.947 15 34 12.9344 34 11H5C5 12.9344 7.05305 15 9 15C10.1036 15 10.3537 14.791 11 14C11.6463 14.791 12.8964 15 14 15C15.1036 15 16.3537 14.791 17 14C17.4884 14.5977 18.2176 14.8222 19 15V19H10C9.56644 19 9 19.5692 9 20V23C9 23.4308 9.56644 24 10 24H17V38Z" fill="#61C7E8"/>
<path d="M19 0C8.00289 0 5.5123 7.57087 5 10H33C32.4838 7.57087 29.9971 0 19 0Z" fill="#61C7E8"/>
</svg>
