<svg width="26" height="26" viewBox="0 0 26 26" fill="none" xmlns="http://www.w3.org/2000/svg">
<path d="M24.9431 3.21298V11.9721C24.2192 11.2355 23.3912 10.6695 22.4589 10.2742C21.5266 9.87892 20.5451 9.68127 19.5144 9.68127C19.3334 9.68127 19.1525 9.68595 18.9715 9.69529C18.7906 9.70463 18.6096 9.72691 18.4286 9.76213C18.4286 9.34888 18.2792 8.94892 17.9802 8.56226C17.6813 8.1756 17.1884 7.73108 16.5015 7.22871L10.8285 3.15908C10.8285 2.58412 11.0413 2.09001 11.4669 1.67676C11.8925 1.26351 12.4035 1.05688 13 1.05688H22.7716C23.3687 1.05688 23.8801 1.26818 24.3057 1.69078C24.7313 2.11337 24.9438 2.62077 24.9431 3.21298ZM18.4286 7.52518H20.6001V5.36908H18.4286V7.52518ZM19.5144 22.6179C18.0125 22.6179 16.732 22.0921 15.6731 21.0407C14.6141 19.9892 14.085 18.7182 14.0857 17.2276C14.0857 15.7363 14.6152 14.4649 15.6741 13.4135C16.7331 12.362 18.0132 11.8367 19.5144 11.8374C21.0163 11.8374 22.2968 12.3631 23.3557 13.4146C24.4147 14.466 24.9438 15.737 24.9431 17.2276C24.9431 18.7189 24.4136 19.9903 23.3546 21.0418C22.2957 22.0932 21.0156 22.6186 19.5144 22.6179ZM18.9715 17.7666V19.9227C18.9715 20.0665 19.0258 20.1922 19.1344 20.3001C19.243 20.4079 19.3696 20.4618 19.5144 20.4618C19.6591 20.4618 19.7858 20.4079 19.8944 20.3001C20.003 20.1922 20.0573 20.0665 20.0573 19.9227V17.7666H22.2287C22.3735 17.7666 22.5002 17.7127 22.6087 17.6049C22.7173 17.4971 22.7716 17.3714 22.7716 17.2276C22.7716 17.0839 22.7173 16.9581 22.6087 16.8503C22.5002 16.7425 22.3735 16.6886 22.2287 16.6886H20.0573V14.5325C20.0573 14.3888 20.003 14.263 19.8944 14.1552C19.7858 14.0474 19.6591 13.9935 19.5144 13.9935C19.3696 13.9935 19.243 14.0474 19.1344 14.1552C19.0258 14.263 18.9715 14.3888 18.9715 14.5325V16.6886H16.8C16.6553 16.6886 16.5286 16.7425 16.42 16.8503C16.3115 16.9581 16.2572 17.0839 16.2572 17.2276C16.2572 17.3714 16.3115 17.4971 16.42 17.6049C16.5286 17.7127 16.6553 17.7666 16.8 17.7666H18.9715ZM1.05689 19.3837V10.7863C1.05689 10.4269 1.13832 10.0945 1.30118 9.78908C1.46404 9.48363 1.69023 9.23209 1.97976 9.03444L7.40844 5.18042C7.78845 4.91091 8.20935 4.77615 8.67115 4.77615C9.13295 4.77615 9.55349 4.91091 9.93277 5.18042L15.3614 9.03444C15.5967 9.19615 15.791 9.39847 15.9445 9.64139C16.0979 9.88431 16.2022 10.1402 16.2572 10.409C14.9362 11.0378 13.882 11.9678 13.0944 13.1989C12.3069 14.4301 11.9135 15.773 11.9142 17.2276C11.9142 17.7846 11.9732 18.3373 12.0912 18.8857C12.2092 19.434 12.3945 19.9594 12.6471 20.4618H10.8285V13.9935H6.48556V20.4618H2.14262C1.835 20.4618 1.57696 20.3583 1.36849 20.1513C1.16003 19.9443 1.05616 19.6884 1.05689 19.3837Z" fill="#E6E6E6"/>
</svg>
