<svg width="13" height="11" viewBox="0 0 13 11" fill="none" xmlns="http://www.w3.org/2000/svg">
<path d="M12.8963 4.99562L8.16888 0.107223C8.11929 0.0560134 8.05614 0.0211471 7.98741 0.00702724C7.91867 -0.0070926 7.84743 0.000167345 7.78268 0.0278901C7.71793 0.0556129 7.66258 0.102555 7.62362 0.162788C7.58466 0.22302 7.56383 0.293842 7.56377 0.366308V2.94494C4.34439 3.16431 0.449573 6.30571 0.0040125 10.3179C-0.010458 10.4456 0.0144297 10.5748 0.0751301 10.6871C0.13583 10.7994 0.229248 10.889 0.342074 10.9432C0.4549 10.9973 0.58138 11.0133 0.703497 10.9888C0.825613 10.9643 0.937138 10.9006 1.02218 10.8067C1.68757 10.0728 4.07729 7.73557 7.56377 7.58464V10.1431C7.56383 10.2156 7.58466 10.2864 7.62362 10.3466C7.66258 10.4069 7.71793 10.4538 7.78268 10.4815C7.84743 10.5092 7.91867 10.5165 7.98741 10.5024C8.05614 10.4883 8.11929 10.4534 8.16888 10.4022L12.8963 5.51379C12.9627 5.44505 13 5.35186 13 5.25471C13 5.15755 12.9627 5.06437 12.8963 4.99562ZM8.27288 9.25831V7.21007C8.27288 7.11283 8.23553 7.01958 8.16903 6.95082C8.10254 6.88206 8.01236 6.84344 7.91832 6.84344C6.27968 6.84344 4.6824 7.28645 3.17198 8.16025C2.29163 8.67162 1.48071 9.3014 0.760402 10.0331C1.03814 8.41017 1.95171 6.85566 3.36049 5.61706C4.75508 4.39557 6.45814 3.66598 7.91832 3.66598C8.01236 3.66598 8.10254 3.62735 8.16903 3.55859C8.23553 3.48984 8.27288 3.39658 8.27288 3.29935V1.25172L12.1441 5.25471L8.27288 9.25831Z" fill="#6D6D6D"/>
</svg>
