<svg width="35" height="47" viewBox="0 0 35 47" fill="none" xmlns="http://www.w3.org/2000/svg">
<path d="M16 12H19V10C19 8.97937 19.0489 8 18 8C16.9511 8 16 8.97937 16 10V12ZM14 12V10C14 8.2503 16.2019 7 18 7C19.7981 7 21 8.2503 21 10V12H24C24.3602 12 23.9794 12.6501 24 13L25 23C25 22.9755 25.0026 23.0239 25 23C25 23.3652 25.3761 24 25 24H10C9.81308 24 10.1283 24.1322 10 24C9.87164 23.8678 9.98931 23.1815 10 23L11 13C11.0206 12.6501 10.6399 12 11 12H14ZM15 15C15.5346 15 16 14.5202 16 14C16 13.4798 15.5346 13 15 13C14.4654 13 14 13.4798 14 14C14 14.5202 14.4654 15 15 15ZM20 15C20.5346 15 21 14.5202 21 14C21 13.4798 20.5346 13 20 13C19.4654 13 19 13.4798 19 14C19 14.5202 19.4654 15 20 15ZM15 38C14.3149 36.0557 12.6685 34.2604 11 33L7 30C2.78838 26.8185 0.221963 22.1838 0 17C0 7.59515 8.33502 0 18 0C27.665 0 35 7.59515 35 17C34.778 22.1838 32.2116 26.8185 28 30L24 33C22.3315 34.2604 20.6851 36.0557 20 38V40C19.6605 40.9636 19.0469 41 18 41C16.9531 41 15.3395 40.9636 15 40V38ZM18 47C14.134 47 11 46.5643 11 46C11 45.4357 14.134 45 18 45C21.866 45 25 45.4357 25 46C25 46.5643 21.866 47 18 47ZM18 30C25.732 30 31 24.5239 31 17C31 9.47612 25.732 3 18 3C10.268 3 4 9.47612 4 17C4 24.5239 10.268 30 18 30Z" fill="#61C7E8"/>
</svg>
