<svg width="15" height="15" viewBox="0 0 15 15" fill="none" xmlns="http://www.w3.org/2000/svg">
<path d="M7.49963 12.5664L3.86408 14.8595C3.70348 14.9666 3.53557 15.0124 3.36036 14.9971C3.18515 14.9818 3.03185 14.9207 2.90044 14.8137C2.76904 14.7067 2.66683 14.5728 2.59383 14.4119C2.52083 14.2511 2.50623 14.0716 2.55003 13.8735L3.51367 9.53946L0.294239 6.62717C0.148233 6.48959 0.0571255 6.33273 0.020916 6.15662C-0.0152934 5.98051 -0.00448903 5.80868 0.0533293 5.64112C0.111732 5.47296 0.199335 5.33537 0.31614 5.22836C0.432944 5.12135 0.593551 5.05255 0.797959 5.02198L5.04673 4.63214L6.68929 0.550354C6.7623 0.366903 6.8756 0.229314 7.0292 0.137588C7.18279 0.0458629 7.3396 0 7.49963 0C7.66023 0 7.81704 0.0458629 7.97006 0.137588C8.12307 0.229314 8.23637 0.366903 8.30996 0.550354L9.95252 4.63214L14.2013 5.02198C14.4057 5.05255 14.5663 5.12135 14.6831 5.22836C14.7999 5.33537 14.8875 5.47296 14.9459 5.64112C15.0043 5.80929 15.0154 5.98143 14.9792 6.15754C14.943 6.33365 14.8516 6.4902 14.705 6.62717L11.4856 9.53946L12.4492 13.8735C12.493 14.0722 12.4784 14.252 12.4054 14.4128C12.3324 14.5737 12.2302 14.7073 12.0988 14.8137C11.9674 14.9207 11.8141 14.9818 11.6389 14.9971C11.4637 15.0124 11.2958 14.9666 11.1352 14.8595L7.49963 12.5664Z" fill="#FFDB02"/>
</svg>
