<svg width="15" height="15" viewBox="0 0 15 15" fill="none" xmlns="http://www.w3.org/2000/svg">
<path d="M7.5 12L7 1L4.84615 5L0 5.5L3.76923 9L3 14.5L7.5 12Z" fill="#FFDB02"/>
<path d="M7.76637 12.1435L7.49963 11.9753L7.23288 12.1435L3.59733 14.4366L3.59725 14.4365L3.58683 14.4435C3.51093 14.494 3.45473 14.5035 3.40382 14.499C3.32438 14.4921 3.26687 14.4673 3.21618 14.426C3.14719 14.3698 3.0916 14.2988 3.04912 14.2053C3.02734 14.1573 3.0142 14.0904 3.03817 13.9817C3.0382 13.9816 3.03822 13.9815 3.03824 13.9814L4.00175 9.64798L4.06491 9.3639L3.84909 9.16866L0.633955 6.26026C0.55607 6.1859 0.523623 6.11892 0.510672 6.05593C0.492289 5.96652 0.497845 5.88599 0.525826 5.80467C0.560426 5.70526 0.605547 5.64133 0.653903 5.59703C0.677134 5.57574 0.732695 5.53915 0.859332 5.51845L5.09241 5.13005L5.39656 5.10215L5.51058 4.8188L7.15315 0.737014L7.15315 0.737015L7.15386 0.735224C7.19067 0.642726 7.23618 0.59635 7.28555 0.566868C7.37103 0.515825 7.4402 0.5 7.49963 0.5C7.55989 0.5 7.62879 0.515969 7.71298 0.566437L7.97006 0.137588L7.71298 0.566438C7.76222 0.595956 7.80833 0.642838 7.8459 0.736501L7.84611 0.737014L9.48867 4.8188L9.60269 5.10215L9.90684 5.13005L14.1399 5.51845C14.2666 5.53915 14.3221 5.57574 14.3453 5.59703C14.3938 5.6414 14.439 5.70547 14.4736 5.80516L14.9459 5.64112L14.4736 5.80516C14.5021 5.88737 14.5077 5.968 14.4895 6.05684C14.4766 6.11922 14.4444 6.1856 14.3662 6.25947L11.1502 9.16866L10.9343 9.3639L10.9975 9.64798L11.9609 13.9811C11.961 13.9812 11.961 13.9813 11.961 13.9815C11.9851 14.0912 11.9718 14.1584 11.9501 14.2062C11.9078 14.2995 11.8525 14.3698 11.7842 14.4251L11.7831 14.426C11.7324 14.4673 11.6749 14.4921 11.5954 14.499C11.5445 14.5035 11.4883 14.494 11.4124 14.4435L11.4125 14.4433L11.4019 14.4366L7.76637 12.1435Z" stroke="#FFDB02"/>
</svg>
