<svg width="40" height="41" viewBox="0 0 40 41" fill="none" xmlns="http://www.w3.org/2000/svg">
<path d="M29.6441 22.7301L38.8673 13.8623L26.1065 12.0335C25.9424 12.0073 25.799 11.9034 25.7221 11.7522L20.0003 0.315735L14.2786 11.7522C14.2017 11.9034 14.0579 12.0073 13.8942 12.0335L1.13342 13.8623L10.3565 22.7301C10.4796 22.8501 10.5361 23.0271 10.5053 23.199L8.32624 35.7398L19.7695 29.8104C19.8414 29.774 19.9183 29.753 20.0002 29.753C20.0821 29.753 20.159 29.7737 20.2309 29.8104L31.6741 35.7396L29.4951 23.1987C29.4643 23.0271 29.5208 22.8498 29.6438 22.7302L29.6441 22.7301ZM13.0785 18.9788V18.9682C13.0785 18.2283 13.1911 17.5043 13.4118 16.8062C13.499 16.5354 13.7862 16.3842 14.0576 16.4729C14.3241 16.5616 14.4729 16.8534 14.3859 17.1293C14.2014 17.7177 14.1041 18.3377 14.1041 18.9683C14.1041 19.2547 13.8735 19.4945 13.5913 19.4945C13.3095 19.4945 13.0785 19.2702 13.0785 18.9788ZM15.8369 23.9491C15.7396 24.048 15.6062 24.1003 15.4728 24.1003C15.3448 24.1003 15.2114 24.0484 15.1137 23.9491C14.5959 23.428 14.1703 22.829 13.837 22.1723C13.709 21.9171 13.8063 21.6042 14.0573 21.469C14.3087 21.3389 14.6213 21.4428 14.7493 21.6983C15.0311 22.2559 15.3952 22.7664 15.8362 23.2091C16.0368 23.4126 16.0368 23.746 15.8369 23.9491ZM17.3085 13.6329C16.7599 13.9247 16.2575 14.2947 15.8219 14.7428C15.7192 14.8417 15.5912 14.894 15.4578 14.894C15.3244 14.894 15.1964 14.8421 15.0937 14.7428C14.8938 14.5397 14.8938 14.2115 15.0937 14.0083C15.6066 13.4821 16.1959 13.0445 16.8422 12.7058C17.0933 12.5757 17.4012 12.6796 17.5292 12.9351C17.6622 13.1899 17.5596 13.5024 17.3085 13.6329ZM20.005 26.0025H20C19.2719 26.0025 18.5541 25.8881 17.8671 25.6638C17.6007 25.5751 17.4519 25.2782 17.5388 25.0074C17.6261 24.7312 17.9132 24.58 18.1847 24.6687C18.7694 24.8613 19.3795 24.9602 20 24.9602C20.2818 24.9602 20.5178 25.1946 20.5178 25.4814C20.5178 25.7678 20.2872 26.0025 20.005 26.0025ZM21.9584 13.284C21.9073 13.284 21.8558 13.2789 21.8046 13.2633C21.2253 13.0706 20.6152 12.9769 20 12.9769C19.7182 12.9769 19.4772 12.7425 19.4772 12.4557C19.4772 12.1693 19.6975 11.9345 19.9796 11.9345H20C20.7228 11.9345 21.4356 12.0439 22.1176 12.2682C22.3894 12.3568 22.5381 12.6487 22.4509 12.9245C22.379 13.1433 22.1791 13.284 21.9584 13.284ZM24.8964 23.9389C24.3835 24.4601 23.7942 24.8977 23.1479 25.231C23.071 25.2728 22.9941 25.2884 22.9122 25.2884C22.7277 25.2884 22.5481 25.1895 22.4559 25.0071C22.3278 24.7516 22.4301 24.439 22.6815 24.3038C23.2301 24.0174 23.7326 23.6475 24.1736 23.2045C24.3735 22.9962 24.6964 23.0013 24.8963 23.2045C25.0963 23.4076 25.0963 23.7357 24.8964 23.9389ZM25.2451 16.2278C24.9632 15.6703 24.5938 15.1597 24.1528 14.7171C23.9529 14.5139 23.9529 14.1857 24.1528 13.9771C24.3527 13.7739 24.6757 13.7739 24.8756 13.9771C25.3934 14.4983 25.824 15.0921 26.1573 15.7485C26.2854 16.0036 26.1881 16.3216 25.937 16.4517C25.8602 16.4881 25.7783 16.5092 25.7014 16.5092C25.5168 16.5092 25.3373 16.4052 25.2451 16.2278ZM26.9216 18.9529C26.9216 19.7085 26.8089 20.443 26.5833 21.1412C26.5167 21.36 26.3115 21.5006 26.0962 21.5006C26.045 21.5006 25.9935 21.4901 25.9374 21.4745C25.6709 21.3858 25.5222 21.094 25.6091 20.8181C25.7986 20.2242 25.8959 19.5991 25.8959 18.9686C25.8959 18.6822 26.1266 18.4318 26.4087 18.4318C26.6906 18.4318 26.9216 18.6506 26.9216 18.9424L26.9216 18.9529Z" fill="#61C7E8"/>
<path d="M9.12243 8.64886C9.22257 8.75061 9.35381 8.80148 9.48506 8.80148C9.61631 8.80148 9.74757 8.75061 9.8477 8.64886C10.048 8.44536 10.048 8.11575 9.8477 7.91225L5.49964 3.49409C5.29936 3.29059 4.97499 3.29059 4.77472 3.49409C4.57444 3.69759 4.57444 4.02719 4.77472 4.2307L9.12243 8.64886Z" fill="#61C7E8"/>
<path d="M6.02151 24.1425L0.320469 26.4862C0.0579668 26.5941 -0.0686333 26.8978 0.0375871 27.1641C0.118054 27.3669 0.310105 27.49 0.512877 27.49C0.576535 27.49 0.641986 27.4777 0.704929 27.4515L6.40597 25.1078C6.66847 24.9999 6.79507 24.6962 6.68885 24.4298C6.583 24.1635 6.28437 24.0342 6.02151 24.1425Z" fill="#61C7E8"/>
<path d="M19.9999 33.5553C19.7167 33.5553 19.4871 33.7886 19.4871 34.0764V39.8073C19.4871 40.0951 19.7167 40.3284 19.9999 40.3284C20.2832 40.3284 20.5128 40.0951 20.5128 39.8073V34.0764C20.5128 33.7886 20.2832 33.5553 19.9999 33.5553Z" fill="#61C7E8"/>
<path d="M39.6793 26.4863L33.9783 24.1426C33.7172 24.035 33.4172 24.1633 33.311 24.4299C33.2047 24.6966 33.3313 25 33.5938 25.1079L39.2949 27.4516C39.3578 27.4774 39.4229 27.4901 39.4869 27.4901C39.6897 27.4901 39.8818 27.367 39.9622 27.1642C40.0688 26.8976 39.9422 26.5938 39.6793 26.4863Z" fill="#61C7E8"/>
<path d="M30.5157 8.80144C30.647 8.80144 30.7782 8.75056 30.8784 8.64881L35.2264 4.23065C35.4267 4.02715 35.4267 3.69754 35.2264 3.49404C35.0262 3.29054 34.7018 3.29054 34.5015 3.49404L30.1534 7.9122C29.9532 8.11571 29.9532 8.44531 30.1534 8.64881C30.2532 8.75057 30.3845 8.80144 30.5157 8.80144Z" fill="#61C7E8"/>
</svg>
