<svg width="235" height="70" viewBox="0 0 235 70" fill="none" xmlns="http://www.w3.org/2000/svg">
<circle cx="35" cy="35" r="34.5" fill="#DFF6FD" stroke="#61C7E8"/>
<circle cx="90" cy="35" r="34.5" fill="#DFF6FD" stroke="#61C7E8"/>
<circle cx="145" cy="35" r="34.5" fill="#DFF6FD" stroke="#61C7E8"/>
<circle cx="200" cy="35" r="34.5" fill="#DFF6FD" stroke="#61C7E8"/>
<path d="M186.91 43V30.9L184.2 32.55V30.22L186.91 28.6H189.04V43H186.91ZM197.858 43.3C196.878 43.3 196.011 43.0867 195.258 42.66C194.504 42.2267 193.911 41.6333 193.478 40.88C193.051 40.1267 192.838 39.26 192.838 38.28V33.32C192.838 32.34 193.051 31.4733 193.478 30.72C193.911 29.9667 194.504 29.3767 195.258 28.95C196.011 28.5167 196.878 28.3 197.858 28.3C198.838 28.3 199.704 28.5167 200.458 28.95C201.211 29.3767 201.801 29.9667 202.227 30.72C202.661 31.4733 202.878 32.34 202.878 33.32V38.28C202.878 39.26 202.661 40.1267 202.227 40.88C201.801 41.6333 201.211 42.2267 200.458 42.66C199.704 43.0867 198.838 43.3 197.858 43.3ZM197.858 41.3C198.391 41.3 198.874 41.1733 199.308 40.92C199.748 40.66 200.098 40.3133 200.358 39.88C200.618 39.44 200.748 38.95 200.748 38.41V33.17C200.748 32.6367 200.618 32.1533 200.358 31.72C200.098 31.28 199.748 30.9333 199.308 30.68C198.874 30.42 198.391 30.29 197.858 30.29C197.324 30.29 196.838 30.42 196.398 30.68C195.964 30.9333 195.618 31.28 195.358 31.72C195.098 32.1533 194.968 32.6367 194.968 33.17V38.41C194.968 38.95 195.098 39.44 195.358 39.88C195.618 40.3133 195.964 40.66 196.398 40.92C196.838 41.1733 197.324 41.3 197.858 41.3ZM209.17 40.33V36.63H205.47V34.95H209.17V31.27H210.85V34.95H214.54V36.63H210.85V40.33H209.17Z" fill="#00ADE5"/>
<path fill-rule="evenodd" clip-rule="evenodd" d="M156.351 42.3176C153.74 42.3176 151.623 44.4344 151.623 47.0457C151.623 49.6571 153.74 51.7739 156.351 51.7739C158.963 51.7739 161.079 49.6571 161.079 47.0457C161.079 44.4344 158.963 42.3176 156.351 42.3176ZM159.071 47.4414H156.747V49.7656C156.747 49.9843 156.57 50.1616 156.351 50.1616C156.133 50.1616 155.956 49.9843 155.956 49.7656V47.4414H153.632C153.413 47.4414 153.236 47.264 153.236 47.0457C153.236 46.8274 153.413 46.6501 153.632 46.6501H155.956V44.3259C155.956 44.1072 156.133 43.9302 156.351 43.9302C156.57 43.9302 156.747 44.1076 156.747 44.3259V46.6501H159.071C159.29 46.6501 159.467 46.8274 159.467 47.0457C159.467 47.264 159.289 47.4414 159.071 47.4414ZM130.729 16.0004C128.117 16.0004 126 18.1172 126 20.7286C126 23.3399 128.117 25.4567 130.729 25.4567C133.34 25.4567 135.457 23.3399 135.457 20.7286C135.457 18.1172 133.34 16.0004 130.729 16.0004ZM130.914 23.1521C130.812 23.2627 130.645 23.2627 130.543 23.1521C129.98 22.5432 128.392 21.1342 128.392 20.292C128.392 19.555 128.941 18.9577 129.619 18.9577C130.109 18.9577 130.532 19.2699 130.729 19.7207C130.925 19.2695 131.348 18.9577 131.838 18.9577C132.516 18.9577 133.065 19.555 133.065 20.292C133.065 21.1342 131.476 22.5436 130.914 23.1521ZM149.279 22.7615C149.279 22.2677 149.682 21.8646 150.176 21.8646H151.306C151.8 21.8646 152.203 22.2673 152.203 22.7615V28.3702C152.203 28.8639 151.801 29.2671 151.306 29.2671H150.176C149.683 29.2671 149.279 28.8644 149.279 28.3702V22.7615ZM152.995 22.7615C152.995 22.3779 152.866 22.024 152.649 21.7402C152.927 21.4481 153.209 21.2394 153.498 20.9639C153.998 20.4857 154.558 19.3271 154.586 18.5592C154.612 17.8547 154.881 17.5221 155.214 17.4432C155.857 17.2913 156.377 18.0367 156.462 18.7311C156.588 19.7624 156.018 20.1155 156.287 21.0854C156.127 21.0854 156.032 20.9961 155.956 20.8634C155.846 20.6747 155.605 20.6104 155.416 20.7194C155.227 20.8287 155.163 21.0704 155.272 21.259C155.491 21.6375 155.841 21.8767 156.285 21.8767H160.19C160.698 21.8767 161.113 22.2924 161.113 22.8003C161.113 23.3082 160.698 23.7239 160.19 23.7239H159.766C160.274 23.7239 160.69 24.1395 160.69 24.6475C160.69 25.1554 160.274 25.5711 159.766 25.5711H159.253C159.761 25.5711 160.176 25.9867 160.176 26.4946C160.176 27.0026 159.761 27.4182 159.253 27.4182H158.784C159.292 27.4182 159.708 27.8339 159.708 28.3418C159.708 28.8497 159.292 29.2654 158.784 29.2654H154.477C153.924 29.2654 153.336 29.265 152.862 29.0229C152.947 28.8218 152.994 28.601 152.994 28.3694V22.7606L152.995 22.7615ZM155.197 16C150.334 16 146.393 19.9414 146.393 24.8035C146.393 29.6657 150.334 33.6071 155.197 33.6071C160.059 33.6071 164 29.6657 164 24.8035C164 19.9414 160.059 16 155.197 16ZM160.88 25.9513C160.937 26.1224 160.968 26.3052 160.968 26.4951C160.968 26.9992 160.748 27.4541 160.4 27.7684C160.465 27.9479 160.499 28.1415 160.499 28.3427C160.499 29.2875 159.729 30.058 158.784 30.058H154.477C153.673 30.058 153.116 30.0421 152.384 29.6686C152.092 29.9119 151.715 30.0588 151.306 30.0588H150.176C149.245 30.0588 148.488 29.3013 148.488 28.3706V22.7619C148.488 21.8312 149.245 21.0737 150.176 21.0737H151.306C151.566 21.0737 151.814 21.133 152.034 21.239C152.325 20.9318 152.647 20.6818 152.95 20.3918C153.328 20.0312 153.776 19.055 153.795 18.5304C153.825 17.7174 154.162 16.8785 155.032 16.6732C156.237 16.3886 157.116 17.5617 157.248 18.6351C157.318 19.2048 157.233 19.6034 157.084 20.1418C156.966 20.5716 156.996 20.6797 157.108 21.0858H160.19C161.135 21.0858 161.905 21.8562 161.905 22.8011C161.905 23.289 161.7 23.7301 161.371 24.0431C161.443 24.2314 161.482 24.4359 161.482 24.6487C161.482 25.1696 161.248 25.6374 160.88 25.9525V25.9513ZM147.875 31.0045H135.894C135.676 31.0045 135.499 30.8271 135.499 30.6089C135.499 30.3906 135.676 30.2128 135.894 30.2128H147.271C146.515 29.1064 145.983 27.8335 145.745 26.46H134.575C132.886 26.46 131.509 27.8373 131.509 29.5258V38.4379C131.509 40.1265 132.886 41.5037 134.575 41.5037H143.632L148.859 45.8024C149.117 46.0149 149.506 45.8312 149.506 45.4965V41.5033H152.099C153.788 41.5033 155.165 40.1261 155.165 38.4375V34.398C152.243 34.3884 149.629 33.0725 147.875 31.0041L147.875 31.0045ZM143.631 37.751H135.894C135.676 37.751 135.499 37.5736 135.499 37.3553C135.499 37.137 135.676 36.9597 135.894 36.9597H143.632C143.85 36.9597 144.027 37.137 144.027 37.3553C144.027 37.5736 143.849 37.751 143.631 37.751ZM150.779 34.3779H135.894C135.676 34.3779 135.499 34.2006 135.499 33.9823C135.499 33.764 135.676 33.5866 135.894 33.5866H150.779C150.998 33.5866 151.175 33.764 151.175 33.9823C151.175 34.2006 150.997 34.3779 150.779 34.3779ZM138.035 42.2955H134.574C133.129 42.2955 131.865 41.4937 131.205 40.3122C128.211 41.0885 126 43.8083 126 47.0449C126 50.8862 129.114 54 132.955 54C136.796 54 139.91 50.8862 139.91 47.0449C139.91 45.2086 139.198 43.5387 138.035 42.2955ZM136.952 47.885C137.171 47.885 137.348 48.0624 137.348 48.2807C137.348 48.4989 137.17 48.6763 136.952 48.6763H134.313L133.899 51.1082C133.862 51.3235 133.658 51.4679 133.442 51.4312C133.227 51.3945 133.083 51.1904 133.119 50.9751L133.511 48.6763H131.842L131.427 51.1082C131.39 51.3235 131.186 51.4679 130.971 51.4312C130.756 51.3945 130.611 51.1904 130.648 50.9751L131.04 48.6763H128.958C128.739 48.6763 128.562 48.4989 128.562 48.2807C128.562 48.0624 128.739 47.885 128.958 47.885H131.175L131.461 46.2052H128.958C128.739 46.2052 128.562 46.0278 128.562 45.8095C128.562 45.5913 128.739 45.4139 128.958 45.4139H131.596L132.011 42.982C132.048 42.7666 132.252 42.6222 132.467 42.659C132.683 42.6957 132.827 42.8998 132.79 43.1151L132.398 45.4139H134.068L134.483 42.982C134.519 42.7666 134.723 42.6222 134.939 42.659C135.154 42.6957 135.298 42.8998 135.262 43.1151L134.87 45.4139H136.952C137.171 45.4139 137.348 45.5913 137.348 45.8095C137.348 46.0278 137.17 46.2052 136.952 46.2052H134.735L134.449 47.885H136.952ZM133.933 46.2052H132.263L131.977 47.885H133.647L133.933 46.2052Z" fill="#00ADE5"/>
<path d="M103 21H77C76.2044 21 75.4413 21.3161 74.8787 21.8787C74.3161 22.4413 74 23.2044 74 24V45C74 45.7956 74.3161 46.5587 74.8787 47.1213C75.4413 47.6839 76.2044 48 77 48H103C103.796 48 104.559 47.6839 105.121 47.1213C105.684 46.5587 106 45.7956 106 45V24C106 23.2044 105.684 22.4413 105.121 21.8787C104.559 21.3161 103.796 21 103 21ZM101 24H103V26H101V24ZM98 24H100V26H98V24ZM95 24H97V26H95V24ZM104 45C104 45.2652 103.895 45.5196 103.707 45.7071C103.52 45.8946 103.265 46 103 46H77C76.7348 46 76.4804 45.8946 76.2929 45.7071C76.1054 45.5196 76 45.2652 76 45V29H104V45Z" fill="#00ADE5"/>
<path d="M85.5 30H78C77.4477 30 77 30.4477 77 31V44C77 44.5523 77.4477 45 78 45H85.5C86.0523 45 86.5 44.5523 86.5 44V31C86.5 30.4477 86.0523 30 85.5 30Z" fill="#00ADE5"/>
<path d="M102 30H88C87.4477 30 87 30.4477 87 31V35C87 35.5523 87.4477 36 88 36H102C102.552 36 103 35.5523 103 35V31C103 30.4477 102.552 30 102 30Z" fill="#00ADE5"/>
<path d="M102 36.5H88C87.4477 36.5 87 36.9477 87 37.5V44C87 44.5523 87.4477 45 88 45H102C102.552 45 103 44.5523 103 44V37.5C103 36.9477 102.552 36.5 102 36.5Z" fill="#00ADE5"/>
<path d="M48.4745 25.3703H45.9485C45.2501 25.3703 44.16 24.9184 43.6672 24.425L42.6803 23.4382C41.8624 22.618 40.3693 22 39.2112 22H30.791C29.6313 22 28.1398 22.6186 27.3186 23.4382L26.3317 24.425C25.8372 24.9196 24.7521 25.3703 24.0521 25.3703H21.526C20.1339 25.3703 19 26.5031 19 27.8964V44.7367C19 46.1288 20.1339 47.2627 21.526 47.2627H48.4706H48.4739C49.8672 47.2627 51 46.1288 51 44.7367V27.8964C51.0006 26.5031 49.8678 25.3703 48.4745 25.3703ZM34.9989 42.2106C30.8197 42.2106 27.4207 38.8095 27.4207 34.6325C27.4207 30.4544 30.8197 27.0543 34.9989 27.0543C39.1758 27.0543 42.577 30.4544 42.577 34.6325C42.577 38.8095 39.1758 42.2106 34.9989 42.2106Z" fill="#00ADE5"/>
<path d="M34.9989 28.7383C31.7492 28.7383 29.1047 31.3817 29.1047 34.6324C29.1047 37.882 31.7492 40.5265 34.9989 40.5265C38.2485 40.5265 40.893 37.882 40.893 34.6324C40.893 31.3817 38.2485 28.7383 34.9989 28.7383Z" fill="#00ADE5"/>
</svg>
