<svg width="24" height="24" viewBox="0 0 24 24" fill="none" xmlns="http://www.w3.org/2000/svg">
<path d="M12.0001 3L19.7941 7.5V15.345C19.794 15.6961 19.7016 16.0409 19.5261 16.345C19.3506 16.649 19.0981 16.9015 18.7941 17.077L13.0001 20.423C12.696 20.5985 12.3511 20.6909 12.0001 20.6909C11.649 20.6909 11.3041 20.5985 11.0001 20.423L5.20605 17.077C4.90202 16.9015 4.64955 16.649 4.47402 16.345C4.29848 16.0409 4.20606 15.6961 4.20605 15.345V7.5L12.0001 3Z" stroke="#6D6D6D" stroke-linecap="round" stroke-linejoin="round"/>
<path d="M11.9999 7V12M11.9999 12L7.66992 14.5M11.9999 12L16.3299 14.5" stroke="#6D6D6D" stroke-linecap="round" stroke-linejoin="round"/>
</svg>
