<svg width="23" height="23" viewBox="0 0 23 23" fill="none" xmlns="http://www.w3.org/2000/svg">
<path d="M11.5 0C5.14933 0 0 5.14933 0 11.5C0 17.8507 5.14933 23 11.5 23C17.8507 23 23 17.8507 23 11.5C23 5.14933 17.8507 0 11.5 0ZM17.0267 8.66864C17.0344 8.78929 17.0344 8.91507 17.0344 9.03828C17.0344 12.8066 14.1645 17.1473 8.9202 17.1473C7.30301 17.1473 5.80391 16.6776 4.54096 15.869C4.77199 15.8946 4.99275 15.9049 5.22891 15.9049C6.56373 15.9049 7.79074 15.4531 8.76875 14.6882C7.51607 14.6625 6.46362 13.8411 6.10424 12.7116C6.54319 12.7758 6.9385 12.7758 7.39029 12.6603C6.74528 12.5292 6.16553 12.1789 5.74953 11.6689C5.33353 11.1588 5.10694 10.5205 5.10826 9.86228V9.82634C5.4856 10.0394 5.92969 10.1703 6.39431 10.1883C6.00373 9.92798 5.68341 9.57532 5.46176 9.16157C5.24011 8.74783 5.12398 8.28578 5.12366 7.81641C5.12366 7.28504 5.26228 6.79989 5.51127 6.37891C6.22721 7.26024 7.12058 7.98106 8.13334 8.49451C9.14609 9.00796 10.2556 9.30256 11.3896 9.35915C10.9866 7.42109 12.4344 5.85268 14.1748 5.85268C14.9962 5.85268 15.7355 6.19665 16.2566 6.75112C16.9009 6.63047 17.517 6.38917 18.0663 6.06574C17.8532 6.72545 17.4066 7.28248 16.8136 7.63415C17.3886 7.57254 17.9431 7.41339 18.4565 7.19007C18.0689 7.75993 17.5837 8.26563 17.0267 8.66864Z" fill="#6D6D6D"/>
</svg>
