<svg width="39" height="38" viewBox="0 0 39 38" fill="none" xmlns="http://www.w3.org/2000/svg">
<path d="M19.7887 2.35461C10.6867 2.35461 3.30658 9.73477 3.30658 18.8367C3.30658 27.9386 10.6867 35.3188 19.7887 35.3188C28.8906 35.3188 36.2708 27.9386 36.2708 18.8367C36.2708 9.73477 28.8906 2.35461 19.7887 2.35461ZM27.7096 14.7787C27.7207 14.9516 27.7207 15.1319 27.7207 15.3085C27.7207 20.7093 23.6075 26.9306 16.0912 26.9306C13.7734 26.9306 11.6249 26.2573 9.8148 25.0984C10.1459 25.1352 10.4623 25.1499 10.8008 25.1499C12.7139 25.1499 14.4725 24.5024 15.8742 23.4061C14.0788 23.3693 12.5704 22.192 12.0553 20.5732C12.6844 20.6652 13.251 20.6652 13.8985 20.4996C12.9741 20.3118 12.1432 19.8097 11.5469 19.0787C10.9507 18.3477 10.626 17.4328 10.6279 16.4895V16.438C11.1687 16.7433 11.8052 16.931 12.4711 16.9567C11.9113 16.5836 11.4522 16.0782 11.1345 15.4852C10.8168 14.8922 10.6504 14.23 10.6499 13.5573C10.6499 12.7957 10.8486 12.1004 11.2055 11.497C12.2316 12.7602 13.512 13.7933 14.9635 14.5292C16.415 15.2651 18.0051 15.6873 19.6305 15.7684C19.0529 12.9907 21.1278 10.7428 23.6222 10.7428C24.7995 10.7428 25.8591 11.2358 26.6059 12.0305C27.5294 11.8576 28.4123 11.5117 29.1996 11.0482C28.8943 11.9937 28.2541 12.792 27.4043 13.2961C28.2284 13.2078 29.0231 12.9797 29.7589 12.6596C29.2033 13.4763 28.508 14.2011 27.7096 14.7787Z" fill="white"/>
</svg>
