<svg width="23" height="23" viewBox="0 0 23 23" fill="none" xmlns="http://www.w3.org/2000/svg">
<path d="M11.5 0C17.8515 0 23 5.14855 23 11.5C23 17.8514 17.8515 23 11.5 23C9.4677 23.0033 7.47117 22.4654 5.71551 21.4417L0.00461617 23L1.55942 17.2868C0.534873 15.5306 -0.00337913 13.5332 1.59623e-05 11.5C1.59623e-05 5.14855 5.14856 0 11.5 0ZM7.58081 6.095L7.35081 6.1042C7.20191 6.11326 7.05639 6.15238 6.92301 6.2192C6.79826 6.28984 6.68438 6.37815 6.58491 6.4814C6.44691 6.61135 6.36871 6.72405 6.28476 6.8333C5.8594 7.38633 5.63038 8.0653 5.63386 8.76299C5.63616 9.32649 5.78336 9.87504 6.01336 10.3879C6.48371 11.4252 7.25766 12.5235 8.27886 13.5412C8.52496 13.7862 8.76646 14.0323 9.02636 14.2611C10.2953 15.3783 11.8074 16.184 13.4424 16.614L14.0956 16.7141C14.3083 16.7256 14.5211 16.7095 14.735 16.6991C15.0699 16.6819 15.3969 16.5912 15.6929 16.4335C15.8435 16.3559 15.9905 16.2715 16.1334 16.1805C16.1334 16.1805 16.1828 16.1483 16.2771 16.077C16.4324 15.962 16.5278 15.8803 16.6566 15.7458C16.7521 15.6469 16.8349 15.5307 16.8981 15.3985C16.9878 15.211 17.0775 14.8534 17.1143 14.5555C17.1419 14.3278 17.1339 14.2036 17.1304 14.1266C17.1258 14.0035 17.0235 13.8759 16.9119 13.8218L16.2426 13.5217C16.2426 13.5217 15.2421 13.0858 14.6303 12.8075C14.5663 12.7796 14.4977 12.7636 14.4279 12.7604C14.3492 12.7523 14.2697 12.7612 14.1947 12.7864C14.1198 12.8115 14.051 12.8525 13.9932 12.9064C13.9875 12.9041 13.9104 12.9697 13.079 13.9771C13.0312 14.0412 12.9655 14.0897 12.8901 14.1163C12.8148 14.1429 12.7332 14.1465 12.6558 14.1266C12.5808 14.1065 12.5074 14.0811 12.4361 14.0507C12.2935 13.9909 12.2441 13.9679 12.1463 13.9265C11.4863 13.6385 10.8752 13.2493 10.3351 12.773C10.1902 12.6465 10.0556 12.5085 9.91761 12.3751C9.46518 11.9419 9.07089 11.4517 8.74461 10.9169L8.67676 10.8077C8.62803 10.7343 8.58862 10.6551 8.55946 10.5719C8.51576 10.4029 8.62961 10.2672 8.62961 10.2672C8.62961 10.2672 8.90906 9.96129 9.03901 9.79569C9.16551 9.63469 9.27246 9.47829 9.34146 9.36674C9.47716 9.14824 9.51971 8.92399 9.44841 8.75034C9.12641 7.96375 8.79291 7.1806 8.45021 6.4032C8.38236 6.2491 8.18111 6.1387 7.99826 6.11685C7.93616 6.10995 7.87406 6.10305 7.81196 6.09845C7.65752 6.09077 7.50277 6.09231 7.34851 6.10305L7.57966 6.09385L7.58081 6.095Z" fill="#6D6D6D"/>
</svg>
