<svg width="40" height="28" viewBox="0 0 40 28" fill="none" xmlns="http://www.w3.org/2000/svg">
<path d="M39.2017 4.68211C38.9783 3.87876 38.5419 3.14614 37.9357 2.55715C37.3296 1.96816 36.5749 1.54335 35.7468 1.325C32.6763 0.507584 20.392 0.494277 20.392 0.494277C20.392 0.494277 8.10981 0.48097 5.03728 1.26227C4.20969 1.49066 3.45656 1.92148 2.85018 2.51336C2.2438 3.10524 1.80454 3.83831 1.57457 4.64219C0.764774 7.61911 0.75693 13.7935 0.75693 13.7935C0.75693 13.7935 0.749087 19.9982 1.553 22.9447C2.00398 24.5738 3.3275 25.8608 5.00983 26.2999C8.11177 27.1173 20.3626 27.1306 20.3626 27.1306C20.3626 27.1306 32.6468 27.144 35.7174 26.3646C36.5458 26.1466 37.3012 25.7228 37.9089 25.135C38.5165 24.5472 38.9554 23.8158 39.1821 23.0132C39.9938 20.0381 39.9997 13.8657 39.9997 13.8657C39.9997 13.8657 40.0389 7.65903 39.2017 4.68211ZM16.4627 19.5135L16.4725 8.10766L26.6822 13.8201L16.4627 19.5135Z" fill="white"/>
</svg>
