<svg width="18" height="18" viewBox="0 0 18 18" fill="none" xmlns="http://www.w3.org/2000/svg">
<path d="M6.03086 2.92425L4.93795 4.01716L6.58109 5.64521C6.87504 5.93917 6.87504 6.42156 6.58109 6.71551C6.28713 7.00947 5.80474 7.00947 5.51079 6.71551L3.88273 5.07238L2.78982 6.16529C2.73669 6.21737 2.66932 6.25256 2.59622 6.26643C2.52312 6.28029 2.44755 6.2722 2.37903 6.24318C2.31052 6.21417 2.25213 6.16552 2.21122 6.10337C2.17031 6.04122 2.14871 5.96835 2.14915 5.89395V2.66044C2.14915 2.4494 2.31497 2.28358 2.52602 2.28358H5.75952C5.83393 2.28314 5.90679 2.30474 5.96894 2.34565C6.03109 2.38655 6.07974 2.44495 6.10876 2.51346C6.13778 2.58197 6.14586 2.65754 6.132 2.73065C6.11814 2.80375 6.08295 2.87111 6.03086 2.92425ZM15.0756 6.16529L13.9827 5.07238L12.3547 6.71551C12.0607 7.00947 11.5783 7.00947 11.2844 6.71551C10.9904 6.42156 10.9904 5.93917 11.2844 5.64521L12.9275 4.01716L11.8346 2.92425C11.7825 2.87111 11.7473 2.80375 11.7335 2.73065C11.7196 2.65754 11.7277 2.58197 11.7567 2.51346C11.7857 2.44495 11.8344 2.38655 11.8965 2.34565C11.9587 2.30474 12.0315 2.28314 12.1059 2.28358H15.3394C15.5505 2.28358 15.7163 2.4494 15.7163 2.66044V5.89395C15.7163 6.23312 15.3093 6.39894 15.0756 6.16529ZM11.8346 15.2101L12.9275 14.1171L11.2844 12.4891C10.9904 12.1951 10.9904 11.7127 11.2844 11.4188C11.5783 11.1248 12.0607 11.1248 12.3547 11.4188L13.9827 13.0619L15.0756 11.969C15.1288 11.9169 15.1961 11.8817 15.2692 11.8679C15.3423 11.854 15.4179 11.8621 15.4864 11.8911C15.5549 11.9201 15.6133 11.9688 15.6542 12.0309C15.6951 12.0931 15.7167 12.166 15.7163 12.2404V15.4739C15.7163 15.6849 15.5505 15.8507 15.3394 15.8507H12.1059C12.0315 15.8512 11.9587 15.8296 11.8965 15.7887C11.8344 15.7477 11.7857 15.6894 11.7567 15.6208C11.7277 15.5523 11.7196 15.4768 11.7335 15.4037C11.7473 15.3306 11.7825 15.2632 11.8346 15.2101ZM2.78982 11.969L3.88273 13.0619L5.51079 11.4188C5.80474 11.1248 6.28713 11.1248 6.58109 11.4188C6.87504 11.7127 6.87504 12.1951 6.58109 12.4891L4.93795 14.1171L6.03086 15.2101C6.08295 15.2632 6.11814 15.3306 6.132 15.4037C6.14586 15.4768 6.13778 15.5523 6.10876 15.6208C6.07974 15.6894 6.03109 15.7477 5.96894 15.7887C5.90679 15.8296 5.83393 15.8512 5.75952 15.8507H2.52602C2.31497 15.8507 2.14915 15.6849 2.14915 15.4739V12.2404C2.14871 12.166 2.17031 12.0931 2.21122 12.0309C2.25213 11.9688 2.31052 11.9201 2.37903 11.8911C2.44755 11.8621 2.52312 11.854 2.59622 11.8679C2.66932 11.8817 2.73669 11.9169 2.78982 11.969Z" fill="white"/>
</svg>
