<svg width="134" height="134" viewBox="0 0 134 134" fill="none" xmlns="http://www.w3.org/2000/svg">
<path d="M89.1028 21.7695L97.2389 29.9056L85.0067 42.0256C82.8183 44.2139 82.8183 47.805 85.0067 49.9934C87.195 52.1817 90.7861 52.1817 92.9744 49.9934L105.094 37.7611L113.231 45.8972C113.626 46.285 114.128 46.547 114.672 46.6502C115.216 46.7534 115.779 46.6931 116.289 46.4771C116.799 46.2611 117.233 45.8989 117.538 45.4363C117.842 44.9736 118.003 44.4311 118 43.8772V19.8056C118 18.2345 116.766 17 115.194 17H91.1227C90.5689 16.9968 90.0264 17.1576 89.5637 17.4621C89.1011 17.7667 88.7389 18.2014 88.5229 18.7114C88.3069 19.2215 88.2466 19.784 88.3498 20.3282C88.453 20.8724 88.715 21.3739 89.1028 21.7695ZM21.7695 45.8972L29.9056 37.7611L42.0256 49.9934C44.2139 52.1817 47.805 52.1817 49.9934 49.9934C52.1817 47.805 52.1817 44.2139 49.9934 42.0256L37.7611 29.9056L45.8972 21.7695C46.285 21.3739 46.547 20.8724 46.6502 20.3282C46.7534 19.784 46.6931 19.2215 46.4771 18.7114C46.2611 18.2014 45.8989 17.7667 45.4363 17.4621C44.9736 17.1576 44.4311 16.9968 43.8772 17H19.8056C18.2345 17 17 18.2345 17 19.8056V43.8772C17 46.4022 20.03 47.6367 21.7695 45.8972ZM45.8972 113.231L37.7611 105.094L49.9934 92.9744C52.1817 90.7861 52.1817 87.195 49.9934 85.0067C47.805 82.8183 44.2139 82.8183 42.0256 85.0067L29.9056 97.2389L21.7695 89.1028C21.3739 88.715 20.8724 88.453 20.3282 88.3498C19.784 88.2466 19.2215 88.3069 18.7114 88.5229C18.2014 88.7389 17.7667 89.1011 17.4621 89.5637C17.1576 90.0264 16.9968 90.5689 17 91.1227V115.194C17 116.766 18.2345 118 19.8056 118H43.8772C44.4311 118.003 44.9736 117.842 45.4363 117.538C45.8989 117.233 46.2611 116.799 46.4771 116.289C46.6931 115.779 46.7534 115.216 46.6502 114.672C46.547 114.128 46.285 113.626 45.8972 113.231ZM113.231 89.1028L105.094 97.2389L92.9744 85.0067C90.7861 82.8183 87.195 82.8183 85.0067 85.0067C82.8183 87.195 82.8183 90.7861 85.0067 92.9744L97.2389 105.094L89.1028 113.231C88.715 113.626 88.453 114.128 88.3498 114.672C88.2466 115.216 88.3069 115.779 88.5229 116.289C88.7389 116.799 89.1011 117.233 89.5637 117.538C90.0264 117.842 90.5689 118.003 91.1227 118H115.194C116.766 118 118 116.766 118 115.194V91.1227C118.003 90.5689 117.842 90.0264 117.538 89.5637C117.233 89.1011 116.799 88.7389 116.289 88.5229C115.779 88.3069 115.216 88.2466 114.672 88.3498C114.128 88.453 113.626 88.715 113.231 89.1028Z" fill="white"/>
</svg>
