<svg width="20" height="20" viewBox="0 0 20 20" fill="none" xmlns="http://www.w3.org/2000/svg">
<path fill-rule="evenodd" clip-rule="evenodd" d="M9.59405 6.40344H17.2861C17.3716 6.40329 17.4538 6.43724 17.5142 6.49769C17.5748 6.5583 17.6088 6.6403 17.6088 6.72586V11.1361C17.6086 11.3143 17.4642 11.4586 17.2861 11.4586H9.59405C9.41594 11.4586 9.27148 11.3143 9.27148 11.1361V6.72586C9.27148 6.6403 9.30542 6.5583 9.36588 6.49769C9.42648 6.43724 9.50849 6.40329 9.59405 6.40344ZM17.2861 12.9828C17.3746 12.9781 17.4609 13.01 17.5251 13.071C17.5894 13.1319 17.6257 13.2165 17.6257 13.305C17.6257 13.3935 17.5894 13.4782 17.5251 13.5391C17.4609 13.6 17.3746 13.6319 17.2861 13.6273H2.71355C2.62504 13.6319 2.5387 13.6 2.47453 13.5391C2.4102 13.4782 2.37393 13.3935 2.37393 13.305C2.37393 13.2165 2.4102 13.1319 2.47453 13.071C2.5387 13.01 2.62504 12.9781 2.71355 12.9828H17.2861ZM17.2861 15.1518V15.1519C17.3746 15.1473 17.4609 15.1791 17.5251 15.24C17.5894 15.3009 17.6257 15.3855 17.6257 15.4741C17.6257 15.5626 17.5894 15.6472 17.5251 15.7081C17.4609 15.769 17.3746 15.801 17.2861 15.7963H2.71355C2.62504 15.801 2.5387 15.769 2.47453 15.7081C2.4102 15.6472 2.37393 15.5626 2.37393 15.4741C2.37393 15.3855 2.4102 15.3009 2.47453 15.24C2.5387 15.1791 2.62504 15.1473 2.71355 15.1519L17.2861 15.1518ZM17.2861 17.3211C17.3746 17.3165 17.4609 17.3484 17.5251 17.4093C17.5894 17.4703 17.6257 17.5549 17.6257 17.6434C17.6257 17.7319 17.5894 17.8165 17.5251 17.8775C17.4609 17.9384 17.3746 17.9703 17.2861 17.9657H2.71355C2.62504 17.9703 2.5387 17.9384 2.47453 17.8775C2.4102 17.8165 2.37393 17.7319 2.37393 17.6434C2.37393 17.5549 2.4102 17.4703 2.47453 17.4093C2.5387 17.3484 2.62504 17.3165 2.71355 17.3211H17.2861ZM2.71355 6.45852C4.00044 6.45837 5.2346 6.96975 6.14451 7.87978C7.05459 8.78985 7.56549 10.0242 7.56518 11.3111H6.92082C6.92113 10.1952 6.47796 9.12481 5.68896 8.33569C4.8998 7.54653 3.82949 7.10336 2.71359 7.10352L2.71355 6.45852ZM2.71355 7.79732V8.44184C3.4737 8.44184 4.20286 8.7438 4.7406 9.28136C5.27817 9.81893 5.58011 10.5481 5.58011 11.3084H6.22463C6.22417 10.3774 5.85401 9.48457 5.19567 8.82624C4.53734 8.16791 3.64449 7.79776 2.71351 7.79728L2.71355 7.79732ZM2.71355 9.13612V9.78064C3.11859 9.77893 3.50767 9.93859 3.79473 10.2244C4.08181 10.5104 4.24302 10.8989 4.24286 11.3039H4.88877C4.88784 10.7281 4.65812 10.1762 4.25044 9.76965C3.84263 9.3629 3.29001 9.13489 2.71414 9.13553L2.71355 9.13612ZM2.71355 10.4749V11.1194C2.76377 11.1194 2.81214 11.1394 2.84763 11.1751C2.88328 11.2107 2.90328 11.2589 2.90328 11.3093H3.54764C3.54764 11.0878 3.45975 10.8754 3.30319 10.7189C3.14663 10.5623 2.93427 10.4744 2.71276 10.4744L2.71355 10.4749ZM19.9999 4.55711H7.93208e-05V18.2546C0.00162939 18.717 0.185935 19.16 0.513012 19.487C0.839926 19.814 1.28293 19.9983 1.74534 19.9999H18.2547C18.7171 19.9983 19.1601 19.814 19.4871 19.487C19.8141 19.16 19.9985 18.717 20 18.2546L19.9999 4.55711ZM7.93208e-05 3.91104H19.9999V1.74432V1.74447C19.9982 1.28225 19.8138 0.839358 19.4867 0.512615C19.1598 0.185701 18.7169 0.00154761 18.2547 0H1.74526C1.28289 0.00155007 0.839874 0.185856 0.512932 0.512932C0.185864 0.839846 0.00154761 1.28285 0 1.74526L7.93208e-05 3.91104ZM18.3277 1.76729C18.4936 1.77179 18.6258 1.90773 18.6258 2.07374C18.6258 2.23976 18.4936 2.37555 18.3277 2.38004H12.5147C12.3486 2.37555 12.2164 2.23976 12.2164 2.07374C12.2164 1.90773 12.3486 1.77179 12.5147 1.76729H18.3277ZM12.5147 1.12293H18.3277C18.6641 1.12805 18.9729 1.31049 19.1396 1.60285C19.3064 1.89504 19.3064 2.25372 19.1396 2.54594C18.9729 2.83828 18.6641 3.02073 18.3277 3.02585H12.5147C12.1783 3.02074 11.8695 2.83829 11.7027 2.54594C11.5359 2.25374 11.5359 1.89507 11.7027 1.60285C11.8695 1.3105 12.1783 1.12805 12.5147 1.12293ZM2.50085 1.76729C2.66687 1.77179 2.79909 1.90773 2.79909 2.07374C2.79909 2.23976 2.66687 2.37555 2.50085 2.38004H2.46846C2.30244 2.37555 2.17022 2.23976 2.17022 2.07374C2.17022 1.90773 2.30244 1.77179 2.46846 1.76729H2.50085ZM2.46846 1.12293H2.50085C2.83738 1.12805 3.14601 1.31049 3.31279 1.60285C3.47958 1.89504 3.47958 2.25372 3.31279 2.54594C3.146 2.83828 2.8374 3.02073 2.50085 3.02585H2.46846C2.13193 3.02074 1.8233 2.83829 1.65652 2.54594C1.48973 2.25374 1.48973 1.89507 1.65652 1.60285C1.82331 1.3105 2.13191 1.12805 2.46846 1.12293ZM5.26637 1.76729C5.43238 1.77179 5.56461 1.90773 5.56461 2.07374C5.56461 2.23976 5.43238 2.37555 5.26637 2.38004H5.23397C5.06796 2.37555 4.93574 2.23976 4.93574 2.07374C4.93574 1.90773 5.06796 1.77179 5.23397 1.76729H5.26637ZM5.23397 1.12293H5.26683C5.60336 1.12805 5.91215 1.31049 6.07877 1.60285C6.24556 1.89504 6.24556 2.25372 6.07877 2.54594C5.91214 2.83828 5.60338 3.02073 5.26683 3.02585H5.23444C4.89791 3.02074 4.58928 2.83829 4.4225 2.54594C4.25571 2.25374 4.25571 1.89507 4.4225 1.60285C4.58929 1.3105 4.89789 1.12805 5.23444 1.12293H5.23397ZM8.0322 1.76729C8.19822 1.77179 8.33044 1.90773 8.33044 2.07374C8.33044 2.23976 8.19822 2.37555 8.0322 2.38004H8.00027C7.83426 2.37555 7.70204 2.23976 7.70204 2.07374C7.70204 1.90773 7.83426 1.77179 8.00027 1.76729H8.0322ZM8.00027 1.12309H8.03267C8.36904 1.12836 8.67782 1.31081 8.84461 1.60301C9.0114 1.89535 9.0114 2.25387 8.84461 2.54625C8.67782 2.83845 8.36906 3.02089 8.03267 3.02601H8.00027C7.66375 3.0209 7.35496 2.83845 7.18833 2.54625C7.02155 2.25391 7.02155 1.89539 7.18833 1.60301C7.35497 1.31081 7.66373 1.12837 8.00027 1.12309ZM16.9641 7.04844H9.91732V10.8133H16.9641V7.04844Z" fill="#B3E1F0"/>
</svg>
