<svg width="20" height="20" viewBox="0 0 20 20" fill="none" xmlns="http://www.w3.org/2000/svg">
<path d="M15.3186 10.9219C14.2898 10.9219 13.4541 11.7332 13.4541 12.732C13.4541 13.7308 14.2898 14.5421 15.3186 14.5421H20.0005L20.0003 10.9219L15.3186 10.9219ZM15.632 13.9489C14.9418 13.9489 14.3785 13.4019 14.3785 12.732C14.3785 12.062 14.942 11.5182 15.632 11.5182C16.3222 11.5182 16.8823 12.0622 16.8823 12.732C16.8823 13.402 16.3219 13.9489 15.632 13.9489Z" fill="#B3E1F0"/>
<path d="M12.8205 12.7321C12.8205 14.0688 13.9412 15.1568 15.3181 15.1568H20V18.6571C20 19.3977 19.3796 20 18.6166 20H2.73188C1.22507 20 0 18.8107 0 17.3479V4.25635C0.573056 4.99083 1.47836 5.46707 2.49763 5.46707H10.8072C10.8168 5.46707 10.8231 5.46707 10.8325 5.46399L10.842 5.46707H18.6166C19.3796 5.46707 20 6.06625 20 6.80696V10.3073H15.3181C13.941 10.3073 12.8205 11.3952 12.8205 12.732L12.8205 12.7321Z" fill="#B3E1F0"/>
<path d="M11.1238 0.805161V4.54521C11.1238 4.7143 10.9846 4.85252 10.8072 4.85252H2.49762C1.12065 4.85252 0 3.76459 0 2.4247C0 1.08793 1.12065 0 2.49762 0H10.2976C10.7533 0 11.1238 0.359618 11.1238 0.805161Z" fill="#B3E1F0"/>
</svg>
