<svg width="20" height="20" viewBox="0 0 20 20" fill="none" xmlns="http://www.w3.org/2000/svg">
<path d="M2.31871 1.02298V3.44112V3.44733V3.45354V16.7724H1.31561C0.806266 16.7724 0.346835 16.9676 0 17.287V2.33751C0 1.33916 0.815573 0.530029 1.82188 0.530029C2.09684 0.530029 2.31871 0.750175 2.31871 1.02298Z" fill="#B3E1F0"/>
<path d="M11.778 14.6734C11.7758 14.6779 11.7721 14.6811 11.7696 14.6856C11.7652 14.6935 11.7643 14.7033 11.7593 14.7106C10.7711 16.1718 10.188 17.9485 10.0209 19.9996H11.5153C12.5453 14.2047 17.1728 12.2631 20 11.618V10.0536C18.479 10.2636 15.6672 10.9037 13.4222 12.8442C13.4066 12.8566 13.3909 12.869 13.3753 12.8782C13.3503 12.8907 13.3253 12.9031 13.2972 12.9093C13.2722 12.9185 13.2441 12.9217 13.2161 12.9217H13.2035C13.1817 12.9217 13.163 12.9187 13.1442 12.9125C13.1254 12.9094 13.1066 12.9032 13.0911 12.8938C13.0848 12.8938 13.0786 12.8907 13.0723 12.8876C8.40874 10.5467 8.10788 5.58573 8.21438 3.44739H6.38574C6.44053 5.81168 7.03474 11.9626 11.6411 14.2546C11.6536 14.2609 11.6661 14.2671 11.6754 14.2795C11.6972 14.2949 11.716 14.3105 11.7317 14.3259C11.7348 14.329 11.741 14.3322 11.741 14.3384C11.7566 14.3538 11.766 14.3724 11.7786 14.391C11.8004 14.4345 11.8129 14.484 11.8129 14.5368C11.8129 14.5585 11.8098 14.5803 11.8036 14.6051C11.7972 14.6269 11.7879 14.6486 11.7784 14.6734L11.778 14.6734Z" fill="#B3E1F0"/>
<path d="M19.9997 4.20069V9.42137C18.459 9.61983 15.5781 10.2461 13.1777 12.2394C8.9747 10.0106 8.73401 5.40352 8.84007 3.44727H10.2213C10.3557 5.7446 12.8775 8.97802 13.3993 9.62609C13.5806 9.83999 13.843 9.96397 14.1242 9.96397C14.4024 9.96397 14.668 9.83999 14.8524 9.6167C15.3679 8.97503 17.8929 5.73835 18.0274 3.44732H19.2398C19.6587 3.44732 19.9993 3.7852 19.9993 4.20057L19.9997 4.20069Z" fill="#B3E1F0"/>
<path d="M12.1514 19.9996H19.2409C19.6596 19.9996 20.0003 19.6618 20.0003 19.2462V12.2544C17.3368 12.8954 13.1459 14.7376 12.1515 19.9999L12.1514 19.9996Z" fill="#B3E1F0"/>
<path d="M11.0562 14.6488C6.35888 12.0665 5.78833 5.87041 5.7524 3.44775H2.94365V17.0827C2.94365 17.2531 2.80296 17.3927 2.63115 17.3927H1.31554C0.546806 17.3927 -0.0688567 18.05 0.00620722 18.8281C0.0718167 19.504 0.684293 19.9999 1.37186 19.9999H9.39339C9.55319 17.9515 10.1099 16.1551 11.056 14.6491L11.0562 14.6488Z" fill="#B3E1F0"/>
<path d="M14.1251 0C12.3127 0 10.8408 1.46021 10.8408 3.25828C10.8408 5.46569 13.7565 9.07421 13.8814 9.22925C13.9407 9.30055 14.0283 9.344 14.1251 9.344C14.2187 9.344 14.3063 9.30055 14.3657 9.22925C14.4906 9.07423 17.4095 5.46548 17.4095 3.25828C17.4093 1.46021 15.9344 0 14.1251 0ZM14.1251 4.85176C13.2469 4.85176 12.5345 4.14497 12.5345 3.27379C12.5345 2.40578 13.2469 1.69882 14.1251 1.69882C15 1.69882 15.7126 2.40561 15.7126 3.27379C15.7124 4.14497 15 4.85176 14.1251 4.85176Z" fill="#B3E1F0"/>
</svg>
