<svg width="21" height="17" viewBox="0 0 21 17" fill="none" xmlns="http://www.w3.org/2000/svg">
<path d="M16.4933 0.115926C14.5747 -0.373884 12.6244 0.732289 11.9976 2.60724L7.1361 1.36167C7.12971 1.35842 7.12332 1.35842 7.11693 1.35516C7.11054 1.3519 7.10415 1.3519 7.09775 1.3519L5.71056 0.998379C5.70417 0.995121 5.70097 0.991863 5.69458 0.991863C5.68819 0.991863 5.68499 0.988604 5.6786 0.988604L4.28504 0.631826C4.28185 0.631826 4.27545 0.628568 4.27226 0.628568C4.26906 0.628568 4.26267 0.625309 4.25947 0.628568L3.48006 0.427463C3.3114 0.382028 3.13971 0.489188 3.09514 0.660973C3.05377 0.836193 3.1555 1.01124 3.32737 1.05667L3.8078 1.17994L3.5564 2.20827C3.51183 2.38023 3.61676 2.55527 3.78543 2.60071C3.81082 2.60723 3.83958 2.61048 3.86497 2.61048C4.00488 2.61048 4.13538 2.51328 4.17355 2.36394L4.42496 1.33886L5.22996 1.54323L5.09626 2.08809C5.0549 2.26005 5.15663 2.43836 5.3285 2.48053C5.35389 2.48705 5.37945 2.49031 5.40484 2.49031C5.54794 2.49031 5.67844 2.39292 5.71342 2.24377L5.84711 1.70201L6.6553 1.90638L6.40069 2.9347C6.35613 3.10992 6.46106 3.28496 6.62973 3.32714C6.65512 3.33366 6.68388 3.33692 6.70927 3.33692C6.84918 3.33692 6.97967 3.23971 7.01785 3.09363L7.26925 2.06531L11.8413 3.23631C11.695 4.13489 11.8635 5.04629 12.3281 5.83458C12.8467 6.72008 13.6707 7.34298 14.6508 7.59261C14.9594 7.67371 15.2679 7.70936 15.5735 7.70936C17.2631 7.70936 18.8093 6.54165 19.2388 4.79321C19.3152 4.47861 19.3533 4.16383 19.3533 3.85576C19.3537 2.13053 18.2051 0.557303 16.4934 0.116011L16.4933 0.115926ZM18.0404 4.42894C17.9755 4.6963 17.8119 4.9213 17.5783 5.0643C17.4199 5.16223 17.2408 5.21255 17.059 5.21255C16.9785 5.21255 16.8954 5.20205 16.8123 5.18088C16.5501 5.11209 16.3294 4.94538 16.1892 4.70696C16.0516 4.47146 16.01 4.19343 16.075 3.92605C16.1425 3.65869 16.306 3.43369 16.5398 3.29342C16.7708 3.15042 17.0435 3.10806 17.3058 3.17703C17.568 3.24328 17.7887 3.40999 17.929 3.64821C18.0664 3.88371 18.1079 4.16156 18.0404 4.42894Z" fill="#B3E1F0"/>
<path d="M2.46895 8.27752V15.1511C2.46895 15.4983 2.19216 15.7803 1.85181 15.7803L0.617147 15.7805C0.276789 15.7805 0 15.4983 0 15.1513V8.2777C0 7.93051 0.276793 7.64832 0.617147 7.64832H1.85162C2.19216 7.6485 2.46895 7.9307 2.46895 8.2777V8.27752Z" fill="#B3E1F0"/>
<path d="M20.9927 12.0695C20.9609 12.2447 20.8528 12.3939 20.6968 12.475L13.1881 16.3447C12.3417 16.7826 11.416 17 10.4901 17C9.75823 17 9.02977 16.8637 8.3329 16.5912L3.10547 14.5282V8.77051H6.52573C7.91929 8.77051 9.25231 9.28622 10.2927 10.227H12.6346C12.905 10.227 13.1786 10.2724 13.4236 10.3892C14.5593 10.9438 13.8626 12.2348 13.4236 12.2348H8.0816C7.90654 12.2348 7.76344 12.3807 7.76344 12.5591C7.76344 12.7376 7.90654 12.8835 8.0816 12.8835H13.4236C14.1299 12.8835 14.7184 12.3904 14.8967 11.7286L17.6902 10.7588C18.7816 10.3792 20.0033 10.6842 20.7987 11.534L20.8465 11.5827C20.9674 11.7125 21.0214 11.891 20.9928 12.0695L20.9927 12.0695Z" fill="#B3E1F0"/>
</svg>
