<svg width="20" height="15" viewBox="0 0 20 15" fill="none" xmlns="http://www.w3.org/2000/svg">
<path d="M8.75 14.625C8.75 14.625 7.5 14.625 7.5 13.4375C7.5 12.25 8.75 8.6875 13.75 8.6875C18.75 8.6875 20 12.25 20 13.4375C20 14.625 18.75 14.625 18.75 14.625H8.75ZM13.75 7.5C14.7446 7.5 15.6984 7.12467 16.4017 6.45657C17.1049 5.78847 17.5 4.88233 17.5 3.9375C17.5 2.99267 17.1049 2.08653 16.4017 1.41843C15.6984 0.750334 14.7446 0.375 13.75 0.375C12.7554 0.375 11.8016 0.750334 11.0983 1.41843C10.3951 2.08653 10 2.99267 10 3.9375C10 4.88233 10.3951 5.78847 11.0983 6.45657C11.8016 7.12467 12.7554 7.5 13.75 7.5ZM6.52 14.625C6.33469 14.2543 6.24228 13.8478 6.25 13.4375C6.25 11.8284 7.1 10.1719 8.67 9.02C7.88636 8.79062 7.06994 8.67844 6.25 8.6875C1.25 8.6875 0 12.25 0 13.4375C0 14.625 1.25 14.625 1.25 14.625H6.52ZM5.625 7.5C6.4538 7.5 7.24866 7.18722 7.83471 6.63047C8.42076 6.07372 8.75 5.31861 8.75 4.53125C8.75 3.74389 8.42076 2.98878 7.83471 2.43203C7.24866 1.87528 6.4538 1.5625 5.625 1.5625C4.7962 1.5625 4.00134 1.87528 3.41529 2.43203C2.82924 2.98878 2.5 3.74389 2.5 4.53125C2.5 5.31861 2.82924 6.07372 3.41529 6.63047C4.00134 7.18722 4.7962 7.5 5.625 7.5Z" fill="#B3E1F0"/>
</svg>
