<svg width="19" height="21" viewBox="0 0 19 21" fill="none" xmlns="http://www.w3.org/2000/svg">
<path d="M18.9181 10.2214L9.73329 0.0978989C9.61347 -0.032633 9.3865 -0.032633 9.26669 0.0978989L0.0818725 10.2214C-0.000120134 10.3137 -0.025281 10.4505 0.0282081 10.565C0.0755398 10.6796 0.189027 10.7559 0.315184 10.7559H18.6848C18.811 10.7559 18.9245 10.6796 18.9718 10.565C19.0253 10.4505 19.0001 10.3136 18.9181 10.2214ZM9.49997 8.45378C8.59243 8.45378 7.8566 7.71108 7.8566 6.79507C7.8566 5.87888 8.59243 5.13636 9.49997 5.13636C10.4075 5.13636 11.1433 5.87906 11.1433 6.79507C11.1433 7.71108 10.4075 8.45378 9.49997 8.45378Z" fill="#B3E1F0"/>
<path d="M2.45898 9.48267V20.6818C2.45898 20.8569 2.59763 21.0001 2.77429 21.0001H16.2252C16.4018 21.0001 16.5405 20.8569 16.5405 20.6818L16.5403 9.48267H2.45898ZM8.97948 14.5333C9.15613 14.5333 9.29478 14.6732 9.29478 14.8515C9.29478 15.0266 9.15613 15.1698 8.97948 15.1698H7.60795C7.58596 15.3067 7.57012 15.4466 7.57012 15.5898C7.57012 15.7331 7.58596 15.8732 7.60795 16.01H8.97948C9.15613 16.01 9.29478 16.1531 9.29478 16.3282C9.29478 16.5065 9.15613 16.6465 8.97948 16.6465H7.80659C8.13456 17.3339 8.77133 17.7985 9.49978 17.7985C10.0484 17.7985 10.5528 17.5439 10.9218 17.0793C11.029 16.9424 11.2276 16.9202 11.3664 17.0315C11.5021 17.1397 11.5241 17.3402 11.4138 17.4771C10.9313 18.0882 10.2314 18.435 9.49995 18.435C8.42472 18.435 7.50412 17.6935 7.12566 16.6465H5.86445C5.69096 16.6465 5.54914 16.5065 5.54914 16.3282C5.54914 16.1531 5.69096 16.01 5.86445 16.01H6.97116C6.95533 15.873 6.93967 15.7331 6.93967 15.59C6.93967 15.4468 6.9555 15.3067 6.97116 15.1699H5.86445C5.69096 15.1699 5.54914 15.0268 5.54914 14.8517C5.54914 14.6734 5.69096 14.5334 5.86445 14.5334H7.12566C7.50396 13.4864 8.42454 12.7447 9.49977 12.7447C10.2312 12.7447 10.9313 13.0915 11.4136 13.7026C11.5239 13.8396 11.5019 14.0401 11.3662 14.1482C11.2276 14.2596 11.0319 14.2374 10.9216 14.1004C10.5528 13.6359 10.0484 13.3812 9.49978 13.3812C8.77133 13.3812 8.13455 13.8458 7.80659 14.5333L8.97948 14.5333Z" fill="#B3E1F0"/>
</svg>
