<svg width="20" height="20" viewBox="0 0 20 20" fill="none" xmlns="http://www.w3.org/2000/svg">
<path d="M5.1959 1.0576V1.60627L2.02344 4.69762V1.0576C2.02344 0.887791 2.17084 0.754517 2.35116 0.754517H4.86818C5.05179 0.754517 5.1959 0.88796 5.1959 1.0576Z" fill="#B3E1F0"/>
<path d="M13.7591 6.7644V9.32536C13.5199 9.29205 13.2774 9.27378 13.0316 9.27378C11.7928 9.27378 10.6295 9.71927 9.75766 10.5285C8.00438 12.147 7.9519 14.7626 9.61026 16.4356L2.35116 16.4358C2.17084 16.4358 2.02344 16.2995 2.02344 16.1327V6.76443L13.7591 6.7644Z" fill="#B3E1F0"/>
<path d="M15.6927 7.46495L8.12887 0.0909507C8.00432 -0.0303169 7.77499 -0.0303169 7.65376 0.0909507L0.0898772 7.46495C-0.00192782 7.55289 -0.0247887 7.68313 0.0276987 7.79222C0.0768949 7.90435 0.198143 7.97708 0.32927 7.97708H15.4538C15.5849 7.97708 15.7028 7.90435 15.7553 7.79222C15.8075 7.68313 15.7813 7.5529 15.6927 7.46495ZM7.88963 5.8222C7.08347 5.8222 6.43135 5.21906 6.43135 4.47357C6.43135 3.72807 7.08352 3.12494 7.88963 3.12494C8.69574 3.12494 9.35123 3.72807 9.35123 4.47357C9.35141 5.21911 8.69597 5.8222 7.88963 5.8222Z" fill="#B3E1F0"/>
<path d="M19.6488 18.1028L16.5616 15.2447C17.335 13.8625 17.0958 12.1139 15.8439 10.956C14.2938 9.52248 11.7702 9.52248 10.2202 10.956C8.67009 12.3895 8.67009 14.7203 10.2202 16.1539C10.9707 16.848 11.9702 17.2299 13.032 17.2299C13.6776 17.2299 14.3036 17.0875 14.8607 16.8177L17.9479 19.6759C18.1739 19.8849 18.4788 20.0001 18.7999 20.0001C19.121 20.0001 19.4226 19.8849 19.6487 19.6759C20.1176 19.2424 20.1176 18.5363 19.6489 18.1028L19.6488 18.1028ZM9.79363 14.224C9.55625 13.2327 9.85343 12.1528 10.6856 11.3834C11.98 10.1864 14.0841 10.1864 15.3786 11.3834C16.4863 12.4079 16.6436 13.9779 15.857 15.1598C15.8537 15.1689 15.8471 15.175 15.8438 15.181C15.7127 15.3749 15.5587 15.5568 15.3784 15.7266C15.1981 15.8934 14.9982 16.0358 14.7917 16.154C14.7818 16.157 14.7753 16.1631 14.7689 16.1662C13.4907 16.8936 11.7899 16.7481 10.6855 15.7268C10.2231 15.2989 9.92575 14.7752 9.79373 14.224" fill="#B3E1F0"/>
</svg>
