<svg width="20" height="21" viewBox="0 0 20 21" fill="none" xmlns="http://www.w3.org/2000/svg">
<path d="M10 0.431929C7.34776 0.431929 4.80444 1.48209 2.92899 3.35119C1.05353 5.22028 0 7.75527 0 10.3987C0 13.0421 1.05367 15.577 2.92899 17.4462C4.80431 19.3155 7.34776 20.3655 10 20.3655C12.6522 20.3655 15.1956 19.3153 17.071 17.4462C18.9465 15.5771 20 13.0421 20 10.3987C20 8.64917 19.5379 6.93039 18.6602 5.4153C17.7825 3.90021 16.5201 2.64203 15 1.76726C13.4798 0.892494 11.7553 0.431885 9.99995 0.431885L10 0.431929ZM10.9999 14.8838C10.9999 15.24 10.8093 15.569 10.5 15.7469C10.1906 15.9249 9.80937 15.9249 9.50004 15.7469C9.19068 15.569 9.00008 15.2399 9.00008 14.8838V9.90041C9.00008 9.54428 9.19069 9.21528 9.50004 9.0373C9.8094 8.85915 10.1906 8.85915 10.5 9.0373C10.8093 9.21528 10.9999 9.54432 10.9999 9.90041V14.8838ZM10 7.90705C9.60222 7.90705 9.22067 7.74957 8.93937 7.46923C8.65808 7.18887 8.49991 6.80857 8.49991 6.41194C8.49991 6.01549 8.65808 5.6352 8.93937 5.35484C9.22066 5.07448 9.60223 4.91702 10 4.91702C10.3978 4.91702 10.7793 5.07449 11.0606 5.35484C11.3419 5.63519 11.5001 6.01549 11.5001 6.41194C11.5001 6.80857 11.3419 7.18887 11.0606 7.46923C10.7793 7.74958 10.3978 7.90705 10 7.90705Z" fill="#B3E1F0"/>
</svg>
