<svg width="20" height="21" viewBox="0 0 20 21" fill="none" xmlns="http://www.w3.org/2000/svg">
<path d="M11.6005 13.4353L11.6036 13.4201C11.6097 13.3899 11.6188 13.3567 11.6308 13.3175C11.6459 13.2782 11.6611 13.2389 11.6733 13.2088L11.6885 13.1695L11.7401 13.0909L14.8676 7.69352L14.8674 0.906714C14.8674 0.740524 14.7309 0.604675 14.5644 0.604675H0.303045C0.136301 0.604675 0 0.740524 0 0.906714V20.2372C0 20.4034 0.136301 20.5392 0.303045 20.5392H14.5644C14.7309 20.5392 14.8674 20.4034 14.8674 20.2372L14.8672 16.3259L12.5398 18.111C12.3821 18.2348 12.1882 18.3012 11.9852 18.3012C11.8307 18.3012 11.6761 18.2589 11.5368 18.1804C11.2155 17.9962 11.0398 17.6427 11.0852 17.2773L11.6005 13.4353ZM2.30008 3.73079H12.5673C12.734 3.73079 12.8703 3.86664 12.8703 4.03283C12.8703 4.20205 12.734 4.33487 12.5673 4.33487H2.30008C2.13334 4.33487 1.99704 4.20205 1.99704 4.03283C1.99704 3.86681 2.13334 3.73079 2.30008 3.73079ZM2.30008 6.85991H11.1399C11.3097 6.85991 11.443 6.99273 11.443 7.16195C11.443 7.32814 11.3097 7.46399 11.1399 7.46399H2.30008C2.13334 7.46399 1.99704 7.32814 1.99704 7.16195C1.99704 6.99289 2.13334 6.85991 2.30008 6.85991ZM5.92446 17.6971H2.06063C1.89389 17.6971 1.75759 17.5612 1.75759 17.395C1.75759 17.2288 1.89389 17.093 2.06063 17.093H5.92446C6.09408 17.093 6.22751 17.2288 6.22751 17.395C6.22751 17.5612 6.09425 17.6971 5.92446 17.6971ZM10.2853 13.7163H2.30004C2.13329 13.7163 1.99699 13.5804 1.99699 13.4142C1.99699 13.248 2.13329 13.1122 2.30004 13.1122H10.2853C10.452 13.1122 10.5883 13.248 10.5883 13.4142C10.5883 13.5803 10.452 13.7163 10.2853 13.7163ZM2.30004 10.5902C2.13329 10.5902 1.99699 10.4544 1.99699 10.2882C1.99699 10.122 2.13329 9.98614 2.30004 9.98614H11.1399C11.3097 9.98614 11.4429 10.122 11.4429 10.2882C11.4429 10.4544 11.3097 10.5902 11.1399 10.5902H2.30004Z" fill="#B3E1F0"/>
<path d="M19.0114 8.79936L19.8641 7.32778C20.1429 6.84758 19.9762 6.22836 19.4944 5.9504L18.1065 5.14995C17.8943 5.02641 17.6428 4.99624 17.4064 5.05961C17.1669 5.12299 16.9671 5.27401 16.8427 5.48857L15.9473 7.03449L19.0114 8.79936Z" fill="#B3E1F0"/>
<path d="M12.3896 13.1773L15.6445 7.55804L18.709 9.32139L15.4541 14.9406L12.3896 13.1773Z" fill="#B3E1F0"/>
<path d="M12.171 13.748L11.686 17.3527C11.6708 17.4766 11.7285 17.5944 11.8345 17.6548C11.883 17.6819 11.9344 17.6971 11.986 17.6971C12.0526 17.6971 12.1162 17.676 12.1708 17.6337L15.0636 15.4141L12.171 13.748Z" fill="#B3E1F0"/>
</svg>
